<svg xmlns="http://www.w3.org/2000/svg" width="668.595" height="845.73" viewBox="0 0 668.595 845.73"><defs><style>.a{fill:#ddd5bf;}.b{fill:#a8a392;}.c{fill:#7e7a6e;}.d{fill:#e6e1cf;}.e{fill:#fff;}.f,.i{fill:#333;}.g{fill:#dd9666;}.h{fill:#e0d9c3;}.i{opacity:0.17;}.j{fill:#c1845b;}.k{fill:#a6714d;}.l{fill:#fab95b;}.m{fill:#bb8b44;}.n{fill:#5cada4;}.o{fill:#45827b;}.p{fill:#6266a1;}.q{fill:#4a4d79;}.r{fill:#df613d;}.s{fill:#a7492e;}.t{opacity:0.5;}</style></defs><g transform="translate(0 506.051)"><rect class="a" width="149.891" height="63.825" transform="translate(449.561 187.289)"/><rect class="b" width="196.196" height="63.825" transform="translate(0 190.19)"/><path class="c" d="M872.691,576.858H725.817L676.5,596.951h196.2Z" transform="translate(-676.495 -406.761)"/><rect class="b" width="69.627" height="57.048" transform="translate(598.968 186.813)"/><rect class="d" width="196.309" height="58.357" transform="translate(449.561 129.266)"/><rect class="b" width="196.309" height="60.286" transform="translate(449.561 15.786)"/><path class="c" d="M978.443,518.227H831.456v15.786h196.309Z" transform="translate(-381.895 -518.227)"/><rect class="a" width="175.023" height="53.325" transform="translate(449.561 75.941)"/></g><g transform="translate(384.285 150.889)"><path class="e" d="M871.313,513.8a5.885,5.885,0,0,0-2.718,4.532c-.183,3.084-1.451,8.161-1.451,10.517s.543,11.062,17.77,9.974,13.055-9.791,13.055-11.787-2.538-8.158-3.626-9.971-3.084-3.989-5.26-3.627S871.313,513.8,871.313,513.8Z" transform="translate(-698.333 -172.25)"/><path class="e" d="M836.949,520.749a7.1,7.1,0,0,0-3.263,1.813c-1.451,1.451-2,5.985-.545,6.71a33.132,33.132,0,0,0,21.758,3.989c11.787-2,11.425-2,15.231-1.633S883,532.173,885,529.815s1.271-11.422.363-13.055-.542-2.539-2.718-2.539S836.949,520.749,836.949,520.749Z" transform="translate(-764.601 -170.68)"/><path class="f" d="M844.684,446.515s-4.833,15.472-3.383,25.626,76.88,13.055,76.88,13.055,5.318-2.417,3.383-14.021-8.7-18.857-15.956-24.175-8.7-13.055-14.505-22.243-19.824-36.264-44.483-27.076Z" transform="translate(-747.981 -395.805)"/><path class="g" d="M843.4,507.873s2.176,13.78,0,16.319,8.341,4.714,8.341,4.714l5.44-6.528s-1.451-11.967-1.451-14.143S843.4,507.873,843.4,507.873Z" transform="translate(-744.037 -184.095)"/><path class="f" d="M860.793,511.738s-7.432,4.352-12.692,6.89-9.609,4.9-12.51,5.077-2.176,3.447-2,4.352,5.077,3.809,12.513,2.721,8.7-1.813,10.516-3.989,2.718-3.809,3.264-1.813.543,3.806,3.081,3.989,10.516,1.088,13.417-1.088a14.305,14.305,0,0,0,3.809-3.809s.905-13.235-5.077-12.33c0,0-.545,4.172-6.165,4.534s-5.44-3.989-6.165-4.534S861.7,511.2,860.793,511.738Z" transform="translate(-762.518 -176.175)"/><path class="g" d="M869.081,509.919s2.176,9.791,1.633,11.6,10.7,1.451,10.7,1.451-1.268-13.235-1.813-14.686S869.081,509.919,869.081,509.919Z" transform="translate(-694.651 -182.697)"/><path class="f" d="M876.969,512.363s-5.8-.363-7.07,1.088-1.088,7.978-.908,10.517-2.356,5.622,0,8.161,6.71,4.169,8.886,3.264,3.081-3.446,6.345-2.358,2.9,2.539,5.622,1.633,4.894-4.172,3.989-8.523-4.9-9.066-5.8-11.242S885.673,510.732,876.969,512.363Z" transform="translate(-696.737 -175.35)"/><path class="f" d="M855.123,455.474s-17.044,40.978-17.769,72.165,10.154,83.407,10.516,86.308,10.879,7.978,23.572,3.264c0,0,7.978-27.2,8.341-42.792s-3.989-32.275-1.813-39.165,7.253-33,8.7-31.912S896.1,546.5,898.64,554.474s15.594,60.2,21.4,64.913,9.429,3.626,9.429,3.626l11.242-3.264s5.077,1.088,7.253-11.967.363-33.363-3.264-43.879S932.366,528.364,932,521.112s-5.077-39.89-7.978-51.858S911.7,450.4,911.7,450.4l-30.824-.363Z" transform="translate(-755.034 -292.708)"/><path class="h" d="M920.649,419.284s-9.429,6.287-14.021,7.978-38.924,8.463-66,25.869S809.2,471.989,809.2,473.921s-.241,14.99-.241,14.99,29.011,2.417,41.341-.241,46.177-14.99,46.177-14.99-1.935,30.7,1.692,38.681,21.758,14.024,37.715,12.573,29.736-4.6,34.573-13.78,3.383-16.681,3.142-20.067-23.934-70.837-23.934-70.837-5.561-3.867-14.99-3.626Z" transform="translate(-808.956 -356.245)"/><path class="i" d="M916.581,472.3c.241,3.386,1.692,10.879-3.142,20.067s-18.616,12.33-34.573,13.78-34.088-4.6-37.715-12.573-1.691-38.681-1.691-38.681l10.032-22.484a22.9,22.9,0,0,0,5.077-4.714c1.813-2.539,5.44-.363,7.978.363s1.088,11.967,12.33,14.506,19.22-7.615,19.945-11.242S916.581,472.3,916.581,472.3Z" transform="translate(-751.943 -337.456)"/><path class="j" d="M846.456,418.94s3.142,12.57,3.142,15.472c0,0,9.913,2.66,16.2-4.111,0,0-7.5-16.2-7.737-17.648S846.456,418.94,846.456,418.94Z" transform="translate(-737.664 -364.119)"/><path class="h" d="M876.289,449.273s3.867,7.494-2.176,13.537-19.823,10.638-22.968,13.78-4.352,12.574-1.932,19.342,15.713,12.571,32.878,8.7,33.6-22.484,36.264-29.977-3.142-29.011-13.055-38.44-5.561-16.441-33.363-19.1c0,0-2.176,13.54-1.691,17.407S876.289,449.273,876.289,449.273Z" transform="translate(-734.859 -355.287)"/><path class="g" d="M839.456,421.851s2.417,6.771,2.66,10.4,3.867,8.46,7.978,10.395,7.253,3.386,9.91,3.142,9.188-2.176,10.639-3.626,7.253-8.7,5.561-17.888c0,0,6.951-2.962,6.226-7.557s-2.66-4.653-5.077-4.169-3.568,3.264-3.568,3.264l-7.978-12.33L853,399.367l-7.978,2.66Z" transform="translate(-750.972 -389.032)"/><path class="f" d="M855.566,396.571s-8.219-1.935-13.055,6.768-7.737,14.265-5.318,18.373,4.592,8.463,8.7,7.253,8.944-8.7,9.428-15.956c0,0,9.91,8.947,17.163,9.429s7.253-.966,8.462-1.691,4.352-7.253,4.352-7.253-9.913-14.265-10.638-14.265S855.566,396.571,855.566,396.571Z" transform="translate(-756.928 -394.696)"/><path class="k" d="M843.706,407.957l1.451,10.154s2.176,2.358,5.077-.905l-4.169-9.974A1.419,1.419,0,0,0,843.706,407.957Z" transform="translate(-742.892 -374.836)"/></g><g transform="translate(117.314 158.202)"><rect class="l" width="277.541" height="77.019" transform="translate(71.146 578.998)"/><path class="m" d="M989.984,590.633H770.469l-29.013,21.09H1019Z" transform="translate(-670.311 -32.725)"/><rect class="n" width="277.541" height="77.019" transform="translate(71.146 425.229)"/><path class="o" d="M989.984,539.451H770.469l-29.013,15.807H1019Z" transform="translate(-670.311 -130.029)"/><rect class="p" width="277.541" height="70.635" transform="translate(71.146 285.53)"/><path class="q" d="M989.984,491.761H770.469l-29.013,14.461H1019Z" transform="translate(-670.311 -220.692)"/><rect class="r" width="277.541" height="70.462" transform="translate(71.146 150.822)"/><path class="s" d="M989.984,445.328H770.469l-29.013,14.461H1019Z" transform="translate(-670.311 -308.967)"/><rect class="l" width="277.541" height="71.507" transform="translate(68.244 14.461)"/><path class="m" d="M988.984,398.325H769.469l-29.013,14.461H1018Z" transform="translate(-672.212 -398.325)"/><rect class="p" width="102.873" height="77.019" transform="translate(65.343 501.979)"/><path class="q" d="M774.916,648.374l21.708-21.09V571.354H774.916Z" transform="translate(-606.7 -69.376)"/><rect class="r" width="102.873" height="77.019" transform="translate(354.489 578.998) rotate(180)"/><path class="s" d="M817.888,648.374l-21.707-21.09V571.354h21.707Z" transform="translate(-566.273 -69.376)"/><rect class="r" width="86.979" height="69.237" transform="translate(0 355.992)"/><path class="s" d="M746.914,590.271l21.707-15.781V521.034H746.914Z" transform="translate(-659.934 -165.042)"/><rect class="l" width="102.873" height="69.237" transform="translate(354.489 425.229) rotate(180)"/><path class="m" d="M817.888,590.271,796.181,574.49V521.034h21.707Z" transform="translate(-566.273 -165.042)"/><rect class="l" width="102.873" height="65.117" transform="translate(65.343 220.848)"/><path class="m" d="M774.916,539.568l21.708-15.447v-49.67H774.916Z" transform="translate(-606.7 -253.602)"/><rect class="n" width="102.873" height="65.117" transform="translate(354.489 285.966) rotate(180)"/><path class="o" d="M817.888,539.568l-21.707-15.447v-49.67h21.707Z" transform="translate(-566.273 -253.602)"/><rect class="n" width="102.873" height="65.118" transform="translate(65.343 85.705)"/><path class="o" d="M774.916,492.985l21.708-15.447v-49.67H774.916Z" transform="translate(-606.7 -342.163)"/><rect class="p" width="102.873" height="65.118" transform="translate(374.798 150.822) rotate(180)"/><path class="q" d="M824.888,492.985l-21.707-15.447v-49.67h21.707Z" transform="translate(-552.964 -342.163)"/><path class="g" d="M808.633,433.826s-7.714,1.651-7.99,9.916,1.378,9.919,4.407,11.848S816.9,458.344,818,457.8s5.509-9.092,3.3-12.951-7.99-5.234-7.99-5.234,4.685-.827,4.41-3.307-.827-3.3-2.481-3.029A63.89,63.89,0,0,1,808.633,433.826Z" transform="translate(-557.845 -331.977)"/><path class="g" d="M874.7,445.625h-9.188c-2.66,0-9.67-6.527-11.364-6.768s-4.352-.725-3.142,1.207,6.287,6.287,6.287,6.287-7.5-.241-10.638-.725-7.253-2.176-8.7-.725-4.111,5.318-1.691,7.737,14.021,7.253,19.824,7.494,19.583-4.352,20.548-6.768S876.879,445.384,874.7,445.625Z" transform="translate(-491.928 -321.721)"/></g><g transform="translate(189.787)"><path class="h" d="M766,366.217s2.9,0-5.44,12.33,2.176,44.6,2.176,44.6l66.726-.725L819.894,386.2l-5.66-21.431s-12.692-1.813-20.67-1.451S766,366.217,766,366.217Z" transform="translate(-712.573 -306.772)"/><path class="i" d="M819.894,376.184l9.571,36.229-66.726.725s-10.517-32.275-2.176-44.6c0,0,0,21.4,8.7,25.385s23.572,3.626,35.176.725S819.894,376.184,819.894,376.184Z" transform="translate(-712.573 -296.76)"/><path class="j" d="M763.961,365.124l.2,6.873s7.076,8.286,22.637-1.213l-1.416-9.5Z" transform="translate(-700 -310.539)"/><path class="g" d="M761.941,353l1.01,20.614,7.074,9.5,19-1.415,5.255-8.084.606-12.328-1.819-12.126H769.419Z" transform="translate(-703.841 -333.585)"/><path class="f" d="M801.7,360.989c0-5.051-2.019-10.308-6.466-13.339a17.669,17.669,0,0,0-10.508-3.232c-2.225,0-8.692-2.022-14.755,1.213s-10.1,10.508-9.9,13.946,2.222,3.032,2.222,3.032,1.01,15.155.809,19.806-2.628,20.816,16.774,20.816S801.7,390.9,802.1,382.211,801.7,366.043,801.7,360.989Zm-5.86,21.222c-.807,3.435-4.647,7.073-14.955,7.882s-11.72-4.851-12.933-6.467-1.013-18.393-1.013-18.393l-.2-2.829s3.029,5.457,14.549,4.648S794.22,361.4,794.22,361.4s2.425,9.9,2.425,11.721A41.247,41.247,0,0,1,795.836,382.211Z" transform="translate(-707.421 -343.794)"/><path class="g" d="M768.339,356.521s-3.638-6.063-7.276-5.054a4.578,4.578,0,0,0-1.616,7.882c2.626,2.222,9.1,2.628,9.1,2.628Z" transform="translate(-711.653 -329.421)"/><path class="g" d="M774.123,355.246l-.2,7.073s10.1-3.032,9.5-8.085S777.155,351,774.123,355.246Z" transform="translate(-681.061 -329.762)"/><path class="k" d="M766.741,355.513l-.2,8.489s2.022,2.628,4.044,0l-1.012-8.692S767.751,353.694,766.741,355.513Z" transform="translate(-695.1 -323.159)"/><path class="h" d="M796.07,364.284s-30.1,1.813-38.44,30.824-8.7,34.451-13.055,39.165-3.989,16.319,5.8,18.857,15.594-7.615,15.594-7.615L787,403.812S796.07,370.449,796.07,364.284Z" transform="translate(-741.914 -304.84)"/><rect class="r" width="102.873" height="65.118" transform="translate(24.784 107.545)"/><path class="s" d="M785.917,445.982l21.708-15.448v-49.67H785.917Z" transform="translate(-658.26 -273.319)"/><path class="g" d="M747.863,395.41s-5.44,6.165-.362,15.956,27.2,2.176,28.649-.363,3.989-8.341,1.088-10.517-9.066-2.176-12.33-2.539,4.97-3.461,6.89-4.714c2.086-1.361,2.176-4.352-1.45-3.626S756.929,390.7,747.863,395.41Z" transform="translate(-735.411 -256.91)"/><path class="h" d="M776.123,363.641s25.625-2.417,53.186,31.912-16.922,61.408-22.243,63.343-13.055,2.9-14.506,1.451c0,0-1.932-11.6-9.185-10.638,0,0,1.932-17.648,10.395-27.923s-4.111-20.43-9.429-24.781S776.123,363.641,776.123,363.641Z" transform="translate(-676.878 -306.132)"/><path class="g" d="M798.217,393.485s-1.088,3.989-3.626,3.989-12.33-1.451-14.506-.363-3.264,3.264-1.088,3.626,10.154,1.088,10.154,1.088-7.616,3.626-12.693,4.714-7.253,1.813-7.253,7.253,2.9,7.253,13.055,7.978,19.583-4.714,21.4-7.978a20.139,20.139,0,0,0,2.054-7.494l2.66-8.825-5.8-5.44Z" transform="translate(-690.028 -252.083)"/></g><g transform="translate(34.718 439.088)"><path class="e" d="M694.972,623.784s-3.989,4.714-6.165,7.615,6.528,8.7,9.791,9.429a17.863,17.863,0,0,0,5.8.363,6.391,6.391,0,0,0,2.9,5.077c2.9,1.813,26.473,11.967,31.187,10.879s3.627-9.429,3.627-9.429l-15.594-9.429-12.33-9.791Z" transform="translate(-688.462 -250.587)"/><path class="e" d="M714.489,630.435s-3.989,3.626-4.352,6.165-1.451,5.8,1.813,7.615,11.967,3.264,15.593,1.451,3.264-5.8,5.44-3.626.725,4.714,4.352,4.714,25.747,2.539,30.462-1.088,3.626-9.429,2.176-10.879-27.2-2.538-27.2-2.538l-14.506-4.714Z" transform="translate(-648.144 -243.457)"/><path class="g" d="M740.944,545.453s3.264,1.813,5.44-4.714,4.714-12.33,7.253-12.33,0,11.6,0,11.6,4.714,1.088,6.165-.363,3.627-5.44,5.8-5.077,5.077,5.8,2.9,14.506-8.341,9.066-12.693,10.154-15.231,0-15.231,0Z" transform="translate(-589.378 -431.906)"/><path class="g" d="M729.54,514.538s6.768-4.593,5.318-9.669-4.352-2.9-5.559-1.451a18.31,18.31,0,0,0-2.176,3.626Z" transform="translate(-614.963 -482.707)"/><path class="f" d="M723.444,536.857s-9.188-1.935-10.154-8.219-.969-23.209.966-26.595a11.4,11.4,0,0,1,4.593-4.593l16.2,36.264Z" transform="translate(-642.471 -490.761)"/><path class="g" d="M699.177,617.117s-3.87,13.539-5.321,14.024,13.055,6.284,13.055,6.284,3.87-13.537,5.321-16.922S699.177,617.117,699.177,617.117Z" transform="translate(-678.402 -263.261)"/><path class="f" d="M702.632,619.784s-8.219,2.417-9.669,6.768-4.352,7.253-2.417,10.154,5.318,5.321,8.7,5.321,4.833-5.8,7.253-1.451-.969,5.8,2.9,8.219,15.472,7.253,22.24,7.737,8.7,1.451,9.672,0,.482-5.8-2.419-6.771-12.571-7.253-15.472-14.021a43.509,43.509,0,0,0-6.287-10.639,6,6,0,0,1-6.768,1.935C706.017,625.586,702.632,619.784,702.632,619.784Z" transform="translate(-685.727 -258.191)"/><path class="g" d="M712.456,621.285s1.088,12.693.725,13.781,8.341,3.264,12.33-.363l-2.539-17.044Z" transform="translate(-642.847 -262.231)"/><path class="f" d="M714.075,623.847s-2.9,6.528-3.264,12.33a84.357,84.357,0,0,0,0,10.517s11.6,2.9,15.231,1.088,2.9-3.989,4.714-3.989.362,3.264,3.989,3.989,20.67,1.813,28.286,1.451,4.714-10.154,1.813-10.154-10.154,1.088-17.407-3.626-13.418-12.33-19.22-13.418c0,0-5.44,3.989-11.6,1.088Z" transform="translate(-646.279 -253.914)"/><path class="f" d="M701.025,547.117s-9.669,18.376-7.734,40.134,22.24,64.791,23.209,67.692-4.836,9.669-5.8,13.54-1.935,35.3-6.287,50.285-7.253,30.946-5.8,33.363c0,0,6.287,5.8,14.505,5.8,0,0,6.287-.966,12.571-10.154,0,0,9.188-13.055,11.6-21.274l8.7,32.878S759.048,760.834,766.3,756c0,0-1.932-46.9.969-71.559s1.451-30.462,1.451-44-13.539-74.945-16.925-82.682S701.025,547.117,701.025,547.117Z" transform="translate(-679.769 -396.34)"/><path class="t" d="M717.961,559.14s11.6,81.713,7.734,96.219S708.289,707.1,708.289,707.1l6.287,23.209s9.188-22.727,13.54-34.813,6.768-47.387,4.833-63.343-11.12-70.593-12.086-73.01S717.477,556.721,717.961,559.14Z" transform="translate(-650.769 -376.932)"/><path class="j" d="M714.206,525.966s5.077-11.967,5.077-16.681l14.505,12.692s-5.44,8.7-6.165,10.517S714.206,525.966,714.206,525.966Z" transform="translate(-639.52 -468.265)"/><path class="g" d="M722.473,521.96s.485,9.185,6.046,14.746,10.26,10.048,13.886,10.048,7.494.241,11.6-3.145,5.123-10.728,4.638-14.836.089-8.749-.151-11.41l-2.417-12.33L737.7,500.2l-9.91.241-2.176,12.571s-8.222-8.46-12.814-2.417S722.473,521.96,722.473,521.96Z" transform="translate(-643.919 -485.533)"/><path class="f" d="M721.567,518.757s2.9,8.7,2.9,10.638-.725,3.142,2.176,2.9,3.383-3.145,3.142-6.771,0-11.6,0-11.6,8.944,8.7,12.57,8.7,3.87-4.108,3.87-4.108,1.207,4.108,5.318,2.9,6.768-2.9,3.626-10.4-6.043-14.746-15.715-15.712-22.484,2.417-25.625,9.669S721.567,518.757,721.567,518.757Z" transform="translate(-641.319 -495.145)"/><path class="h" d="M757.258,514.775s-16.682-3.626-26.595,5.077-18.132,38.44-21.033,44-11.12,26.11-14.747,30.7-2.66,10.638,2.417,14.99,27.8,15.956,45.693,13.537,19.931-18.187,20-19.49.067-11.454.067-11.454,7.978,7.494,27.8,5.077,40.859-3.145,42.792-11.364,2.419-14.99-3.142-16.922S790.38,553.7,783.127,552.49a23.534,23.534,0,0,0-12.574,1.21s5.321-2.42,5.8-3.386-2.176,0-1.207-2.176,1.451-7.494.725-14.506-7.253-12.814-10.879-14.747S757.983,514.534,757.258,514.775Z" transform="translate(-680.396 -459.25)"/><path class="i" d="M712.306,523.034a46.372,46.372,0,0,0,3.145,30.462c7.494,15.715,23.45,21.518,23.45,21.518s1.21,15.472-3.386,20.79c0,0-3.142-2.176-7.978-8.7s-20.789-17.407-22-31.428S712.306,523.034,712.306,523.034Z" transform="translate(-656.236 -442.125)"/></g></svg>