<svg xmlns="http://www.w3.org/2000/svg" xmlns:xlink="http://www.w3.org/1999/xlink" width="1006.98" height="595.768" viewBox="0 0 1006.98 595.768"><defs><style>.a{fill:none;}.b,.t,.u{fill:#e68770;}.c{fill:#e0eaf7;}.d{fill:#7db5ff;}.e,.j,.l{fill:#fff;}.e{opacity:0.8;}.f{fill:#2e2122;}.g{fill:#ffa18a;}.h{fill:#ffc668;}.ag,.i,.l,.t,.z{opacity:0.5;}.k{opacity:0.49;}.m{clip-path:url(#a);}.n{fill:#cdcccc;}.o{fill:#d25f53;}.ag,.p,.q{fill:#ff7a5a;}.p{opacity:0.4;}.r{clip-path:url(#b);}.s{clip-path:url(#c);}.aa,.t,.u,.z{mix-blend-mode:multiply;isolation:isolate;}.u{opacity:0.3;}.v{clip-path:url(#d);}.w{fill:#bb4753;}.x{fill:#a9514d;}.aa,.y,.z{fill:#9e695c;}.aa{opacity:0.2;}.ab{clip-path:url(#e);}.ac{opacity:0.46;}.ad{clip-path:url(#f);}.ae{clip-path:url(#g);}.af{clip-path:url(#h);}.ah{clip-path:url(#i);}.ai{fill:#f4a289;}</style><clipPath id="a"><path class="a" d="M273.31,598.661a87.456,87.456,0,0,1,27.253,2.441c13.745,3.516,33.751-6.63,33.751-6.63-5.148-14.313-6.587-92.685-22.147-115.45l-13.3,1.842-13.3-1.891c-3.9,9.029-8.716,28.93-5.822,50.593C285.561,573.142,273.31,598.661,273.31,598.661Z" transform="translate(-273.31 -478.973)"/></clipPath><clipPath id="b"><path class="a" d="M508.333,728.78c-.07,14.577-1.825,35.863-3.611,56.522-3.01,34.807-7.982,52.461-8.51,78.613a15.615,15.615,0,0,0,1.186,3c4.332,5.663,16.645,6.694,21.247,10.062,2.12,1.551,3.44,4.7-.029,7.512-2.5,2.026-19.232,2.047-28.138,1.462a6.976,6.976,0,0,1-6.615-6.028c-.368-3.47-1.338-10.923-1.338-10.923-.518-4.232-.312-51.191.77-81.876.688-19.5-.965-44.955-1.288-56.456Z" transform="translate(-482.007 -728.78)"/></clipPath><clipPath id="c"><path class="b" d="M454.969,728.78c-.069,14.577-1.824,35.863-3.611,56.522-3.01,34.807-7.982,52.461-8.51,78.613a15.613,15.613,0,0,0,1.186,3c4.332,5.663,16.645,6.694,21.247,10.062,2.12,1.551,3.44,4.7-.029,7.512-2.5,2.026-19.232,2.047-28.138,1.462a6.976,6.976,0,0,1-6.615-6.028c-.368-3.47-1.338-10.923-1.338-10.923-.518-4.232-.312-51.191.77-81.876.688-19.5-.965-44.955-1.288-56.456Z" transform="translate(-428.644 -728.78)"/></clipPath><clipPath id="d"><path class="a" d="M485.116,445.421a4.368,4.368,0,0,0,3.928-2.272c.09-.138.08-.311-.065-.324,0,0-2.306-.145-3.787-.293-1.546-.155-3.807-.594-3.807-.594-.142-.013-.23.145-.128.4A4.951,4.951,0,0,0,485.116,445.421Z" transform="translate(-481.213 -441.937)"/></clipPath><clipPath id="e"><path class="a" d="M836.194,425.819A4.365,4.365,0,0,1,832,424.081c-.107-.125-.121-.3.022-.33,0,0,2.268-.444,3.716-.786,1.513-.356,3.7-1.087,3.7-1.087.14-.031.247.113.178.379A4.948,4.948,0,0,1,836.194,425.819Z" transform="translate(-831.92 -421.874)"/></clipPath><clipPath id="f"><path class="a" d="M1014.191,452.1a4.395,4.395,0,0,1-4.217-1.749c-.107-.126-.121-.3.022-.332,0,0,2.281-.448,3.738-.79,1.521-.359,3.719-1.094,3.719-1.094.14-.031.248.114.179.381A4.978,4.978,0,0,1,1014.191,452.1Z" transform="translate(-1009.892 -448.129)"/></clipPath><clipPath id="g"><path class="a" d="M1592.881,891.906c-2.867-2.764-8.9-8.866-8.9-8.866-3.664-4-9.625-10.774-16.525-18.58L1553.875,875.2c5.658,5.222,15.109,14.692,16.854,17.38,4.977,7.671-4.677,21.352-4.894,28.583-.09,3,1.823,6.4,6.785,5.243,3.579-.832,15.331-15.883,21.05-24.314A7.962,7.962,0,0,0,1592.881,891.906Z" transform="translate(-1553.875 -864.46)"/></clipPath><clipPath id="h"><path class="a" d="M1500.327,839.687c-3.021-2.595-9.4-8.337-9.4-8.337-3.889-3.778-10.232-10.2-17.572-17.593l-12.939,11.507c5.95,4.885,15.933,13.794,17.83,16.376,5.413,7.37-3.434,21.588-3.232,28.818.084,3,2.19,6.279,7.076,4.841,3.524-1.037,14.387-16.744,19.608-25.491A7.962,7.962,0,0,0,1500.327,839.687Z" transform="translate(-1460.421 -813.757)"/></clipPath><clipPath id="i"><path class="a" d="M1523.055,440.254a3.868,3.868,0,0,1-3.038-2.635c-.055-.135-.018-.284.111-.271,0,0,2.031.261,3.344.379,1.371.124,3.413.121,3.413.121.126.013.176.165.044.369A4.387,4.387,0,0,1,1523.055,440.254Z" transform="translate(-1519.993 -437.347)"/></clipPath></defs><g transform="translate(-168.135 -91.598)"><g transform="translate(265.721 195.422)"><path class="c" d="M1078.086,413.62h0c0-33.315-25.445-60.322-56.833-60.322H890.677c-31.389,0-56.833-27.007-56.833-60.322h0c0-33.315-25.445-60.322-56.833-60.322H567.585c-31.388,0-56.833,27.007-56.833,60.322h0c0,33.315-25.445,60.322-56.833,60.322h-5.171c-31.388,0-56.833,27.007-56.833,60.322h0c0,33.316,25.445,60.322,56.833,60.322h9.883c31.375,0,56.809,27,56.809,60.3h0c0,33.3-25.434,60.3-56.809,60.3H373.863c-31.388,0-56.833,27.007-56.833,60.322h0c0,33.315,25.445,60.322,56.833,60.322l675.339.644c31.575.03,57.188-27.13,57.188-60.644h0c0-33.492-25.581-60.644-57.137-60.644H995.54c-31.375,0-56.81-27-56.81-60.3h0c0-33.3,25.434-60.3,56.81-60.3h25.712C1052.64,473.942,1078.086,446.935,1078.086,413.62Z" transform="translate(-317.03 -232.653)"/></g><g transform="translate(415.272 137.714)"><path class="d" d="M630.6,201.02H586.661L564.98,213.7c-2.032,1.189-4.683-.431-4.07-2.486l5.976-10.2-10.866.011c-5.969,0-10.809-4.187-10.809-9.353V153.956c0-5.166,4.839-9.353,10.809-9.353H630.6c5.969,0,10.809,4.187,10.809,9.353v37.711C641.409,196.833,636.57,201.02,630.6,201.02Z" transform="translate(-545.211 -144.603)"/><path class="e" d="M635.623,194.989h-66.3a.982.982,0,0,1-.982-.982h0a.983.983,0,0,1,.982-.983h66.3a.983.983,0,0,1,.983.983h0A.982.982,0,0,1,635.623,194.989Z" transform="translate(-553.181 -161.288)"/><path class="e" d="M578.484,164.429l-3.4-.268a.356.356,0,0,1-.3-.208l-1.39-3.112a.289.289,0,0,0-.53.007L571.565,164a.355.355,0,0,1-.29.216l-3.389.361a.288.288,0,0,0-.157.506l2.591,2.215a.356.356,0,0,1,.117.342l-.7,3.335a.289.289,0,0,0,.433.306l2.906-1.78a.354.354,0,0,1,.362,0l2.954,1.7a.289.289,0,0,0,.425-.317l-.794-3.314a.353.353,0,0,1,.107-.345l2.529-2.284A.289.289,0,0,0,578.484,164.429Z" transform="translate(-552.936 -150.14)"/><path class="e" d="M604.682,164.429l-3.4-.268a.354.354,0,0,1-.295-.208l-1.391-3.112a.289.289,0,0,0-.53.007L597.763,164a.354.354,0,0,1-.289.216l-3.389.361a.288.288,0,0,0-.157.506l2.591,2.215a.353.353,0,0,1,.117.342l-.7,3.335a.289.289,0,0,0,.433.306l2.907-1.78a.353.353,0,0,1,.361,0l2.954,1.7a.289.289,0,0,0,.425-.317l-.794-3.314a.354.354,0,0,1,.107-.345l2.53-2.284A.289.289,0,0,0,604.682,164.429Z" transform="translate(-561.964 -150.14)"/><path class="e" d="M631.639,164.429l-3.4-.268a.355.355,0,0,1-.295-.208l-1.391-3.112a.289.289,0,0,0-.53.007L624.72,164a.354.354,0,0,1-.289.216l-3.389.361a.288.288,0,0,0-.157.506l2.591,2.215a.354.354,0,0,1,.116.342l-.7,3.335a.289.289,0,0,0,.433.306l2.907-1.78a.353.353,0,0,1,.361,0l2.954,1.7a.288.288,0,0,0,.425-.317l-.794-3.314a.356.356,0,0,1,.107-.345l2.53-2.284A.289.289,0,0,0,631.639,164.429Z" transform="translate(-571.253 -150.14)"/><path class="e" d="M659.121,164.429l-3.4-.268a.355.355,0,0,1-.295-.208l-1.391-3.112a.289.289,0,0,0-.53.007L652.2,164a.354.354,0,0,1-.289.216l-3.389.361a.288.288,0,0,0-.157.506l2.592,2.215a.354.354,0,0,1,.116.342l-.7,3.335a.289.289,0,0,0,.433.306l2.907-1.78a.353.353,0,0,1,.361,0l2.954,1.7a.288.288,0,0,0,.425-.317l-.794-3.314a.356.356,0,0,1,.107-.345l2.53-2.284A.289.289,0,0,0,659.121,164.429Z" transform="translate(-580.723 -150.14)"/><path class="e" d="M611.657,208.253H569.323a.982.982,0,0,1-.982-.982h0a.983.983,0,0,1,.982-.983h42.333a.982.982,0,0,1,.982.983h0A.982.982,0,0,1,611.657,208.253Z" transform="translate(-553.181 -165.859)"/></g><g transform="translate(346.117 183.992)"><path class="f" d="M513.594,221.456h0a.82.82,0,0,0,1.152-.144l3.715-4.775a.821.821,0,0,0-.144-1.152h0a.821.821,0,0,0-1.152.144L513.45,220.3A.821.821,0,0,0,513.594,221.456Z" transform="translate(-465.051 -215.213)"/><path class="f" d="M494.381,241.234h0a.821.821,0,0,0,1.154.124l4.71-3.8a.82.82,0,0,0,.124-1.154h0a.82.82,0,0,0-1.154-.124l-4.71,3.8A.82.82,0,0,0,494.381,241.234Z" transform="translate(-458.477 -222.411)"/><path class="f" d="M467.34,251.9h0a.82.82,0,0,0,.9.732l6.019-.617a.821.821,0,0,0,.733-.9h0a.82.82,0,0,0-.9-.733l-6.019.617A.82.82,0,0,0,467.34,251.9Z" transform="translate(-449.22 -227.332)"/><path class="f" d="M439.724,246.025h0a.82.82,0,0,0,.577,1.007l5.839,1.583a.82.82,0,0,0,1.007-.577h0a.82.82,0,0,0-.577-1.007l-5.839-1.583A.82.82,0,0,0,439.724,246.025Z" transform="translate(-439.695 -225.622)"/></g><g transform="translate(524.757 142.645)"><path class="f" d="M845.108,163.708h0a.821.821,0,0,1,1.143-.2l4.954,3.472a.821.821,0,0,1,.2,1.142h0a.82.82,0,0,1-1.143.2l-4.954-3.472A.82.82,0,0,1,845.108,163.708Z" transform="translate(-757.987 -155.997)"/><path class="f" d="M719.843,178.323h0a.821.821,0,0,0-.664-.952l-5.956-1.064a.821.821,0,0,0-.952.663h0a.82.82,0,0,0,.663.952l5.956,1.064A.82.82,0,0,0,719.843,178.323Z" transform="translate(-712.259 -160.455)"/><path class="f" d="M748.823,175.186h0a.821.821,0,0,0-1-.6l-5.868,1.474a.821.821,0,0,0-.6,1h0a.821.821,0,0,0,1,.6l5.868-1.474A.82.82,0,0,0,748.823,175.186Z" transform="translate(-722.28 -159.859)"/><path class="f" d="M774.174,161.789h0a.821.821,0,0,0-1.083-.418l-5.532,2.449a.82.82,0,0,0-.418,1.083h0a.82.82,0,0,0,1.082.418l5.532-2.449A.821.821,0,0,0,774.174,161.789Z" transform="translate(-731.147 -155.288)"/><path class="f" d="M800.185,153.521h0a.821.821,0,0,0-.981-.619l-5.9,1.332a.821.821,0,0,0-.62.981h0a.821.821,0,0,0,.981.62l5.9-1.333A.82.82,0,0,0,800.185,153.521Z" transform="translate(-739.966 -152.387)"/><path class="f" d="M828.913,154.471h0a.821.821,0,0,0-.618-.982l-5.9-1.341a.82.82,0,0,0-.982.618h0a.821.821,0,0,0,.618.982l5.9,1.341A.82.82,0,0,0,828.913,154.471Z" transform="translate(-749.866 -152.127)"/><path class="f" d="M868.243,181.985h0a.821.821,0,0,1,1.151-.151l4.8,3.682a.82.82,0,0,1,.152,1.15h0a.821.821,0,0,1-1.151.152l-4.8-3.682A.821.821,0,0,1,868.243,181.985Z" transform="translate(-765.952 -162.305)"/></g><g transform="translate(856.159 231.236)"><path class="f" d="M1298.57,377.458h0a.82.82,0,0,1-.285-1.125l3.1-5.2a.82.82,0,0,1,1.125-.285h0a.821.821,0,0,1,.284,1.125l-3.1,5.2A.821.821,0,0,1,1298.57,377.458Z" transform="translate(-1245.563 -316.049)"/><path class="f" d="M1308.063,352.2h0a.819.819,0,0,1-.81-.83l.072-6.049a.821.821,0,0,1,.83-.811h0a.821.821,0,0,1,.811.83l-.073,6.049A.82.82,0,0,1,1308.063,352.2Z" transform="translate(-1248.693 -307.01)"/><path class="f" d="M1301.368,323.467h0a.82.82,0,0,1-1.128-.272l-3.156-5.162a.821.821,0,0,1,.273-1.128h0a.82.82,0,0,1,1.128.272l3.155,5.162A.82.82,0,0,1,1301.368,323.467Z" transform="translate(-1245.148 -297.458)"/><path class="f" d="M1281.516,305.015h0a.821.821,0,0,1-1.077.433l-5.565-2.372a.821.821,0,0,1-.433-1.077h0a.82.82,0,0,1,1.076-.433l5.566,2.372A.821.821,0,0,1,1281.516,305.015Z" transform="translate(-1237.363 -292.191)"/><path class="f" d="M1246.814,294.165h0a.82.82,0,0,1,.99-.606l5.882,1.419a.821.821,0,0,1,.6.99h0a.82.82,0,0,1-.99.6l-5.881-1.419A.82.82,0,0,1,1246.814,294.165Z" transform="translate(-1227.858 -289.447)"/><path class="f" d="M1217.922,287.946h0a.821.821,0,0,1,.973-.632l5.918,1.256a.821.821,0,0,1,.632.973h0a.821.821,0,0,1-.973.632l-5.918-1.257A.821.821,0,0,1,1217.922,287.946Z" transform="translate(-1217.904 -287.296)"/></g><g transform="translate(631.424 177.29)"><g transform="translate(0 0)"><path class="d" d="M953.529,216.53l-40.44.326L893.04,205.348c-1.88-1.079-4.308.432-3.728,2.319l5.576,9.346-10,.07c-5.494.045-9.917,3.934-9.878,8.689l.279,34.708c.038,4.754,4.523,8.573,10.017,8.528l68.642-.552c5.494-.044,9.917-3.934,9.879-8.689l-.28-34.708C963.508,220.3,959.023,216.486,953.529,216.53Z" transform="translate(-875.009 -204.987)"/></g><path class="e" d="M949.2,275.145H891.534a1.066,1.066,0,0,1-1.066-1.066h0a1.066,1.066,0,0,1,1.066-1.065H949.2a1.065,1.065,0,0,1,1.065,1.065h0A1.065,1.065,0,0,1,949.2,275.145Z" transform="translate(-880.336 -228.429)"/><path class="e" d="M901.463,242.021l-3.683-.291a.382.382,0,0,1-.32-.226l-1.507-3.373a.313.313,0,0,0-.575.008l-1.415,3.413a.384.384,0,0,1-.314.235l-3.674.391a.313.313,0,0,0-.17.549l2.808,2.4a.384.384,0,0,1,.126.371l-.763,3.615a.313.313,0,0,0,.47.332l3.15-1.93a.383.383,0,0,1,.392-.005l3.2,1.842a.313.313,0,0,0,.46-.344l-.861-3.592a.384.384,0,0,1,.116-.374l2.742-2.476A.313.313,0,0,0,901.463,242.021Z" transform="translate(-880.07 -216.344)"/><path class="e" d="M929.86,242.021l-3.683-.291a.383.383,0,0,1-.32-.226l-1.507-3.373a.313.313,0,0,0-.575.008l-1.415,3.413a.383.383,0,0,1-.313.235l-3.674.391a.313.313,0,0,0-.17.549l2.808,2.4a.382.382,0,0,1,.126.371l-.763,3.615a.313.313,0,0,0,.47.332l3.151-1.93a.382.382,0,0,1,.391-.005l3.2,1.842a.313.313,0,0,0,.46-.344l-.861-3.592a.384.384,0,0,1,.116-.374l2.742-2.476A.313.313,0,0,0,929.86,242.021Z" transform="translate(-889.855 -216.344)"/><path class="e" d="M959.08,242.021l-3.683-.291a.382.382,0,0,1-.32-.226l-1.507-3.373a.313.313,0,0,0-.575.008l-1.415,3.413a.384.384,0,0,1-.314.235l-3.674.391a.313.313,0,0,0-.17.549l2.808,2.4a.384.384,0,0,1,.126.371l-.763,3.615a.313.313,0,0,0,.47.332l3.151-1.93a.382.382,0,0,1,.391-.005l3.2,1.842a.313.313,0,0,0,.46-.344l-.861-3.592a.384.384,0,0,1,.116-.374l2.742-2.476A.313.313,0,0,0,959.08,242.021Z" transform="translate(-899.924 -216.344)"/><path class="e" d="M988.869,242.021l-3.683-.291a.384.384,0,0,1-.32-.226l-1.507-3.373a.313.313,0,0,0-.575.008l-1.415,3.413a.384.384,0,0,1-.314.235l-3.674.391a.313.313,0,0,0-.17.549l2.809,2.4a.385.385,0,0,1,.126.371l-.763,3.615a.313.313,0,0,0,.469.332l3.151-1.93a.384.384,0,0,1,.392-.005l3.2,1.842a.313.313,0,0,0,.461-.344l-.861-3.592a.384.384,0,0,1,.116-.374l2.742-2.476A.313.313,0,0,0,988.869,242.021Z" transform="translate(-910.189 -216.344)"/><path class="e" d="M929.665,289.522H891.534a1.066,1.066,0,0,1-1.066-1.065h0a1.065,1.065,0,0,1,1.066-1.065h38.131a1.065,1.065,0,0,1,1.065,1.065h0A1.065,1.065,0,0,1,929.665,289.522Z" transform="translate(-880.336 -233.383)"/></g><g transform="translate(168.135 236.116)"><g transform="translate(85.274 395.103)"><path class="g" d="M334.341,904.593l-9.023,9.605-8.365-6.038,8.231-10.58Z" transform="translate(-304.691 -897.58)"/><path class="f" d="M312.063,910.621c-2.042-1.594-14.166,8.751-13.811,11.58.36,2.877,3.74,6.847,5.979,11.073a45.827,45.827,0,0,0,7.867,10.712c3.749,3.655,7.986,6.316,10.914,3.678,7.3-6.572-4.132-19.221-1.66-27.216.456-1.473,1.846-4.076-.153-5.051-3.274-1.6-5.512.954-6.947-.144C311.486,913.133,312.063,910.621,312.063,910.621Z" transform="translate(-298.244 -902.016)"/></g><path class="g" d="M397.267,339.52c-.821-4.119-3.366-6.348-3.122-13.067.232-6.393,5.02-8.409,5.811-17.609.156-1.809.137-3.76-1.1-5.316-1.449-1.82-4.582-3.673-7.176-1.833-2.811,1.994-3.44,11.734-4.607,11.743-1.034.007-1.5-7.571-2.964-7.593-1.971-.029-2.589,5.57-2.159,11.66a39.1,39.1,0,0,0,1.4,8.753c2.517,10.437,1.989,13.562,2.767,17.641Z" transform="translate(-241.77 -296.876)"/><path class="g" d="M214.2,332.866c1.208-4.023,3.953-6,4.349-12.712.377-6.386-4.2-8.848-4.112-18.081.017-1.815.221-3.756,1.6-5.187,1.616-1.675,4.91-3.221,7.318-1.144,2.609,2.252,2.31,12.008,3.47,12.128,1.028.106,2.209-7.395,3.672-7.277,1.966.159,2.048,5.79,1.041,11.813a39.074,39.074,0,0,1-2.222,8.58c-3.5,10.151-3.268,13.311-4.431,17.3Z" transform="translate(-184.008 -294.743)"/><g transform="translate(0 405.611)"><path class="g" d="M200.137,918.739,193.126,929.9l-9.369-4.32,6.047-11.964Z" transform="translate(-173.518 -913.614)"/><path class="f" d="M179.523,928.411c-2.31-1.173-12.222,11.308-11.331,14.016.906,2.753,4.985,6,7.994,9.719a45.814,45.814,0,0,0,9.777,9c4.38,2.867,9.05,4.665,11.417,1.515,5.9-7.85-7.745-18.07-6.854-26.391.165-1.534,1.028-4.355-1.12-4.929-3.52-.94-5.226,2-6.845,1.193C179.439,930.988,179.523,928.411,179.523,928.411Z" transform="translate(-168.135 -918.686)"/></g><path class="d" d="M226.687,656.667c-5.237,9.611-16.495,102.82-50.182,167.361,0,0,23.3,14.006,27.011,9.394C227.29,803.863,256.23,677.3,268.928,676.838c5.68-.2,33.688,58.511,32.248,71.128C297.6,779.33,273,799.893,267.139,810.542c0,0,19.393,20.179,22.211,17.455,17.93-17.339,41.646-57.875,42.982-71.652,2.917-30.066-13.221-71.477-23.171-103.943Z" transform="translate(-171.019 -417.99)"/><path class="h" d="M211.282,336.886c.739-2.12,15.426-.087,15.295,3.055-.367,8.805-3.178,19.918-1.071,38.357,2.095,18.327,15.036,38.839,36.732,51.413l26.606.049c14.7-4.412,30.09-26.414,34.191-48.712,3.5-19-.337-29.062-.655-38.226-.048-1.406,13.016-3.556,14.26-.524,5,12.2,5.849,30.35,5.507,40.583-1.261,37.732-26.54,61.834-26.617,70.489-.262,29.527,16.844,93.062,18.5,118.023a16.019,16.019,0,0,1-10.211,4.451s-10.494-17.193-12.83-30.633l-61,4.189a92.688,92.688,0,0,1-11,23.761l-16.6-3.642c-4.451-32.728,19.311-92.906,14.6-120.4-1.681-9.806-25.746-23.956-31.244-66.2C205.187,378.675,206.591,350.326,211.282,336.886Z" transform="translate(-181.054 -308.965)"/><g class="i" transform="translate(9.32 398.408)"><path class="j" d="M182.414,903.041a11.619,11.619,0,0,0,3.681,2.545q2.2,1.235,4.487,2.287a62.244,62.244,0,0,0,9.276,3.388.293.293,0,0,0,.156-.564,61.284,61.284,0,0,1-8.9-3.219q-2.053-.931-4.033-2.011-1.048-.571-2.072-1.184a7.043,7.043,0,0,1-2.1-1.536c-.226-.294-.734,0-.505.295Z" transform="translate(-182.356 -902.623)"/></g><g class="i" transform="translate(100.449 386.533)"><path class="j" d="M321.454,884.926a44.566,44.566,0,0,0,3.225,3.693c1.152,1.247,2.323,2.479,3.554,3.651a44.57,44.57,0,0,0,7.982,5.895.292.292,0,0,0,.295-.5,43.9,43.9,0,0,1-7.863-5.8c-1.136-1.081-2.221-2.214-3.288-3.363a46.014,46.014,0,0,1-3.4-3.862c-.221-.3-.729-.009-.5.295Z" transform="translate(-321.398 -884.505)"/></g><g class="k" transform="translate(28.82 33.397)"><path class="j" d="M212.39,346.284c4.042.223,8.238.621,11.768,2.785.321.2.615-.308.295-.5-3.617-2.218-7.919-2.635-12.063-2.865-.376-.021-.375.564,0,.585Z" transform="translate(-212.108 -345.699)"/></g><g class="i" transform="translate(142.251 39.016)"><path class="j" d="M385.536,356.311a30.992,30.992,0,0,1,12.088-1.335c.375.033.373-.552,0-.585a31.432,31.432,0,0,0-12.243,1.356c-.357.113-.205.678.155.564Z" transform="translate(-385.178 -354.273)"/></g><path class="l" d="M258.409,491.132a10.34,10.34,0,0,0-3.5,2.481,15.131,15.131,0,0,0-1.831,2.716,18.166,18.166,0,0,1,1.107-6.521,27.393,27.393,0,0,1,4.339-7.066c.234-.29-.177-.707-.413-.414a28.933,28.933,0,0,0-4.4,7.1,19.429,19.429,0,0,0-1.2,8.02.294.294,0,0,0,.017.071c0,.006,0,.012,0,.018a.268.268,0,0,0,.121.146.392.392,0,0,0,.043.024l.016.006a.254.254,0,0,0,.281-.043.234.234,0,0,0,.084-.117,18.08,18.08,0,0,1,2.246-3.532,9.948,9.948,0,0,1,3.382-2.389C259.045,491.479,258.748,490.975,258.409,491.132Z" transform="translate(-197.203 -359.349)"/><g class="i" transform="translate(129.99 128.606)"><path class="j" d="M371.033,505.032c-.471-2.451-.865-4.933-1.459-7.358a34.076,34.076,0,0,0-2.567-6.559c-.163-.339-.667-.043-.5.295a33.124,33.124,0,0,1,2.569,6.671c.552,2.347.944,4.739,1.4,7.107.071.369.634.212.564-.156Z" transform="translate(-366.471 -490.966)"/></g><g transform="translate(68.932 120.746)"><g class="m"><path class="j" d="M273.31,598.661a87.456,87.456,0,0,1,27.253,2.441c13.745,3.516,33.751-6.63,33.751-6.63-5.148-14.313-6.587-92.685-22.147-115.45l-26.605-.048c-3.9,9.029-8.716,28.93-5.822,50.593C285.561,573.142,273.31,598.661,273.31,598.661Z" transform="translate(-273.31 -478.973)"/><g transform="translate(10.767 4.671)"><path class="n" d="M289.837,486.586a22.517,22.517,0,0,0,18.159,4.8c.37-.065.213-.629-.155-.564a21.878,21.878,0,0,1-17.59-4.65c-.288-.239-.7.173-.414.414Z" transform="translate(-289.739 -486.1)"/></g><g transform="translate(16.017 96.607)"><path class="n" d="M302.684,626.655A50.949,50.949,0,0,1,302.616,639a21.7,21.7,0,0,1-4.794,10.41c-.241.286.17.7.414.414a22.215,22.215,0,0,0,4.9-10.4c.76-4.216.457-8.521.136-12.765-.028-.372-.613-.376-.585,0Z" transform="translate(-297.748 -626.374)"/></g><g transform="translate(21.709 112.611)"><path class="n" d="M306.8,659.181a9.992,9.992,0,0,0,4.676-3.169,14.9,14.9,0,0,0,3.35-4.868c.137-.351-.428-.5-.564-.155a14.206,14.206,0,0,1-3.2,4.61,9.457,9.457,0,0,1-4.417,3.018c-.366.084-.212.648.155.564Z" transform="translate(-306.433 -650.792)"/></g><rect class="o" width="45.858" height="3.215" transform="translate(4.141 28.87)"/><rect class="o" width="45.972" height="3.215" transform="translate(5.136 38.058)"/></g></g><path class="g" d="M296.178,456.194v10.969a3.154,3.154,0,0,1-1.328,2.559c-2.049,1.471-2.915,1.372-2.915,1.372s3.529,6.658,13.64,6.658c11.633,0,13.009-6.58,13.009-6.58a5.222,5.222,0,0,1-3.181-1.3,2.662,2.662,0,0,1-1-2.148l.088-11.529Z" transform="translate(-210.796 -350.378)"/><path class="p" d="M316.688,462.065c-2.81,3.191-12.442,3.966-18.279.014v-3.4h18.3Z" transform="translate(-213.027 -351.235)"/><path class="g" d="M318.882,414.273a3.46,3.46,0,0,0-.351.017l.863-6.444c1.112-11.209-8.227-16.842-17.387-16.864h0c-8.341-.02-16.177,3.162-17.24,13.293a21.809,21.809,0,0,0,.033,4.558l.564,5.365c-.05,0-.1-.008-.149-.008a3.64,3.64,0,0,0-.019,7.28c.09,0,.178-.007.266-.013,1.692,10.373,5.8,18.141,16.238,18.141h0c9.966,0,15.482-7.27,16.7-18.08a3.518,3.518,0,0,0,.465.035,3.64,3.64,0,0,0,.019-7.28Z" transform="translate(-207.235 -327.906)"/><g transform="translate(111.849 88.417)"><path class="q" d="M339.883,429.678a2.614,2.614,0,0,0-.931,1.153,3.08,3.08,0,0,0-.1,1.615c.033.2.347.115.315-.085a2.768,2.768,0,0,1,.09-1.416,2.221,2.221,0,0,1,.792-.994c.165-.121,0-.4-.165-.273Z" transform="translate(-338.791 -429.647)"/><g transform="translate(0.148 1.214)"><path class="q" d="M339.222,431.826a1.493,1.493,0,0,1,.262-.01l.068,0h.006l.024,0a1.063,1.063,0,0,1,.12.027l.048.016.027.01c-.006,0-.028-.012,0,0a.887.887,0,0,1,.089.047l.038.025c.024.016,0,0,0,0l.02.016c.024.022.048.045.07.069l.012.014c.015.017-.016-.022,0,0l.024.034a.772.772,0,0,1,.047.082l.01.022s-.011-.028,0-.011l.014.039a.9.9,0,0,1,.025.091c0,.016.006.031.009.047-.005-.032,0-.006,0,.011a.766.766,0,0,1,0,.1c0,.028,0,.056-.006.085s.005-.029,0-.007l0,.018c0,.018-.007.035-.011.053-.009.033-.018.067-.03.1-.006.015-.012.03-.018.045.016-.037-.008.016-.012.024a.976.976,0,0,1-.054.091l-.029.041c-.016.024,0,0,0,0l-.025.029a.16.16,0,0,0,0,.224.169.169,0,0,0,.231,0,1.087,1.087,0,0,0,.265-.891.9.9,0,0,0-.588-.694,1.468,1.468,0,0,0-.715-.047.159.159,0,0,0-.114.195.168.168,0,0,0,.2.111Z" transform="translate(-339.017 -431.498)"/></g></g><g transform="translate(76.143 88.365)"><g transform="translate(0.269)"><path class="q" d="M284.791,429.873a2.223,2.223,0,0,1,.786,1,2.774,2.774,0,0,1,.082,1.416c-.033.2.281.286.314.085a3.074,3.074,0,0,0-.093-1.616,2.618,2.618,0,0,0-.925-1.157c-.167-.124-.33.151-.165.273Z" transform="translate(-284.722 -429.568)"/></g><g transform="translate(0 1.219)"><path class="q" d="M285.632,431.449a1.2,1.2,0,0,0-1.087.285.964.964,0,0,0-.206.87,1.1,1.1,0,0,0,.248.473.167.167,0,0,0,.23,0,.158.158,0,0,0,0-.224c-.005-.006-.037-.047-.014-.016l-.026-.035a.831.831,0,0,1-.049-.079c-.009-.014-.016-.03-.023-.044l-.01-.022s.011.026,0,.009a.9.9,0,0,1-.033-.092q-.013-.043-.022-.088c0-.007-.008-.05,0-.027s0-.024,0-.033c0-.03,0-.06,0-.09l0-.042c0-.01.01-.066,0-.023a1.025,1.025,0,0,1,.047-.17c.009-.026-.012.022,0-.01.007-.012.012-.025.02-.037a.876.876,0,0,1,.052-.08c-.023.033.007-.007.012-.014s.02-.021.03-.031a.338.338,0,0,1,.031-.029l.019-.016c.022-.02-.014.009,0,0a.836.836,0,0,1,.077-.048l.042-.022L285,431.8c-.022.009-.007,0,.007,0a.987.987,0,0,1,.121-.035l.062-.012c.033-.005.012,0,.005,0l.042,0a1.466,1.466,0,0,1,.3.009.17.17,0,0,0,.2-.111.16.16,0,0,0-.114-.2Z" transform="translate(-284.312 -431.429)"/></g></g><path class="f" d="M295.931,420.487a37.532,37.532,0,0,1,6.386-.623.857.857,0,0,0,.025-1.714,14.187,14.187,0,0,0-6.686,1.086C294.287,419.806,294.527,420.846,295.931,420.487Z" transform="translate(-211.764 -337.237)"/><path class="f" d="M320.155,387.954c-2.521-2.628-8.108-6.005-12.213-6.507-2.9-.355-7.977-.64-10.251.777-3.238-1.975-6.343-.583-8.252.189-2.372.96-6.246,4.583-8.564,7.786-3.5,4.838.358,18.636,3.761,20.615,1.435.349-.849-18.442,10.682-19.017.7,2.223,20.331,11.369,21.487,13.116,1.551,2.342.416,5.911,1,5.992C322.674,411.586,325.814,393.852,320.155,387.954Z" transform="translate(-206.509 -324.521)"/><g transform="translate(93.38 92.065)"><path class="q" d="M311.582,435.334c-.164.68-.371,1.349-.58,2.017a8.574,8.574,0,0,0-.372,1.429,1.008,1.008,0,0,0,.207.884,1.525,1.525,0,0,0,1.141.34,1.945,1.945,0,0,0,1.452-.951c.12-.187-.182-.364-.3-.177a1.53,1.53,0,0,1-1.471.782c-.363-.049-.688-.212-.695-.6a4.724,4.724,0,0,1,.321-1.438c.225-.728.457-1.453.636-2.194.051-.214-.286-.31-.338-.1Z" transform="translate(-310.612 -435.213)"/></g><path class="j" d="M310.378,449.758a5,5,0,0,0,4.2-1.349.185.185,0,0,0-.14-.3s-2.413.027-3.962-.081c-1.617-.113-3.962-.412-3.962-.412-.149-.009-.218.044-.149.173C306.747,448.518,308,449.61,310.378,449.758Z" transform="translate(-215.758 -347.422)"/><g transform="translate(85.376 88.655)"><path class="f" d="M298.813,431.063a3.784,3.784,0,0,1,4,.118c.3.194.577-.274.28-.466a4.356,4.356,0,0,0-4.556-.119.272.272,0,0,0,.281.467Z" transform="translate(-298.399 -430.011)"/></g><g transform="translate(99.414 88.658)"><path class="f" d="M320.233,431.068a3.783,3.783,0,0,1,4,.118c.3.194.577-.274.281-.467a4.356,4.356,0,0,0-4.556-.118.272.272,0,0,0,.28.467Z" transform="translate(-319.819 -430.015)"/></g><path class="f" d="M325.451,420.906a37.51,37.51,0,0,0-6.274-1.329.857.857,0,0,1,.172-1.705,14.165,14.165,0,0,1,6.519,1.822C327.162,420.413,326.805,421.419,325.451,420.906Z" transform="translate(-219.918 -337.169)"/></g><g transform="translate(328.933 273.104)"><g transform="translate(0 0)"><g transform="translate(0 18.642)"><path class="b" d="M558.009,551.045c-2.856-1.942-11.229-8.669-14.789-11.8,0,0-6.114-.96-8.575-.378-2.958.7-8.225,4.665-8.225,4.665,4.422,5.663,22.213,18.772,28.469,20.228Z" transform="translate(-452.396 -434.433)"/><g transform="translate(9.941 228.841)"><g transform="translate(34.974)"><g class="r"><path class="b" d="M508.333,728.78c-.07,14.577-1.825,35.863-3.611,56.522-3.01,34.807-7.982,52.461-8.51,78.613a15.615,15.615,0,0,0,1.186,3c4.332,5.663,16.645,6.694,21.247,10.062,2.12,1.551,3.44,4.7-.029,7.512-2.5,2.026-19.232,2.047-28.138,1.462a6.976,6.976,0,0,1-6.615-6.028c-.368-3.47-1.338-10.923-1.338-10.923-.518-4.232-.312-51.191.77-81.876.688-19.5-.965-44.955-1.288-56.456Z" transform="translate(-482.007 -728.78)"/><path class="f" d="M482.8,940.049c.012,0,9.406-2.89,13.687-5.084l1.186,3a99.635,99.635,0,0,1-10.427,4.1c2.241,2.221,3.832,6.031,4.115,10.438h0c1.706.641,8.383.916,15.953.822a59.292,59.292,0,0,1,3.8-9.03l3.094,1.171s-2.083,4.179-3.413,7.759a48.2,48.2,0,0,0,10.437-1.827l.014,5.595L484.028,958.1l-.817-6.154-.415-11.9Z" transform="translate(-482.279 -799.83)"/></g></g><path class="b" d="M454.969,728.78c-.069,14.577-1.824,35.863-3.611,56.522-3.01,34.807-7.982,52.461-8.51,78.613a15.613,15.613,0,0,0,1.186,3c4.332,5.663,16.645,6.694,21.247,10.062,2.12,1.551,3.44,4.7-.029,7.512-2.5,2.026-19.232,2.047-28.138,1.462a6.976,6.976,0,0,1-6.615-6.028c-.368-3.47-1.338-10.923-1.338-10.923-.518-4.232-.312-51.191.77-81.876.688-19.5-.965-44.955-1.288-56.456Z" transform="translate(-428.644 -728.78)"/><g class="s"><path class="b" d="M454.969,728.78c-.069,14.577-1.824,35.863-3.611,56.522-3.01,34.807-7.982,52.461-8.51,78.613a15.613,15.613,0,0,0,1.186,3c4.332,5.663,16.645,6.694,21.247,10.062,2.12,1.551,3.44,4.7-.029,7.512-2.5,2.026-19.232,2.047-28.138,1.462a6.976,6.976,0,0,1-6.615-6.028c-.368-3.47-1.338-10.923-1.338-10.923-.518-4.232-.312-51.191.77-81.876.688-19.5-.965-44.955-1.288-56.456Z" transform="translate(-428.644 -728.78)"/><path class="f" d="M429.434,940.049c.012,0,9.406-2.89,13.687-5.084l1.186,3a99.635,99.635,0,0,1-10.427,4.1c2.241,2.221,3.832,6.031,4.115,10.438h0c1.706.641,8.383.916,15.953.822a59.294,59.294,0,0,1,3.8-9.03l3.094,1.171s-2.084,4.179-3.413,7.759a48.18,48.18,0,0,0,10.437-1.827l.015,5.595L430.665,958.1l-.817-6.154-.415-11.9Z" transform="translate(-428.916 -799.83)"/></g></g><path class="o" d="M464.392,472.269c13.129,1.636,19.176,7.729,23.026,11.814,10.6,11.245,16.881,32.279,16.881,32.279a80.571,80.571,0,0,0-16.8,4.288c2.2,7.305,8.3,148.216,4.739,159.58,0,0-53.738,7.587-78.763,0,0,0,8.373-131.971,7.47-157.614-1.133-32.141,3.533-37.912,18.033-46.617Z" transform="translate(-413.476 -411.547)"/><g transform="translate(12.208)"><path class="h" d="M494.8,437.648a17.817,17.817,0,0,1,.947,12.333c-.486,1.614-16.615,3.334-16.615,3.334Z" transform="translate(-448.308 -399.617)"/><path class="b" d="M450.108,446.575c1.935-.773,2.93-3.592,2.686-5.661l-1.447-12.272c-1.356-1.185-5.741-10.242-5.572-16.439.36-13.212,8.46-24.631,19.081-25.279,12.223-.746,19.014,9.02,20.209,22.183,1.1,12.113-4.813,23.487-14.024,25.974l.468,3.761a4.607,4.607,0,0,0,4.01,4s.521,4.61-9.536,6.515C455.306,451.383,450.108,446.575,450.108,446.575Z" transform="translate(-436.813 -382.124)"/><path class="h" d="M479.382,416.529c.372-.556.045-.842-1.116-1.043a11.378,11.378,0,0,0-3.6.1c-2.411.474-3.682,2.029-2.988,1.762a13.053,13.053,0,0,1,4.577-.832C477.59,416.439,479.131,416.9,479.382,416.529Z" transform="translate(-445.675 -391.945)"/><path class="h" d="M493.19,416.928c-.364-.542-.066-.84,1.015-1.084a10.4,10.4,0,0,1,3.369-.037c1.851.28,3.113,1.776,2.6,1.606a10.939,10.939,0,0,0-4.056-.618C494.863,416.772,493.436,417.294,493.19,416.928Z" transform="translate(-453.103 -392.05)"/><g transform="translate(36.438 33.569)"><path class="t" d="M489.262,430.94c.107.549.25,1.089.393,1.629a7.078,7.078,0,0,1,.248,1.152.825.825,0,0,1-.186.7,1.164,1.164,0,0,1-.9.239,1.509,1.509,0,0,1-1.1-.8.137.137,0,0,1,.239-.133,1.183,1.183,0,0,0,1.121.666c.284-.029.54-.151.557-.457a3.9,3.9,0,0,0-.208-1.159c-.155-.588-.314-1.174-.431-1.771-.034-.172.231-.24.265-.068Z" transform="translate(-487.699 -430.84)"/></g><path class="u" d="M475.906,458.7l-.269-2.16c-9.81.72-16.533-7.381-16.533-7.381C461.735,454.475,466.9,459.889,475.906,458.7Z" transform="translate(-441.407 -403.584)"/><path class="h" d="M470.681,382.33a2.21,2.21,0,0,0,.579.216c4.156.354,6.529,1.958,9.2,6.038,4.746,7.242,2.083,13.165-.037,18.927a25.3,25.3,0,0,0-4.02-10.144c-2.1-2.841-5.629-4.36-6.023-4.291-9.844,1.743-15.137,12.111-21.771,14.256,0,0-2.567,1.937-3.307,8.072l2.378,19.6s-13.288,1.846-14.1-.753c-2.832-9.115-1.133-30.152,1.115-38.713C436.9,387.162,451.706,373.874,470.681,382.33Z" transform="translate(-432.103 -379.621)"/><path class="b" d="M446.615,425.125a4.469,4.469,0,1,0,4.25-4.678A4.469,4.469,0,0,0,446.615,425.125Z" transform="translate(-437.102 -393.688)"/><path class="t" d="M451,427.541a1.534,1.534,0,0,0,.431.588.256.256,0,0,0,.355-.054.259.259,0,0,0-.054-.355c-.013-.01-.064-.062-.014-.01-.013-.014-.028-.027-.041-.041a1.225,1.225,0,0,1-.085-.1l-.033-.047c-.012-.018-.04-.076-.009-.013-.018-.036-.04-.071-.057-.107s-.033-.074-.047-.112l-.007-.022c0-.01-.012-.043-.014-.052a1.016,1.016,0,0,1-.02-.11c0-.02-.005-.042-.007-.063s0-.021,0-.031l0-.013c0-.03.006-.066.007-.084,0-.04.014-.079.02-.119l0-.009c.006-.02.012-.04.02-.06s.029-.065.044-.1a.221.221,0,0,1,.013-.022c.01-.016.02-.031.031-.047l.04-.051.015-.017c.03-.028.06-.056.094-.082l.05-.036.017-.011,0,0c.052-.026.1-.052.159-.074.026-.01.052-.018.078-.027l.05-.013a1.787,1.787,0,0,1,.2-.034c.033,0,.066-.007.1-.01h.012a4,4,0,0,1,.25,1.5c0,.323.5.385.5.059a4.215,4.215,0,0,0-.456-2.136,3.542,3.542,0,0,0-1.462-1.365.256.256,0,0,0-.33.143.259.259,0,0,0,.143.329,3.013,3.013,0,0,1,1.107.988,1.4,1.4,0,0,0-1.006.575A1.35,1.35,0,0,0,451,427.541Zm1-1.283Z" transform="translate(-438.558 -394.998)"/><path class="u" d="M464.322,434.523a2.943,2.943,0,1,0,3.283-2.558A2.943,2.943,0,0,0,464.322,434.523Z" transform="translate(-443.198 -397.651)"/><path class="u" d="M497.332,437.7a2.943,2.943,0,0,0,2.558,3.283,1.684,1.684,0,0,0,.446.022s.883-2.115,1.116-2.833c.186-.575.674-2.379.674-2.379a2.781,2.781,0,0,0-1.511-.651A2.943,2.943,0,0,0,497.332,437.7Z" transform="translate(-454.573 -398.747)"/><g transform="translate(32.187 40.842)"><g class="v"><path class="w" d="M485.116,445.421a4.368,4.368,0,0,0,3.928-2.272c.09-.138.08-.311-.065-.324,0,0-2.306-.145-3.787-.293-1.546-.155-3.807-.594-3.807-.594-.142-.013-.23.145-.128.4A4.951,4.951,0,0,0,485.116,445.421Z" transform="translate(-481.213 -441.937)"/><path class="j" d="M481.317,441.6c-.641.325,1.768,1.346,4.016,1.625,1.89.236,4.071-.54,3.972-.8Z" transform="translate(-481.213 -441.819)"/></g></g><g transform="translate(28.321 30.47)"><path class="f" d="M479.609,427.1a3.689,3.689,0,0,0-3.893.2c-.287.2-.568-.256-.283-.449a4.249,4.249,0,0,1,4.44-.208.266.266,0,0,1-.264.461Z" transform="translate(-475.314 -426.112)"/></g><g transform="translate(40.505 30.485)"><path class="f" d="M498.2,427.122a3.689,3.689,0,0,0-3.894.2c-.287.195-.568-.256-.283-.45a4.249,4.249,0,0,1,4.44-.208.265.265,0,0,1-.263.461Z" transform="translate(-493.905 -426.134)"/></g></g><path class="b" d="M533.353,575.812c-1.941-1.871-3.647-3.34-4.423-3.451-5.231-.755-39.29,9.034-47.461,4.854-8.223-4.207-12.054-12.081-14.346-15.533a36.116,36.116,0,0,1-6.365,6.148,31.1,31.1,0,0,1-6.8,4.207c3.924,6.89,15.745,21.654,22.531,23.313,12.742,3.114,50.118-16.655,51.358-14.9,4.315,6.108,11.232,9.294,12.512,8.2C541.6,587.587,538.41,580.685,533.353,575.812Z" transform="translate(-427.428 -442.358)"/><g transform="translate(60.095 63.927)"><path class="x" d="M505.583,477.218c4.35,3.643,6.982,8.831,8.576,14.193,1.848,6.215,2.709,12.773,3.557,19.186q.751,5.681,1.243,11.393c.027.3-.449.3-.475,0q-.852-9.845-2.47-19.6c-1-6-2.12-12.149-5.007-17.577a24.208,24.208,0,0,0-5.76-7.258c-.235-.2.1-.532.336-.336Z" transform="translate(-505.168 -477.159)"/></g><g transform="translate(8.557 83.407)"><path class="x" d="M429.163,507.24c-2.946,5.652-2.587,12.384-.6,18.283,2.089,6.188,5.813,11.652,9.343,17.088l6.572,10.119c.167.258-.244.5-.41.24-3.891-5.991-7.98-11.9-11.591-18.067-3.228-5.513-5.849-11.555-5.948-18.043A20.576,20.576,0,0,1,428.753,507c.142-.271.552-.031.41.24Z" transform="translate(-426.532 -506.881)"/></g><g transform="translate(29.258 103.831)"><path class="x" d="M467.942,552.9l-9.784-14.511c-.171-.254.241-.493.411-.24l9.783,14.511c.172.254-.24.493-.41.24Z" transform="translate(-458.118 -538.044)"/></g><path class="l" d="M503.419,510.285a2.373,2.373,0,1,0,2.373-2.373A2.373,2.373,0,0,0,503.419,510.285Z" transform="translate(-444.47 -423.829)"/><path class="l" d="M479.761,547.123a2.373,2.373,0,1,0,2.373-2.373A2.374,2.374,0,0,0,479.761,547.123Z" transform="translate(-436.317 -436.524)"/><path class="l" d="M454.873,510.285a2.373,2.373,0,1,0,2.373-2.373A2.373,2.373,0,0,0,454.873,510.285Z" transform="translate(-427.741 -423.829)"/><path class="l" d="M509.961,620.752a2.373,2.373,0,1,0,2.373-2.373A2.374,2.374,0,0,0,509.961,620.752Z" transform="translate(-446.724 -461.896)"/><circle class="l" cx="2.373" cy="2.373" r="2.373" transform="translate(22.725 180.059)"/><path class="l" d="M465.031,610.384a2.373,2.373,0,1,0,2.373-2.373A2.373,2.373,0,0,0,465.031,610.384Z" transform="translate(-431.242 -458.323)"/><path class="l" d="M425.7,709.461a2.373,2.373,0,1,0,2.373-2.373A2.373,2.373,0,0,0,425.7,709.461Z" transform="translate(-417.687 -492.464)"/><path class="l" d="M468.652,708.835a2.373,2.373,0,1,0,2.373-2.373A2.373,2.373,0,0,0,468.652,708.835Z" transform="translate(-432.489 -492.249)"/><circle class="l" cx="2.373" cy="2.373" r="2.373" transform="translate(81.297 95.08)"/><path class="l" d="M501.321,759.441a2.373,2.373,0,1,0,2.373-2.373A2.373,2.373,0,0,0,501.321,759.441Z" transform="translate(-443.747 -509.687)"/><path class="l" d="M437.711,763.4a2.373,2.373,0,1,0,2.373-2.373A2.373,2.373,0,0,0,437.711,763.4Z" transform="translate(-421.827 -511.053)"/><path class="l" d="M514.693,680.316a2.373,2.373,0,1,0,2.373-2.373A2.373,2.373,0,0,0,514.693,680.316Z" transform="translate(-448.355 -482.421)"/><path class="l" d="M433.01,566.009a2.373,2.373,0,1,0,2.373-2.373A2.373,2.373,0,0,0,433.01,566.009Z" transform="translate(-420.207 -443.032)"/></g><g transform="translate(226.804)"><g transform="translate(89.543 367.963)"><path class="y" d="M936.508,912.606l-12.881,4.588,6.883,17.141,11.41-4.314Z" transform="translate(-905.618 -912.606)"/><path class="f" d="M936.747,942.94l-1.362-3.837a14.091,14.091,0,0,0-1.7-3.314L932.2,933.65h0l-.225-.324a.979.979,0,0,0-1.718.2l-.321.827a6.687,6.687,0,0,1-9.012,2.847h0l-.174-1.384a3.469,3.469,0,0,0-2.376-2.868,1.081,1.081,0,0,0-1.224.442s-3.922,6.14-3.982,6.238l-.142.227q-.086.138-.173.273l-.109.168-.018.028c-.047.073-1.564,2.2-1.6,2.246-.024.031-.941,1.154-.991,1.213l-.119.138-.2.227-.062.068q-.221.25-.448.494l-.083.09c-.073.079-1.183,1.209-1.418,1.429l-.085.081c-.085.08-.311.288-.338.313l-.3.27c-.3.263-.945.811-.967.83q-.14.115-.281.229l-.069.056-.292.232a32.828,32.828,0,0,1-3.033,2.114l-4.158,2.563a4.492,4.492,0,0,0-1.876,5.326l.015.043.066.156a6.425,6.425,0,0,0,1.684,2.335l.067.095.034-.012a6.021,6.021,0,0,0,5.516,1.256c.139-.039.277-.083.414-.132l31.351-11.13a3.325,3.325,0,0,0,2.44-3.87c-.053-.263-.263-.6-.513-.549l-.256-1.616A10.579,10.579,0,0,0,936.747,942.94Z" transform="translate(-896.149 -919.6)"/></g><g transform="translate(19.165 372.682)"><path class="y" d="M845.349,919.806l-13.673.014.751,18.456,12.2-.248Z" transform="translate(-803.554 -919.806)"/><path class="f" d="M831.9,950.028v-4.071a14.075,14.075,0,0,0-.492-3.691l-.684-2.512h0l-.1-.381a.979.979,0,0,0-1.687-.383l-.579.672a6.686,6.686,0,0,1-9.444-.332h0l.3-1.362a3.47,3.47,0,0,0-1.279-3.5,1.081,1.081,0,0,0-1.3.007s-5.75,4.474-5.839,4.546l-.21.168-.254.2-.159.122-.026.02c-.069.052-2.21,1.547-2.262,1.581-.033.021-1.273.773-1.34.811l-.159.09-.262.147-.081.044q-.292.161-.588.316l-.109.057c-.1.049-1.519.743-1.815.872l-.107.047c-.107.047-.389.168-.423.182-.11.047-.358.149-.371.155-.367.15-1.162.449-1.188.459l-.342.122-.085.029-.352.121a32.77,32.77,0,0,1-3.565.978l-4.776,1.024a4.492,4.492,0,0,0-3.55,4.392V951l.01.169a6.4,6.4,0,0,0,.806,2.763l.031.112h.036a6.023,6.023,0,0,0,4.778,3.029q.216.015.435.015H828.13a3.325,3.325,0,0,0,3.594-2.831c.038-.265-.047-.654-.3-.689l.3-1.608A10.588,10.588,0,0,0,831.9,950.028Z" transform="translate(-788.768 -924.786)"/></g><path class="o" d="M867.155,651.948c-.243,10.112,2.376,30.485,9.654,76.747,8.835,56.158,24.535,94.892,24.535,94.892-13.435,5.773-24.535,4.777-24.535,4.777-15.641-25.133-46.383-134.618-46.383-134.618-3.721.593,4.369,100.1,6.688,133.971,0,0-15.344,3.586-23.515.216,0,0-24.054-131.6-15.532-174.96C802.695,629.419,867.155,651.948,867.155,651.948Z" transform="translate(-772.178 -451.473)"/><path class="h" d="M854.5,586.469c-23.03,1.564-56.708,21.636-70.545,1.941,0,0-5.016-25.726-4.854-42.553,0,0-8.321,8.263-18.406,9.018l-1.172-35.392c15.7-12.054,8.4-33.708,19.578-45.951,4.3-4.707,18.019-17.7,37.474-21.318l20.384.446c19.15,3.922,32.995,19.014,35.015,22.813,11.27,21.2,7.888,62.393-3.236,80.577a34.689,34.689,0,0,1-9.222,10.194C854.407,575.119,854.5,586.469,854.5,586.469Z" transform="translate(-759.527 -385.994)"/><g transform="translate(29.027)"><path class="y" d="M857.182,425.2c-.288-9.57-.75-24.563-.75-24.563a72.082,72.082,0,0,0,.691-8.68c-.36-12.51-12.178-23.307-22.246-22.9-10.283.415-17.3,10.644-16.5,23.133.752,11.669,9.709,24.573,18.46,23.613v9.874a6.8,6.8,0,0,0,5.819,6.748,28.766,28.766,0,0,0,8.888-.305A6.827,6.827,0,0,0,857.182,425.2Z" transform="translate(-808.812 -357.333)"/><g transform="translate(18.949 38.615)"><path class="z" d="M833.836,410.21c-.189.676-.42,1.338-.654,2a8.8,8.8,0,0,0-.424,1.418,1.035,1.035,0,0,0,.163.9,1.462,1.462,0,0,0,1.1.389,1.9,1.9,0,0,0,1.458-.893.172.172,0,0,0-.286-.19,1.484,1.484,0,0,1-1.47.722c-.352-.064-.661-.241-.652-.627a4.871,4.871,0,0,1,.376-1.43c.252-.721.509-1.439.716-2.175.06-.212-.266-.323-.326-.11Z" transform="translate(-832.727 -410.095)"/></g><path class="f" d="M844.63,405.8a.777.777,0,1,1-.675-.868A.777.777,0,0,1,844.63,405.8Z" transform="translate(-817.346 -369.699)"/><path class="f" d="M827.576,407.074a.777.777,0,1,1-.675-.868A.777.777,0,0,1,827.576,407.074Z" transform="translate(-811.47 -370.138)"/><path class="f" d="M839.18,396.375c-.525-.514-.124-1.359,1.154-1.612a10.261,10.261,0,0,1,7.2,1.241c.384.209.385,1.1-.87.678a12.728,12.728,0,0,0-3.68-.425C841.5,396.222,839.824,397.006,839.18,396.375Z" transform="translate(-815.925 -366.129)"/><path class="aa" d="M846.621,437.52l-.045-3.35c10.288-2.334,14.911-11.816,14.911-11.816C860.437,429.605,856.165,435.726,846.621,437.52Z" transform="translate(-818.551 -375.704)"/><path class="f" d="M851.436,394.477c5.7-1.745,7.808-13.546,7.569-19.249-.283-6.744-2.426-12.948-6.816-16.833-8.832-7.816-16.527-6.985-19.435-7.168-15.015-.941-22.151,12.051-26.481,12.575-8.467,1.025,7.672,14.365,7.672,14.365,1-2.546,3.794-7.681,9.813-8.356,6.8-.764,14.039,4.585,18.752,14.262.134.276,4.405,6.2,4.405,6.2C848.764,395.064,851.436,394.477,851.436,394.477Z" transform="translate(-803.816 -351.178)"/><circle class="y" cx="4.232" cy="4.232" r="4.232" transform="translate(37.074 32.211) rotate(-18.45)"/><path class="z" d="M867.727,402.669a3.35,3.35,0,0,1,1.479-1.182.241.241,0,0,1,.3.158.245.245,0,0,1-.158.3,2.844,2.844,0,0,0-1.117.853,1.331,1.331,0,0,1,.908.615,1.275,1.275,0,0,1,0,1.178,1.445,1.445,0,0,1-.449.524.24.24,0,1,1-.254-.408c.012-.009.064-.055.014-.009.014-.012.028-.024.041-.036a1.123,1.123,0,0,0,.087-.089c.012-.013.024-.027.035-.041s.043-.069.01-.011c.02-.033.043-.064.062-.1s.036-.068.052-.1l.008-.02.017-.048c.01-.033.019-.068.027-.1,0-.02.007-.039.01-.059l0-.029c0-.01,0,0,0,0a.577.577,0,0,0,0-.089c0-.039-.008-.076-.01-.114l0-.009c0-.019-.009-.038-.014-.057s-.022-.064-.035-.1a.136.136,0,0,0-.01-.022c-.008-.015-.017-.031-.026-.046s-.023-.034-.035-.051-.009-.011-.012-.017c-.028-.029-.054-.058-.083-.084l-.045-.038-.015-.012,0,0a1.484,1.484,0,0,0-.144-.081l-.071-.031-.046-.016a1.717,1.717,0,0,0-.182-.047c-.031-.007-.062-.012-.094-.016h-.01a3.786,3.786,0,0,0-.344,1.4c-.02.306-.5.328-.48.02A3.99,3.99,0,0,1,867.727,402.669Z" transform="translate(-825.638 -368.509)"/><g transform="translate(18.42 46.334)"><g class="ab"><path class="w" d="M836.194,425.819A4.365,4.365,0,0,1,832,424.081c-.107-.125-.121-.3.022-.33,0,0,2.268-.444,3.716-.786,1.513-.356,3.7-1.087,3.7-1.087.14-.031.247.113.178.379A4.948,4.948,0,0,1,836.194,425.819Z" transform="translate(-831.92 -421.874)"/><path class="j" d="M839.34,421.526c.678.238-1.576,1.565-3.768,2.137-1.843.481-4.107,0-4.042-.269Z" transform="translate(-831.785 -421.754)"/></g></g></g><path class="f" d="M826.87,396.928c.476-.539.043-1.363-1.2-1.551a9.558,9.558,0,0,0-6.858,1.6c-.358.227-.307,1.122.876.632A11.832,11.832,0,0,1,823.2,397C824.628,396.891,826.286,397.59,826.87,396.928Z" transform="translate(-779.889 -366.37)"/><g class="i" transform="translate(38.198 158.786)"><path class="j" d="M879.049,614.6c-8.354.463-16.487-2.826-24.266-5.437q-6.273-2.1-12.526-4.272a118.391,118.391,0,0,1-11.479-4.233c-4.381-2.04-8.592-4.492-12.851-6.771-.27-.145-.03-.555.24-.411,3.736,2,7.444,4.067,11.226,5.979a93.053,93.053,0,0,0,11.8,4.566c7.972,2.752,15.934,5.632,24.021,8.033a40.822,40.822,0,0,0,13.836,2.07c.306-.017.3.458,0,.475Z" transform="translate(-817.808 -593.449)"/></g><g class="i" transform="translate(39.456 146.936)"><path class="j" d="M868.63,577.1a184.685,184.685,0,0,0-18.991-1q-9.461-.129-18.923-.218c-3.588-.035-7.178-.027-10.758.227-.305.022-.3-.454,0-.475,6.333-.45,12.706-.206,19.049-.134,6.3.072,12.6.073,18.9.323,3.583.142,7.162.384,10.724.8.3.035.3.511,0,.475Z" transform="translate(-819.728 -575.369)"/></g><g class="i" transform="translate(83.515 84.682)"><path class="j" d="M910.378,480.991c-2.349-.521-4.793.528-6.8,1.689a20.663,20.663,0,0,0-4.712,3.807,33.813,33.813,0,0,0-6.66,11.636,76.337,76.337,0,0,0-4.786,27.064,60.092,60.092,0,0,0,2.188,15.435.238.238,0,0,1-.458.126,65.339,65.339,0,0,1-1.161-28.555A80.633,80.633,0,0,1,891.75,498a34.833,34.833,0,0,1,6.527-11.567,21.049,21.049,0,0,1,5.391-4.344c2.054-1.134,4.468-2.078,6.837-1.553.3.066.172.524-.126.458Z" transform="translate(-886.952 -480.383)"/></g><g class="i" transform="translate(88.038 148.189)"><path class="j" d="M894.248,577.361a16.478,16.478,0,0,0,10.693,5.882c.3.036.3.512,0,.475a16.949,16.949,0,0,1-11.029-6.021c-.193-.235.142-.573.336-.336Z" transform="translate(-893.854 -577.28)"/></g><g class="i" transform="translate(86.949 149.313)"><path class="j" d="M893.28,579.282a8.878,8.878,0,0,0,1.312,8.756c.191.235-.143.573-.336.336a9.348,9.348,0,0,1-1.435-9.218c.111-.281.572-.159.459.126Z" transform="translate(-892.192 -578.996)"/></g><g class="i" transform="translate(21.423 86.448)"><path class="j" d="M792.222,537.625c3.7-13.8,7.462-27.934,6.467-42.355a57.52,57.52,0,0,0-2.055-11.9.238.238,0,0,1,.459-.126c3.978,13.88,2.018,28.5-1.266,42.306-.972,4.086-2.059,8.143-3.145,12.2a.238.238,0,0,1-.459-.127Z" transform="translate(-792.213 -483.078)"/></g><g class="i" transform="translate(78.295 191.299)"><path class="j" d="M879,654.857a116.993,116.993,0,0,1,3.338-11.637c.1-.287.558-.164.459.126a116.811,116.811,0,0,0-3.339,11.637c-.069.3-.528.172-.458-.127Z" transform="translate(-878.988 -643.056)"/></g><g class="i" transform="translate(62.394 183.279)"><path class="j" d="M863.109,652.707a30.05,30.05,0,0,0-2.146-11.765c-1.411-3.6-3.824-6.686-6.182-9.7-.187-.238.147-.577.336-.336,2.357,3.015,4.749,6.082,6.2,9.656a30.239,30.239,0,0,1,2.266,12.149c-.012.3-.487.306-.475,0Z" transform="translate(-854.726 -630.82)"/></g><g transform="translate(48.351 368.786)"><path class="x" d="M848.427,914.329a61.286,61.286,0,0,1-14.9,1.93.238.238,0,0,1,0-.475,60.778,60.778,0,0,0,14.771-1.913.238.238,0,0,1,.126.458Z" transform="translate(-833.3 -913.862)"/></g><g transform="translate(55.047 227.685)"><path class="x" d="M846.2,712.768a118.28,118.28,0,0,1-2.679-13.969c-.04-.3.436-.3.475,0a117.141,117.141,0,0,0,2.662,13.842.238.238,0,0,1-.458.127Z" transform="translate(-843.516 -698.574)"/></g><g transform="translate(79.601 208.681)"><path class="x" d="M893.539,682.293A22,22,0,0,1,881,669.864c-.111-.285.348-.408.459-.127a21.481,21.481,0,0,0,12.209,12.1c.282.108.16.568-.126.458Z" transform="translate(-880.981 -669.578)"/></g><g class="ac" transform="translate(44.084 101.731)"><path class="j" d="M856.9,514.111l8.026.2-3.841-7.178Z" transform="translate(-837.166 -506.649)"/><path class="j" d="M841.746,513.743l8.026.2-3.841-7.178Z" transform="translate(-831.943 -506.522)"/><path class="j" d="M857.214,521.984l-.115,8.027,7.139-3.913Z" transform="translate(-837.234 -511.768)"/><path class="j" d="M826.789,513.379l8.026.2-3.841-7.178Z" transform="translate(-826.789 -506.397)"/><path class="j" d="M842.276,521.62l-.115,8.027,7.139-3.913Z" transform="translate(-832.086 -511.643)"/></g><g class="i" transform="translate(64.553 75.164)"><path class="j" d="M874.822,466.214c-3.2,5.316-10.888,7.2-16.63,5.943-.3-.066-.172-.524.127-.459a17.26,17.26,0,0,0,9.553-.771,12.316,12.316,0,0,0,6.541-4.954.238.238,0,0,1,.41.24Z" transform="translate(-858.021 -465.861)"/></g></g><g transform="translate(95.594 81.949)"><path class="h" d="M559.356,551.27c0-.064.018-.127.024-.191.024-.254.051-.507.1-.754.011-.061.029-.119.041-.18.049-.248.1-.5.17-.737.016-.057.039-.111.056-.168.073-.24.15-.478.241-.71l0-.013v0a9.452,9.452,0,0,1,3.952-4.633,9.329,9.329,0,0,1-1.58-4.926h0l-.046-1.572h0a.05.05,0,0,0,0-.01,9.457,9.457,0,0,1,.022-.965c.006-.075.02-.147.028-.222.024-.246.051-.492.094-.732.014-.076.035-.149.051-.224.048-.235.1-.471.164-.7.022-.074.05-.145.073-.218.071-.225.144-.449.23-.667,0-.009.006-.019.01-.029v0a9.409,9.409,0,0,1,8.449-5.9l29.211-.851a9.386,9.386,0,0,1,1.861.132l-6.016-26.283A31.694,31.694,0,0,1,595.9,489.4c.664-4.942,2.761-10.695,8.676-12.823a6.283,6.283,0,0,1,8.214,4.749l1.488,7.439a83.516,83.516,0,0,0,3.317,12.025c3.736,10.309,8.223,15.519,16,18.581l.111.044a42.387,42.387,0,0,0,16.776,2.941l5.474-.159a2.8,2.8,0,0,1,2.885,2.722l1.609,55.241-.562.1a158.9,158.9,0,0,0-30.446,8.76,28.512,28.512,0,0,1-9.467,1.912l-17.084.5c-.018,0-.035,0-.052,0a10.325,10.325,0,0,1-1.1.1l-20.03.583a10.152,10.152,0,0,1-10.443-11.027c.009-.112.028-.221.041-.333.031-.265.068-.528.118-.787.024-.119.053-.237.081-.355.059-.25.125-.5.2-.739.035-.109.071-.218.109-.326.089-.252.189-.5.3-.741.026-.06.045-.123.072-.181l.005.008c.018-.04.035-.081.054-.121a10.192,10.192,0,0,1-9.052-9.815,10.357,10.357,0,0,1,.035-1.146c.009-.107.027-.212.039-.318.031-.27.069-.538.121-.8.023-.117.051-.231.079-.347.059-.254.126-.5.205-.75.033-.106.069-.212.106-.317.09-.256.192-.507.3-.753.026-.057.044-.119.07-.175l0,.008a10.27,10.27,0,0,1,.572-1.067,9.4,9.4,0,0,1-5.351-8.2h0l-.046-1.572A9.379,9.379,0,0,1,559.356,551.27Z" transform="translate(-559.331 -476.214)"/><path class="j" d="M729.688,539.79l1.909,65.56-25.3.737a2.092,2.092,0,0,1-2.152-2.031l-1.787-61.377a2.092,2.092,0,0,1,2.03-2.152Z" transform="translate(-608.616 -498.122)"/><path class="d" d="M752.781,529.305l2.165,74.354a1.434,1.434,0,0,1-1.391,1.475l-34.744,1.012a1.434,1.434,0,0,1-1.475-1.391L715.171,530.4a1.433,1.433,0,0,1,1.391-1.475l34.744-1.012A1.433,1.433,0,0,1,752.781,529.305Z" transform="translate(-613.032 -494.029)"/></g><path class="y" d="M795.572,583.53a45.715,45.715,0,0,0-12.811-3.046c-6.346-.807-9.112,3.59-18.319,2.879a11.542,11.542,0,0,1-5.067-1.949c-3.608-2.167-5.347-6.131-.537-8.315,3.137-1.425,12.029-.555,12.227-1.7.175-1.02-7.008-3.046-7.012-4.157-.007-2.148,5.916-1.651,11.856-.239a31.856,31.856,0,0,1,8.41,2.8c5.939,2.761,9.364,2.339,13.246,2.761Z" transform="translate(-531.471 -425.129)"/><g transform="translate(335.578 363.579)"><path class="x" d="M942.683,906.364a36.88,36.88,0,0,1-16.961,5.236c-.305.018-.3-.457,0-.475a36.359,36.359,0,0,0,16.721-5.171.238.238,0,0,1,.24.41Z" transform="translate(-925.493 -905.917)"/></g></g><g class="i" transform="translate(172.087 177.356)"><path class="j" d="M679.93,621.852a8.641,8.641,0,0,1-3.531,1.426.5.5,0,0,0-.343.6.5.5,0,0,0,.6.342,9.32,9.32,0,0,0,3.765-1.525.5.5,0,0,0,.176-.671.494.494,0,0,0-.67-.176Z" transform="translate(-676.042 -621.783)"/></g><g class="i" transform="translate(134.16 179.43)"><path class="j" d="M649.119,624.954a133.414,133.414,0,0,1-30.475,1.245c-.63-.047-.627.935,0,.98A134.542,134.542,0,0,0,649.38,625.9c.621-.1.358-1.043-.261-.946Z" transform="translate(-618.173 -624.947)"/></g></g><g transform="translate(643.33 151.128)"><g transform="translate(60.557 406.674)"><path class="y" d="M987.372,791.94c5,7.036,9.246,14.136,13.6,21.173,1.891,3.056,14.927,1.637,11-5.813-3.173-6.015-8.094-13.411-12.614-21.738Z" transform="translate(-986.192 -785.562)"/><path class="f" d="M986.136,862.5a6.038,6.038,0,0,1,2.023-7.147,24.2,24.2,0,0,0,9.786-22.883l-1.081-8.533a1.411,1.411,0,0,1,1.566-1.58l3.27.385a1.243,1.243,0,0,1,.48.168l8.065-4.278,1.662-.881.974-.517a.284.284,0,0,1,.381.125s3.251,2.624,12.735,21.173h0a1.451,1.451,0,0,1,1.962.6l1.122,2.115a1.979,1.979,0,0,1-.821,2.675l-11.137,5.907a.386.386,0,0,1-.521-.158l-.873-1.621a.59.59,0,0,0-.939-.18l-3.423,3.5a28.348,28.348,0,0,1-6.979,5.218L989.277,864.6a3.055,3.055,0,0,1-3.336-.386,1.039,1.039,0,0,1,.195-1.715Z" transform="translate(-985.572 -796.466)"/></g><g transform="translate(76.038 463.648)"><path class="y" d="M1035.765,875.424c2.936,8.12,5.119,16.1,7.426,24.043,1,3.452,13.942,5.579,12.153-2.652-1.445-6.645-4.2-15.089-6.326-24.323Z" transform="translate(-1018.35 -872.491)"/><path class="f" d="M1010.026,945.245a6.038,6.038,0,0,1,3.864-6.344,24.2,24.2,0,0,0,15.561-19.424l1.245-8.51a1.412,1.412,0,0,1,1.931-1.1l3.048,1.249a1.247,1.247,0,0,1,.417.29l8.917-1.96,1.838-.4,1.077-.237a.283.283,0,0,1,.333.221s2.429,3.4,6.594,23.812h0a1.452,1.452,0,0,1,1.729,1.106l.514,2.339a1.979,1.979,0,0,1-1.508,2.357l-12.313,2.706a.386.386,0,0,1-.46-.292l-.406-1.8a.59.59,0,0,0-.857-.425l-4.235,2.453a28.365,28.365,0,0,1-8.122,3.156l-16.7,3.672a3.053,3.053,0,0,1-3.11-1.266,1.038,1.038,0,0,1,.647-1.6Z" transform="translate(-1009.193 -885.002)"/></g><path class="y" d="M926.786,501.454c-6.337-8.225-14.393-16.727-15.641-15.8-2.185,1.618,3.829,6.8,3.289,7.388-1.123,1.235-5.953-.756-8.036-1.888-5.413-2.941-10.764-7.822-11.865-6.957-4.085,3.209,1.61,16.421,9.6,18.445,3.993,1.012,7.523-.579,9.937,1.025,3.386,2.251,4.085,3.965,6.3,5.555C922.416,510.693,929.253,504.655,926.786,501.454Z" transform="translate(-893.175 -275.004)"/><path class="y" d="M1108.451,326.528c-.411-4.18-2.724-6.648-1.82-13.311.861-6.339,5.823-7.874,7.517-16.951.333-1.785.506-3.729-.573-5.4-1.263-1.954-4.2-4.107-6.96-2.531-2.994,1.707-4.579,11.339-5.741,11.232-1.03-.094-.745-7.682-2.2-7.848-1.959-.223-3.124,5.288-3.3,11.392a39.116,39.116,0,0,0,.529,8.847c1.477,10.635.644,13.692,1.017,17.828Z" transform="translate(-962.837 -207.359)"/><path class="o" d="M945.795,662.731c0,27.811,25.635,56.017,35.99,73.384,0,0,6.614-2.506,10.706-7.364,5.271,25.873,16.554,61.267,16.554,61.267,1.483.593,13.2-2.6,13.2-2.6,3.627-30.728-10.278-44.416-3.493-95.125,3.288-24.574,12.535-40.817,15.533-83.705.626-8.963-1.888-19.173-5.825-25.672l-43.363,8.2C979.651,604.541,945.795,643.639,945.795,662.731Zm26.575,8.634c.012-19.424,23.3-34.733,23.3-34.733s-4.7,26.568-5.825,71.624a59.792,59.792,0,0,0,.658,9.064C983.8,707.562,972.359,688.4,972.37,671.365Z" transform="translate(-911.308 -309.057)"/><g transform="translate(61.98 125.855)"><g transform="translate(8.531 59.803)"><path class="h" d="M1001,449.024a26.611,26.611,0,0,0,.194,8.421,10.148,10.148,0,0,0,1.516,3.436,8.515,8.515,0,0,1,1.368,3.792c.09.918,1.542.955,1.45.026a10.04,10.04,0,0,0-1.073-3.717,15.893,15.893,0,0,1-1.757-3.477,24.3,24.3,0,0,1-.248-8.456c.1-.929-1.355-.95-1.45-.026Z" transform="translate(-1000.76 -448.342)"/></g><path class="y" d="M1044.282,451.622l-9.974-2.534a4.634,4.634,0,0,1-3.493-4.428l-.172-12.429c1.2-1.361,4.378-10.97,3.394-17.128-2.1-13.129-11.679-23.453-22.357-22.7-12.289.864-17.777,11.5-17.237,24.783.5,12.226,11.935,24.166,17.4,24.059l.028,3.813a4.636,4.636,0,0,1-3.473,4.521l-8.906,2.306c.987,3.049,11.344,9.421,21.641,9.421C1034.118,461.306,1044.282,451.622,1044.282,451.622Z" transform="translate(-990.039 -369.249)"/><path class="h" d="M1016.01,422.833c-.445-.506-.157-.834.976-1.187a11.414,11.414,0,0,1,3.6-.376c2.467.156,3.939,1.539,3.211,1.365a13.117,13.117,0,0,0-4.674-.228C1017.786,422.508,1016.31,423.174,1016.01,422.833Z" transform="translate(-997.415 -379.204)"/><path class="h" d="M1002.775,424.884c.291-.589-.045-.846-1.155-.948a10.468,10.468,0,0,0-3.365.406c-1.809.523-2.871,2.181-2.379,1.944a11,11,0,0,1,3.965-1.15C1001.086,424.948,1002.578,425.281,1002.775,424.884Z" transform="translate(-990.505 -380.122)"/><path class="f" d="M1021.808,432.137a.826.826,0,1,1-.728-.913A.826.826,0,0,1,1021.808,432.137Z" transform="translate(-998.914 -382.638)"/><path class="f" d="M1003.917,435.49a.826.826,0,1,1-.728-.914A.826.826,0,0,1,1003.917,435.49Z" transform="translate(-992.749 -383.794)"/><g transform="translate(14.93 52.672)"><path class="z" d="M1010.836,437.6c-.04.634-.12,1.263-.2,1.892a8.07,8.07,0,0,0-.108,1.334.934.934,0,0,0,.315.762,1.319,1.319,0,0,0,1.045.137,1.717,1.717,0,0,0,1.121-1.065.156.156,0,0,0-.289-.115,1.344,1.344,0,0,1-1.164.917c-.324.009-.63-.089-.695-.432a4.417,4.417,0,0,1,.062-1.335c.087-.686.179-1.369.223-2.059.012-.2-.3-.236-.309-.036Z" transform="translate(-1010.524 -437.462)"/></g><path class="aa" d="M1021.032,464.12l-.016-2.19c6.765.107,15.518-9.536,15.518-9.536C1034.61,458.041,1027.5,463.805,1021.032,464.12Z" transform="translate(-999.209 -389.935)"/><path class="h" d="M999.81,387.73c-5.216.391-8.883,4.267-10.879,8.8-3.044,6.921.394,12.833,3.265,18.3a25.449,25.449,0,0,1,2.675-10.646c1.719-3.111,5.04-5.09,5.442-5.072,10.047.442,16.691,10.086,23.589,11.354,0,0,2.815,1.594,4.36,7.615,0,0-.106,7.111.083,10.882,0,0,21.139-3.8,8.923-33.325C1033.912,387.531,1017.768,376.375,999.81,387.73Z" transform="translate(-987.744 -365.987)"/><path class="y" d="M1049.588,427.068a4.5,4.5,0,1,1-4.854-4.107A4.5,4.5,0,0,1,1049.588,427.068Z" transform="translate(-1005.961 -379.788)"/><path class="z" d="M1048.692,428.559a1.411,1.411,0,0,0-1.078-.442,3.007,3.007,0,0,1,.974-1.131.261.261,0,0,0,.1-.347.257.257,0,0,0-.347-.1,3.563,3.563,0,0,0-1.279,1.553,4.236,4.236,0,0,0-.174,2.19c.047.325.541.2.495-.125a4.045,4.045,0,0,1,.051-1.533h.012l.1,0a1.687,1.687,0,0,1,.2.009l.051.006.081.017a1.664,1.664,0,0,1,.168.053h.005l.018.009c.019.01.037.019.055.029.037.021.07.045.1.069a.185.185,0,0,0,.016.014c.016.016.032.03.047.046s.026.028.037.043a.148.148,0,0,1,.016.02c.02.03.04.059.057.091s.018.037.028.056l0,.009c.011.039.026.077.035.116,0,.018.014.052.018.082a.047.047,0,0,0,0,.014l0,.032c0,.021,0,.043,0,.064,0,.037,0,.075-.005.112,0,.009-.006.043-.007.054l0,.022a1.212,1.212,0,0,1-.031.118c-.012.039-.03.076-.043.115.022-.067,0,0-.008.014s-.018.034-.027.05a1.225,1.225,0,0,1-.071.111l-.036.047c.043-.058,0,0-.012.012a.261.261,0,0,0-.008.361.257.257,0,0,0,.361.007,1.538,1.538,0,0,0,.353-.643A1.355,1.355,0,0,0,1048.692,428.559Zm-.9.076Z" transform="translate(-1008.102 -381.014)"/><path class="h" d="M1030.1,369.3c0,5.962-1.874,13.351-14.568,13.428-9.554.058-14.474-5.494-14.347-12.572s7.727-13.187,14.8-13.062S1030.1,362.224,1030.1,369.3Z" transform="translate(-992.376 -357.096)"/><g transform="translate(33.939 42.688)"><path class="h" d="M1041.04,422.468c-2.8,3.349-1.115,7.968.261,11.544a29.851,29.851,0,0,1,1.956,6.362,27.533,27.533,0,0,1,.185,3.811,19.512,19.512,0,0,1-.2,3.632c-.464,2.51-1.667,4.876-1.485,7.483.065.924,1.516.959,1.45.026-.155-2.211.758-4.247,1.266-6.355a24.833,24.833,0,0,0,.375-7,21.471,21.471,0,0,0-1.411-6.4,55.192,55.192,0,0,1-2.146-6.154c-.459-1.925-.6-4.286.756-5.9.594-.71-.408-1.76-1.007-1.044Z" transform="translate(-1039.527 -422.228)"/></g><g transform="translate(14.516 59.663)"><g class="ad"><path class="w" d="M1014.191,452.1a4.395,4.395,0,0,1-4.217-1.749c-.107-.126-.121-.3.022-.332,0,0,2.281-.448,3.738-.79,1.521-.359,3.719-1.094,3.719-1.094.14-.031.248.114.179.381A4.978,4.978,0,0,1,1014.191,452.1Z" transform="translate(-1009.892 -448.129)"/><path class="j" d="M1017.356,447.779c.682.24-1.586,1.574-3.791,2.15-1.854.484-4.132,0-4.066-.271Z" transform="translate(-1009.756 -448.008)"/></g></g></g><path class="d" d="M1050.393,334.429l-9.969-.2c-8.575,8.926-4.316,27.8-9.6,48.217a137.6,137.6,0,0,1-21.409,42.18s-5.774,7.061-13.971,8.518c-6.456,1.147-17.347-1.294-17.347-1.294-4.307.957-8.521,4.817-10.7,7.227-9.452,10.462-3.862,28.258-7.443,29.286,0,0-11.43-20.384-20.266-19.983l-7.09,8.311c-3.279,10.862,21.563,51.643,30.16,51.528,7.025-.094,11.218-12.62,11.218-12.62l.014,9.775c5.312,9.333,47.7,6.857,60.23-15.007a214.851,214.851,0,0,1,.162-48.54c1.617-14.077,12.38-23.29,19.847-53.34C1056.646,378.765,1058.653,347.824,1050.393,334.429Z" transform="translate(-906.659 -223.362)"/><g transform="translate(85.249)"><path class="h" d="M1023.666,218.1c.012-.051.031-.1.046-.149.054-.2.111-.4.182-.585.017-.047.039-.09.057-.137.074-.19.151-.379.239-.562.021-.043.047-.083.068-.126.092-.18.186-.359.292-.53l.005-.01h0a7.619,7.619,0,0,1,3.79-3.123,7.53,7.53,0,0,1-.562-4.134h0l.185-1.254h0v-.009a7.62,7.62,0,0,1,.154-.764c.015-.058.036-.113.052-.172.054-.192.109-.383.178-.568.022-.058.049-.113.072-.17.071-.181.144-.36.229-.533.027-.056.06-.108.089-.163.088-.168.177-.336.276-.5,0-.007.008-.014.012-.021v0a7.588,7.588,0,0,1,7.54-3.5l23.317,3.433a7.624,7.624,0,0,1,1.459.366l-1.081-21.718a25.574,25.574,0,0,1,1.123-9.071c1.222-3.832,3.7-8.1,8.693-8.963a5.068,5.068,0,0,1,5.855,4.927l.136,6.117a67.313,67.313,0,0,0,.943,10.016c1.517,8.713,4.347,13.48,10.1,17.008l.083.05a34.2,34.2,0,0,0,12.908,4.7l4.37.643a2.262,2.262,0,0,1,1.908,2.568l-6.492,44.1-.46,0a128.152,128.152,0,0,0-25.41,2.675,22.989,22.989,0,0,1-7.786.186l-13.637-2.008c-.014,0-.027-.008-.041-.01a8.191,8.191,0,0,1-.887-.08l-15.989-2.354a8.187,8.187,0,0,1-6.742-10.225c.023-.088.053-.172.079-.259.062-.206.128-.41.205-.608.035-.092.075-.181.114-.271q.122-.286.264-.558c.042-.083.086-.164.132-.244.106-.187.22-.369.341-.547.029-.043.052-.091.083-.134l0,.007c.021-.029.039-.06.06-.088a8.169,8.169,0,0,1-5.619-9.972c.022-.085.051-.165.076-.248.062-.21.13-.417.208-.62.035-.089.073-.176.111-.264q.124-.29.268-.567c.042-.08.084-.159.129-.237.108-.191.224-.375.346-.555.028-.042.051-.088.081-.129l0,.007a8.167,8.167,0,0,1,.6-.767,7.581,7.581,0,0,1-3.1-7.265h0l.185-1.254A7.669,7.669,0,0,1,1023.666,218.1Z" transform="translate(-1023.246 -165.07)"/><path class="j" d="M1162.483,228.056l-7.706,52.332-21.866-3.219,7.7-52.333Z" transform="translate(-1061.036 -185.665)"/><path class="d" d="M1181.336,224.922l-8.739,59.352a1.156,1.156,0,0,1-1.312.975l-27.734-4.083a1.157,1.157,0,0,1-.975-1.313l8.739-59.351a1.157,1.157,0,0,1,1.312-.976l27.734,4.084A1.156,1.156,0,0,1,1181.336,224.922Z" transform="translate(-1064.362 -183.831)"/></g><g class="i" transform="translate(106.941 199.38)"><path class="j" d="M1076.5,485.52a27.976,27.976,0,0,1-20.139-15.877c-.124-.277.286-.519.41-.24a27.537,27.537,0,0,0,19.854,15.658c.3.056.173.514-.126.459Z" transform="translate(-1056.343 -469.279)"/></g><g class="i" transform="translate(60.316 216.934)"><path class="j" d="M985.658,496.166c1.032,1.433,2.342,2.643,3.328,4.111a14.682,14.682,0,0,1,1.926,4.277,22,22,0,0,1,.16,9.935c-.689,3.655-2.172,7.09-2.909,10.728-.792,3.915.052,7.768,1,11.576,1.049,4.193,2.382,8.307,3.713,12.418.094.292-.364.416-.458.126-1.173-3.621-2.347-7.245-3.327-10.924-.938-3.519-1.98-7.264-1.724-10.939.245-3.522,1.661-6.818,2.569-10.194a25.625,25.625,0,0,0,.89-10.9,15.212,15.212,0,0,0-1.969-5.41c-1.02-1.662-2.479-2.982-3.615-4.558-.18-.249.233-.486.41-.24Z" transform="translate(-985.203 -496.062)"/></g><g class="i" transform="translate(53.369 245.142)"><path class="j" d="M975,539.185a21.532,21.532,0,0,1,4.2,13.533.238.238,0,0,1-.475,0,21.027,21.027,0,0,0-4.061-13.2c-.187-.238.147-.577.336-.336Z" transform="translate(-974.605 -539.102)"/></g><g transform="translate(103.763 285.716)"><path class="x" d="M1065.765,617.65a24.66,24.66,0,0,1-8.261-6.989c-2.354-2.857-4.687-5.867-5.993-9.366-.107-.287.353-.411.459-.126,1.3,3.495,3.676,6.519,6.038,9.359a24.025,24.025,0,0,0,8,6.712c.277.13.035.54-.24.41Z" transform="translate(-1051.495 -601.007)"/></g><g transform="translate(65.928 290.112)"><path class="x" d="M1005.217,608.064a23.077,23.077,0,0,1-4.822,5.737,15.353,15.353,0,0,1-6.332,2.924c-.3.062-.426-.4-.126-.458a14.915,14.915,0,0,0,6.17-2.841,22.616,22.616,0,0,0,4.7-5.6c.168-.254.579-.016.41.24Z" transform="translate(-993.767 -607.715)"/></g><g transform="translate(84.33 302.171)"><path class="x" d="M1021.846,650.763a240.705,240.705,0,0,1,3.833-24.477c.063-.3.521-.173.458.126a239.416,239.416,0,0,0-3.816,24.351c-.031.3-.507.3-.475,0Z" transform="translate(-1021.845 -626.115)"/></g><g transform="translate(98.574 471.562)"><path class="x" d="M1055.8,885.043a39.349,39.349,0,0,1-12,2.8c-.306.022-.3-.453,0-.475a38.937,38.937,0,0,0,11.87-2.785c.283-.115.406.344.126.458Z" transform="translate(-1043.577 -884.567)"/></g><g transform="translate(67.87 411.878)"><path class="x" d="M1008.113,793.915a25.62,25.62,0,0,1-5.026,4.113,42.363,42.363,0,0,1-5.993,3.541c-.277.123-.519-.286-.24-.411a41.7,41.7,0,0,0,5.831-3.433,25.629,25.629,0,0,0,5.093-4.145c.2-.228.54.109.336.336Z" transform="translate(-996.73 -793.503)"/></g><g class="i" transform="translate(75.869 263.796)"><path class="j" d="M1057.238,567.958c-5.025,4.159-10.131,8.378-16.049,11.217a45.386,45.386,0,0,1-9.466,3.147,77.591,77.591,0,0,1-10.593,1.764,47.864,47.864,0,0,1-12.024-.359c-.3-.049-.173-.507.127-.458,7.1,1.163,14.341.374,21.324-1.17a48.624,48.624,0,0,0,9.649-2.988,49.7,49.7,0,0,0,8.042-4.705c3-2.112,5.83-4.448,8.655-6.785.234-.193.572.141.336.336Z" transform="translate(-1008.935 -567.563)"/></g><g class="i" transform="translate(116.694 239.916)"><path class="j" d="M1074.152,534.567l-2.791-2.633a.479.479,0,0,1,0-.672.485.485,0,0,1,.672,0l2.791,2.632a.481.481,0,0,1,0,.672.486.486,0,0,1-.672,0Z" transform="translate(-1071.223 -531.127)"/></g><g class="i" transform="translate(77.477 255.566)"><path class="j" d="M1011.456,558.371l2.215-3.132a.488.488,0,0,1,.65-.17.479.479,0,0,1,.171.65l-2.215,3.132a.489.489,0,0,1-.651.17.48.48,0,0,1-.17-.65Z" transform="translate(-1011.388 -555.005)"/></g><g class="i" transform="translate(96.759 267.836)"><path class="j" d="M1040.828,577.758l1.028-3.7a.476.476,0,0,1,.917.252q-.514,1.848-1.029,3.7a.476.476,0,0,1-.916-.253Z" transform="translate(-1040.808 -573.727)"/></g><g class="i" transform="translate(76.384 217.847)"><path class="j" d="M1009.823,501.749l-.1-3.835a.476.476,0,0,1,.951,0q.051,1.918.1,3.835a.475.475,0,0,1-.95,0Z" transform="translate(-1009.72 -497.455)"/></g><g class="i" transform="translate(130.391 144.653)"><path class="j" d="M1095.05,389.217l-2.79-2.632a.479.479,0,0,1,0-.672.485.485,0,0,1,.672,0l2.791,2.632a.48.48,0,0,1,0,.672.486.486,0,0,1-.672,0Z" transform="translate(-1092.122 -385.778)"/></g><g class="i" transform="translate(132.074 119.928)"><path class="j" d="M1094.759,351.427l2.2-3.14a.488.488,0,0,1,.651-.17.48.48,0,0,1,.17.65l-2.2,3.14a.488.488,0,0,1-.65.17.478.478,0,0,1-.17-.65Z" transform="translate(-1094.691 -348.053)"/></g><g class="i" transform="translate(105.216 217.048)"><path class="j" d="M1057.813,497.952l-3.754-.787a.476.476,0,0,1,.252-.917l3.755.788a.475.475,0,1,1-.253.916Z" transform="translate(-1053.712 -496.236)"/></g><g class="i" transform="translate(31.593 238.586)"><path class="j" d="M944.308,532.539l-2.791-2.632a.479.479,0,0,1,0-.672.486.486,0,0,1,.672,0l2.79,2.632a.48.48,0,0,1,0,.672.485.485,0,0,1-.672,0Z" transform="translate(-941.38 -529.099)"/></g><g class="i" transform="translate(45.108 254.816)"><path class="j" d="M962.067,557.234l2.205-3.139a.489.489,0,0,1,.651-.17.48.48,0,0,1,.17.65l-2.205,3.139a.488.488,0,0,1-.651.17.48.48,0,0,1-.17-.65Z" transform="translate(-962 -553.861)"/></g><g class="i" transform="translate(122.047 190.861)"><path class="j" d="M1080.29,460.614q-.442-1.867-.885-3.733a.476.476,0,0,1,.917-.253q.442,1.866.885,3.733a.476.476,0,0,1-.917.253Z" transform="translate(-1079.391 -456.281)"/></g><g class="i" transform="translate(95.195 239.958)"><path class="j" d="M1039.864,531.667l-.489,3.8a.491.491,0,0,1-.475.475.478.478,0,0,1-.475-.475l.489-3.8a.491.491,0,0,1,.475-.476.478.478,0,0,1,.475.476Z" transform="translate(-1038.422 -531.191)"/></g><g class="i" transform="translate(136.514 171.233)"><path class="j" d="M1101.528,429.838q1-1.636,2-3.273a.476.476,0,0,1,.821.48l-2,3.273a.476.476,0,1,1-.821-.48Z" transform="translate(-1101.464 -426.332)"/></g><g class="i" transform="translate(51.724 271.129)"><path class="j" d="M975.022,582.191l-2.791-2.632a.479.479,0,0,1,0-.672.485.485,0,0,1,.672,0l2.791,2.632a.48.48,0,0,1,0,.672.485.485,0,0,1-.672,0Z" transform="translate(-972.094 -578.751)"/></g><g class="i" transform="translate(146.055 78.997)"><path class="j" d="M1121.05,285.614q-2.323.492-4.67.852a.494.494,0,0,0-.343.6.5.5,0,0,0,.6.342q2.347-.36,4.671-.852a.49.49,0,1,0-.261-.945Z" transform="translate(-1116.022 -285.602)"/></g><g class="i" transform="translate(114.668 76.964)"><path class="j" d="M1094.5,285.443a98.456,98.456,0,0,1-25.753-2.927.491.491,0,0,0-.261.946,99.541,99.541,0,0,0,26.014,2.962.491.491,0,0,0,0-.98Z" transform="translate(-1068.132 -282.499)"/></g></g><g transform="translate(978.311 124.612)"><path class="g" d="M1480.211,330.684c.821-4.119,3.365-6.348,3.122-13.067-.233-6.393-5.02-8.409-5.812-17.609-.155-1.809-.137-3.76,1.1-5.316,1.449-1.82,4.582-3.673,7.176-1.833,2.81,1.994,3.44,11.734,4.607,11.743,1.034.007,1.5-7.571,2.963-7.593,1.972-.029,2.59,5.57,2.159,11.66a39.056,39.056,0,0,1-1.4,8.752c-2.517,10.438-1.989,13.562-2.767,17.641Z" transform="translate(-1429.495 -182.327)"/><path class="g" d="M1624.871,371.582c-.82-4.12-3.365-6.348-3.121-13.067.232-6.393,5.02-8.409,5.812-17.609.156-1.809.137-3.76-1.1-5.315-1.449-1.821-4.582-3.674-7.176-1.834-2.811,1.994-3.44,11.734-4.607,11.743-1.034.007-1.5-7.571-2.964-7.593-1.972-.029-2.589,5.57-2.159,11.66a39.1,39.1,0,0,0,1.4,8.753c2.517,10.437,1.989,13.562,2.767,17.641Z" transform="translate(-1474.972 -196.42)"/><g transform="translate(98.045 484.9)"><g class="ae"><path class="g" d="M1592.881,891.906c-2.867-2.764-8.9-8.866-8.9-8.866-3.664-4-9.625-10.774-16.525-18.58L1553.875,875.2c5.658,5.222,15.109,14.692,16.854,17.38,4.977,7.671-4.677,21.352-4.894,28.583-.09,3,1.823,6.4,6.785,5.243,3.579-.832,15.331-15.883,21.05-24.314A7.962,7.962,0,0,0,1592.881,891.906Z" transform="translate(-1553.875 -864.46)"/><path class="f" d="M1591.214,893.32a42.676,42.676,0,0,1-14.125,9.364l.788,2.163a49.937,49.937,0,0,0,13.131-7.7,24.474,24.474,0,0,0,5.135,13.585c-.511,3.529-3.932,9.026-9.622,14.245-2.442-2.12-7.748-4.514-11.829-3.679l-1.115,3.607s-3.34,7.011-.174,10.379l5.616,4.043,27.1-32.726-4.969-5.052Z" transform="translate(-1560.134 -874.405)"/></g></g><g transform="translate(36.795 451.669)"><g class="af"><path class="g" d="M1500.327,839.687c-3.021-2.595-9.4-8.337-9.4-8.337-3.889-3.778-10.232-10.2-17.572-17.593l-12.939,11.507c5.95,4.885,15.933,13.794,17.83,16.376,5.413,7.37-3.434,21.588-3.232,28.818.084,3,2.19,6.279,7.076,4.841,3.524-1.037,14.387-16.744,19.608-25.491A7.962,7.962,0,0,0,1500.327,839.687Z" transform="translate(-1460.421 -813.757)"/><path class="f" d="M1499.564,841.025A42.681,42.681,0,0,1,1486,851.19l.912,2.114a49.935,49.935,0,0,0,12.664-8.448,24.473,24.473,0,0,0,5.911,13.266c-.3,3.552-3.4,9.238-8.782,14.777-2.56-1.975-8-4.058-12.021-2.989l-.905,3.665s-2.929,7.193.427,10.372l5.84,3.712,25.164-34.24-5.252-4.756Z" transform="translate(-1468.063 -823.153)"/></g></g><path class="g" d="M1489.615,575.127c.054,5.69,2.32,15.371,2.32,15.371,36.81,1.645,48.135-7.659,48.135-7.659.435-1.1-.324-6.432-.162-10.436Z" transform="translate(-1433.686 -278.918)"/><path class="o" d="M1501.776,428.257c-6.517,1.1-8.478-2.378-9.323-3.469-7.523-9.708-10.578-29.66-8.78-43.844A130.077,130.077,0,0,1,1489.525,355c-5.825-7.767-17.313-5.987-17.313-5.987-12.426,10.421-17.231,50.01,1.591,91.957.145.324-.543,8.7-.648,20.063-.19,20.814,1.4,37.484,1.4,37.484,25.241,8.575,57.6-1.726,57.6-1.726,4.045-10.409,1.188-28.027,12.027-47.246,6.418-11.38,31.438-17.98,38.994-38.832,4.507-12.44-.863-27.075-5.825-34.949,0,0-12.027-1.51-19.065,4.072a95.854,95.854,0,0,1,2.4,18.257c.153,14.089-34.414,27.636-39.857,27.56Z" transform="translate(-1423.915 -201.879)"/><path class="h" d="M1462.529,595.985c27.91-.621,48.135-7.659,48.135-7.659,9.756,10,14.361,26.205,14.8,34.788,1.456,28.153-22.2,50.665-26.7,86.887-2.913,23.461,8.338,41.621,27.592,69.613,0,0-6.653,9.823-15.04,12.007,0,0-41.353-36.8-43.457-64.793-2.736-36.419,13.268-68.334,13.268-68.334s-42.553,33.061-42.23,43.417c.549,17.577,13.95,26.36,25.222,44.051,0,0-4.872,9.633-11.769,13.051,0,0-48.079-33.641-48.079-55.97,0-23.407,53.664-66.446,56.792-81.871C1463.074,611.3,1462.529,595.985,1462.529,595.985Z" transform="translate(-1404.28 -284.405)"/><path class="d" d="M1624.8,194.624l-43.565-16.554a4.838,4.838,0,0,1-3.076-3.868l-6.319-46.174a3.948,3.948,0,0,0-6.988-1.939l-29.206,36.318a4.839,4.839,0,0,1-4.629,1.73l-45.867-8.259a3.947,3.947,0,0,0-4,6.046l25.515,39a4.838,4.838,0,0,1,.215,4.937l-22.028,41.07a3.948,3.948,0,0,0,4.514,5.676l44.975-12.215a4.838,4.838,0,0,1,4.761,1.321l32.252,33.641a3.948,3.948,0,0,0,6.793-2.539l2.281-46.548a4.839,4.839,0,0,1,2.728-4.121l41.962-20.278A3.948,3.948,0,0,0,1624.8,194.624Z" transform="translate(-1430.543 -124.612)"/><g class="i" transform="translate(93.871 311.709)"><path class="j" d="M1547.515,600.5c1.68,6.169,7.685,9.368,13.333,11.207.292.095.416-.364.126-.458-5.485-1.786-11.367-4.874-13-10.875a.238.238,0,0,0-.458.126Z" transform="translate(-1547.506 -600.209)"/></g><g class="i" transform="translate(60.108 315.07)"><path class="j" d="M1496.4,617.588c3.3-3.369,6.582-7.141,7.379-11.952.05-.3-.408-.428-.458-.127-.784,4.735-4.007,8.427-7.257,11.742-.214.219.121.555.336.336Z" transform="translate(-1495.991 -605.338)"/></g><g transform="translate(49.961 232.874)"><path class="x" d="M1480.958,486.125a7.634,7.634,0,0,1,2.078-1.781c.7-.516,1.41-1.02,2.142-1.489a28.9,28.9,0,0,1,5.089-2.454c.282-.111.159-.57-.126-.458a29.408,29.408,0,0,0-5.349,2.6c-.8.52-1.578,1.083-2.346,1.654a6.981,6.981,0,0,0-1.9,1.693c-.163.26.248.5.41.24Z" transform="translate(-1480.51 -479.925)"/></g><g transform="translate(49.945 232.082)"><path class="x" d="M1481,485.392c-.254-2.234.689-4.336,1.606-6.313.128-.275-.282-.517-.41-.24-.951,2.049-1.934,4.238-1.671,6.553.034.3.509.3.475,0Z" transform="translate(-1480.484 -478.716)"/></g><g transform="translate(65.846 251.266)"><path class="h" d="M1531.635,518.732a7.34,7.34,0,0,0-5.973-8.491c-2.608-.454-5.3,1.52-6.931,3.368-.912-2.291-2.778-5.058-5.385-5.512a7.334,7.334,0,0,0-6.955,11.85l8.463,12.031a.948.948,0,0,0,1.32.23l12.031-8.464A7.313,7.313,0,0,0,1531.635,518.732Z" transform="translate(-1504.747 -507.987)"/></g><g transform="translate(62.348 164.719)"><path class="f" d="M1500.977,428.869c-3.457-7.424,9.947-34.662,13.977-34.951,6.141-.441,3,53.963,3,53.963C1503.87,445.125,1502.076,431.232,1500.977,428.869Z" transform="translate(-1499.755 -382.131)"/><path class="g" d="M1537.375,446.059l3-16.171c1.722-.726,8.991-8.227,10.841-14.391,3.943-13.141-.325-27.033-10.584-31.127-11.807-4.712-21.678,2.7-27.139,15.291s-2.475,27,7.658,31.4l-3.182,12.223C1517.592,448.566,1537.158,451.5,1537.375,446.059Z" transform="translate(-1503.334 -378.349)"/><path class="f" d="M1522.79,411.53c.494-.464.24-1.067-.8-1.565a9.657,9.657,0,0,0-3.209-.8c-1.937-.146-3.731,1.283-3.17,1.231a11.352,11.352,0,0,1,4.248.317C1521.134,410.983,1522.457,411.843,1522.79,411.53Z" transform="translate(-1504.958 -387.384)"/><g transform="translate(16.211 32.04)"><path class="q" d="M1525.8,424.889c-.285.505-.6.992-.917,1.477a7.32,7.32,0,0,0-.619,1.055.856.856,0,0,0-.045.752,1.207,1.207,0,0,0,.806.528,1.566,1.566,0,0,0,1.346-.431c.136-.122-.056-.33-.192-.208a1.228,1.228,0,0,1-1.323.292c-.269-.121-.483-.324-.4-.632a4.044,4.044,0,0,1,.582-1.074c.344-.529.691-1.055,1-1.606.09-.159-.149-.311-.239-.152Z" transform="translate(-1524.144 -424.821)"/></g><path class="p" d="M1525.754,456.831l.55-2.113c10.759,1.963,16.413-3.132,16.413-3.132C1538.394,455.969,1533.89,459.461,1525.754,456.831Z" transform="translate(-1508.488 -402.004)"/><path class="f" d="M1527,376.466a1.759,1.759,0,0,1-.641.025c-4.212-1-7.073-.195-11.036,2.958-7.035,5.595-19.938,26.912-14.7,43.224,0,0,7.373-30.847,14.358-34.451,2.993-2.118,8.446-1.262,8.812-1.065,9.137,4.921,10.981,16.863,16.822,21.137,0,0,.795,2.264-.471,8.552,0,0-7,9.868-9.918,27.618-1.864,11.343-14.178,34.408,1.886,29.554,9.673-2.923,13.451-10.165,19.536-23.425,5.947-12.958,5.908-39.613,6.515-49.4C1558.728,392.221,1546.759,372.45,1527,376.466Z" transform="translate(-1499.41 -375.935)"/><path class="g" d="M1566.246,431.069a4.639,4.639,0,1,1-2.668-5.994A4.64,4.64,0,0,1,1566.246,431.069Z" transform="translate(-1519.349 -392.762)"/><path class="ag" d="M1547.618,434.875a3.055,3.055,0,1,1-2.4-3.59A3.055,3.055,0,0,1,1547.618,434.875Z" transform="translate(-1513.937 -394.988)"/><path class="ag" d="M1515.012,427.268a3.055,3.055,0,0,1-3.59,2.4,1.732,1.732,0,0,1-.446-.124s-.182-2.372-.178-3.156c0-.627.109-2.565.109-2.565a2.882,2.882,0,0,1,1.7-.149A3.055,3.055,0,0,1,1515.012,427.268Z" transform="translate(-1503.334 -392.365)"/><path class="f" d="M1537.031,415.157c-.284-.629.208-1.074,1.412-1.1a10.66,10.66,0,0,1,3.421.612c1.927.675,3.068,2.727,2.548,2.445a12.506,12.506,0,0,0-4.224-1.483C1538.853,415.348,1537.223,415.581,1537.031,415.157Z" transform="translate(-1512.347 -389.072)"/><path class="q" d="M1564.468,431.359a1.5,1.5,0,0,0-.991-.743,3.207,3.207,0,0,1,1.3-.9.277.277,0,0,0,.195-.33.273.273,0,0,0-.33-.195,3.779,3.779,0,0,0-1.731,1.254,4.5,4.5,0,0,0-.765,2.206c-.039.347.5.347.543,0a4.288,4.288,0,0,1,.462-1.562l.012,0,.1.024a1.857,1.857,0,0,1,.2.062l.051.02.079.039c.055.03.106.065.158.1l0,0,.017.014c.016.014.033.029.048.045a1.282,1.282,0,0,1,.089.1l.013.02c.012.02.025.039.036.06s.019.035.027.053.009.02.011.026c.012.036.025.071.034.109.005.022.009.044.013.066v.01c0,.043.006.085.005.128,0,.019,0,.058,0,.089l0,.014c0,.011,0,.022-.006.033s-.01.045-.015.066c-.01.039-.022.077-.036.114,0,.008-.017.043-.021.053l-.011.022a1.184,1.184,0,0,1-.064.113c-.023.037-.051.071-.075.107.041-.062,0,0-.012.013s-.027.03-.041.045c-.033.033-.067.066-.1.1l-.048.038c.059-.049,0,0-.016.01a.276.276,0,0,0-.1.369.274.274,0,0,0,.369.1,1.634,1.634,0,0,0,.535-.567A1.443,1.443,0,0,0,1564.468,431.359Zm-.95-.163Z" transform="translate(-1521.028 -394.282)"/><g transform="translate(13.49 40.25)"><g class="ah"><path class="w" d="M1523.055,440.254a3.868,3.868,0,0,1-3.038-2.635c-.055-.135-.018-.284.111-.271,0,0,2.031.261,3.344.379,1.371.124,3.413.121,3.413.121.126.013.176.165.044.369A4.387,4.387,0,0,1,1523.055,440.254Z" transform="translate(-1519.993 -437.347)"/><path class="j" d="M1526.925,437.506c.5.39-1.764.874-3.767.742-1.684-.111-3.453-1.153-3.323-1.358Z" transform="translate(-1519.936 -437.189)"/></g></g><path class="f" d="M1537.289,424.826a.878.878,0,1,0,.994-.745A.877.877,0,0,0,1537.289,424.826Z" transform="translate(-1512.459 -392.523)"/><path class="f" d="M1518.849,419.951a.878.878,0,1,0,.994-.744A.878.878,0,0,0,1518.849,419.951Z" transform="translate(-1506.105 -390.843)"/></g><g transform="translate(72.773 232.174)"><path class="x" d="M1515.345,479.215c1.491,2.834,4.681,4.792,7.5,6.093a23.647,23.647,0,0,0,9.709,2.164.238.238,0,0,0,0-.475,23.084,23.084,0,0,1-9.469-2.1c-2.757-1.271-5.877-3.157-7.333-5.923-.142-.271-.552-.031-.41.24Z" transform="translate(-1515.316 -478.857)"/></g><g class="i" transform="translate(103.437 490.194)"><path class="j" d="M1562.388,884.5a25.08,25.08,0,0,0,7.134-4.808,42.252,42.252,0,0,0,6.188-6.814c.184-.245-.229-.482-.411-.24a41.314,41.314,0,0,1-5.931,6.559,24.928,24.928,0,0,1-7.107,4.844c-.282.11-.158.57.126.458Z" transform="translate(-1562.102 -872.537)"/></g><g class="i" transform="translate(43.66 457.442)"><path class="j" d="M1471.237,834.17a52.815,52.815,0,0,0,11.261-11.262c.181-.247-.231-.484-.411-.24A52.066,52.066,0,0,1,1471,833.759c-.244.18-.007.592.24.41Z" transform="translate(-1470.895 -822.565)"/></g><g class="i" transform="translate(85.563 429.808)"><path class="j" d="M1534.851,780.766c1.641,3.833,4.217,7.516,8.1,9.315.276.128.518-.282.241-.41-3.818-1.768-6.318-5.378-7.93-9.144-.12-.281-.53-.039-.411.24Z" transform="translate(-1534.829 -780.402)"/></g><g transform="translate(136.809 194.992)"><path class="x" d="M1613.412,425.014a4.722,4.722,0,0,1,1.816-1.219,13.242,13.242,0,0,1,2.089-.744,13.616,13.616,0,0,1,4.459-.415c.305.021.3-.454,0-.476a13.852,13.852,0,0,0-6.925,1.289,4.767,4.767,0,0,0-1.774,1.229c-.19.237.144.575.336.336Z" transform="translate(-1613.02 -422.125)"/></g><g transform="translate(136.816 189.699)"><path class="x" d="M1613.495,422.121c.939-4.224,5.034-6.422,8.839-7.6.292-.09.167-.549-.126-.458-3.961,1.228-8.2,3.544-9.171,7.934-.066.3.392.425.458.126Z" transform="translate(-1613.03 -414.049)"/></g><g class="i" transform="translate(68.215 42.668)"><path class="j" d="M1508.49,190.564a248.656,248.656,0,0,1,15.954,19.957c.365.508,1.216.019.847-.495a251.332,251.332,0,0,0-16.108-20.156c-.42-.473-1.111.223-.693.693Z" transform="translate(-1508.361 -189.713)"/></g><g class="i" transform="translate(87.484 67.809)"><path class="j" d="M1537.893,228.921q3,3.292,5.889,6.681c.41.48,1.1-.216.693-.693q-2.889-3.388-5.889-6.681c-.426-.467-1.117.227-.693.693Z" transform="translate(-1537.761 -228.073)"/></g></g><g transform="translate(791.602 295.553)"><g transform="translate(10.239 334.427)"><path class="ai" d="M1243.564,895.69l-13.044.518,2.391,25.952,10.42-.342Z" transform="translate(-1167.933 -895.69)"/><path class="ai" d="M1176.361,898.773h-13.928l2.126,27.519,10.377-.253Z" transform="translate(-1144.47 -896.752)"/><path class="f" d="M1165.873,928.4c1.951.566,4.073,15.547,1.421,17.461-4.769,3.442-18.517,5.8-23.791,6.283-4.845.441-9.3-2.545-8.348-6.142,1.017-3.854,15.137-10.3,16.4-16.183.477-2.226,3.215-4.119,4.7-2.62,2.048,2.065,2.387,4.368,4.876,4.238A5.243,5.243,0,0,0,1165.873,928.4Z" transform="translate(-1135.026 -906.363)"/><path class="f" d="M1244.121,922.357c-.676-.385-1.331-.8-1.331-.8-1.468-2-3.135-3.024-4.692-2.983A5.483,5.483,0,0,0,1233.8,922a2.443,2.443,0,0,0-1.155.17,3.329,3.329,0,0,0-2.129,3.118s2.082,12.068.151,19.6c-.48,1.872,1.95,6.662,7.607,6.662,5.16,0,7.561-4.172,7.363-6.208-.5-5.142-.16-20.671-.16-20.671A2.685,2.685,0,0,0,1244.121,922.357Z" transform="translate(-1167.933 -903.576)"/></g><g transform="translate(22.094 6.36)"><path class="f" d="M1153.378,429.458c0,5.151-1.19,15.937,1.481,16.335.948.142,7.93-.037,9.007,0,7.31.254,16.447,1.112,16.447,1.112s8.086-.25,16.938-.841c.956-.064,6.423-.6,7.5-.755,2.075-.29,1.366-10.79,1.366-15.758,0-6.2-2.533-13.949-4.225-20.2-2.964-10.958-12.98-15.9-22.584-13.7a1.036,1.036,0,0,1-.389,0c-10.595-1.632-17.251,3.107-20.282,12.067C1156.341,414.5,1153.378,422.2,1153.378,429.458Z" transform="translate(-1153.114 -395.134)"/><path class="g" d="M1179.5,484.184l-4.781-3.289s2.045-.832,2.7-1.164a3.46,3.46,0,0,0,1.787-3.12v-8.833l15.194-.137.008,8.927a3.5,3.5,0,0,0,1.845,3.15c.655.328,2.683,1.182,2.683,1.182l-4.526,3.284Z" transform="translate(-1160.557 -420.12)"/><path class="p" d="M1181.57,471.8c3.732,2.5,11.23,2.833,15.2.413v-4.383l-15.2-.02Z" transform="translate(-1162.917 -420.178)"/><path class="g" d="M1164.49,424.269c.128,0,.256.007.381.019v-6.9a17.888,17.888,0,0,1,18-17.769h0a17.888,17.888,0,0,1,18,17.769v6.888c.054,0,.108-.008.163-.008a3.859,3.859,0,1,1,0,7.718c-.1,0-.193-.007-.289-.014-2.8,8.916-7.727,16.478-17.868,16.478h0c-10.515,0-15.9-7.643-17.891-16.5a4.007,4.007,0,0,1-.505.035,3.859,3.859,0,1,1,0-7.718Z" transform="translate(-1155.686 -396.68)"/><path class="f" d="M1203.288,441.822a.965.965,0,1,0,.965-.952A.959.959,0,0,0,1203.288,441.822Z" transform="translate(-1170.404 -410.894)"/><path class="f" d="M1181.563,441.822a.965.965,0,1,0,.965-.952A.959.959,0,0,0,1181.563,441.822Z" transform="translate(-1162.917 -410.894)"/><path class="f" d="M1182.957,433.461c.335-.364.3-.935-.784-1.416a10,10,0,0,0-4.42-.379c-2.972.46-4.04,1.749-3.379,1.586a14.726,14.726,0,0,1,5.058-.224C1180.755,433.17,1182.592,433.861,1182.957,433.461Z" transform="translate(-1160.375 -407.692)"/><path class="q" d="M1162.8,443.084a.91.91,0,0,1,.6-.711,1.169,1.169,0,0,1,.432-.062,2.213,2.213,0,0,0-.706-.858.19.19,0,0,1-.066-.252.185.185,0,0,1,.252-.066,2.617,2.617,0,0,1,.917,1.161,3.127,3.127,0,0,1,.095,1.614.184.184,0,1,1-.355-.1,2.975,2.975,0,0,0-.016-1.135l-.058,0a1.274,1.274,0,0,0-.142,0l-.058,0h-.012l-.017,0a1.037,1.037,0,0,0-.109.026l-.054.018-.01,0,0,0a1.022,1.022,0,0,0-.092.049l-.037.025c-.037.026.016-.017-.007.005s-.047.043-.069.067-.037.052-.009.009l-.024.033a.608.608,0,0,0-.046.081c-.012.023-.012.035,0,0,0,.014-.011.029-.016.043-.009.029-.017.059-.024.09l-.005.031v.012a.892.892,0,0,0,0,.094c0,.028,0,.054.006.082l0,.011c0,.016.006.031.009.047a1.012,1.012,0,0,0,.031.1c.007.018.021.049,0,.012.007.016.015.033.023.049a.9.9,0,0,0,.052.09c.008.012.017.025.026.037l.02.023a.188.188,0,0,1,0,.26.186.186,0,0,1-.261,0A1.119,1.119,0,0,1,1162.8,443.084Z" transform="translate(-1156.447 -410.977)"/><path class="q" d="M1223.424,442.3a2.618,2.618,0,0,1,.917-1.161.185.185,0,0,1,.252.066.189.189,0,0,1-.066.252,2.223,2.223,0,0,0-.705.855,1.039,1.039,0,0,1,.8.307.992.992,0,0,1,.208.895,1.125,1.125,0,0,1-.249.477.185.185,0,0,1-.26,0,.188.188,0,0,1,0-.26c.008-.009.039-.052.01-.01l.025-.035a.933.933,0,0,0,.051-.083l.019-.037c.007-.014.021-.06.006-.012.009-.029.021-.056.029-.085s.016-.058.022-.087l0-.024,0-.033c0-.028,0-.055,0-.083s0-.031,0-.047l0-.019c-.011-.056-.027-.107-.043-.162l0-.006c-.007-.014-.014-.028-.022-.041s-.028-.045-.043-.067l-.012-.015-.029-.031-.035-.033-.013-.011c-.026-.017-.051-.035-.079-.05l-.041-.021-.014-.007h0c-.041-.013-.082-.027-.124-.036l-.06-.012h0l-.039,0a1.368,1.368,0,0,0-.147,0l-.074,0h-.012a2.975,2.975,0,0,0-.015,1.135.191.191,0,0,1-.128.227.186.186,0,0,1-.227-.129A3.122,3.122,0,0,1,1223.424,442.3Z" transform="translate(-1177.289 -410.977)"/><g transform="translate(25.145 31.742)"><path class="q" d="M1193.416,443.7c.165.752.379,1.49.6,2.226a9.327,9.327,0,0,1,.4,1.607,1.057,1.057,0,0,1-.246.935,1.421,1.421,0,0,1-1.127.243,2.229,2.229,0,0,1-1.528-1.057c-.129-.2.189-.384.318-.186a1.8,1.8,0,0,0,1.536.9c.364-.012.672-.141.693-.535a5.044,5.044,0,0,0-.339-1.61c-.238-.8-.477-1.6-.657-2.421-.051-.231.3-.33.355-.1Z" transform="translate(-1191.479 -443.565)"/></g><path class="f" d="M1190.533,397.311c16.284,3.931,12.457,25.85,12.457,25.85-14.8-4.928-24.419-17.468-24.62-17.387-9.067,3.668-7.679,10.557-11.389,17.4C1166.981,423.171,1162.374,390.513,1190.533,397.311Z" transform="translate(-1157.796 -395.563)"/><path class="j" d="M1191.445,459.518c2.349-.018,3.787-.741,4.284-1.326.087-.1.084-.195-.076-.193,0,0-2.6.337-4.231.34a38,38,0,0,1-4.184-.34c-.157,0-.176.073-.094.175C1187.6,458.748,1188.94,459.537,1191.445,459.518Z" transform="translate(-1164.824 -416.797)"/><path class="f" d="M1199.628,432.922c-.294-.4-.2-.961.929-1.325a9.994,9.994,0,0,1,4.436.089c2.907.771,3.832,2.165,3.193,1.933a14.72,14.72,0,0,0-5.007-.755C1201.849,432.863,1199.95,433.357,1199.628,432.922Z" transform="translate(-1169.093 -407.626)"/><path class="ag" d="M1209.845,449.32a2.673,2.673,0,1,0,3.293-1.855A2.673,2.673,0,0,0,1209.845,449.32Z" transform="translate(-1172.629 -413.133)"/><path class="ag" d="M1172.337,449.32a2.673,2.673,0,1,0,3.293-1.855A2.673,2.673,0,0,0,1172.337,449.32Z" transform="translate(-1159.704 -413.133)"/></g><path class="h" d="M1237.3,518.954c-6.04-9.277-32.8-22.991-36.513-24.7-9.315-4.287-15.52-5.7-20.917-6.384a23.136,23.136,0,0,1-11.816,3.284c-8.094,0-12.4-3.289-12.4-3.289-12.443.757-18.83.965-24.277,6.065-11.76,11.01,6.075,35.516,4.207,73.3-.862,17.429-3.683,26.149-7.12,40.773-6.957,29.609-3.883,63.372-9.061,154.843,0,0,39.264,9.1,117.468-.971,0,0-21.415-98.324-37.538-192.542-.447-2.61-5.01-33.645,2.643-36.729,0,0,20.7,2.149,31.029,7.544Z" transform="translate(-1119.404 -420.728)"/><path class="d" d="M1235,448.336l52.341-7.155a5.484,5.484,0,0,0,4.385-3.486l18.771-49.379a4.475,4.475,0,0,1,8.212-.357l22.979,47.568a5.487,5.487,0,0,0,4.67,3.093l52.763,2.593a4.475,4.475,0,0,1,2.877,7.7l-38.139,36.554a5.486,5.486,0,0,0-1.5,5.4l13.838,50.982a4.475,4.475,0,0,1-6.434,5.116l-46.55-24.976a5.485,5.485,0,0,0-5.6.243l-44.21,28.916a4.476,4.476,0,0,1-6.854-4.539l9.37-51.989a5.486,5.486,0,0,0-1.961-5.247L1232.8,456.257A4.475,4.475,0,0,1,1235,448.336Z" transform="matrix(0.999, 0.035, -0.035, 0.999, -1830.744, -632.116)"/><path class="g" d="M1252.3,501.006s6.877-6.372,23.245-16.342c15.521-9.452,18.188-9.277,19.363-8.09,2.036,2.058-.541,9.9-5.852,14.643-2.508,2.238-6.36,2.56-11.084,6.472a202.6,202.6,0,0,0-17.231,16.423C1256.33,513.89,1252.3,501.006,1252.3,501.006Z" transform="translate(-1165.2 -416.641)"/><g class="i" transform="translate(18.381 98.007)"><path class="j" d="M1224.959,535.364q-7.644,6.62-15.287,13.241c-4.349,3.767-8.9,7.767-14.384,9.777a10.882,10.882,0,0,1-4.3.739,19.848,19.848,0,0,1-4.534-.939q-4.187-1.228-8.252-2.827a99,99,0,0,1-30.677-19.15c-.227-.207.11-.542.336-.336A98.839,98.839,0,0,0,1176.119,554q3.882,1.638,7.9,2.936c2.88.932,6.015,2.128,9.079,1.574a22.636,22.636,0,0,0,8.15-3.807,72.568,72.568,0,0,0,6.938-5.433c5.5-4.726,10.962-9.491,16.442-14.237.23-.2.568.135.336.336Z" transform="translate(-1147.449 -534.967)"/></g><g class="i" transform="translate(17.101 74.194)"><path class="j" d="M1214.943,509.176c-4.7,2.677-9.374,5.41-14.107,8.029a11.487,11.487,0,0,1-6.665,1.8,19.292,19.292,0,0,1-6.739-2.295c-4.7-2.357-9.319-4.9-13.845-7.586q-3.351-1.986-6.635-4.08a55.349,55.349,0,0,0-6.6-3.781,19.327,19.327,0,0,0-8.391-2.174c-1.917.061-4.969.584-6.026,2.4a.238.238,0,0,1-.41-.24c.839-1.439,2.726-2.012,4.253-2.342a13.1,13.1,0,0,1,6.262.26c4.934,1.331,9.123,4.229,13.406,6.894q6.84,4.256,13.961,8.037c4.524,2.4,9.809,5.9,15.061,3.752a71.158,71.158,0,0,0,7.985-4.381l8.245-4.7a.238.238,0,0,1,.24.41Z" transform="translate(-1145.496 -498.633)"/></g><g class="i" transform="translate(62.781 133.48)"><path class="j" d="M1218.023,589.8l-1.944,3.153a.476.476,0,1,1-.821-.48l1.945-3.153a.475.475,0,1,1,.821.48Z" transform="translate(-1215.194 -589.09)"/></g><g class="i" transform="translate(35.197 143.745)"><path class="j" d="M1176.035,608.193l-2.791-2.632a.479.479,0,0,1,0-.672.486.486,0,0,1,.672,0l2.79,2.633a.479.479,0,0,1,0,.672.485.485,0,0,1-.672,0Z" transform="translate(-1173.107 -604.753)"/></g><g class="i" transform="translate(30.906 170.4)"><path class="j" d="M1167.487,645.77q.361,1.817.721,3.634a.488.488,0,0,1-.332.585.48.48,0,0,1-.585-.332q-.36-1.818-.721-3.634a.488.488,0,0,1,.332-.585.48.48,0,0,1,.585.332Z" transform="translate(-1166.559 -645.423)"/></g><g class="i" transform="translate(39.942 120.522)"><path class="j" d="M1184.253,571.243l-3.571-.988a.476.476,0,0,1,.253-.916l3.571.988a.476.476,0,0,1-.253.916Z" transform="translate(-1180.347 -569.319)"/></g><g class="i" transform="translate(55.684 157.563)"><path class="j" d="M1207.967,626.644l-2.793,2.63a.475.475,0,0,1-.672-.672l2.793-2.629a.475.475,0,0,1,.672.672Z" transform="translate(-1204.365 -625.835)"/></g><g class="i" transform="translate(73.341 170.402)"><path class="j" d="M1234.234,648.866l-2.791-2.632a.479.479,0,0,1,0-.672.485.485,0,0,1,.673,0l2.791,2.632a.48.48,0,0,1,0,.672.485.485,0,0,1-.672,0Z" transform="translate(-1231.306 -645.426)"/></g><g class="i" transform="translate(36.992 297.014)"><path class="j" d="M1178.674,839.32l-1.944,3.154a.476.476,0,0,1-.821-.48l1.944-3.154a.476.476,0,0,1,.821.48Z" transform="translate(-1175.845 -838.607)"/></g><g class="i" transform="translate(9.408 307.28)"><path class="j" d="M1136.686,857.709l-2.791-2.632a.479.479,0,0,1,0-.672.486.486,0,0,1,.672,0l2.79,2.632a.479.479,0,0,1,0,.672.485.485,0,0,1-.672,0Z" transform="translate(-1133.758 -854.27)"/></g><g class="i" transform="translate(5.117 333.935)"><path class="j" d="M1128.139,895.287q.361,1.817.721,3.634a.488.488,0,0,1-.332.585.48.48,0,0,1-.585-.332q-.36-1.817-.72-3.634a.487.487,0,0,1,.332-.585.479.479,0,0,1,.585.332Z" transform="translate(-1127.211 -894.94)"/></g><g class="i" transform="translate(14.153 284.056)"><path class="j" d="M1144.9,820.759l-3.571-.988a.476.476,0,0,1,.253-.917l3.571.988a.476.476,0,0,1-.253.917Z" transform="translate(-1140.998 -818.835)"/></g><g class="i" transform="translate(29.894 321.097)"><path class="j" d="M1168.618,876.161l-2.794,2.629a.475.475,0,0,1-.672-.672l2.793-2.63a.475.475,0,0,1,.672.672Z" transform="translate(-1165.016 -875.352)"/></g><g class="i" transform="translate(47.552 333.937)"><path class="j" d="M1194.885,898.382l-2.791-2.632a.48.48,0,0,1,0-.672.486.486,0,0,1,.672,0l2.791,2.632a.481.481,0,0,1,0,.672.486.486,0,0,1-.672,0Z" transform="translate(-1191.957 -894.943)"/></g><g class="i" transform="translate(18.442 120.524)"><path class="j" d="M1148.479,569.672q.582,1.759,1.163,3.518a.475.475,0,1,1-.916.252q-.582-1.759-1.163-3.517a.475.475,0,0,1,.916-.253Z" transform="translate(-1147.543 -569.323)"/></g><g class="i" transform="translate(50.964 180.572)"><path class="j" d="M1201.069,662.866l-3.571-.988a.476.476,0,0,1,.253-.917l3.571.988a.476.476,0,0,1-.253.917Z" transform="translate(-1197.163 -660.942)"/></g><g class="i" transform="translate(73.459 195.125)"><path class="j" d="M1234.853,683.956l-2.559,2.678a.48.48,0,0,1-.672,0,.485.485,0,0,1,0-.672l2.56-2.678a.479.479,0,0,1,.672,0,.484.484,0,0,1,0,.672Z" transform="translate(-1231.486 -683.147)"/></g><g class="i" transform="translate(43.999 199.632)"><path class="j" d="M1188.143,690.623q-.339,1.821-.679,3.642a.479.479,0,0,1-.585.332.485.485,0,0,1-.332-.585q.339-1.821.679-3.641a.48.48,0,0,1,.585-.332.486.486,0,0,1,.332.585Z" transform="translate(-1186.537 -690.023)"/></g><g class="i" transform="translate(13.603 204.464)"><path class="j" d="M1142.182,701.255l-1.958-3.145a.476.476,0,0,1,.821-.48l1.957,3.145a.475.475,0,1,1-.821.48Z" transform="translate(-1140.16 -697.396)"/></g><g class="i" transform="translate(15.72 181.562)"><path class="j" d="M1144.341,662.929q.2,1.84.406,3.682a.478.478,0,0,1-.475.475.486.486,0,0,1-.475-.475q-.2-1.841-.406-3.682a.479.479,0,0,1,.475-.476.487.487,0,0,1,.475.476Z" transform="translate(-1143.389 -662.453)"/></g><g class="i" transform="translate(55.355 233.313)"><path class="j" d="M1205.374,742.012q-.293,1.9-.587,3.791a.479.479,0,0,1-.585.332.486.486,0,0,1-.332-.585l.586-3.791a.479.479,0,0,1,.585-.332.487.487,0,0,1,.332.585Z" transform="translate(-1203.863 -741.413)"/></g><g class="i" transform="translate(84.016 230.502)"><path class="j" d="M1251.889,738.436l-3.819-.36a.488.488,0,0,1-.476-.475.479.479,0,0,1,.476-.475l3.819.36a.488.488,0,0,1,.475.475.478.478,0,0,1-.475.475Z" transform="translate(-1247.594 -737.125)"/></g><g class="i" transform="translate(27.208 219.772)"><path class="j" d="M1163.747,721.465l-1.944,3.154a.475.475,0,1,1-.821-.48l1.944-3.154a.475.475,0,0,1,.821.48Z" transform="translate(-1160.917 -720.752)"/></g><g class="i" transform="translate(20.11 243.854)"><path class="j" d="M1153.69,758.306l-2.794,2.629a.475.475,0,0,1-.672-.672l2.793-2.629a.475.475,0,1,1,.672.672Z" transform="translate(-1150.088 -757.497)"/></g><g class="i" transform="translate(37.768 256.694)"><path class="j" d="M1179.958,780.528l-2.791-2.632a.479.479,0,0,1,0-.672.484.484,0,0,1,.672,0l2.791,2.632a.48.48,0,0,1,0,.672.486.486,0,0,1-.672,0Z" transform="translate(-1177.029 -777.088)"/></g><g class="i" transform="translate(85.535 269.041)"><path class="j" d="M1252.741,796.639l-1.944,3.154a.475.475,0,1,1-.821-.48l1.944-3.154a.475.475,0,0,1,.821.48Z" transform="translate(-1249.912 -795.926)"/></g><g class="i" transform="translate(78.438 293.124)"><path class="j" d="M1242.684,833.479l-2.793,2.63a.475.475,0,0,1-.672-.672l2.793-2.629a.475.475,0,0,1,.672.672Z" transform="translate(-1239.082 -832.671)"/></g><g class="i" transform="translate(101.704 308.596)"><path class="j" d="M1277.51,859.718l-2.791-2.632a.479.479,0,0,1,0-.672.485.485,0,0,1,.672,0l2.791,2.632a.479.479,0,0,1,0,.672.485.485,0,0,1-.672,0Z" transform="translate(-1274.582 -856.278)"/></g><g class="i" transform="translate(64.119 250.804)"><path class="j" d="M1220.849,768.91l-2.806,3.018a.478.478,0,0,1-.672,0,.484.484,0,0,1,0-.672l2.806-3.017a.479.479,0,0,1,.672,0,.486.486,0,0,1,0,.672Z" transform="translate(-1217.235 -768.101)"/></g><g class="i" transform="translate(55.074 279.69)"><path class="j" d="M1207.036,812.983l-2.793,2.629a.475.475,0,0,1-.672-.672l2.794-2.629a.475.475,0,0,1,.672.672Z" transform="translate(-1203.434 -812.175)"/></g><g class="i" transform="translate(61.838 313.771)"><path class="j" d="M1217.661,866.1l-3.571-.988a.475.475,0,0,1,.252-.916l3.571.988a.476.476,0,0,1-.252.917Z" transform="translate(-1213.754 -864.173)"/></g><g class="i" transform="translate(85.525 328.775)"><path class="j" d="M1252.746,887.779l-1.966,3.294a.475.475,0,1,1-.82-.48l1.966-3.294a.475.475,0,0,1,.821.48Z" transform="translate(-1249.896 -887.066)"/></g><g class="i" transform="translate(32.987 101.707)"><path class="j" d="M1172.663,544.052l-2.791-2.632a.48.48,0,0,1,0-.672.486.486,0,0,1,.672,0l2.791,2.632a.48.48,0,0,1,0,.672.486.486,0,0,1-.672,0Z" transform="translate(-1169.734 -540.613)"/></g><g class="i" transform="translate(65.266 76.454)"><path class="j" d="M1219.335,503.375l3.619-1.271a.479.479,0,0,1,.585.332.484.484,0,0,1-.332.585l-3.619,1.271a.481.481,0,0,1-.585-.332.485.485,0,0,1,.332-.585Z" transform="translate(-1218.986 -502.082)"/></g><g class="i" transform="translate(99.823 104.339)"><path class="j" d="M1274.639,548.068l-2.791-2.632a.48.48,0,0,1,0-.672.486.486,0,0,1,.672,0l2.79,2.632a.479.479,0,0,1,0,.672.485.485,0,0,1-.672,0Z" transform="translate(-1271.711 -544.629)"/></g><g class="i" transform="translate(67.296 102.596)"><path class="j" d="M1224.559,542.68l-1.6,3.487a.479.479,0,0,1-.65.17.487.487,0,0,1-.17-.65l1.6-3.487a.479.479,0,0,1,.65-.171.487.487,0,0,1,.17.651Z" transform="translate(-1222.083 -541.968)"/></g><g class="i" transform="translate(26.377 80.165)"><path class="j" d="M1163.721,508.626l-3.359,1.853a.475.475,0,1,1-.48-.821l3.359-1.853a.475.475,0,1,1,.48.821Z" transform="translate(-1159.649 -507.745)"/></g><path class="f" d="M1181.563,480.58a53.641,53.641,0,0,0,15.2.042v-1.265a58.2,58.2,0,0,1-15.2,0Z" transform="translate(-1140.824 -417.797)"/><g class="i" transform="translate(171.179 56.629)"><path class="j" d="M1414.177,471.834q-16.544.9-33.12.4c-.631-.019-.63.961,0,.98q16.56.5,33.12-.4c.627-.035.631-1.015,0-.98Z" transform="translate(-1380.584 -471.833)"/></g><g class="i" transform="translate(156.97 56.828)"><path class="j" d="M1366.406,472.364a47.433,47.433,0,0,1-7.011-.225.494.494,0,0,0-.49.49.5.5,0,0,0,.49.49,47.342,47.342,0,0,0,7.011.225c.629-.026.632-1.007,0-.98Z" transform="translate(-1358.905 -472.137)"/></g></g></g></svg>