<svg xmlns="http://www.w3.org/2000/svg" width="335.702" height="79.147" viewBox="0 0 335.702 79.147"><defs><style>.a{fill:#fff;}</style></defs><g transform="translate(90.083 23.429)"><path class="a" d="M29.411,81.457c6.9,0,12.52,4.221,13.452,10.31H37.318c-.969-3.025-3.527-5.273-7.828-5.273a8.994,8.994,0,0,0,0,17.986c4.3,0,6.858-2.248,7.828-5.27h5.545c-.932,6.085-6.552,10.313-13.452,10.313a14.035,14.035,0,1,1,0-28.065Z" transform="translate(-15.107 -81.457)"/><path class="a" d="M52.766,95.49a14,14,0,0,1-14.225,14.033,14.035,14.035,0,1,1,0-28.065A14,14,0,0,1,52.766,95.49Zm-5.542,0a8.709,8.709,0,1,0-8.684,8.99A8.673,8.673,0,0,0,47.225,95.49Z" transform="translate(7.242 -81.457)"/><path class="a" d="M56.109,98.278H47.931V93.743H61.382a12.809,12.809,0,0,1,.193,2.324c0,8.838-6.473,13.455-13.644,13.455a14.034,14.034,0,1,1,.076-28.065c6.477,0,11.788,3.836,13.025,9.454H55.373c-1.083-2.6-3.41-4.493-7.247-4.493-5.081,0-8.8,3.8-8.8,9.072s3.644,9.069,8.68,9.069C52.465,104.558,55.682,101.922,56.109,98.278Z" transform="translate(30.414 -81.457)"/><path class="a" d="M48.316,81.581l13.957,18.68V81.615h5.27v27.178H62.5L48.587,90.106v18.646H43.276V81.581Z" transform="translate(53.56 -81.155)"/><path class="a" d="M57.369,108.728H51.982V81.591h5.387Z" transform="translate(74.782 -81.13)"/><path class="a" d="M76.744,86.476H68.37v22.252H62.983V86.476H54.609V81.591H76.744Z" transform="translate(81.186 -81.13)"/><path class="a" d="M67.487,108.728H62.1V81.591H74.308c6.786,0,10.351,3.723,10.351,8.993,0,4.266-2.52,7.563-7.171,8.646l7.326,9.5H78.766L71.75,99.615H67.487ZM73.8,94.85c3.531,0,5.39-1.513,5.39-4.266,0-2.675-1.86-4.225-5.39-4.225H67.487V94.85Z" transform="translate(99.44 -81.13)"/><path class="a" d="M98.279,95.49A14.247,14.247,0,1,1,84.054,81.457,14,14,0,0,1,98.279,95.49Zm-5.542,0a8.709,8.709,0,1,0-8.684,8.99A8.673,8.673,0,0,0,92.738,95.49Z" transform="translate(118.188 -81.457)"/><path class="a" d="M84.534,81.581l13.957,18.68V81.615h5.27v27.178h-5.04L84.806,90.106v18.646H79.5V81.581Z" transform="translate(141.858 -81.155)"/></g><g transform="translate(0)"><path class="a" d="M73.61,113.895l0-.033V56.516a7.28,7.28,0,0,0-.3-5.548,8.088,8.088,0,0,0-4.667-4.492c-4.186-1.354-8.575.356-10.21,3.978a6.9,6.9,0,0,0-.6,3.3,11.057,11.057,0,0,0-5.52-.682A10.542,10.542,0,0,0,45.24,57.1a9.05,9.05,0,0,0-1.756,6.859,9.182,9.182,0,0,0,1.457,3.719A13.716,13.716,0,0,0,39.659,70.7a11.928,11.928,0,0,0,.028,17.867,13.61,13.61,0,0,0,1.206.978,13.258,13.258,0,0,0-1.2,1.48,11.752,11.752,0,0,0-1.886,9.32,12.538,12.538,0,0,0,6.057,8.123,14.38,14.38,0,0,0,7.253,1.949c.3,0,.6-.013.9-.033a9.524,9.524,0,0,0,1.171,5.851,10.915,10.915,0,0,0,6.824,5.126,11.717,11.717,0,0,0,2.937.374c.216,0,.431-.01.647-.02a11.537,11.537,0,0,0,9.964-7.4A1.017,1.017,0,0,0,73.61,113.895ZM71.22,55.749a1.246,1.246,0,0,0-.11.514v57.474c-1.337,4.025-5.989,6.35-10.473,5.2a8.4,8.4,0,0,1-5.264-3.928,7.02,7.02,0,0,1-.614-5.535c.018-.053.035-.1.05-.153l.008-.018a8.514,8.514,0,0,1,8.966-5.447A1.251,1.251,0,1,0,64,101.36,11.1,11.1,0,0,0,52.7,107.8a11.949,11.949,0,0,1-7.579-1.5,10.058,10.058,0,0,1-4.876-6.5,9.272,9.272,0,0,1,1.5-7.351,10.239,10.239,0,0,1,1.976-2.127,11.82,11.82,0,0,1,9.127-2.455,1.252,1.252,0,1,0,.354-2.478,14.386,14.386,0,0,0-10.353,2.455,11.107,11.107,0,0,1-1.475-1.131,9.43,9.43,0,0,1-.023-14.178,11.453,11.453,0,0,1,6.057-2.862,12.274,12.274,0,0,1,4.04.06,1.252,1.252,0,1,0,.449-2.463,14.717,14.717,0,0,0-4.223-.156,6.74,6.74,0,0,1-1.718-3.539,6.561,6.561,0,0,1,1.282-4.973,8.05,8.05,0,0,1,5.392-3.047,8.333,8.333,0,0,1,6.609,1.951,7.315,7.315,0,0,0,1.091,1.171l.035.028.025.023a1.85,1.85,0,0,0,.168.118l.03.015a1.362,1.362,0,0,0,.206.093h0a1.23,1.23,0,0,0,.7.025l.025-.005a1.043,1.043,0,0,0,.2-.075l.03-.013.058-.025a1.232,1.232,0,0,0,.569-.692l.005-.01a1.337,1.337,0,0,0,.05-.221l0-.018a1.293,1.293,0,0,0,.008-.221V57.68a1.64,1.64,0,0,0-.035-.213l-.008-.028a1.73,1.73,0,0,0-.073-.2l-.018-.033-.023-.05c-.02-.033-.043-.06-.065-.093-.013-.018-.023-.038-.035-.058l-.028-.03,0-.005a9.373,9.373,0,0,0-1.041-1.136,4.424,4.424,0,0,1-.4-4.351c1.109-2.455,4.183-3.586,7.155-2.626a5.645,5.645,0,0,1,3.148,3.127A4.685,4.685,0,0,1,71.22,55.749Z" transform="translate(-35.649 -46.015)"/><path class="a" d="M59.7,66.119a12.522,12.522,0,0,1-8.575,3.235,16.088,16.088,0,0,1-2.578-.216c-.88.359-3.887,1.914-5.029,6.812a1.256,1.256,0,0,1-1.219.971,1.236,1.236,0,0,1-.286-.033,1.25,1.25,0,0,1-.935-1.5,12.617,12.617,0,0,1,4.143-7.105,21.5,21.5,0,0,1-4.464-2.137,1.252,1.252,0,0,1,1.387-2.084,19.862,19.862,0,0,0,5.615,2.365c4.1,1,7.554.266,10.268-2.169A1.252,1.252,0,0,1,59.7,66.119Z" transform="translate(-28.794 -19.118)"/><path class="a" d="M60.776,64.69a13.309,13.309,0,0,1-4.442.78A13.56,13.56,0,0,1,49.262,63.4c-.968.008-4.444.344-7.649,4.474a1.252,1.252,0,1,1-1.979-1.535,13.784,13.784,0,0,1,6.879-4.988,19.9,19.9,0,0,1-3.153-3.571,1.253,1.253,0,1,1,2.1-1.359A17.365,17.365,0,0,0,50.1,61a1.181,1.181,0,0,1,.374.236,10.705,10.705,0,0,0,9.468,1.093,1.252,1.252,0,1,1,.83,2.363Z" transform="translate(-30.036 -31.19)"/><path class="a" d="M52.53,60.086a1.26,1.26,0,0,1-1.718.439c-4.725-2.806-3.943-7.9-2.869-10.2a1.252,1.252,0,0,1,2.272,1.053,7.529,7.529,0,0,0-.574,2.754,4.59,4.59,0,0,0,2.45,4.239A1.254,1.254,0,0,1,52.53,60.086Z" transform="translate(-18.338 -40.608)"/><path class="a" d="M54.75,62.243a1.163,1.163,0,0,1-.276.03,1.255,1.255,0,0,1-1.221-.978c-1.66-7.469-9.553-6.2-9.889-6.145a1.251,1.251,0,0,1-.431-2.465,14.074,14.074,0,0,1,5.467.288,9.694,9.694,0,0,1,7.3,7.777A1.248,1.248,0,0,1,54.75,62.243Z" transform="translate(-26.226 -36.172)"/><path class="a" d="M53.525,72.073c-4.745.6-5.019,5.462-5.026,5.668a1.253,1.253,0,0,1-1.251,1.2H47.2A1.249,1.249,0,0,1,46,77.646c.09-2.485,1.715-7.364,7.218-8.056a1.251,1.251,0,1,1,.311,2.483Z" transform="translate(-20.048 -10.478)"/><path class="a" d="M56.164,64.554a1.255,1.255,0,0,1-1.766.153c-3.581-3.007-7.95,0-8.136.128a1.232,1.232,0,0,1-.72.228,1.252,1.252,0,0,1-.73-2.27c2.1-1.492,7.135-3.413,11.2-.005A1.253,1.253,0,0,1,56.164,64.554Z" transform="translate(-22.619 -23.587)"/><g transform="translate(40.688)"><path class="a" d="M52.341,114.309a11.537,11.537,0,0,0,9.964,7.4c.213.01.431.02.647.02a11.732,11.732,0,0,0,2.937-.374,10.921,10.921,0,0,0,6.824-5.126,9.541,9.541,0,0,0,1.171-5.851c.3.02.6.033.9.033a14.364,14.364,0,0,0,7.251-1.949,12.534,12.534,0,0,0,6.059-8.123,11.762,11.762,0,0,0-1.886-9.32,13.281,13.281,0,0,0-1.206-1.48,12.922,12.922,0,0,0,1.206-.978,11.926,11.926,0,0,0,.03-17.867A13.735,13.735,0,0,0,80.96,67.68a9.182,9.182,0,0,0,1.457-3.719A9.061,9.061,0,0,0,80.661,57.1a10.542,10.542,0,0,0-7.073-4.025,11.067,11.067,0,0,0-5.523.682,6.9,6.9,0,0,0-.6-3.3c-1.638-3.622-6.024-5.332-10.21-3.978a8.088,8.088,0,0,0-4.667,4.492,7.281,7.281,0,0,0-.306,5.548v57.346l0,.033A1.019,1.019,0,0,0,52.341,114.309Zm2.541-62.324a5.638,5.638,0,0,1,3.148-3.127c2.969-.961,6.047.171,7.155,2.626a4.425,4.425,0,0,1-.4,4.351A9.8,9.8,0,0,0,63.74,56.97l0,.005-.025.03a.512.512,0,0,0-.035.058,1.044,1.044,0,0,0-.065.093l-.023.05-.018.033a1.367,1.367,0,0,0-.073.2l-.01.028a1.625,1.625,0,0,0-.033.213V57.7a1.291,1.291,0,0,0,0,.221l.005.018a1.125,1.125,0,0,0,.05.221l0,.01a1.247,1.247,0,0,0,.572.692l.058.025.028.013a1.189,1.189,0,0,0,.2.075l.028.005a1.23,1.23,0,0,0,.7-.025h0a1.235,1.235,0,0,0,.2-.093l.03-.015a1.557,1.557,0,0,0,.168-.118l.028-.023.035-.028a7.431,7.431,0,0,0,1.091-1.171,8.331,8.331,0,0,1,6.606-1.951,8.05,8.05,0,0,1,5.395,3.047,6.582,6.582,0,0,1,1.282,4.973,6.74,6.74,0,0,1-1.718,3.539A14.738,14.738,0,0,0,74,67.273a1.252,1.252,0,0,0,.449,2.463,12.288,12.288,0,0,1,4.043-.06,11.453,11.453,0,0,1,6.057,2.862,9.43,9.43,0,0,1-.023,14.178,10.972,10.972,0,0,1-1.477,1.131A14.377,14.377,0,0,0,72.7,85.391a1.251,1.251,0,1,0,.351,2.478,11.817,11.817,0,0,1,9.127,2.455,10.251,10.251,0,0,1,1.979,2.127,9.261,9.261,0,0,1,1.5,7.351,10.042,10.042,0,0,1-4.876,6.5,11.943,11.943,0,0,1-7.579,1.5,11.1,11.1,0,0,0-11.3-6.443,1.251,1.251,0,1,0,.221,2.493,8.515,8.515,0,0,1,8.966,5.447l.005.018c.018.05.035.1.05.153a7.019,7.019,0,0,1-.612,5.535,8.4,8.4,0,0,1-5.264,3.928c-4.484,1.154-9.139-1.171-10.473-5.2V56.263a1.246,1.246,0,0,0-.11-.514A4.674,4.674,0,0,1,54.882,51.984Z" transform="translate(-51.872 -46.015)"/><path class="a" d="M55.105,66.119a12.522,12.522,0,0,0,8.575,3.235,16.135,16.135,0,0,0,2.578-.216c.88.359,3.887,1.914,5.029,6.812a1.252,1.252,0,0,0,1.219.971,1.2,1.2,0,0,0,.283-.033,1.254,1.254,0,0,0,.938-1.5,12.631,12.631,0,0,0-4.143-7.105,21.5,21.5,0,0,0,4.464-2.137,1.252,1.252,0,0,0-1.389-2.084,19.78,19.78,0,0,1-5.615,2.365c-4.1,1-7.552.266-10.268-2.169a1.251,1.251,0,1,0-1.67,1.863Z" transform="translate(-47.626 -19.118)"/><path class="a" d="M55.422,64.69a13.3,13.3,0,0,0,4.442.78,13.558,13.558,0,0,0,7.07-2.072c.971.008,4.447.344,7.649,4.474a1.253,1.253,0,0,0,1.981-1.535,13.784,13.784,0,0,0-6.879-4.988,19.7,19.7,0,0,0,3.15-3.571,1.253,1.253,0,1,0-2.1-1.359A17.365,17.365,0,0,1,66.091,61a1.2,1.2,0,0,0-.371.236,10.705,10.705,0,0,1-9.468,1.093,1.252,1.252,0,1,0-.83,2.363Z" transform="translate(-47.783 -31.19)"/><path class="a" d="M53.647,60.086a1.257,1.257,0,0,0,1.715.439c4.728-2.806,3.945-7.9,2.872-10.2a1.252,1.252,0,0,0-2.272,1.053,7.556,7.556,0,0,1,.572,2.754,4.583,4.583,0,0,1-2.448,4.239A1.254,1.254,0,0,0,53.647,60.086Z" transform="translate(-49.459 -40.608)"/><path class="a" d="M56.39,62.243a1.142,1.142,0,0,0,.273.03,1.253,1.253,0,0,0,1.221-.978c1.663-7.469,9.553-6.2,9.892-6.145a1.251,1.251,0,0,0,.431-2.465,14.086,14.086,0,0,0-5.47.288,9.691,9.691,0,0,0-7.3,7.777A1.248,1.248,0,0,0,56.39,62.243Z" transform="translate(-46.534 -36.172)"/><path class="a" d="M54.484,72.073c4.748.6,5.021,5.462,5.029,5.668a1.253,1.253,0,0,0,1.252,1.2h.05a1.249,1.249,0,0,0,1.2-1.294c-.09-2.485-1.718-7.364-7.218-8.056a1.251,1.251,0,0,0-.314,2.483Z" transform="translate(-49.583 -10.478)"/><path class="a" d="M53.975,64.554a1.255,1.255,0,0,0,1.766.153c3.581-3.007,7.953,0,8.136.128a1.239,1.239,0,0,0,.722.228,1.251,1.251,0,0,0,.727-2.27c-2.1-1.492-7.133-3.413-11.2-.005A1.255,1.255,0,0,0,53.975,64.554Z" transform="translate(-49.142 -23.587)"/></g></g><g transform="translate(219.568 62.378)"><path class="a" d="M53.236,105.532V92.83h1.069v11.685h7.388v1.018Z" transform="translate(-53.236 -92.682)"/><path class="a" d="M56.956,93.278a.717.717,0,1,1-.708.708A.672.672,0,0,1,56.956,93.278Zm.509,11.162H56.447V96.6h1.018Z" transform="translate(-45.894 -91.59)"/><path class="a" d="M58.839,97.757V96.268c0-2.269.853-3.465,2.778-3.465a6.38,6.38,0,0,1,1.179.124v.89a6.2,6.2,0,0,0-1.035-.089c-1.451,0-1.9.853-1.9,2.685v1.344h2.76v.908h-2.76V105.6H58.839V98.664H57.223v-.908Z" transform="translate(-43.517 -92.748)"/><path class="a" d="M59.086,98.253a3.833,3.833,0,1,1,7.656-.034c0,.127,0,.237-.014.454H60.121a2.792,2.792,0,0,0,2.939,2.757,2.436,2.436,0,0,0,2.558-1.561h.945a3.425,3.425,0,0,1-3.52,2.434A3.837,3.837,0,0,1,59.086,98.253Zm1.035-.416h5.607a2.8,2.8,0,0,0-5.607,0Z" transform="translate(-38.976 -89.326)"/><path class="a" d="M71.332,102.278c0-1.162-.76-1.922-2.468-2.307l-1.942-.433c-2.176-.488-3.465-1.468-3.465-3.376,0-2.179,1.705-3.376,4.246-3.376s4.05,1.159,4.3,2.922H70.951c-.217-1.162-1.324-1.942-3.266-1.942-1.87,0-3.139.76-3.139,2.358,0,1.344,1,2.014,2.774,2.434l1.942.416c2.2.492,3.159,1.509,3.159,3.252,0,2.375-1.942,3.555-4.466,3.555-2.74,0-4.555-1.179-4.809-3.176h1.069c.2,1.379,1.581,2.2,3.723,2.2C69.919,104.8,71.332,103.911,71.332,102.278Z" transform="translate(-29.076 -92.787)"/><path class="a" d="M67.276,93.278a.717.717,0,1,1-.7.708A.673.673,0,0,1,67.276,93.278Zm.509,11.162H66.77V96.6h1.014Z" transform="translate(-20.73 -91.59)"/><path class="a" d="M80.783,97.456v4.72H79.766V97.765a2.292,2.292,0,0,0-2.413-2.613A2.458,2.458,0,0,0,74.8,97.817v4.359H73.777V97.765a2.292,2.292,0,0,0-2.413-2.613A2.459,2.459,0,0,0,68.8,97.817v4.359H67.789V94.334h1v1.306a3.163,3.163,0,0,1,2.76-1.434,3.073,3.073,0,0,1,2.9,1.671,3.45,3.45,0,0,1,3.084-1.671A3.058,3.058,0,0,1,80.783,97.456Z" transform="translate(-17.76 -89.326)"/><path class="a" d="M76.435,102.3a3.739,3.739,0,0,1-3.029-1.506v5.3H72.389V94.334h1v1.416a3.718,3.718,0,0,1,3.046-1.544,4.048,4.048,0,0,1,0,8.1ZM76.4,95.132a3.134,3.134,0,0,0,0,6.263,3.136,3.136,0,0,0,0-6.263Z" transform="translate(-6.547 -89.326)"/><path class="a" d="M76.431,105.532H75.417V92.83h1.014Z" transform="translate(0.834 -92.682)"/><path class="a" d="M77.232,93.278a.717.717,0,1,1-.708.708A.672.672,0,0,1,77.232,93.278Zm.509,11.162H76.727V96.6h1.014Z" transform="translate(3.533 -91.59)"/><path class="a" d="M79.116,97.757V96.268c0-2.269.853-3.465,2.778-3.465a6.416,6.416,0,0,1,1.179.124v.89a6.2,6.2,0,0,0-1.035-.089c-1.451,0-1.9.853-1.9,2.685v1.344H82.89v.908H80.133V105.6H79.116V98.664H77.5v-.908Z" transform="translate(5.912 -92.748)"/><path class="a" d="M80.284,93.278a.717.717,0,1,1-.7.708A.673.673,0,0,1,80.284,93.278Zm.509,11.162H79.778V96.6h1.014Z" transform="translate(10.98 -91.59)"/><path class="a" d="M80.634,98.253a3.833,3.833,0,1,1,7.656-.034c0,.127,0,.237-.017.454h-6.6a2.792,2.792,0,0,0,2.939,2.757,2.438,2.438,0,0,0,2.558-1.561h.945a3.425,3.425,0,0,1-3.52,2.434A3.837,3.837,0,0,1,80.634,98.253Zm1.035-.416h5.607a2.8,2.8,0,0,0-5.607,0Z" transform="translate(13.552 -89.326)"/><path class="a" d="M87.353,97.564a3.787,3.787,0,0,1,3.029,1.506V92.83H91.4v12.7h-1v-1.4a3.791,3.791,0,0,1-3.046,1.523,4.048,4.048,0,0,1,0-8.1Zm.052,7.188a3.135,3.135,0,0,0,0-6.263,3.135,3.135,0,0,0,0,6.263Z" transform="translate(20.236 -92.682)"/><path class="a" d="M87.348,96.066a.8.8,0,0,1,.835.832.834.834,0,1,1-1.667,0A.8.8,0,0,1,87.348,96.066Z" transform="translate(27.89 -84.794)"/></g></svg>