<svg xmlns="http://www.w3.org/2000/svg" width="268" height="82.458" viewBox="0 0 268 82.458">
	<defs>
		<style>
			.a{fill:#df1f00;}.b{fill:#e9544c;}.c{font-size:60px;font-family:Montserrat-Light, Montserrat;font-weight:300;}
		</style>
	</defs>
	<g transform="translate(-117 -34.157)">
		<g transform="translate(17 11)">
			<path class="a" d="M35.163,82.458h0A41.628,41.628,0,0,1,12.769,71.279q6.407-6.816,12.817-13.629l.014-.015,9.044-9.616a2.718,2.718,0,0,0,.249-.325c.036-.051.071-.1.107-.152l.08.058.083.059v34.8Zm13.32-.024h0v-35.3l.307.326.01.011.372.4,3.638,3.867C58.762,58.055,64.916,64.6,70.971,71.039A41.637,41.637,0,0,1,48.484,82.434ZM5.307,61.612h0a41.732,41.732,0,0,1-.334-40.16l.243.263.243.263L17.045,34.518l.155.167,6.214,6.725c.114.124.227.249.346.38l.167.184c-.032.039-.062.077-.092.114-.059.075-.115.146-.177.211L5.308,61.611ZM78.361,61.3h0q-6.1-6.414-12.19-12.83l-.1-.106-3.075-3.236q-1.012-1.065-2.023-2.133l-.011-.011L60.026,42l.073-.087c.047-.056.083-.1.123-.142L70.363,30.793l8.331-9.017A41.732,41.732,0,0,1,78.361,61.3ZM48.482,37.567V.021a41.643,41.643,0,0,1,22.986,11.89C65.007,19.155,58.437,26.5,52.083,33.6l-3.262,3.647a2.457,2.457,0,0,1-.192.184c-.043.039-.091.082-.146.133Zm-13.341-.333,0,0-.458-.5-.011-.012c-.3-.331-.585-.643-.862-.954l-2.984-3.336-.018-.02c-6.078-6.8-12.362-13.822-18.548-20.727A41.634,41.634,0,0,1,35.141,0V37.234Z" transform="translate(100 23.157)" />
			<path class="b" d="M20.35,52.241h0A26.919,26.919,0,0,1,8.1,45.376L12.691,40.5l.161-.171,6.979-7.42a2.76,2.76,0,0,0,.247-.322c.036-.052.072-.1.11-.155l.163.116V52.24ZM33.67,52.2h0V32.019l.614.652.008.009.067.072,3.084,3.279.2.209,8.366,8.894A26.916,26.916,0,0,1,33.671,52.2ZM1.479,34.942v0a27.081,27.081,0,0,1-.312-16.685l6.858,7.422L8.6,26.3c.109.118.216.236.329.361l.184.2c-.031.038-.061.075-.09.112-.06.076-.116.148-.179.214L1.48,34.94Zm51.033-.366h0l-.678-.714-3.652-3.844-1.872-1.974-.005-.005-.019-.02-1.071-1.13.084-.1c.041-.048.076-.09.112-.129l7.406-8.017a27.094,27.094,0,0,1-.3,15.932ZM33.669,22.458V.034A26.859,26.859,0,0,1,46.756,7.884Q42.23,12.947,37.7,18.008l-3.695,4.13a2.623,2.623,0,0,1-.2.19c-.042.038-.087.079-.139.127Zm-13.341-.333,0,0-.456-.5c-.307-.338-.595-.654-.876-.969l-3.413-3.816L7.347,7.63A26.863,26.863,0,0,1,20.328,0V22.125Z" transform="translate(114.814 38.267)" />
		</g>
		<text class="c" transform="translate(222 97)">
			<tspan x="0" y="0">
				KKRL
			</tspan>
		</text>
	</g>
</svg>
