<svg xmlns="http://www.w3.org/2000/svg" viewBox="0 0 805 412" width="805" height="412">
	<style>
		tspan { white-space:pre }
		.shp0 { fill: none } 
		.shp1 { fill: none;stroke: #e4f1fe;stroke-width: 10 } 
		.shp2 { fill: none;stroke: #ffffff;stroke-width: 10 } 
		.shp3 { fill: #e4f1fe } 
	</style>
	<g id="Layer">
		<g id="Layer">
			<g id="Layer">
				<path id="Layer" class="shp0" d="M9 202.67L205.67 6L402.34 202.67L205.67 399.34L9 202.67Z" />
				<path id="Layer" class="shp1" d="M16.07 202.67L205.67 13.08L395.27 202.67L205.67 392.27L16.07 202.67Z" />
			</g>
		</g>
		<g id="Layer">
			<g id="Layer">
				<path id="Layer" class="shp0" d="M401.8 202.67L598.47 6L795.14 202.67L598.47 399.34L401.8 202.67Z" />
				<path id="Layer" class="shp2" d="M408.87 202.67L598.47 13.08L788.07 202.67L598.47 392.27L408.87 202.67Z" />
			</g>
		</g>
		<path id="Layer" class="shp3" d="M201 17.01L210 17.01L210 393.01L201 393.01L201 17.01Z" />
		<path id="Layer" class="shp3" d="M594 17.01L603 17.01L603 393.01L594 393.01L594 17.01Z" />
		<path id="Understand   " fill="#ffffff" d="M76.09 190.22C79.67 190.22 81.8 188.16 81.8 184.46L81.8 177.4L78.92 177.4L78.92 184.35C78.92 186.74 77.89 187.73 76.11 187.73C74.35 187.73 73.3 186.74 73.3 184.35L73.3 177.4L70.39 177.4L70.39 184.46C70.39 188.16 72.51 190.22 76.09 190.22ZM90.37 180.17C89.05 180.17 87.92 180.62 87.16 181.45L87.16 180.32L84.48 180.32L84.48 190L87.29 190L87.29 185.21C87.29 183.43 88.26 182.6 89.61 182.6C90.85 182.6 91.57 183.32 91.57 184.89L91.57 190L94.38 190L94.38 184.46C94.38 181.5 92.65 180.17 90.37 180.17ZM104.08 176.64L104.08 181.34C103.38 180.55 102.37 180.17 101.18 180.17C98.45 180.17 96.34 182.12 96.34 185.16C96.34 188.2 98.45 190.14 101.18 190.14C102.48 190.14 103.51 189.73 104.21 188.88L104.21 190L106.89 190L106.89 176.64ZM101.67 187.84C100.27 187.84 99.19 186.83 99.19 185.16C99.19 183.48 100.27 182.48 101.67 182.48C103.06 182.48 104.14 183.48 104.14 185.16C104.14 186.83 103.06 187.84 101.67 187.84ZM118.97 185.19C118.97 182.08 116.77 180.17 113.93 180.17C110.98 180.17 108.76 182.26 108.76 185.16C108.76 188.04 110.94 190.14 114.29 190.14C116.03 190.14 117.38 189.6 118.28 188.58L116.79 186.96C116.12 187.59 115.39 187.89 114.36 187.89C112.88 187.89 111.86 187.16 111.59 185.95L118.91 185.95C118.93 185.72 118.97 185.41 118.97 185.19ZM113.95 182.3C115.21 182.3 116.12 183.09 116.32 184.31L111.55 184.31C111.75 183.07 112.67 182.3 113.95 182.3ZM123.52 181.59L123.52 180.32L120.84 180.32L120.84 190L123.65 190L123.65 185.43C123.65 183.57 124.67 182.73 126.22 182.73C126.44 182.73 126.62 182.75 126.85 182.76L126.85 180.17C125.36 180.17 124.21 180.66 123.52 181.59ZM131.82 190.14C134.72 190.14 136.39 188.87 136.39 187.07C136.39 183.25 130.54 184.85 130.54 183.2C130.54 182.69 131.08 182.3 132.34 182.3C133.22 182.3 134.18 182.48 135.13 183.02L136.07 181.02C135.15 180.48 133.67 180.17 132.34 180.17C129.52 180.17 127.86 181.47 127.86 183.3C127.86 187.17 133.71 185.55 133.71 187.14C133.71 187.68 133.22 188.02 131.93 188.02C130.74 188.02 129.43 187.64 128.56 187.08L127.63 189.1C128.53 189.69 130.18 190.14 131.82 190.14ZM143.61 187.55C143.3 187.79 142.89 187.91 142.48 187.91C141.72 187.91 141.27 187.46 141.27 186.63L141.27 182.69L143.68 182.69L143.68 180.53L141.27 180.53L141.27 178.17L138.46 178.17L138.46 180.53L136.97 180.53L136.97 182.69L138.46 182.69L138.46 186.67C138.46 188.97 139.79 190.14 142.08 190.14C142.94 190.14 143.79 189.95 144.37 189.53ZM149.86 180.17C148.31 180.17 146.74 180.59 145.68 181.34L146.69 183.3C147.39 182.75 148.45 182.4 149.48 182.4C150.99 182.4 151.71 183.11 151.71 184.31L149.48 184.31C146.53 184.31 145.32 185.5 145.32 187.21C145.32 188.88 146.67 190.14 148.94 190.14C150.36 190.14 151.37 189.68 151.89 188.79L151.89 190L154.52 190L154.52 184.47C154.52 181.54 152.81 180.17 149.86 180.17ZM149.64 188.25C148.65 188.25 148.06 187.79 148.06 187.08C148.06 186.44 148.47 185.95 149.78 185.95L151.71 185.95L151.71 186.94C151.39 187.82 150.58 188.25 149.64 188.25ZM162.94 180.17C161.63 180.17 160.49 180.62 159.74 181.45L159.74 180.32L157.06 180.32L157.06 190L159.86 190L159.86 185.21C159.86 183.43 160.84 182.6 162.19 182.6C163.43 182.6 164.15 183.32 164.15 184.89L164.15 190L166.96 190L166.96 184.46C166.96 181.5 165.23 180.17 162.94 180.17ZM176.66 176.64L176.66 181.34C175.96 180.55 174.95 180.17 173.76 180.17C171.02 180.17 168.92 182.12 168.92 185.16C168.92 188.2 171.02 190.14 173.76 190.14C175.06 190.14 176.08 189.73 176.78 188.88L176.78 190L179.47 190L179.47 176.64ZM174.25 187.84C172.84 187.84 171.76 186.83 171.76 185.16C171.76 183.48 172.84 182.48 174.25 182.48C175.63 182.48 176.71 183.48 176.71 185.16C176.71 186.83 175.63 187.84 174.25 187.84Z" />
		<path id="the Problem " fill="#ffffff" d="M75.79 221.55C75.48 221.79 75.07 221.91 74.65 221.91C73.9 221.91 73.45 221.46 73.45 220.63L73.45 216.69L75.86 216.69L75.86 214.53L73.45 214.53L73.45 212.17L70.64 212.17L70.64 214.53L69.14 214.53L69.14 216.69L70.64 216.69L70.64 220.67C70.64 222.97 71.97 224.14 74.26 224.14C75.12 224.14 75.97 223.95 76.54 223.53ZM84.01 214.17C82.77 214.17 81.69 214.57 80.93 215.32L80.93 210.64L78.13 210.64L78.13 224L80.93 224L80.93 219.21C80.93 217.43 81.91 216.6 83.26 216.6C84.5 216.6 85.22 217.32 85.22 218.89L85.22 224L88.03 224L88.03 218.46C88.03 215.5 86.3 214.17 84.01 214.17ZM100.16 219.19C100.16 216.08 97.96 214.17 95.12 214.17C92.17 214.17 89.95 216.26 89.95 219.16C89.95 222.04 92.13 224.14 95.48 224.14C97.22 224.14 98.57 223.6 99.47 222.58L97.98 220.96C97.31 221.59 96.58 221.89 95.55 221.89C94.07 221.89 93.05 221.16 92.78 219.95L100.1 219.95C100.12 219.72 100.16 219.41 100.16 219.19ZM95.14 216.3C96.4 216.3 97.31 217.09 97.51 218.31L92.74 218.31C92.94 217.07 93.86 216.3 95.14 216.3ZM112.78 211.4L107.32 211.4L107.32 224L110.24 224L110.24 220.53L112.78 220.53C116.14 220.53 118.25 218.78 118.25 215.97C118.25 213.15 116.14 211.4 112.78 211.4ZM112.61 218.15L110.24 218.15L110.24 213.78L112.61 213.78C114.4 213.78 115.3 214.59 115.3 215.97C115.3 217.34 114.4 218.15 112.61 218.15ZM122.8 215.59L122.8 214.32L120.12 214.32L120.12 224L122.93 224L122.93 219.43C122.93 217.57 123.95 216.73 125.5 216.73C125.72 216.73 125.9 216.75 126.13 216.76L126.13 214.17C124.64 214.17 123.49 214.66 122.8 215.59ZM132.32 224.14C135.4 224.14 137.63 222.07 137.63 219.16C137.63 216.24 135.4 214.17 132.32 214.17C129.25 214.17 127 216.24 127 219.16C127 222.07 129.25 224.14 132.32 224.14ZM132.32 221.84C130.92 221.84 129.84 220.83 129.84 219.16C129.84 217.48 130.92 216.48 132.32 216.48C133.73 216.48 134.79 217.48 134.79 219.16C134.79 220.83 133.73 221.84 132.32 221.84ZM145.23 214.17C144.02 214.17 143.03 214.55 142.31 215.34L142.31 210.64L139.51 210.64L139.51 224L142.19 224L142.19 222.88C142.89 223.73 143.93 224.14 145.23 224.14C147.95 224.14 150.05 222.2 150.05 219.16C150.05 216.12 147.95 214.17 145.23 214.17ZM144.74 221.84C143.34 221.84 142.28 220.83 142.28 219.16C142.28 217.48 143.34 216.48 144.74 216.48C146.15 216.48 147.21 217.48 147.21 219.16C147.21 220.83 146.15 221.84 144.74 221.84ZM151.93 224L154.73 224L154.73 210.64L151.93 210.64ZM166.83 219.19C166.83 216.08 164.63 214.17 161.79 214.17C158.84 214.17 156.62 216.26 156.62 219.16C156.62 222.04 158.8 224.14 162.15 224.14C163.9 224.14 165.25 223.6 166.15 222.58L164.65 220.96C163.99 221.59 163.25 221.89 162.22 221.89C160.75 221.89 159.72 221.16 159.45 219.95L166.78 219.95C166.79 219.72 166.83 219.41 166.83 219.19ZM161.81 216.3C163.07 216.3 163.99 217.09 164.18 218.31L159.41 218.31C159.61 217.07 160.53 216.3 161.81 216.3ZM181.1 214.17C179.65 214.17 178.39 214.77 177.61 215.76C176.93 214.69 175.78 214.17 174.43 214.17C173.18 214.17 172.1 214.6 171.38 215.43L171.38 214.32L168.7 214.32L168.7 224L171.51 224L171.51 219.14C171.51 217.41 172.39 216.6 173.63 216.6C174.8 216.6 175.47 217.32 175.47 218.89L175.47 224L178.28 224L178.28 219.14C178.28 217.41 179.16 216.6 180.42 216.6C181.55 216.6 182.26 217.32 182.26 218.89L182.26 224L185.06 224L185.06 218.46C185.06 215.5 183.41 214.17 181.1 214.17Z" />
		<path id="the Problem " fill="#ffffff" d="M238.25 221.39C237.94 221.63 237.53 221.76 237.12 221.76C236.36 221.77 235.9 221.33 235.9 220.5L235.86 216.56L238.27 216.53L238.25 214.37L235.83 214.4L235.81 212.04L233 212.07L233.03 214.43L231.53 214.44L231.55 216.6L233.05 216.59L233.09 220.56C233.11 222.87 234.46 224.02 236.74 224C237.61 223.99 238.45 223.78 239.02 223.37ZM246.4 213.93C245.15 213.94 244.08 214.35 243.33 215.11L243.28 210.43L240.47 210.46L240.61 223.82L243.42 223.79L243.37 219C243.35 217.22 244.31 216.38 245.66 216.37C246.91 216.35 247.63 217.07 247.65 218.63L247.7 223.74L250.51 223.72L250.45 218.17C250.42 215.22 248.68 213.91 246.4 213.93ZM262.59 218.79C262.56 215.67 260.35 213.79 257.5 213.82C254.55 213.85 252.36 215.96 252.39 218.86C252.42 221.73 254.62 223.82 257.96 223.78C259.71 223.77 261.05 223.21 261.94 222.18L260.43 220.57C259.77 221.21 259.04 221.52 258.01 221.53C256.54 221.55 255.5 220.82 255.22 219.62L262.55 219.54C262.56 219.31 262.59 219 262.59 218.79ZM257.54 215.94C258.8 215.93 259.73 216.71 259.94 217.93L255.17 217.98C255.35 216.74 256.26 215.95 257.54 215.94ZM275.13 210.87L269.68 210.92L269.8 223.52L272.72 223.49L272.69 220.02L275.22 219.99C278.59 219.96 280.68 218.19 280.65 215.38C280.62 212.56 278.5 210.83 275.13 210.87ZM275.04 217.62L272.66 217.64L272.62 213.27L274.99 213.24C276.77 213.23 277.68 214.03 277.7 215.41C277.71 216.78 276.82 217.6 275.04 217.62ZM285.2 214.96L285.19 213.68L282.5 213.71L282.6 223.39L285.41 223.36L285.36 218.79C285.34 216.94 286.36 216.08 287.91 216.06C288.13 216.06 288.31 216.08 288.54 216.09L288.51 213.5C287.02 213.52 285.87 214.01 285.2 214.96ZM294.81 223.41C297.88 223.38 300.1 221.29 300.07 218.37C300.04 215.45 297.78 213.41 294.71 213.44C291.63 213.47 289.4 215.56 289.43 218.48C289.46 221.39 291.73 223.44 294.81 223.41ZM294.78 221.11C293.38 221.12 292.29 220.12 292.27 218.45C292.26 216.78 293.33 215.76 294.73 215.74C296.13 215.73 297.21 216.73 297.22 218.4C297.24 220.07 296.19 221.09 294.78 221.11ZM307.61 213.31C306.41 213.32 305.42 213.71 304.71 214.51L304.66 209.81L301.85 209.84L301.99 223.19L304.67 223.17L304.66 222.05C305.37 222.89 306.42 223.29 307.71 223.28C310.43 223.25 312.52 221.29 312.49 218.24C312.45 215.2 310.33 213.28 307.61 213.31ZM307.2 220.98C305.8 220.99 304.73 220 304.71 218.32C304.69 216.65 305.74 215.63 307.15 215.62C308.55 215.6 309.62 216.6 309.64 218.27C309.66 219.95 308.61 220.97 307.2 220.98ZM314.41 223.07L317.21 223.04L317.08 209.68L314.27 209.71ZM329.26 218.11C329.23 215 327.01 213.11 324.17 213.14C321.22 213.17 319.03 215.28 319.06 218.18C319.08 221.06 321.28 223.14 324.63 223.11C326.38 223.09 327.72 222.54 328.61 221.5L327.1 219.9C326.44 220.53 325.71 220.85 324.68 220.86C323.2 220.87 322.17 220.14 321.89 218.94L329.21 218.87C329.23 218.63 329.26 218.33 329.26 218.11ZM324.21 215.26C325.47 215.25 326.4 216.03 326.61 217.26L321.84 217.3C322.02 216.06 322.93 215.28 324.21 215.26ZM343.48 212.94C342.03 212.96 340.77 213.57 340.01 214.56C339.31 213.51 338.16 213 336.81 213.01C335.56 213.02 334.49 213.47 333.78 214.3L333.77 213.19L331.08 213.21L331.18 222.9L333.99 222.87L333.94 218.01C333.92 216.28 334.8 215.46 336.04 215.45C337.21 215.44 337.88 216.15 337.9 217.72L337.95 222.83L340.76 222.8L340.71 217.94C340.69 216.21 341.56 215.39 342.82 215.38C343.96 215.37 344.67 216.08 344.68 217.65L344.73 222.76L347.54 222.73L347.49 217.19C347.46 214.24 345.79 212.92 343.48 212.94Z" />
		<path id="Describe " fill="#ffffff" d="M231.49 190L237.22 190C241.34 190 244.17 187.52 244.17 183.7C244.17 179.88 241.34 177.4 237.22 177.4L231.49 177.4ZM234.41 187.61L234.41 179.79L237.07 179.79C239.58 179.79 241.21 181.29 241.21 183.7C241.21 186.11 239.58 187.61 237.07 187.61ZM255.65 185.19C255.65 182.08 253.45 180.17 250.61 180.17C247.66 180.17 245.44 182.26 245.44 185.16C245.44 188.04 247.62 190.14 250.97 190.14C252.72 190.14 254.07 189.6 254.97 188.58L253.47 186.96C252.81 187.59 252.07 187.89 251.04 187.89C249.57 187.89 248.54 187.16 248.27 185.95L255.6 185.95C255.61 185.72 255.65 185.41 255.65 185.19ZM250.63 182.3C251.89 182.3 252.81 183.09 253 184.31L248.23 184.31C248.43 183.07 249.35 182.3 250.63 182.3ZM260.78 190.14C263.68 190.14 265.35 188.87 265.35 187.07C265.35 183.25 259.5 184.85 259.5 183.2C259.5 182.69 260.04 182.3 261.3 182.3C262.18 182.3 263.14 182.48 264.09 183.02L265.03 181.02C264.11 180.48 262.63 180.17 261.3 180.17C258.48 180.17 256.82 181.47 256.82 183.3C256.82 187.17 262.67 185.55 262.67 187.14C262.67 187.68 262.18 188.02 260.89 188.02C259.7 188.02 258.39 187.64 257.52 187.08L256.59 189.1C257.49 189.69 259.14 190.14 260.78 190.14ZM271.76 190.14C273.79 190.14 275.4 189.24 276.1 187.7L273.92 186.51C273.4 187.44 272.62 187.84 271.74 187.84C270.32 187.84 269.2 186.85 269.2 185.16C269.2 183.47 270.32 182.48 271.74 182.48C272.62 182.48 273.4 182.89 273.92 183.81L276.1 182.64C275.4 181.05 273.79 180.17 271.76 180.17C268.61 180.17 266.36 182.24 266.36 185.16C266.36 188.07 268.61 190.14 271.76 190.14ZM280.4 181.59L280.4 180.32L277.72 180.32L277.72 190L280.53 190L280.53 185.43C280.53 183.57 281.55 182.73 283.1 182.73C283.32 182.73 283.5 182.75 283.73 182.76L283.73 180.17C282.24 180.17 281.08 180.66 280.4 181.59ZM286.81 178.97C287.85 178.97 288.55 178.28 288.55 177.35C288.55 176.48 287.85 175.83 286.81 175.83C285.76 175.83 285.06 176.52 285.06 177.4C285.06 178.28 285.76 178.97 286.81 178.97ZM285.4 190L288.21 190L288.21 180.32L285.4 180.32ZM296.55 180.17C295.34 180.17 294.35 180.55 293.63 181.34L293.63 176.64L290.82 176.64L290.82 190L293.5 190L293.5 188.88C294.21 189.73 295.25 190.14 296.55 190.14C299.26 190.14 301.37 188.2 301.37 185.16C301.37 182.12 299.26 180.17 296.55 180.17ZM296.06 187.84C294.66 187.84 293.59 186.83 293.59 185.16C293.59 183.48 294.66 182.48 296.06 182.48C297.46 182.48 298.53 183.48 298.53 185.16C298.53 186.83 297.46 187.84 296.06 187.84ZM312.73 185.19C312.73 182.08 310.53 180.17 307.69 180.17C304.74 180.17 302.52 182.26 302.52 185.16C302.52 188.04 304.7 190.14 308.05 190.14C309.79 190.14 311.14 189.6 312.04 188.58L310.55 186.96C309.88 187.59 309.15 187.89 308.12 187.89C306.64 187.89 305.62 187.16 305.35 185.95L312.67 185.95C312.69 185.72 312.73 185.41 312.73 185.19ZM307.71 182.3C308.97 182.3 309.88 183.09 310.08 184.31L305.31 184.31C305.51 183.07 306.43 182.3 307.71 182.3Z" />
		<path id="Create " fill="#ffffff" d="M493.52 190.22C495.72 190.22 497.54 189.42 498.73 187.97L496.85 186.24C496.01 187.23 494.95 187.73 493.69 187.73C491.33 187.73 489.65 186.08 489.65 183.7C489.65 181.32 491.33 179.67 493.69 179.67C494.95 179.67 496.01 180.17 496.85 181.14L498.73 179.42C497.54 177.98 495.72 177.18 493.54 177.18C489.62 177.18 486.7 179.9 486.7 183.7C486.7 187.5 489.62 190.22 493.52 190.22ZM503.17 181.59L503.17 180.32L500.49 180.32L500.49 190L503.3 190L503.3 185.43C503.3 183.57 504.32 182.73 505.87 182.73C506.09 182.73 506.27 182.75 506.5 182.76L506.5 180.17C505.01 180.17 503.86 180.66 503.17 181.59ZM517.57 185.19C517.57 182.08 515.38 180.17 512.53 180.17C509.58 180.17 507.37 182.26 507.37 185.16C507.37 188.04 509.54 190.14 512.89 190.14C514.64 190.14 515.99 189.6 516.89 188.58L515.39 186.96C514.73 187.59 513.99 187.89 512.96 187.89C511.49 187.89 510.46 187.16 510.19 185.95L517.52 185.95C517.54 185.72 517.57 185.41 517.57 185.19ZM512.55 182.3C513.81 182.3 514.73 183.09 514.93 184.31L510.16 184.31C510.35 183.07 511.27 182.3 512.55 182.3ZM523.08 180.17C521.53 180.17 519.97 180.59 518.9 181.34L519.91 183.3C520.61 182.75 521.68 182.4 522.7 182.4C524.21 182.4 524.93 183.11 524.93 184.31L522.7 184.31C519.75 184.31 518.54 185.5 518.54 187.21C518.54 188.88 519.89 190.14 522.16 190.14C523.58 190.14 524.59 189.68 525.11 188.79L525.11 190L527.74 190L527.74 184.47C527.74 181.54 526.03 180.17 523.08 180.17ZM522.86 188.25C521.87 188.25 521.28 187.79 521.28 187.08C521.28 186.44 521.69 185.95 523.01 185.95L524.93 185.95L524.93 186.94C524.61 187.82 523.8 188.25 522.86 188.25ZM535.77 187.55C535.46 187.79 535.05 187.91 534.64 187.91C533.88 187.91 533.43 187.46 533.43 186.63L533.43 182.69L535.84 182.69L535.84 180.53L533.43 180.53L533.43 178.17L530.62 178.17L530.62 180.53L529.13 180.53L529.13 182.69L530.62 182.69L530.62 186.67C530.62 188.97 531.95 190.14 534.24 190.14C535.1 190.14 535.95 189.95 536.53 189.53ZM547.29 185.19C547.29 182.08 545.09 180.17 542.25 180.17C539.3 180.17 537.08 182.26 537.08 185.16C537.08 188.04 539.26 190.14 542.61 190.14C544.36 190.14 545.71 189.6 546.61 188.58L545.11 186.96C544.45 187.59 543.71 187.89 542.68 187.89C541.21 187.89 540.18 187.16 539.91 185.95L547.24 185.95C547.25 185.72 547.29 185.41 547.29 185.19ZM542.27 182.3C543.53 182.3 544.45 183.09 544.64 184.31L539.87 184.31C540.07 183.07 540.99 182.3 542.27 182.3Z" />
		<path id="Test " fill="#ffffff" d="M639.1 190L642.02 190L642.02 179.78L646.05 179.78L646.05 177.4L635.07 177.4L635.07 179.78L639.1 179.78ZM655.92 185.19C655.92 182.08 653.72 180.17 650.88 180.17C647.92 180.17 645.71 182.26 645.71 185.16C645.71 188.04 647.89 190.14 651.24 190.14C652.98 190.14 654.33 189.6 655.23 188.58L653.74 186.96C653.07 187.59 652.33 187.89 651.31 187.89C649.83 187.89 648.81 187.16 648.54 185.95L655.86 185.95C655.88 185.72 655.92 185.41 655.92 185.19ZM650.89 182.3C652.15 182.3 653.07 183.09 653.27 184.31L648.5 184.31C648.7 183.07 649.62 182.3 650.89 182.3ZM661.05 190.14C663.94 190.14 665.62 188.87 665.62 187.07C665.62 183.25 659.77 184.85 659.77 183.2C659.77 182.69 660.31 182.3 661.57 182.3C662.45 182.3 663.4 182.48 664.36 183.02L665.29 181.02C664.38 180.48 662.9 180.17 661.57 180.17C658.74 180.17 657.09 181.47 657.09 183.3C657.09 187.17 662.94 185.55 662.94 187.14C662.94 187.68 662.45 188.02 661.15 188.02C659.97 188.02 658.65 187.64 657.79 187.08L656.85 189.1C657.75 189.69 659.41 190.14 661.05 190.14ZM672.84 187.55C672.53 187.79 672.12 187.91 671.7 187.91C670.95 187.91 670.5 187.46 670.5 186.63L670.5 182.69L672.91 182.69L672.91 180.53L670.5 180.53L670.5 178.17L667.69 178.17L667.69 180.53L666.19 180.53L666.19 182.69L667.69 182.69L667.69 186.67C667.69 188.97 669.02 190.14 671.31 190.14C672.17 190.14 673.02 189.95 673.59 189.53Z" />
		<path id="Solution " fill="#ffffff" d="M491.63 223.22C495.23 223.22 496.98 221.42 496.98 219.31C496.98 214.68 489.65 216.29 489.65 213.96C489.65 213.17 490.32 212.52 492.05 212.52C493.16 212.52 494.37 212.85 495.54 213.51L496.44 211.3C495.27 210.56 493.65 210.18 492.07 210.18C488.48 210.18 486.76 211.97 486.76 214.11C486.76 218.79 494.08 217.17 494.08 219.53C494.08 220.3 493.38 220.88 491.65 220.88C490.14 220.88 488.56 220.34 487.49 219.56L486.5 221.76C487.62 222.62 489.64 223.22 491.63 223.22ZM503.39 223.14C506.47 223.14 508.7 221.07 508.7 218.16C508.7 215.24 506.47 213.17 503.39 213.17C500.31 213.17 498.06 215.24 498.06 218.16C498.06 221.07 500.31 223.14 503.39 223.14ZM503.39 220.84C501.98 220.84 500.9 219.83 500.9 218.16C500.9 216.48 501.98 215.48 503.39 215.48C504.79 215.48 505.85 216.48 505.85 218.16C505.85 219.83 504.79 220.84 503.39 220.84ZM510.57 223L513.38 223L513.38 209.64L510.57 209.64ZM522.94 213.32L522.94 218.1C522.94 219.89 522 220.71 520.7 220.71C519.46 220.71 518.74 219.99 518.74 218.37L518.74 213.32L515.93 213.32L515.93 218.79C515.93 221.78 517.64 223.14 520.07 223.14C521.26 223.14 522.34 222.69 523.08 221.85L523.08 223L525.74 223L525.74 213.32ZM533.84 220.55C533.54 220.79 533.12 220.91 532.71 220.91C531.95 220.91 531.5 220.46 531.5 219.63L531.5 215.69L533.92 215.69L533.92 213.53L531.5 213.53L531.5 211.17L528.7 211.17L528.7 213.53L527.2 213.53L527.2 215.69L528.7 215.69L528.7 219.67C528.7 221.97 530.03 223.14 532.31 223.14C533.18 223.14 534.02 222.95 534.6 222.53ZM537.59 211.97C538.63 211.97 539.33 211.28 539.33 210.35C539.33 209.48 538.63 208.83 537.59 208.83C536.54 208.83 535.84 209.52 535.84 210.4C535.84 211.28 536.54 211.97 537.59 211.97ZM536.18 223L538.99 223L538.99 213.32L536.18 213.32ZM546.21 223.14C549.29 223.14 551.52 221.07 551.52 218.16C551.52 215.24 549.29 213.17 546.21 213.17C543.13 213.17 540.88 215.24 540.88 218.16C540.88 221.07 543.13 223.14 546.21 223.14ZM546.21 220.84C544.81 220.84 543.73 219.83 543.73 218.16C543.73 216.48 544.81 215.48 546.21 215.48C547.61 215.48 548.68 216.48 548.68 218.16C548.68 219.83 547.61 220.84 546.21 220.84ZM559.28 213.17C557.96 213.17 556.83 213.62 556.07 214.45L556.07 213.32L553.39 213.32L553.39 223L556.2 223L556.2 218.21C556.2 216.43 557.17 215.6 558.52 215.6C559.76 215.6 560.48 216.32 560.48 217.89L560.48 223L563.29 223L563.29 217.46C563.29 214.5 561.56 213.17 559.28 213.17Z" />
		<path id="Solution " fill="#ffffff" d="M640.63 223.22C644.23 223.22 645.98 221.42 645.98 219.31C645.98 214.68 638.65 216.29 638.65 213.96C638.65 213.17 639.32 212.52 641.05 212.52C642.16 212.52 643.37 212.85 644.54 213.51L645.44 211.3C644.27 210.56 642.65 210.18 641.07 210.18C637.48 210.18 635.76 211.97 635.76 214.11C635.76 218.79 643.08 217.17 643.08 219.53C643.08 220.3 642.38 220.88 640.65 220.88C639.14 220.88 637.56 220.34 636.49 219.56L635.5 221.76C636.62 222.62 638.64 223.22 640.63 223.22ZM652.39 223.14C655.47 223.14 657.7 221.07 657.7 218.16C657.7 215.24 655.47 213.17 652.39 213.17C649.31 213.17 647.06 215.24 647.06 218.16C647.06 221.07 649.31 223.14 652.39 223.14ZM652.39 220.84C650.98 220.84 649.9 219.83 649.9 218.16C649.9 216.48 650.98 215.48 652.39 215.48C653.79 215.48 654.85 216.48 654.85 218.16C654.85 219.83 653.79 220.84 652.39 220.84ZM659.57 223L662.38 223L662.38 209.64L659.57 209.64ZM671.94 213.32L671.94 218.1C671.94 219.89 671 220.71 669.7 220.71C668.46 220.71 667.74 219.99 667.74 218.37L667.74 213.32L664.93 213.32L664.93 218.79C664.93 221.78 666.64 223.14 669.07 223.14C670.26 223.14 671.34 222.69 672.08 221.85L672.08 223L674.74 223L674.74 213.32ZM682.84 220.55C682.54 220.79 682.12 220.91 681.71 220.91C680.95 220.91 680.5 220.46 680.5 219.63L680.5 215.69L682.92 215.69L682.92 213.53L680.5 213.53L680.5 211.17L677.7 211.17L677.7 213.53L676.2 213.53L676.2 215.69L677.7 215.69L677.7 219.67C677.7 221.97 679.03 223.14 681.31 223.14C682.18 223.14 683.02 222.95 683.6 222.53ZM686.59 211.97C687.63 211.97 688.33 211.28 688.33 210.35C688.33 209.48 687.63 208.83 686.59 208.83C685.54 208.83 684.84 209.52 684.84 210.4C684.84 211.28 685.54 211.97 686.59 211.97ZM685.18 223L687.99 223L687.99 213.32L685.18 213.32ZM695.21 223.14C698.29 223.14 700.52 221.07 700.52 218.16C700.52 215.24 698.29 213.17 695.21 213.17C692.13 213.17 689.88 215.24 689.88 218.16C689.88 221.07 692.13 223.14 695.21 223.14ZM695.21 220.84C693.81 220.84 692.73 219.83 692.73 218.16C692.73 216.48 693.81 215.48 695.21 215.48C696.61 215.48 697.68 216.48 697.68 218.16C697.68 219.83 696.61 220.84 695.21 220.84ZM708.28 213.17C706.96 213.17 705.83 213.62 705.07 214.45L705.07 213.32L702.39 213.32L702.39 223L705.2 223L705.2 218.21C705.2 216.43 706.17 215.6 707.52 215.6C708.76 215.6 709.48 216.32 709.48 217.89L709.48 223L712.29 223L712.29 217.46C712.29 214.5 710.56 213.17 708.28 213.17Z" />
	</g>
</svg>