<svg xmlns="http://www.w3.org/2000/svg" width="500" height="386.871" viewBox="0 0 500 386.871"><defs><style>.a{fill:#ebebeb;}.b{fill:#e6e6e6;}.c{fill:#f5f5f5;}.d,.m,.o,.p,.q{fill:#fff;}.e{fill:#e0e0e0;}.f{fill:#b55b52;}.g{fill:#263238;}.h{fill:#b65b52;}.i{opacity:0.2;}.j{fill:#407bff;}.k{opacity:0.4;}.l{opacity:0.3;}.m{opacity:0.5;}.n{fill:#a02724;}.o{opacity:0.7;}.p{opacity:0.6;}.q{opacity:0.8;}</style></defs><g transform="translate(0 -40.688)"><rect class="a" width="500" height="0.25" transform="translate(0 382.4)"/><rect class="a" width="33.12" height="0.25" transform="translate(416.78 398.49)"/><rect class="a" width="8.69" height="0.25" transform="translate(322.53 401.21)"/><rect class="a" width="19.19" height="0.25" transform="translate(396.59 389.21)"/><rect class="a" width="43.19" height="0.25" transform="translate(52.46 390.89)"/><rect class="a" width="6.33" height="0.25" transform="translate(104.56 390.89)"/><rect class="a" width="93.68" height="0.25" transform="translate(131.47 395.11)"/><path class="a" d="M237,337.8H43.91a5.71,5.71,0,0,1-5.7-5.71V60.66A5.71,5.71,0,0,1,43.91,55H237a5.71,5.71,0,0,1,5.71,5.71V332.09A5.71,5.71,0,0,1,237,337.8ZM43.91,55.2a5.46,5.46,0,0,0-5.45,5.46V332.09a5.46,5.46,0,0,0,5.45,5.46H237a5.47,5.47,0,0,0,5.46-5.46V60.66A5.47,5.47,0,0,0,237,55.2Z"/><path class="a" d="M453.31,337.8H260.21a5.72,5.72,0,0,1-5.71-5.71V60.66A5.72,5.72,0,0,1,260.21,55h193.1A5.71,5.71,0,0,1,459,60.66V332.09A5.71,5.71,0,0,1,453.31,337.8ZM260.21,55.2a5.47,5.47,0,0,0-5.46,5.46V332.09a5.47,5.47,0,0,0,5.46,5.46h193.1a5.47,5.47,0,0,0,5.46-5.46V60.66a5.47,5.47,0,0,0-5.46-5.46Z"/><rect class="b" width="97.29" height="216.03" transform="translate(299.59 295.72) rotate(180)"/><rect class="c" width="97.29" height="216.03" transform="translate(293.65 295.72) rotate(180)"/><rect class="d" width="196.58" height="75.95" transform="translate(282.98 89.41) rotate(90)"/><rect class="b" width="196.58" height="4.49" transform="translate(211.52 89.42) rotate(90)"/><rect class="c" width="88.46" height="13.06" transform="translate(289.23 240.68) rotate(180)"/><rect class="c" width="88.46" height="13.06" transform="translate(289.23 119.63) rotate(180)"/><rect class="b" width="97.29" height="216.03" transform="translate(168.42 295.72) rotate(180)"/><rect class="c" width="97.29" height="216.03" transform="translate(162.49 295.72) rotate(180)"/><rect class="d" width="196.58" height="75.95" transform="translate(151.81 89.42) rotate(90)"/><rect class="b" width="196.58" height="4.49" transform="translate(80.36 89.42) rotate(90)"/><rect class="c" width="88.46" height="13.06" transform="translate(158.07 240.68) rotate(180)"/><rect class="c" width="88.46" height="13.06" transform="translate(158.07 119.63) rotate(180)"/><rect class="b" width="97.29" height="216.03" transform="translate(430.75 295.72) rotate(180)"/><rect class="c" width="97.29" height="216.03" transform="translate(424.81 295.72) rotate(180)"/><rect class="d" width="196.58" height="75.95" transform="translate(414.14 89.42) rotate(90)"/><rect class="b" width="196.58" height="4.49" transform="translate(342.69 89.42) rotate(90)"/><rect class="c" width="88.46" height="13.06" transform="translate(420.39 240.68) rotate(180)"/><rect class="c" width="88.46" height="13.06" transform="translate(420.39 119.63) rotate(180)"/><rect class="c" width="171.46" height="56.29" transform="translate(55.72 326.11)"/><rect class="b" width="27.33" height="56.29" transform="translate(254.5 382.4) rotate(180)"/><path class="a" d="M237.83,326.11H52.55a4.89,4.89,0,0,1-4.89-4.89h0a4.89,4.89,0,0,1,4.89-4.89H237.83Z"/><path class="e" d="M224.16,326.11H254.5v-9.78H224.16a4.89,4.89,0,0,0-4.89,4.89h0a4.89,4.89,0,0,0,4.89,4.89Z"/><rect class="c" width="171.46" height="56.29" transform="translate(240.65 326.11)"/><rect class="b" width="27.33" height="56.29" transform="translate(439.44 382.4) rotate(180)"/><path class="a" d="M422.76,326.11H237.48a4.89,4.89,0,0,1-4.89-4.89h0a4.89,4.89,0,0,1,4.89-4.89H422.76Z"/><path class="e" d="M409.1,326.11h30.34v-9.78H409.1a4.89,4.89,0,0,0-4.89,4.89h0a4.89,4.89,0,0,0,4.89,4.89Z"/><ellipse class="c" cx="193.89" cy="11.32" rx="193.89" ry="11.32" transform="translate(56.11 404.92)"/><path class="f" d="M274.35,403.27l-7.68-1.81,4.25-18.44,7.67,1.81Z"/><path class="f" d="M333.27,408.04h-8.02l-.95-18.59h8.03Z"/><path class="g" d="M323.93,407.11h9.79a.7.7,0,0,1,.68.55l1.6,7.14a1.18,1.18,0,0,1-1.18,1.42c-3.14-.05-5.44-.24-9.41-.24-2.44,0-7.8.26-11.17.26s-3.81-3.33-2.43-3.64c6.18-1.35,8.85-3.21,10.83-5A2,2,0,0,1,323.93,407.11Z"/><path class="g" d="M266.31,400.52l8.54,2a.71.71,0,0,1,.54.69l-.08,7.31a1.17,1.17,0,0,1-1.45,1.13c-3.07-.77-7.48-2-11.35-2.9-4.52-1.05-4.61-.88-9.92-2.12-3.21-.75-3.34-4.2-1.93-4.18,6.43.09,7.58.27,13.63-1.75a3.67,3.67,0,0,1,2.02-.18Z"/><path class="h" d="M307.65,160.72c-3.64,4.91-7.07,9.85-10.39,14.94-1.66,2.55-3.3,5.11-4.87,7.72s-3.15,5.25-4.63,8l-.56,1-.28.51-.43.86a10.109,10.109,0,0,0-.78,2.45,7.61,7.61,0,0,0,.31,3.91,7.19,7.19,0,0,0,2.54,3.33,8.5,8.5,0,0,0,2.48,1.24l7.53-9.55c2.8-4.24,5.73-8.47,8.7-12.69l10.23-14.57Z"/><path class="i" d="M270.92,383.02l-2.19,9.51,7.68,1.81,2.19-9.5Z"/><path class="j" d="M322.72,162.46c2.18,7.36-10.71,21.47-10.71,21.47L296.41,174a135.659,135.659,0,0,1,9.24-13.39C312.24,152.05,320.08,153.55,322.72,162.46Z"/><path class="k" d="M322.72,162.46c2.18,7.36-10.71,21.47-10.71,21.47L296.41,174a135.659,135.659,0,0,1,9.24-13.39C312.24,152.05,320.08,153.55,322.72,162.46Z"/><path class="i" d="M332.33,389.46H324.3l.49,9.58h8.03Z"/><path class="j" d="M355.5,165.26c-9.41,28.61-10.22,58.36-11.17,64.58-6.26-.66-29.83-3.2-42.68-4.59-3.4-37.9,6.14-61.09,9.55-68a4.33,4.33,0,0,1,3.54-2.41c1.11-.09,2.55-.18,4.17-.23,1.18,0,2.45-.06,3.77,0a20.775,20.775,0,0,1,2.22.08,158.279,158.279,0,0,1,18.1,2.59c1.13.22,2.28.47,3.38.73s2,.51,3,.77c1.19.33,2.32.66,3.31,1a4.34,4.34,0,0,1,2.81,5.48Z"/><path class="l" d="M355.5,165.26c-9.41,28.61-10.22,58.36-11.17,64.58-6.26-.66-29.83-3.2-42.68-4.59-3.4-37.9,6.14-61.09,9.55-68a4.33,4.33,0,0,1,3.54-2.41c1.11-.09,2.55-.18,4.17-.23,1.18,0,2.45-.06,3.77,0a20.775,20.775,0,0,1,2.22.08,158.279,158.279,0,0,1,18.1,2.59c1.13.22,2.28.47,3.38.73s2,.51,3,.77c1.19.33,2.32.66,3.31,1a4.34,4.34,0,0,1,2.81,5.48Z"/><path class="j" d="M322.37,154.59h.31c.73,0,1.47,0,2.22.07a160.541,160.541,0,0,1,18.1,2.62c.87.17,1.74.36,2.6.56l-1.41,1c-4.16,3.09-9,5.88-15.74,5.41l-.87-.07c-3.45-.38-5.59-1.66-6.37-3.83A6.49,6.49,0,0,1,322.37,154.59Z"/><path class="f" d="M344.12,136.68c-2,5.65-4.67,16.13-1.16,20.6-3.62,2.68-8.27,5.71-15.21,4.95s-5-5.33-2.85-7.57c6.7-.61,7.23-5.44,6.76-10.12Z"/><path class="i" d="M339,139.89l-7.38,4.64a18.221,18.221,0,0,1,.09,3.29c2.53,0,6.33-2.22,7-4.78a9,9,0,0,0,.29-3.15Z"/><path class="g" d="M331.33,128.11l2.95.4c3.78-.09,10.75-7.7,8.25-14.28C334.08,112.77,325.23,116.94,331.33,128.11Z"/><path class="f" d="M349.76,132.23c-4.13,6.8-6.21,11-11.66,12.74-8.21,2.61-15.2-5.18-13.18-13.09,1.82-7.11,8.28-17,16.64-16.22a10.86,10.86,0,0,1,8.2,16.57Z"/><path class="g" d="M354.56,122.22l-3,.07c-3.71.7-9.38,9.32-5.85,15.42C354.17,139.16,364.5,131.28,354.56,122.22Z"/><path class="g" d="M349.42,125.07c-7.66-1.62-15.1-10.42-14.72-15.87.4-5.76,8.49-2.72,10-.9-.24-3.18,2-2.43,3.53-.48s3.44,9,9.21,14.1C361.3,125.33,358.19,126.93,349.42,125.07Z"/><path class="g" d="M356.39,125s3.19,1.28,3.94.25C360.92,127.46,358.61,127.19,356.39,125Z"/><path class="f" d="M348.86,141.65a7.54,7.54,0,0,1-5.74.76c-2.56-.7-2.47-3.32-.62-5,1.66-1.54,5-3,7-1.4A3.364,3.364,0,0,1,348.86,141.65Z"/><path class="j" d="M302.59,311c5.09-17.1,27.12-82.71,27.12-82.71l-28.06-3s-16,58.6-20,82.76c-4.23,25.12-15.61,80.3-15.61,80.3l13.72,3.78S297.49,328.08,302.59,311Z"/><path class="i" d="M319.25,244.51c-6.93,10.78-10.5,34.46-10.74,47.75,4.55-14,10.46-31.81,14.87-45.07a34.094,34.094,0,0,0-4.13-2.68Z"/><path class="j" d="M316.79,226.88s-2.29,65.91-1.37,89.41c1,25.74,5.68,80.9,5.68,80.9h14.7s-1.37-54.95-.18-80c1.36-28.57,8.71-87.31,8.71-87.31Z"/><path class="j" d="M319.89,397.5H337.2v-5.17l-18.19-.83Z"/><path class="m" d="M319.89,397.5H337.2v-5.17l-18.19-.83Z"/><path class="j" d="M264.45,389.95l15.77,3.69,1.19-5.1-16.02-4.61Z"/><path class="m" d="M264.45,389.95l15.77,3.69,1.19-5.1-16.02-4.61Z"/><path class="g" d="M338.06,128.57c-.3.58-.85.88-1.23.68s-.43-.82-.13-1.39.85-.88,1.23-.68S338.36,128,338.06,128.57Z"/><path class="g" d="M331.58,125.16c-.3.58-.85.88-1.22.68s-.44-.82-.13-1.39.85-.88,1.22-.68S331.88,124.59,331.58,125.16Z"/><path class="n" d="M333.49,126.53a23.08,23.08,0,0,1-5.32,3.46,3.73,3.73,0,0,0,2.47,1.95Z"/><path class="g" d="M332.25,134.75a5.38,5.38,0,0,0,4.22-.17.192.192,0,1,0-.18-.34,5.15,5.15,0,0,1-4.64-.17.19.19,0,0,0-.25.08.17.17,0,0,0,.08.25,5.77,5.77,0,0,0,.77.35Z"/><path class="g" d="M342.57,125.85a.44.44,0,0,0,.2,0,.39.39,0,0,0,.31-.44,3.78,3.78,0,0,0-2-2.83.38.38,0,0,0-.5.2.39.39,0,0,0,.19.5h0a3,3,0,0,1,1.57,2.26.36.36,0,0,0,.23.31Z"/><path class="g" d="M333.71,121.14a.36.36,0,0,0-.35-.07,3,3,0,0,1-2.71-.45.39.39,0,0,0-.54,0,.38.38,0,0,0,0,.53,3.78,3.78,0,0,0,3.42.6.38.38,0,0,0,.26-.47A.35.35,0,0,0,333.71,121.14Z"/><path class="j" d="M321.28,408.52a9.76,9.76,0,0,0,2.1-.29.19.19,0,0,0,.14-.16.18.18,0,0,0-.08-.19c-.3-.18-2.89-1.77-3.77-1.32a.62.62,0,0,0-.33.54,1.17,1.17,0,0,0,.39,1,2.49,2.49,0,0,0,1.55.42Zm1.55-.56c-1.36.27-2.41.22-2.85-.15a.76.76,0,0,1-.26-.68.25.25,0,0,1,.12-.23c.46-.24,1.94.45,2.99,1.1Z"/><path class="j" d="M323.34,408.23a.19.19,0,0,0,.1,0,.2.2,0,0,0,.09-.17c0-.1-.2-2.42-1.14-3.18a1,1,0,0,0-.81-.24h0a.61.61,0,0,0-.6.49c-.17.9,1.43,2.66,2.27,3.11ZM321.72,405a.62.62,0,0,1,.43.17,4.49,4.49,0,0,1,1,2.51c-.83-.63-1.85-2-1.75-2.48,0-.05,0-.17.28-.2h.09Z"/><path class="j" d="M265.29,401.42a.2.2,0,0,0,.16-.12.19.19,0,0,0-.06-.21c-.31-.27-3.08-2.6-4.15-2.29a.59.59,0,0,0-.42.42h0a1.05,1.05,0,0,0,.13,1c.68,1,3,1.18,4.31,1.22Zm-3.87-2.27c.63-.06,2.19,1,3.29,1.86-1.8-.11-3.06-.49-3.45-1a.68.68,0,0,1-.08-.64.22.22,0,0,1,.16-.17Z"/><path class="j" d="M265.29,401.42h0a.22.22,0,0,0,.12-.15c0-.09.29-2.25-.51-3.3a1.4,1.4,0,0,0-1-.55h0c-.52-.07-.72.15-.81.35-.35.85,1.13,3,2,3.62A.18.18,0,0,0,265.29,401.42Zm-1.54-3.64h.2a1,1,0,0,1,.7.41,4.49,4.49,0,0,1,.46,2.66c-.82-.81-1.78-2.43-1.57-2.94C263.55,397.87,263.58,397.79,263.75,397.78ZM263.97,397.59Z"/><path class="h" d="M357.77,172.07c-.79,1.5-1.54,2.76-2.36,4.09s-1.6,2.61-2.47,3.87c-1.7,2.54-3.51,5-5.39,7.43a88.31,88.31,0,0,1-6,7l-.81.89a10.231,10.231,0,0,1-1.95,1.7,8,8,0,0,1-1.68.82,6.86,6.86,0,0,1-2.29.4,7.2,7.2,0,0,1-4.1-1.27,8.571,8.571,0,0,1-1.95-1.85,11.59,11.59,0,0,1-1.05-1.57,20.247,20.247,0,0,1-1.24-2.71,52.887,52.887,0,0,1-2.37-9.45c-.53-3-.9-6.05-1.19-9.06-.59-6-.87-11.95-.87-18l6-.52c1.08,5.72,2.22,11.5,3.46,17.14.63,2.83,1.29,5.63,2,8.35a51.152,51.152,0,0,0,2.57,7.52,8.431,8.431,0,0,0,.71,1.26c.1.14.19.24.22.24s0-.09-.35-.34a3.68,3.68,0,0,0-2-.6,3.63,3.63,0,0,0-1.9.52c-.29.18-.33.25-.33.21l.61-.8c1.68-2.27,3.35-4.57,4.93-6.93s3.16-4.72,4.69-7.11l2.27-3.6,2.15-3.54Z"/><path class="h" d="M291,204.68a13.621,13.621,0,0,0,3.51.57,28.871,28.871,0,0,0,5.34-.32c1.65-.24,3.22-.55,4.77-.89a113.072,113.072,0,0,0,17.66-5.71l-1.3-5.76c-2.9.44-6.25.9-9.16,1.29s-5.81.79-8.65,1c-1.42.13-2.82.23-4.17.25h-.47"/><path class="f" d="M319.28,192.82l6.43-1.36L327.1,201s-7.14,1.1-9.32-4.32Z"/><path class="f" d="M332.96,194.42l-1.23,5.85-4.63.71-1.39-9.52Z"/><path class="j" d="M359.11,165.79c3.46,6.85-6.69,23-6.69,23l-17.13-7A136.089,136.089,0,0,1,342,167C346.93,157.43,354.91,157.5,359.11,165.79Z"/><path class="l" d="M359.11,165.79c3.46,6.85-6.69,23-6.69,23l-17.13-7A136.089,136.089,0,0,1,342,167C346.93,157.43,354.91,157.5,359.11,165.79Z"/><path class="f" d="M328.88,155.8l.6-8.13L320,149.38s.35,7.46,4.28,8.05Z"/><path class="f" d="M326.71,140.03l-8.06,2.95,1.36,6.4,9.47-1.71Z"/><circle class="j" cx="16.48" cy="16.48" r="16.48" transform="translate(229.6 140.95)"/><circle class="o" cx="16.48" cy="16.48" r="16.48" transform="translate(229.6 140.95)"/><circle class="j" cx="7.59" cy="7.59" r="7.59" transform="translate(272.68 136.26)"/><circle class="p" cx="7.59" cy="7.59" r="7.59" transform="translate(272.68 136.26)"/><path class="j" d="M300.21,127.16a3.39,3.39,0,1,1-3.39-3.39,3.39,3.39,0,0,1,3.39,3.39Z"/><path class="m" d="M300.21,127.16a3.39,3.39,0,1,1-3.39-3.39,3.39,3.39,0,0,1,3.39,3.39Z"/><path class="j" d="M244,107.6a32.46,32.46,0,0,0-15.83-27.89A36.76,36.76,0,0,0,166.8,52.53,32.48,32.48,0,0,0,113,58,26.34,26.34,0,0,0,75.77,88.43a23.79,23.79,0,0,0,2,40.79,23.8,23.8,0,0,0,23.4,19.49,24.149,24.149,0,0,0,4.45-.42,23.79,23.79,0,0,0,33.47,11.46,23.8,23.8,0,0,0,35.72-4.06A26.34,26.34,0,0,0,221.54,139v-.46A32.48,32.48,0,0,0,244,107.6Z"/><path class="q" d="M244,107.6a32.46,32.46,0,0,0-15.83-27.89A36.76,36.76,0,0,0,166.8,52.53,32.48,32.48,0,0,0,113,58,26.34,26.34,0,0,0,75.77,88.43a23.79,23.79,0,0,0,2,40.79,23.8,23.8,0,0,0,23.4,19.49,24.149,24.149,0,0,0,4.45-.42,23.79,23.79,0,0,0,33.47,11.46,23.8,23.8,0,0,0,35.72-4.06A26.34,26.34,0,0,0,221.54,139v-.46A32.48,32.48,0,0,0,244,107.6Z"/><path class="d" d="M157.78,141.46l-1.07.12c0-.3-2.82-23.85-11.16-35.45-4.16,1.57-7.36.09-8.71-2.12a3.7,3.7,0,0,1,.51-4.89l.21-.18.26.06C153.18,102.55,157.6,139.87,157.78,141.46Zm-19.92-41.34a2.68,2.68,0,0,0-.1,3.33c1.09,1.77,3.68,3,7.11,1.78a13.62,13.62,0,0,0-7.01-5.11Z"/><path class="d" d="M162.57,140.73c-.3-1.57-7.22-38.51,6.38-46.48l.24-.14.25.11a3.7,3.7,0,0,1,1.95,4.51c-.64,2.52-3.25,4.89-7.68,4.62-4.51,13.56-.14,36.88-.08,37.17Zm1.52-38.44c3.62.1,5.74-1.8,6.25-3.82a2.66,2.66,0,0,0-1.09-3.14,13.63,13.63,0,0,0-5.16,6.96Z"/><path class="j" d="M122.07,94l-1,.1a33.331,33.331,0,0,1-.13-4.23h1a31.27,31.27,0,0,0,.13,4.13Z"/><path class="j" d="M122.36,85.69l-1-.16a31,31,0,0,1,5.22-12.7l.82.58a29.92,29.92,0,0,0-5.04,12.28Z"/><path class="j" d="M168.75,126.33l-21.16,3.23a3.6,3.6,0,0,1-3.77-2,47.25,47.25,0,0,0-11.07-15,29.19,29.19,0,0,1,15-50.24h0a29.189,29.189,0,0,1,29.95,43.6,45.42,45.42,0,0,0-6,17.36,3.58,3.58,0,0,1-2.95,3.05ZM148.09,64.42A27,27,0,0,0,134.21,111a49.73,49.73,0,0,1,11.57,15.67,1.4,1.4,0,0,0,1.48.81l21.16-3.23A1.43,1.43,0,0,0,169.6,123a47.68,47.68,0,0,1,6.23-18.18,27.028,27.028,0,0,0-27.74-40.4Z"/><path class="j" d="M167.75,145.57l-13.47,2.06a3.79,3.79,0,0,1-4.31-3.17l-.05-.36a3.69,3.69,0,0,1,0-1.24,3.93,3.93,0,0,1-1.28-2.33v-.16a4,4,0,0,1,.06-1.47,3.91,3.91,0,0,1-1.22-2.3,4,4,0,0,1,3.31-4.52l15.69-2.39A4,4,0,0,1,171,133a3.89,3.89,0,0,1-.48,2.57A3.94,3.94,0,0,1,171,137v.16a3.9,3.9,0,0,1-.53,2.61,4.09,4.09,0,0,1,.39,1.18v.36A3.78,3.78,0,0,1,167.75,145.57ZM151.1,134.21a1.81,1.81,0,0,0-1.51,2.06,1.78,1.78,0,0,0,.91,1.3l.9.51-.47.92a1.73,1.73,0,0,0-.18,1v.16a1.73,1.73,0,0,0,.91,1.27l.91.47-.43.93a1.58,1.58,0,0,0-.12.91v.35a1.63,1.63,0,0,0,1.86,1.36l13.47-2.05a1.64,1.64,0,0,0,1.36-1.86v-.35a1.65,1.65,0,0,0-.4-.83l-.68-.76.73-.72a1.74,1.74,0,0,0,.49-1.48v-.16a1.74,1.74,0,0,0-.48-.94l-.73-.74.71-.76a1.77,1.77,0,0,0,.48-1.51,1.8,1.8,0,0,0-2.05-1.51Z"/></g></svg>