<svg xmlns="http://www.w3.org/2000/svg" width="420.52" height="371.992" viewBox="0 0 420.52 371.992"><defs><style>.a,.f,.i{fill:#407bff;}.b,.g,.j{fill:#fff;}.b{opacity:0.7;}.c,.k{fill:#2e353a;}.c,.d,.e,.f,.g,.h,.i,.j{stroke:#2e353a;}.c,.d,.e,.f,.g,.h,.i,.j,.k{stroke-linecap:round;stroke-linejoin:round;}.d,.e,.h{fill:none;}.d{stroke-width:3px;}.e,.f,.g{stroke-width:2px;}.k{stroke:#fff;}</style></defs><g transform="translate(-39.74 -52.684)"><path class="a" d="M436.94,419.9H65S53.19,400,45,360s30.84-25.4,40.82-59.88-33.56-27.21-29.93-74.39,63.5-48.08,92.53-41.73,25.4-15.42,59-51.71,84.37-32.66,109.77-4.53,17.23,57.15,49,57.15S427,191.29,446,252.07s-15.77,88.56-15.14,116a300.575,300.575,0,0,0,6.08,51.83Z"/><path class="b" d="M436.94,419.9H65S53.19,400,45,360s30.84-25.4,40.82-59.88-33.56-27.21-29.93-74.39,63.5-48.08,92.53-41.73,25.4-15.42,59-51.71,84.37-32.66,109.77-4.53,17.23,57.15,49,57.15S427,191.29,446,252.07s-15.77,88.56-15.14,116a300.575,300.575,0,0,0,6.08,51.83Z"/><path class="c" d="M215.41,419.9c-9.11-13.87-48-72.19-59.38-73.75-11.09-1.52-50.5,57.45-61.16,73.75Z"/><line class="d" y2="134.49" transform="translate(265.28 79.13)"/><line class="d" y2="130.88" transform="translate(281.26 82.74)"/><line class="d" y2="126.77" transform="translate(298.78 154.36)"/><line class="d" y2="198.39" transform="translate(317.33 82.74)"/><line class="d" y2="134.49" transform="translate(335.88 82.74)"/><line class="d" x2="85.03" transform="translate(251.37 97.16)"/><line class="d" x2="92.21" transform="translate(251.37 127.05)"/><line class="d" x2="102.54" transform="translate(249.83 154.36)"/><line class="d" x2="104.09" transform="translate(248.28 184.77)"/><line class="d" x2="78.84" transform="translate(267.86 217.74)"/><line class="d" x2="51.53" transform="translate(288.47 249.69)"/><line class="e" x2="18.19" y2="14.24" transform="translate(152.81 91.9)"/><line class="e" x2="6.33" y2="9.49" transform="translate(189.19 76.88)"/><line class="e" x2="5.54" y2="17.4" transform="translate(221.62 53.94)"/><path class="f" d="M325.4,277.54h-30V206.21H254.7V79.88a100,100,0,0,0-87.42,146.73c3.26,7.59,10.92,26.18,18.59,50.22,7.09,22.19,10.79,44.5,10.79,47.87v1a7.48,7.48,0,0,0,7.47,7.74H307.38a7.49,7.49,0,0,0,7.47-7.74v-1C314.83,321.37,318.46,299.49,325.4,277.54Z"/><path class="e" d="M220.81,96a80.31,80.31,0,0,1,8.89-3.39"/><path class="e" d="M187.51,121.34s8.15-13,26.06-21.75"/><path class="e" d="M189.65,265.26c3.71,12.12,8.62,28.91,10.32,38.29,2.88,15.82,1,24,7.2,25.41"/><path class="e" d="M185.11,250.8s1,3.25,2.61,8.23"/><path class="e" d="M249.42,332.47v-95.6s4-25-9-25-12,13,3,27,38,1,41-10-5-16-10-7,0,111,0,111"/><rect class="g" width="107.91" height="25.04" transform="translate(202.08 332.86)"/><rect class="g" width="107.91" height="25.04" transform="translate(202.08 363.86)"/><rect class="c" width="107.91" height="5.96" transform="translate(202.08 357.9)"/><rect class="g" width="107.91" height="25.04" transform="translate(202.08 394.86)"/><line class="h" x2="8.02" transform="translate(298.7 354.55)"/><line class="h" x2="88.52" transform="translate(206.32 354.55)"/><line class="h" x2="25.85" transform="translate(277.9 386.04)"/><line class="h" x2="52.59" transform="translate(222.34 386.04)"/><line class="h" x2="4.45" transform="translate(213.73 386.04)"/><rect class="c" width="107.91" height="5.96" transform="translate(202.08 388.9)"/><rect class="i" width="36.94" height="19.23" transform="translate(216.13 400.35)"/><rect class="i" width="36.94" height="19.23" transform="translate(264.2 400.35)"/><path class="c" d="M334.37,419.9c-7.08-6.21-37.31-32.32-46.11-33-8.62-.69-39.22,25.72-47.5,33Z"/><line class="j" x2="8.68" transform="translate(451.08 419.9)"/><line class="j" x2="388.66" transform="translate(53.74 419.9)"/><line class="j" x2="6.75" transform="translate(40.24 419.9)"/><path class="c" d="M433.61,362.83H407.66v36.4h36.71v-18.2Z"/><rect class="j" width="11.89" height="8.27" transform="translate(432.48 399.23)"/><path class="i" d="M388.37,398.82s13-7,8.5-42l-16.5-9-28.5-4.5-25.5,1v14.5s14.5,12.5,16,16.5a27.72,27.72,0,0,1,1.5,8.5v14Z"/><line class="h" x1="8.5" y2="42" transform="translate(388.37 356.82)"/><line class="h" x1="9.5" y2="51" transform="translate(370.87 347.82)"/><line class="h" x1="7" y2="38" transform="translate(344.87 343.32)"/><path class="h" d="M327.37,356.82s16.5,7,23,11.5,5.5,14,5.5,14"/><rect class="j" width="77.53" height="6.5" transform="translate(330.36 399.49)"/><path class="j" d="M423.37,382.82h16.19l-8.69-15h-7.5Z"/><rect class="j" width="7" height="15" transform="translate(413.87 367.82)"/><rect class="j" width="47.2" height="11.27" transform="translate(330.77 399.23)"/><circle class="c" cx="9.93" cy="9.93" r="9.93" transform="translate(409.38 401.939) rotate(-10.24)"/><circle class="j" cx="5.79" cy="5.79" r="5.79" transform="translate(415.11 404.19)"/><circle class="c" cx="9.93" cy="9.93" r="9.93" transform="translate(332.914 401.914) rotate(-10.04)"/><circle class="j" cx="5.79" cy="5.79" r="5.79" transform="translate(338.61 404.19)"/><circle class="c" cx="9.93" cy="9.93" r="9.93" transform="translate(354.344 409.34) rotate(-42.56)"/><circle class="j" cx="5.79" cy="5.79" r="5.79" transform="translate(362.58 404.19)"/><rect class="c" width="31.5" height="17" rx="3.25" transform="translate(336.87 381.82)"/><path class="h" d="M324.37,398.82V349.37h10v49.45"/><line class="h" x2="9.82" transform="translate(324.44 355.92)"/><line class="h" x2="9.82" transform="translate(324.44 363.64)"/><line class="h" x2="9.82" transform="translate(324.44 371.36)"/><line class="h" x2="9.82" transform="translate(324.44 379.09)"/><line class="h" x2="9.82" transform="translate(324.44 386.81)"/><line class="h" x2="9.82" transform="translate(324.44 394.53)"/><path class="h" d="M124.36,420.87h-18v-314l18,20.93Z"/><path class="h" d="M106.54,354.87h17.65L106.54,337.8h17.65Z"/><path class="h" d="M106.54,337.37h17.65L106.54,320.3h17.65Z"/><path class="h" d="M106.54,319.87h17.65L106.54,302.8h17.65Z"/><path class="h" d="M106.54,302.37h17.65L106.54,285.3h17.65Z"/><path class="h" d="M106.54,284.87h17.65L106.54,267.8h17.65Z"/><path class="h" d="M106.54,267.37h17.65L106.54,250.3h17.65Z"/><path class="h" d="M106.54,249.87h17.65L106.54,232.8h17.65Z"/><path class="h" d="M106.54,232.37h17.65L106.54,215.3h17.65Z"/><path class="h" d="M106.54,214.87h17.65L106.54,197.8h17.65Z"/><path class="h" d="M106.54,197.37h17.65L106.54,180.3h17.65Z"/><path class="h" d="M106.54,179.87h17.65L106.54,162.8h17.65Z"/><path class="h" d="M106.54,162.37h17.65L106.54,145.3h17.65Z"/><path class="h" d="M106.54,144.87h17.65L106.54,127.8h17.65Z"/><path class="h" d="M207.93,145.34l-8.72-5.49H136.98l-7.6,5.49Z"/><rect class="c" width="152" height="4" transform="translate(57.37 144.87)"/><path class="h" d="M199.21,139.85l-92.85-32.98,30.62,32.98"/><line class="h" x1="49" y2="38" transform="translate(57.37 106.87)"/><rect class="c" width="37.5" height="24" transform="translate(99.87 153.37)"/><rect class="j" width="21.87" height="7" transform="translate(107.68 158.37)"/><line class="j" y2="43.12" transform="translate(209.37 148.87)"/><rect class="c" width="11.11" height="12.59" transform="translate(203.96 206.72)"/><path class="h" d="M203.96,206.72l5.56-15.55,5.56,15.55"/><path class="i" d="M179.4,358.65l24,37.94,6-4.39-17.66-35.32a9.55,9.55,0,0,0-8.55-5.28h0a4.59,4.59,0,0,0-3.79,7.05Z"/><path class="k" d="M207.29,387.26,182.6,404.82s2.2,9.32,16.46,8.77,13.72-15.36,13.72-15.36Z"/><path class="i" d="M138.71,375.74l44.72-20.15a7.08,7.08,0,0,1,8.6,2.25h0a7.07,7.07,0,0,1-1.64,10l-48.93,34.25Z"/><rect class="j" width="46.09" height="7.13" transform="translate(86.04 400.43)"/><rect class="c" width="40.05" height="16.46" transform="translate(69.58 380.13)"/><path class="i" d="M104.42,361.47h34a3,3,0,0,1,3,3v32.1H101.41v-32.1a3,3,0,0,1,3.01-3Z"/><path class="c" d="M69.17,419.9h65.57a7.81,7.81,0,0,0,7.81-7.81h0a7.82,7.82,0,0,0-7.81-7.82H69.17a7.82,7.82,0,0,0-7.81,7.82h0A7.81,7.81,0,0,0,69.17,419.9Z"/><path class="j" d="M79.05,419.9h65.56a7.82,7.82,0,0,0,7.82-7.81h0a7.82,7.82,0,0,0-7.82-7.82H79.05a7.82,7.82,0,0,0-7.82,7.82h0A7.82,7.82,0,0,0,79.05,419.9Z"/><rect class="j" width="71.87" height="5.49" transform="translate(69.58 396.59)"/><path class="c" d="M84.4,412.09a4.94,4.94,0,1,1-4.94-4.94,4.94,4.94,0,0,1,4.94,4.94Z"/><circle class="c" cx="4.94" cy="4.94" r="4.94" transform="translate(87.69 407.15)"/><circle class="c" cx="4.94" cy="4.94" r="4.94" transform="translate(100.85 407.15)"/><path class="c" d="M123.9,412.09a4.94,4.94,0,1,1-4.94-4.94,4.94,4.94,0,0,1,4.94,4.94Z"/><path class="c" d="M137.07,412.09a4.94,4.94,0,1,1-4.94-4.94,4.94,4.94,0,0,1,4.94,4.94Z"/><path class="c" d="M150.23,412.09a4.93,4.93,0,1,1-1.44-3.493,4.94,4.94,0,0,1,1.44,3.493Z"/><path class="c" d="M188.64,361.47a2.74,2.74,0,1,0-.8,1.944,2.75,2.75,0,0,0,.8-1.944Z"/><rect class="j" width="29.08" height="17.56" transform="translate(106.34 365.86)"/><rect class="j" width="15.91" height="17.56" transform="translate(119.51 365.86)"/></g></svg>