<svg xmlns="http://www.w3.org/2000/svg" width="500" height="426.41" viewBox="0 0 500 426.41"><defs><style>.a{fill:#ebebeb;}.b{fill:#f0f0f0;}.c{fill:#f5f5f5;}.d{fill:#e6e6e6;}.e{fill:#fafafa;}.f,.g,.i{fill:#fff;}.g,.h,.n,.x{stroke:#407bff;}.ab,.ac,.g,.h,.n,.u,.v,.z{stroke-linecap:round;stroke-linejoin:round;}.ab,.ac,.h,.k,.n,.u,.v,.x,.y,.z{fill:none;}.h,.z{stroke-dasharray:5 5;}.ab,.ac,.i,.k,.z{stroke:#263238;}.i,.k,.x,.y{stroke-miterlimit:10;}.j{fill:#407bff;}.l{fill:#263238;}.ae,.m{opacity:0.2;}.ac,.n{stroke-width:0.75px;}.o{opacity:0.1;}.p,.w{opacity:0.3;}.q{opacity:0.4;}.r{opacity:0.5;}.s{opacity:0.6;}.t{opacity:0.7;}.u{stroke:#e6e6e6;stroke-dasharray:4 4;}.v{stroke:#fafafa;}.y{stroke:#fff;}.aa{fill:#b55b52;}.ab{stroke-width:0.5px;}.ad{fill:#a02724;}.ae{isolation:isolate;}</style></defs><g transform="translate(0 -30.41)"><rect class="a" width="500" height="0.25" transform="translate(0 382.4)"/><rect class="a" width="33.12" height="0.25" transform="translate(416.78 398.49)"/><rect class="a" width="8.69" height="0.25" transform="translate(322.53 401.21)"/><rect class="a" width="19.19" height="0.25" transform="translate(396.59 389.21)"/><rect class="a" width="43.19" height="0.25" transform="translate(52.46 390.89)"/><rect class="a" width="6.33" height="0.25" transform="translate(104.56 390.89)"/><rect class="a" width="93.68" height="0.25" transform="translate(131.47 395.11)"/><path class="a" d="M237,337.8H43.91a5.71,5.71,0,0,1-5.7-5.71V60.66A5.71,5.71,0,0,1,43.91,55H237a5.71,5.71,0,0,1,5.71,5.71h0V332.09A5.71,5.71,0,0,1,237,337.8ZM43.91,55.2a5.46,5.46,0,0,0-5.45,5.46V332.09a5.46,5.46,0,0,0,5.45,5.46H237a5.48,5.48,0,0,0,5.46-5.46V60.66A5.48,5.48,0,0,0,237,55.2Z"/><path class="a" d="M453.31,337.8H260.21a5.73,5.73,0,0,1-5.71-5.71V60.66A5.72,5.72,0,0,1,260.21,55h193.1A5.71,5.71,0,0,1,459,60.66V332.09a5.7,5.7,0,0,1-5.69,5.71ZM260.21,55.2a5.48,5.48,0,0,0-5.46,5.46V332.09a5.48,5.48,0,0,0,5.46,5.46h193.1a5.48,5.48,0,0,0,5.46-5.46V60.66a5.48,5.48,0,0,0-5.46-5.46Z"/><rect class="b" width="16.42" height="91.68" transform="translate(101.26 285.56)"/><rect class="b" width="112.76" height="4.98" transform="translate(101.26 377.24)"/><rect class="c" width="97.66" height="91.68" transform="translate(116.36 285.56)"/><rect class="b" width="84.75" height="32.32" transform="translate(122.81 295.24)"/><rect class="b" width="84.75" height="32.32" transform="translate(122.81 335.25)"/><rect class="c" width="43.01" height="3.54" rx="1.45" transform="translate(143.69 301.82)"/><rect class="c" width="43.01" height="3.54" rx="1.45" transform="translate(143.69 341.84)"/><rect class="d" width="233.69" height="133.88" transform="translate(203.45 98.86)"/><rect class="b" width="235.53" height="133.88" transform="translate(205.07 98.86)"/><rect class="e" width="225.81" height="122.95" transform="translate(209.94 104.32)"/><path class="f" d="M237.65,227.27l28.56-122.95h37.44L275.09,227.27Z"/><path class="f" d="M281.15,227.27,309.7,104.32h16.91L298.05,227.27Z"/><path class="f" d="M348.23,227.27l28.56-122.95h28.87L377.11,227.27Z"/><rect class="d" width="0.62" height="122.95" transform="translate(435.12 104.32)"/><rect class="b" width="14.04" height="133.88" transform="translate(315.82 98.86)"/><rect class="d" width="0.62" height="122.95" transform="translate(315.2 104.32)"/><rect class="d" width="0.49" height="133.88" transform="translate(322.59 98.86)"/><rect class="d" width="62.12" height="95.23" transform="translate(76.68 101.02)"/><rect class="c" width="65.93" height="95.23" transform="translate(78.13 101.02)"/><rect class="f" width="57.52" height="86.83" transform="translate(82.33 105.22)"/><rect class="c" width="36.76" height="50.39" transform="translate(92.71 119.49)"/><path class="g" d="M450.78,194v81.9a12.24,12.24,0,0,1-12.25,12.25H284a12.25,12.25,0,0,1-12.25-12.25V194a11.314,11.314,0,0,1,.09-1.43A12.24,12.24,0,0,1,284,181.71H438.53a12.25,12.25,0,0,1,12.17,10.81,11.308,11.308,0,0,1,.08,1.48Z"/><path class="h" d="M307.59,245.85a33,33,0,0,1-2-17.68c1.84-10.6,10.12-20.16,20.67-22.25,15.34-3,30,9.07,45.66,8.41,11-.46,22.41-7.1,32.26-2.26,15.6,7.68,11.22,31.58,3.7,43.24-7.81,12.12-22.05,19.18-35.9,21.76"/><path class="i" d="M311.39,296.62l16.6,6.77,9.98-8.39-.95-31.57-5.58-2.28L309,283.17Z"/><path class="j" d="M320.73,311l-9.64-3.93a3.81,3.81,0,0,1-2.09-5h0a3.8,3.8,0,0,1,5-2.08l9.6,4.01a3.81,3.81,0,0,1,2.09,5h0a3.81,3.81,0,0,1-4.96,2Z"/><line class="k" x1="7.96" y2="19.51" transform="translate(326.29 262.3)"/><path class="l" d="M328,282.48a1.79,1.79,0,1,1-1-2.33A1.79,1.79,0,0,1,328,282.48Z"/><path class="m" d="M320.73,311l-9.64-3.93a3.81,3.81,0,0,1-2.09-5h0a3.8,3.8,0,0,1,5-2.08l9.6,4.01a3.81,3.81,0,0,1,2.09,5h0a3.81,3.81,0,0,1-4.96,2Z"/><path class="k" d="M287.83,283.51a36.473,36.473,0,0,1,68.11,26.12"/><rect class="k" width="2.03" height="2.03" transform="matrix(0.892, 0.452, -0.452, 0.892, 355.15, 309.026)"/><rect class="k" width="2.03" height="2.03" transform="matrix(0.892, 0.452, -0.452, 0.892, 287.02, 282.991)"/><line class="k" x2="55.82" y2="24.21" transform="translate(310.35 251.75)"/><path class="j" d="M367.46,276.25a1,1,0,1,1-.263-1.075A1,1,0,0,1,367.46,276.25Z"/><path class="j" d="M311.39,251.94a1,1,0,1,1-.247-1.093A1,1,0,0,1,311.39,251.94Z"/><path class="j" d="M450.7,192.52H271.82A12.24,12.24,0,0,1,284,181.71H438.53a12.25,12.25,0,0,1,12.17,10.81Z"/><path class="f" d="M412.76,186.58a2,2,0,1,1-2-2A2,2,0,0,1,412.76,186.58Z"/><circle class="f" cx="2" cy="2" r="2" transform="translate(418.96 184.58)"/><path class="f" d="M433.16,186.58a2,2,0,1,1-2-2A2,2,0,0,1,433.16,186.58Z"/><rect class="n" width="18.15" height="30.09" transform="translate(425.92 196.2)"/><rect class="j" width="4.01" height="4.01" transform="translate(429.15 198.77)"/><rect class="j" width="4.01" height="4.01" transform="translate(437.31 198.77)"/><rect class="j" width="4.01" height="4.01" transform="translate(429.15 205.52)"/><rect class="j" width="4.01" height="4.01" transform="translate(437.31 205.52)"/><rect class="j" width="4.01" height="4.01" transform="translate(429.15 212.27)"/><rect class="j" width="4.01" height="4.01" transform="translate(437.31 212.27)"/><rect class="j" width="4.01" height="4.01" transform="translate(429.15 219.01)"/><rect class="j" width="4.01" height="4.01" transform="translate(437.31 219.01)"/><rect class="o" width="4.01" height="4.01" transform="translate(437.31 198.77)"/><rect class="m" width="4.01" height="4.01" transform="translate(429.15 205.52)"/><rect class="p" width="4.01" height="4.01" transform="translate(437.31 205.52)"/><rect class="q" width="4.01" height="4.01" transform="translate(429.15 212.27)"/><rect class="r" width="4.01" height="4.01" transform="translate(437.31 212.27)"/><rect class="s" width="4.01" height="4.01" transform="translate(429.15 219.01)"/><rect class="t" width="4.01" height="4.01" transform="translate(437.31 219.01)"/><path class="u" d="M77.22,173.28A147.08,147.08,0,0,1,220.94,57.41c68.91,0,126.39,46,142.32,110"/><path class="j" d="M77.22,159.22a23.54,23.54,0,0,0-23.54,23.55c0,4.67,3.6,11.5,5.27,14.41.73,1.28,1.42,2.57,2.09,3.87l4.66,9.15a3.41,3.41,0,0,0,3,1.87h17a3.41,3.41,0,0,0,3-1.87l4.66-9.15c.66-1.3,1.36-2.59,2.09-3.87,1.67-2.91,5.27-9.74,5.27-14.41a23.55,23.55,0,0,0-23.5-23.55Z"/><path class="v" d="M72.21,212.07s-.81-21.73-5.56-21-2.22,7.77,9.64,8.15,11.22-8.18,8.72-8.17-6.53,9.57-3.86,21"/><path class="v" d="M64.39,167.54c3.19-3.35,7.93-5.66,14.84-4.78"/><path class="v" d="M60.2,172.4a11.07,11.07,0,0,1,2.15-2.52"/><path class="j" d="M88.52,222.55v.31a7.05,7.05,0,0,1-.2,1.4,6.7,6.7,0,0,1-1.51,2.88,5.6,5.6,0,0,1-4.16,1.9H70.41a6,6,0,0,1-5.67-4.78,7.05,7.05,0,0,1-.2-1.4v-.31a5.679,5.679,0,0,1,0-.59,1.1,1.1,0,0,1,0-.18A6.75,6.75,0,0,1,66.25,218a5.6,5.6,0,0,1,4.16-1.9H82.64a6,6,0,0,1,5.57,4.45,5.839,5.839,0,0,1,.26,1.27,1.1,1.1,0,0,1,0,.18q.038.274.05.55Z"/><path class="m" d="M88.21,220.51H64.83A6.65,6.65,0,0,1,66.25,218a5.6,5.6,0,0,1,4.16-1.9H82.64a6,6,0,0,1,5.57,4.41Z"/><path class="m" d="M88.31,224.26a6.7,6.7,0,0,1-1.51,2.88,5.6,5.6,0,0,1-4.16,1.9H70.41a6,6,0,0,1-5.67-4.78Z"/><g class="w"><path d="M88.52,222.55v.31h-24v-.31a5.679,5.679,0,0,1,0-.59,1.1,1.1,0,0,1,0-.18H88.47a1.1,1.1,0,0,1,0,.18,5.677,5.677,0,0,1,.05.59Z"/></g><path class="j" d="M76.52,235.86a1.57,1.57,0,1,1-.463-1.114,1.58,1.58,0,0,1,.463,1.114Z"/><path class="x" d="M74.94,235.86v38.45h9.28v69.35"/><path class="j" d="M130.35,105.49v-2.31l-1.43-.42a14,14,0,0,0-.44-2.31l1.2-.92-.87-2.14-1.49.15a14.5,14.5,0,0,0-1.26-2l.73-1.3-1.62-1.65-1.31.72A14.18,14.18,0,0,0,121.94,92l.18-1.48-2.13-.9-.94,1.16a13,13,0,0,0-2.29-.48l-.4-1.44h-2.32l-.42,1.43a13.72,13.72,0,0,0-2.3.43l-.93-1.19-2.14.86.15,1.48a15.62,15.62,0,0,0-2,1.27l-1.29-.74L103.49,94l.72,1.32a12.281,12.281,0,0,0-1.32,1.94l-1.48-.19-.91,2.13,1.16.93a13.17,13.17,0,0,0-.48,2.31l-1.44.4v2.3l1.43.43a14,14,0,0,0,.44,2.31l-1.2.91.87,2.15,1.49-.16a12.58,12.58,0,0,0,1.26,2l-.74,1.31,1.63,1.64,1.31-.71a14.08,14.08,0,0,0,1.93,1.33l-.18,1.48,2.13.9.94-1.15a14.119,14.119,0,0,0,2.31.47l.39,1.44h2.31l.42-1.43a12.9,12.9,0,0,0,2.31-.44l.92,1.2,2.14-.86-.15-1.48a14.929,14.929,0,0,0,2-1.27l1.3.74,1.65-1.62-.71-1.32a12.749,12.749,0,0,0,1.32-1.94l1.48.19.91-2.13-1.16-.94a13.891,13.891,0,0,0,.47-2.29ZM115,109.58a5.36,5.36,0,1,1,3.815-1.534A5.36,5.36,0,0,1,115,109.58Z"/><path class="l" d="M407.94,137.9l-3.31-3.43h0a22.235,22.235,0,0,0-.72-4.29l1.76-3.64-4.33-7.07-4-.07a22,22,0,0,0-3.47-2.6h0l-1.56-4.48-8.06-1.93-3.43,3.3h0a21.63,21.63,0,0,0-4.29.73l-3.64-1.78L365.83,117l-.07,4h0a19.909,19.909,0,0,0-2.59,3.48L358.69,126l-1.94,8,3.31,3.43a21.08,21.08,0,0,0,.72,4.32h0l-1.78,3.7,4.33,7.07,4,.08a22,22,0,0,0,3.47,2.6h0l1.55,4.47,8.07,1.94,3.41-3.3a22.509,22.509,0,0,0,4.33-.72h0l3.65,1.76,7.07-4.32.08-4a21.388,21.388,0,0,0,2.59-3.48h0L406,146Zm-27.82,7.16a9.32,9.32,0,1,1,11.24-6.88h0A9.34,9.34,0,0,1,380.12,145.06Z"/><path class="l" d="M230.76,54l-4.15-2.85h0a22.839,22.839,0,0,0-1.67-4.29L226,42.65l-6-6.41-4.16.78a22.762,22.762,0,0,0-4.15-2h0l-2.56-4.32-8.77-.29-2.85,4.15h0a22.14,22.14,0,0,0-4.29,1.66l-4.15-1.07-6.41,6,.77,4.15h0a21.91,21.91,0,0,0-1.95,4.16l-4.31,2.56-.3,8.76,4.13,2.9A22.159,22.159,0,0,0,182.7,68h0l-1,4.16,6,6.41,4.16-.76a24.17,24.17,0,0,0,4.15,2h0l2.55,4.3,8.77.31,2.84-4.16a22.59,22.59,0,0,0,4.34-1.66h0l4.15,1.06,6.41-6-.76-4.15a23.082,23.082,0,0,0,1.95-4.15h0l4.31-2.56ZM203.44,67.27a9.86,9.86,0,1,1,10.19-9.51h0a9.87,9.87,0,0,1-10.19,9.51Z"/><circle class="y" cx="13.8" cy="13.8" r="13.8" transform="translate(184.312 57.412) rotate(-45)"/><path class="j" d="M355.32,101l1.32-5.48-3.17-1.81A33.152,33.152,0,0,0,353.7,88l3.35-1.54-.89-5.59-3.62-.43A33.1,33.1,0,0,0,350.6,75l2.47-2.7-3-4.82-3.52,1a34.488,34.488,0,0,0-3.87-4.23L344,60.86l-4.58-3.33-2.86,2.24a35,35,0,0,0-5.2-2.4l-.15-3.63-5.51-1.32-1.78,3.16a34.3,34.3,0,0,0-5.73-.23L316.59,52l-5.58.88-.44,3.62a33.1,33.1,0,0,0-5.37,1.94L302.52,56l-4.83,2.95,1,3.52a32.378,32.378,0,0,0-4.21,3.9L291,65.05l-3.34,4.58L290,72.49a32.071,32.071,0,0,0-2.41,5.22l-3.65.17-1.31,5.47,3.17,1.8a34.469,34.469,0,0,0-.24,5.74l-3.35,1.52.9,5.59,3.61.44a32.65,32.65,0,0,0,1.94,5.36l-2.48,2.7,3,4.82,3.51-1a33.617,33.617,0,0,0,3.88,4.21L295.25,118l4.58,3.33,2.87-2.23a34.632,34.632,0,0,0,5.22,2.39l.15,3.65,5.49,1.32,1.79-3.17a33.341,33.341,0,0,0,5.74.23l1.52,3.35,5.58-.88.45-3.6a37.8,37.8,0,0,0,5.37-1.94l2.68,2.46,4.83-2.94-1-3.53a31.392,31.392,0,0,0,4.19-3.88l3.43,1.25,3.33-4.58-2.24-2.86a33,33,0,0,0,2.39-5.2Zm-39.84,5.52a17.3,17.3,0,1,1,.08,0Z"/><path class="m" d="M355.32,101l1.32-5.48-3.17-1.81A33.152,33.152,0,0,0,353.7,88l3.35-1.54-.89-5.59-3.62-.43A33.1,33.1,0,0,0,350.6,75l2.47-2.7-3-4.82-3.52,1a34.488,34.488,0,0,0-3.87-4.23L344,60.86l-4.58-3.33-2.86,2.24a35,35,0,0,0-5.2-2.4l-.15-3.63-5.51-1.32-1.78,3.16a34.3,34.3,0,0,0-5.73-.23L316.59,52l-5.58.88-.44,3.62a33.1,33.1,0,0,0-5.37,1.94L302.52,56l-4.83,2.95,1,3.52a32.378,32.378,0,0,0-4.21,3.9L291,65.05l-3.34,4.58L290,72.49a32.071,32.071,0,0,0-2.41,5.22l-3.65.17-1.31,5.47,3.17,1.8a34.469,34.469,0,0,0-.24,5.74l-3.35,1.52.9,5.59,3.61.44a32.65,32.65,0,0,0,1.94,5.36l-2.48,2.7,3,4.82,3.51-1a33.617,33.617,0,0,0,3.88,4.21L295.25,118l4.58,3.33,2.87-2.23a34.632,34.632,0,0,0,5.22,2.39l.15,3.65,5.49,1.32,1.79-3.17a33.341,33.341,0,0,0,5.74.23l1.52,3.35,5.58-.88.45-3.6a37.8,37.8,0,0,0,5.37-1.94l2.68,2.46,4.83-2.94-1-3.53a31.392,31.392,0,0,0,4.19-3.88l3.43,1.25,3.33-4.58-2.24-2.86a33,33,0,0,0,2.39-5.2Zm-39.84,5.52a17.3,17.3,0,1,1,.08,0Z"/><circle class="y" cx="22.79" cy="22.79" r="22.79" transform="translate(296.82 66.75)"/><path class="j" d="M440.87,148.74l-5.74-.03-3.28,4.72-1.75-5.47-5.49-1.67,4.66-3.35-.12-5.74,4.63,3.4,5.42-1.88-1.8,5.45Z"/><path class="j" d="M445.08,169.18l1.86-2.98-1.39-3.23,3.41.85,2.64-2.33.24,3.51,3.03,1.8-3.26,1.31-.77,3.44-2.26-2.7Z"/><path class="x" d="M391.6,329.26l-1.08,8.24,6.17,5.56-8.17,1.51-3.38,7.59-3.96-7.3-8.26-.87,5.71-6.02-1.72-8.13,7.49,3.57Z"/><path class="j" d="M411.91,328.33l-2.72-2.23-3.38.98,1.27-3.28-1.98-2.91,3.52.2,2.15-2.78.9,3.4,3.31,1.19-2.96,1.91Z"/><ellipse class="c" cx="202.28" cy="11.41" rx="202.28" ry="11.41" transform="translate(47.72 434)"/><path class="z" d="M128.43,378.91c11.68,7.66,17.75,22.25,17.1,36.19-.32,6.79-2.19,13.74-6.63,18.88s-10.84,7.95-17.25,10c-6.58,2.1-13.56,3.55-20.39,2.52s-13.54-4.88-16.54-11.1c-3.16-6.54-1.81-14.32.36-21.24s5.14-13.82,5-21.07c-.06-5.64-2-11.07-3.4-16.53s-2.33-11.34-.43-16.65,7.45-9.68,13-8.49"/><path class="l" d="M200,136.57s-9.09-8.06-18.46,0-10.48,28.89-17.44,38.09c0,0,3.78,7.78,18.73,8.73s31.25-14.23,31.25-14.23S216.6,133.25,200,136.57Z"/><path class="j" d="M185.1,177.45c-.86.29-7.61,2.16-18.66,9.2l8,18.48s2.52,14.26,8.59,23.1l12.5,11.65L220.08,229l-6.63-34.55.6-17.68S205.57,170.78,185.1,177.45Z"/><path class="aa" d="M205.51,157.66a5.17,5.17,0,0,1-5,4.66,20,20,0,0,1-3.42,3.63c1.08,8.36,6.35,8.36,6.35,8.36-8.29,13.68-18.37,3.14-18.37,3.14a5.94,5.94,0,0,0,4-5,7.45,7.45,0,0,0-.45-3.26c-7.25-.1-11-5.08-10.77-12.44s4.66-14.09,4.66-14.09c4.77,1.87,13.37-.52,13.37-.52-.42,11.3,4.76,13.27,4.76,13.27S206.24,153,205.51,157.66Z"/><path class="ab" d="M185.34,160a4.55,4.55,0,0,0,5.15-2.17"/><path class="l" d="M188.82,152.36c0,.66-.38,1.19-.79,1.17s-.73-.57-.71-1.23.38-1.19.8-1.18S188.85,151.69,188.82,152.36Z"/><path class="l" d="M181,151.63c0,.62-.35,1.1-.73,1.09s-.67-.53-.65-1.14.35-1.1.74-1.08S181,151,181,151.63Z"/><path class="ac" d="M188.87,147.84s1.77-.17,3.24,2"/><path class="ad" d="M184,157v-5.38l-2.61,4.56A3.82,3.82,0,0,0,184,157Z"/><path class="j" d="M177.84,194l-.73,17.27-1.14.3c-.64.16-1.26.28-1.87.38-11.3,1.92-17.57-4.63-17.57-4.63l9.91-20.63Z"/><path class="ac" d="M181.89,146.63A4.8,4.8,0,0,0,180,147"/><path class="l" d="M184.12,254.77s1,28.44,3.74,70.93,17.72,100.13,17.72,100.13h14.5s-8-107.11-8.54-133.89c0,0,34.93,90.23,62.87,119.92l9.32-5.82s-37.84-88.49-41.92-101.29-8.54-60-21.73-75.72H196.41Z"/><path class="aa" d="M210.83,428.62l2.07,12,8.99-.24-1.49-11.76Z"/><path class="aa" d="M277,414.32c.2.4,5.19,8.78,5.19,8.78l6.18-6.58-5.68-7.78Z"/><path class="j" d="M202.71,424.32l21.41-1.65-1.1,7.69-16.65,1.46Z"/><path class="j" d="M270.98,413.62l14.06-10.67,2,6.89-11.37,7.87Z"/><path class="j" d="M119,373.28l.08-33.52,28.26,14.49Z"/><path class="j" d="M268.57,117.81,147.35,354.25l-8.97-4.59-10.51-5.39-8.79-4.51L240.29,103.31l9.72,4.98,11.35,5.82Z"/><path class="q" d="M130.41,365.62l-11.42,7.66.04-13.22Z"/><path class="m" d="M268.57,117.81,147.35,354.25l-8.97-4.59L261.36,114.11Z"/><path class="m" d="M250.01,108.29,127.87,344.27l-8.79-4.51L240.29,103.31Z"/><path class="q" d="M147.34,354.25l-28.35,19.03.04-13.77.04-19.76Z"/><path class="aa" d="M243.76,213.31c-18.11,18.49-42,8.86-42,8.86a6.92,6.92,0,0,1-4.07-2.7l-6.55-2.34,2.5-6.32,7.13,1.92,5.2,3.85c18.68,3.28,27.91-8.2,27.91-8.2a61.82,61.82,0,0,0-4.63-14.48l7-13.6.33.51C247.13,197.81,243.76,213.31,243.76,213.31Z"/><path class="aa" d="M188.41,232.42l-5,2C179,238,173,236,173,236c-18.6,4.78-26.75-1.11-26.75-1.11,2.57-8.41,7.86-18.2,12.47-25.88a21.46,21.46,0,0,0,9.65,3.2c-4.51,7.44-8.82,16.68-8.82,16.68,4.68,2.45,15.93-1.36,15.93-1.36L187,226.4Z"/><path class="q" d="M211.54,291.94,206.8,274.6s5.11,27.42,5.14,28S211.54,291.94,211.54,291.94Z"/><path class="x" d="M281.89,424.37s-4.7-2.53-5.38-.74S281.89,424.37,281.89,424.37Z"/><path class="x" d="M281.89,425s-5,1.24-4.93,2.35S281.89,425,281.89,425Z"/><path class="l" d="M290.72,416.69l3.92,3.19a2.15,2.15,0,0,1,.23,3.12L282,437l-.21.2c-.6.5-3.33,2.64-4.65,1.56-1.49-1.22,3-5.74,3.26-8.1.23-1.81.69-5.59.89-7.24a2.12,2.12,0,0,1,.7-1.34l6-5.35A2.15,2.15,0,0,1,290.72,416.69Z"/><path class="x" d="M210.83,441.56s-2.32-4.86-3.59-4S210.83,441.56,210.83,441.56Z"/><path class="x" d="M210.46,441.56s-5.16-2.81-5.76-1.18S210.46,441.56,210.46,441.56Z"/><path class="l" d="M223.38,440.38H210.83a22.91,22.91,0,0,1-9.29,5.08c-5.06,1.13-4.59,2-4.59,2s-.84,2.16,2.25,2.62,22.47.57,24.92,0S223.38,440.38,223.38,440.38Z"/><path class="l" d="M188.13,151.18l-2-.29a1.32,1.32,0,0,0,2,.29Z"/><path class="l" d="M180.36,150.5l-1.64-.3a1.05,1.05,0,0,0,1.64.3Z"/><path class="ae" d="M193.82,168.41a5.87,5.87,0,0,1-4.75,4,7.45,7.45,0,0,0-.45-3.26,24.77,24.77,0,0,0,5.2-.74Z"/><path class="m" d="M176,211.52c-.64.16-1.26.28-1.87.38l1.06-9.41Z"/></g></svg>