<svg xmlns="http://www.w3.org/2000/svg" width="500" height="372.56" viewBox="0 0 500 372.56"><defs><style>.a{fill:#ebebeb;}.b,.f,.h{fill:#e6e6e6;}.c{fill:#f0f0f0;}.d,.j{fill:#fafafa;}.e{fill:#fff;}.f{opacity:0.4;}.g{fill:#f5f5f5;}.h,.k,.t{opacity:0.7;}.h{mix-blend-mode:multiply;isolation:isolate;}.i,.k,.o{fill:#407bff;}.i,.n,.q{opacity:0.6;}.j{opacity:0.5;}.l{opacity:0.2;}.m{opacity:0.1;}.p{fill:#ffc3bd;}.r,.t{fill:#263238;}.s{fill:#ed847e;}</style></defs><g transform="translate(0 -55)"><rect class="a" width="500" height="0.25" transform="translate(0 382.4)"/><rect class="a" width="33.12" height="0.25" transform="translate(416.78 398.49)"/><rect class="a" width="8.69" height="0.25" transform="translate(322.53 401.21)"/><rect class="a" width="19.19" height="0.25" transform="translate(396.59 389.21)"/><rect class="a" width="43.19" height="0.25" transform="translate(52.46 390.89)"/><rect class="a" width="6.33" height="0.25" transform="translate(104.56 390.89)"/><rect class="a" width="93.68" height="0.25" transform="translate(131.47 395.11)"/><path class="a" d="M237,337.8H43.91a5.71,5.71,0,0,1-5.7-5.71V60.66A5.71,5.71,0,0,1,43.91,55H237a5.71,5.71,0,0,1,5.71,5.71V332.09A5.71,5.71,0,0,1,237,337.8ZM43.91,55.2a5.46,5.46,0,0,0-5.45,5.46V332.09a5.46,5.46,0,0,0,5.45,5.46H237a5.47,5.47,0,0,0,5.46-5.46V60.66A5.47,5.47,0,0,0,237,55.2Z"/><path class="a" d="M453.31,337.8H260.21a5.72,5.72,0,0,1-5.71-5.71V60.66A5.72,5.72,0,0,1,260.21,55h193.1A5.71,5.71,0,0,1,459,60.66V332.09A5.71,5.71,0,0,1,453.31,337.8ZM260.21,55.2a5.47,5.47,0,0,0-5.46,5.46V332.09a5.47,5.47,0,0,0,5.46,5.46h193.1a5.47,5.47,0,0,0,5.46-5.46V60.66a5.47,5.47,0,0,0-5.46-5.46Z"/><rect class="b" width="222.35" height="141.9" transform="translate(80.72 83.78)"/><rect class="c" width="225.25" height="141.9" transform="translate(83.26 83.78)"/><rect class="b" width="222.35" height="10.11" transform="translate(80.72 225.68)"/><path class="c" d="M312.52,225.68H97.38a5,5,0,0,0-5,5h0a5.05,5.05,0,0,0,5,5.06H312.52a5.06,5.06,0,0,0,5.06-5.06h0A5.06,5.06,0,0,0,312.52,225.68Z"/><rect class="d" width="126.66" height="210.01" transform="translate(300.9 91.4) rotate(90)"/><path class="e" d="M105.45,218.06,150.16,91.4h21.11L126.56,218.06Z"/><path class="c" d="M94.41,175.09a.55.55,0,0,0,.54-.55V96.36a.545.545,0,1,0-1.09,0v78.18a.55.55,0,0,0,.55.55Z"/><path class="e" d="M131.09,218.06,175.8,91.4h8.23L139.32,218.06Z"/><path class="e" d="M176.35,218.06,221.06,91.4h21.11L197.46,218.06Z"/><path class="e" d="M232.46,218.06,277.16,91.4h8.23L240.68,218.06Z"/><rect class="b" width="126.66" height="0.97" transform="translate(300.89 91.4) rotate(90)"/><path class="f" d="M310.31,104.01H87.96l-.7-9.65H309.61Z"/><path class="f" d="M310.31,111.08H87.96l-.7-9.66H309.61Z"/><path class="f" d="M310.31,119.55H87.96l-.7-9.65H309.61Z"/><path class="f" d="M310.31,128.98H87.96l-.7-9.65H309.61Z"/><path class="f" d="M310.31,140.29H87.96l-.7-9.66H309.61Z"/><path class="f" d="M310.31,153H87.96l-.7-9.65H309.61Z"/><rect class="b" width="31.93" height="117.13" transform="translate(413.37 265.26)"/><path class="c" d="M439.69,382.4h5.61V366.45H433.81Z"/><rect class="b" width="31.93" height="117.13" transform="translate(276.22 265.26)"/><rect class="c" width="142.04" height="107.35" transform="translate(303.26 265.26)"/><path class="b" d="M426.23,300H322.32a15.26,15.26,0,1,1,0-30.52h24.76a15.18,15.18,0,0,1,10.8,4.5,14.449,14.449,0,0,0,10.1,4.65h12.6a13.17,13.17,0,0,0,7.57-2.52,18.782,18.782,0,0,0,2.42-2,15.55,15.55,0,0,1,10.92-4.61h24.74a15.27,15.27,0,0,1,15.25,15.25h0A15.27,15.27,0,0,1,426.23,300ZM322.32,270.55a14.19,14.19,0,0,0,0,28.38H426.23a14.2,14.2,0,0,0,14.18-14.18h0a14.19,14.19,0,0,0-14.18-14.18H401.49a14.51,14.51,0,0,0-10.17,4.3,18.669,18.669,0,0,1-2.55,2.14,14.27,14.27,0,0,1-8.19,2.71H368c-3.85,0-7.61-1.72-10.86-5a14.13,14.13,0,0,0-10-4.18Z"/><path class="c" d="M308.87,382.4h-5.61V366.45h11.49Z"/><path class="b" d="M426.23,334.2H322.32a15.26,15.26,0,1,1,0-30.52h24.76a15.16,15.16,0,0,1,10.8,4.5,14.448,14.448,0,0,0,10.1,4.65h12.6a13.17,13.17,0,0,0,7.57-2.52,18.611,18.611,0,0,0,2.41-2,15.54,15.54,0,0,1,10.93-4.62h24.74a15.27,15.27,0,0,1,15.25,15.25h0A15.27,15.27,0,0,1,426.23,334.2ZM322.32,304.75a14.19,14.19,0,0,0,0,28.38H426.23A14.2,14.2,0,0,0,440.41,319h0a14.2,14.2,0,0,0-14.18-14.18H401.49a14.48,14.48,0,0,0-10.18,4.31,19.918,19.918,0,0,1-2.54,2.13,14.27,14.27,0,0,1-8.19,2.71H368c-3.85,0-7.61-1.72-10.86-5a14.13,14.13,0,0,0-10-4.18Z"/><path class="b" d="M426.23,368.39H322.32a15.26,15.26,0,0,1,0-30.51h24.77a15.19,15.19,0,0,1,10.79,4.49,14.448,14.448,0,0,0,10.1,4.65h12.6a13.17,13.17,0,0,0,7.57-2.52,18.782,18.782,0,0,0,2.42-2,15.56,15.56,0,0,1,10.91-4.6h24.75a15.26,15.26,0,0,1,0,30.51ZM322.32,339a14.18,14.18,0,0,0,0,28.36H426.23a14.18,14.18,0,1,0,0-28.36H401.48a14.47,14.47,0,0,0-10.16,4.3,20,20,0,0,1-2.55,2.13,14.27,14.27,0,0,1-8.19,2.71H368c-3.85,0-7.61-1.71-10.86-5a14.1,14.1,0,0,0-10-4.18Z"/><rect class="b" width="76.32" height="102.08" transform="translate(346.66 106.25)"/><rect class="c" width="80.22" height="102.08" transform="translate(348.07 106.25)"/><rect class="b" width="88.64" height="66.78" rx="4.98" transform="translate(421.57 112.97) rotate(90)"/><rect class="e" width="88.64" height="65.61" rx="4.98" transform="translate(420.4 112.97) rotate(90)"/><path class="c" d="M399.47,142.83,388,127a.49.49,0,0,0-.85,0l-11.44,15.85c-5.75,8-5.75,20.95,0,28.92l11.44,15.85a.51.51,0,0,0,.86,0l11.44-15.85C405.22,163.78,405.22,150.81,399.47,142.83ZM376.58,144v26.56C371.3,163.25,371.3,151.34,376.58,144Zm22,0c5.29,7.33,5.29,19.24,0,26.56Z"/><path class="c" d="M154.96,263.57H69.14L74.5,382.43h85.82Z"/><path class="g" d="M156.21,263.57H70.39l5.35,118.86h85.82Z"/><rect class="c" width="31.67" height="37.95" transform="translate(143.05 382.4) rotate(180)"/><rect class="g" width="115.74" height="37.95" transform="translate(143.05 344.45)"/><rect class="h" width="147.74" height="2.6" transform="translate(259.12 351.91) rotate(180)"/><rect class="c" width="33.42" height="7.53" transform="translate(143.05 350.4) rotate(180)"/><rect class="g" width="117.49" height="7.53" transform="translate(143.05 342.88)"/><rect class="b" width="48.11" height="39.75" transform="translate(170 342.88) rotate(180)"/><rect class="c" width="58.78" height="39.75" transform="translate(170 303.12)"/><rect class="h" width="107.39" height="3.95" transform="translate(229.28 314.46) rotate(180)"/><rect class="b" width="50.77" height="18.19" transform="translate(170 312.17) rotate(180)"/><rect class="c" width="61.43" height="18.19" transform="translate(170 293.98)"/><ellipse class="g" cx="193.89" cy="11.32" rx="193.89" ry="11.32" transform="translate(56.11 404.92)"/><path class="i" d="M100.87,167.21q-.84-4.59-1.66-9.17l1-.19c.55,3.06,1.11,6.11,1.66,9.17Z"/><rect class="i" width="1.05" height="5.46" transform="translate(101.589 171.179) rotate(-10.38)"/><path class="i" d="M376,281.22l-251.7,2.11c-9.59-49.29-14-94-22.28-143.42,84.27,2.25,164.08-.2,248.35,2.05Q362.19,211.71,376,281.22Z"/><path class="d" d="M125.74,281.79a.26.26,0,0,1-.26-.21c-5.47-28.15-9.3-55.48-13-81.92-2.62-18.72-5.33-38.08-8.63-57.87a.26.26,0,0,1,.26-.31h0l244.77,2a.28.28,0,0,1,.26.22c7.66,45.07,16.05,90.75,24.93,135.75a.25.25,0,0,1-.05.22.26.26,0,0,1-.2.1l-248.08,2.07ZM104.42,142c3.28,19.7,6,39,8.58,57.58,3.69,26.36,7.51,53.61,13,81.68l247.54-2.08c-8.86-44.83-17.21-90.33-24.84-135.23Z"/><path class="j" d="M301.93,261.27q-10.28-50.74-19.54-101.61l57.57.72q9.17,50.15,19.33,100.16Z"/><rect class="d" width="1.05" height="22.11" transform="translate(291.104 167.618) rotate(-89.38)"/><rect class="d" width="1.05" height="16.96" transform="matrix(0.01, -1, 1, 0.01, 291.613, 170.429)"/><path class="k" d="M328.94,168.94c-.3-1.62.62-2.91,2.06-2.9a3.54,3.54,0,0,1,3.14,3c.3,1.62-.62,2.91-2.06,2.9a3.52,3.52,0,0,1-3.14-3Z"/><path class="k" d="M327.84,168.93c-.42-2.29.89-4.14,2.94-4.11a5,5,0,0,1,4.46,4.19c.42,2.29-.89,4.12-2.93,4.11a5,5,0,0,1-4.47-4.19Z"/><path class="k" d="M296.87,197.78q-2.08-11-4.11-21.95l42.72.36q2,10.86,4.09,21.72Z"/><path class="d" d="M333.71,177.58a1.07,1.07,0,0,1,.94.88q1.61,8.61,3.24,17.22a.76.76,0,0,1-.11.58.55.55,0,0,1-.47.24l-38.67-.14a1.07,1.07,0,0,1-.95-.88q-1.65-8.7-3.26-17.39a.78.78,0,0,1,.1-.59.58.58,0,0,1,.48-.24l38.7.32m-.06-.45-38.71-.32a1,1,0,0,0-.91,1.3q1.62,8.7,3.27,17.39a1.56,1.56,0,0,0,1.4,1.31l38.67.13a1,1,0,0,0,.91-1.29q-1.63-8.6-3.24-17.21a1.56,1.56,0,0,0-1.39-1.31Z"/><path class="l" d="M311.29,189.22c-.41-2.18.83-3.95,2.77-3.93a4.77,4.77,0,0,1,4.25,4c.41,2.19-.83,4-2.76,3.94a4.78,4.78,0,0,1-4.26-4.01Z"/><path class="l" d="M300.56,184.77c-.41-2.19.83-4,2.77-4a4.8,4.8,0,0,1,4.25,4c.41,2.19-.83,3.95-2.76,3.95a4.81,4.81,0,0,1-4.26-3.95Z"/><path class="l" d="M319,184.09c-.41-2.19.83-4,2.76-3.93a4.78,4.78,0,0,1,4.25,4c.41,2.18-.82,3.94-2.76,3.93a4.77,4.77,0,0,1-4.25-4Z"/><path class="k" d="M307.22,250.8q-3.72-18.54-7.3-37.09h42.67q3.56,18.36,7.24,36.7Z"/><path class="m" d="M306.07,229l-1.26-6.42,36.34-.11c.41,2.12.83,4.24,1.24,6.36Z"/><path class="m" d="M309.61,246.93c-.43-2.14-.85-4.28-1.28-6.42l36.31-.27c.42,2.12.85,4.24,1.27,6.36Z"/><path class="m" d="M307.83,238q-.63-3.21-1.27-6.42l36.33-.19q.62,3.18,1.25,6.36Z"/><rect class="d" width="1.05" height="28.93" transform="translate(297.789 203.141) rotate(-89.89)"/><rect class="d" width="22.79" height="1.05" transform="translate(298.58 206.23)"/><path class="d" d="M219.27,262.83l-.09-.43c-6.91-34.33-13.58-69.22-19.83-103.68l-.11-.63,58.64.73.08.43c6.17,34,12.77,68.35,19.62,102.22l.12.63ZM200.5,159.16c6.19,34.11,12.79,68.63,19.63,102.61l56.29-.71c-6.77-33.54-13.31-67.58-19.42-101.19Z"/><rect class="d" width="1.05" height="11.41" transform="matrix(0.011, -1, 1, 0.011, 208.265, 165.209)"/><rect class="d" width="1.05" height="8.75" transform="matrix(0.01, -1, 1, 0.01, 208.778, 168.019)"/><path class="d" d="M249.62,171.62h0a4.08,4.08,0,0,1-3.67-3.44h0a3.24,3.24,0,0,1,.62-2.7,2.55,2.55,0,0,1,2-.88,4.08,4.08,0,0,1,3.66,3.44,3.25,3.25,0,0,1-.61,2.69A2.46,2.46,0,0,1,249.62,171.62ZM247,168a3.08,3.08,0,0,0,2.64,2.58h0a1.41,1.41,0,0,0,1.13-.52,2.17,2.17,0,0,0,.38-1.82,3.1,3.1,0,0,0-2.64-2.58,1.45,1.45,0,0,0-1.15.51A2.22,2.22,0,0,0,247,168Z"/><path class="d" d="M257.79,198.18,214,198l-.08-.43q-2.12-11.19-4.18-22.4l-.11-.62,43.79.37.08.43q2.05,11.09,4.15,22.16ZM214.9,197l41.62.13q-2-10.55-3.95-21.11l-41.66-.36Q212.89,186.33,214.9,197Z"/><path class="d" d="M214.72,198l-.52-.91c12.72-7.37,25.69-14.78,38.55-22l.51.91C240.41,183.2,227.45,190.61,214.72,198Z"/><path class="d" d="M256.92,198.13c-15.57-7.41-31.34-15-46.87-22.54l.46-.94c15.53,7.54,31.3,15.12,46.87,22.52Z"/><path class="d" d="M224.53,252.15l-.08-.43c-2.51-12.54-5-25.27-7.41-37.85l-.12-.62h43.74l.08.43c2.4,12.47,4.87,25.07,7.35,37.45l.12.63Zm-6.34-37.85c2.35,12.22,4.77,24.6,7.2,36.79l41.54-.41c-2.4-12-4.81-24.29-7.14-36.41Z"/><path class="d" d="M225.35,252l-.78-.71c11.59-12.65,23.46-25.39,35.27-37.89l.77.72C248.8,226.6,236.93,239.34,225.35,252Z"/><path class="d" d="M267.26,251.62c-16.66-12.31-33.49-24.9-50-37.43l.63-.84c16.54,12.53,33.36,25.12,50,37.42Z"/><rect class="d" width="1.05" height="28.93" transform="translate(215.39 202.981) rotate(-89.89)"/><rect class="d" width="22.79" height="1.05" transform="translate(216.2 206.15)"/><g class="n"><path class="d" d="M117.88,157.06q7.65,41.57,16,83,2.28,11.37,4.6,22.75c.19.9,1.39.89,1.2,0q-8.47-41.43-16.32-83-2.14-11.38-4.25-22.78c-.17-.91-1.37-.93-1.2,0Z"/><path class="d" d="M136.88,261.56q23.26-.37,46.57-.41H196.6c.78,0,.57-1.4-.21-1.4q-23.32-.07-46.6.19-6.57.07-13.12.18c-.77,0-.56,1.44.21,1.42Z"/><path class="d" d="M196.32,260.81q-8.38-40.89-16.14-81.85Q178,167.73,176,156.49c-.17-.9-1.37-.92-1.21,0q7.59,41,15.8,81.92,2.25,11.22,4.55,22.43c.19.9,1.39.88,1.2,0Z"/><path class="d" d="M177.52,157.79q-23.34-.19-46.72-.75-6.6-.16-13.2-.35c-.78,0-.59,1.4.18,1.42q23.4.66,46.76.94,6.59.09,13.17.14C178.48,159.19,178.3,157.8,177.52,157.79Z"/><path class="d" d="M134.76,206l27.35-.61,7.25-.16c.77,0,.58-1.41-.19-1.4l-28.16.61-6.44.15C133.8,204.59,133.99,206.02,134.76,206Z"/><path class="d" d="M127.38,167.11l15.71-.2c.77,0,.59-1.42-.18-1.41l-15.72.2c-.76,0-.58,1.42.19,1.41Z"/><path class="d" d="M144,253.82c12.24.25,24.32-.7,36.48-1,3-.07,5.94-.11,8.93-.05.77,0,.56-1.39-.21-1.4-12.25-.25-24.33.68-36.49,1-3,.07-5.94.12-8.92.06-.78,0-.57,1.4.21,1.41Z"/><path class="d" d="M136.91,217c14.74-.38,29.5-.62,44.22-1.1l-.7-.7c2.49,12.37,5.13,24.73,7.41,37.11.16.89,1.36.89,1.19,0-2.28-12.38-4.91-24.73-7.4-37.1a.79.79,0,0,0-.7-.7c-14.72.48-29.48.71-44.22,1.08-.77,0-.57,1.44.2,1.42Z"/><path class="d" d="M144.29,253.72c9.79-9.81,19.27-20,29-29.85,2.69-2.71,5.38-5.39,8.12-8,.54-.53-.23-1.74-.78-1.21-10,9.65-19.61,19.87-29.35,29.92-2.58,2.67-5.17,5.33-7.79,7.95-.54.54.24,1.76.79,1.21Z"/><path class="d" d="M188.79,252.44c-13.83-9.08-27.22-19.29-40.84-29-3.7-2.63-7.41-5.23-11.17-7.75-.72-.48-1.15.75-.43,1.23,13.92,9.32,27.42,19.63,41.16,29.29q5.385,3.795,10.86,7.42c.72.47,1.14-.74.42-1.22Z"/><path class="d" d="M136.22,215c2.14,12.71,4.35,25.45,7.07,38.12.2.9,1.39.9,1.2,0-2.73-12.67-4.94-25.4-7.07-38.12C137.27,214.1,136.07,214.09,136.22,215Z"/><path class="d" d="M133.18,199.06c12.23.15,24.36-.43,36.54-.6,3,0,5.94-.07,8.93,0,.77,0,.58-1.39-.2-1.4-12.23-.17-24.36.41-36.55.58-3,0-5.94.07-8.92,0C132.21,197.64,132.41,199.05,133.18,199.06Z"/><path class="d" d="M129.11,176.34c14.76-.24,29.53-.38,44.28-.67l-.69-.7c1.49,7.63,3.12,15.27,4.36,22.92.14.89,1.34.91,1.2,0-1.24-7.65-2.87-15.28-4.36-22.91-.08-.38-.36-.72-.7-.71-14.75.29-29.52.43-44.28.65-.77,0-.59,1.43.19,1.42Z"/><path class="d" d="M133.47,199c10.56-6,20.94-12.36,31.46-18.43,2.9-1.67,5.82-3.33,8.75-4.95.65-.36-.12-1.58-.77-1.22-10.71,5.92-21.2,12.26-31.76,18.48-2.81,1.64-5.63,3.29-8.46,4.9-.65.37.13,1.59.78,1.22Z"/><path class="d" d="M177.81,197.65c-12.88-5.54-25.6-11.93-38.4-17.9-3.52-1.64-7-3.25-10.57-4.8-.77-.33-.9,1-.14,1.36,13,5.68,25.81,12.13,38.72,18.09q5.12,2.37,10.26,4.6C178.44,199.33,178.56,198,177.81,197.65Z"/><path class="d" d="M128.53,174.8c1.12,7.84,2.3,15.73,3.95,23.55.19.9,1.39.91,1.2,0-1.65-7.81-2.83-15.7-4-23.54-.13-.91-1.33-.92-1.2,0Z"/><path class="d" d="M167.17,162.18a2.58,2.58,0,0,0-2.49,2.53,5.17,5.17,0,0,0,1.89,4.27,2.83,2.83,0,0,0,3.63-.06,3.88,3.88,0,0,0,1.2-3.55,3.16,3.16,0,0,0-1.47-2.17c-.68-.43-1.59-.92-2.28-.64a.65.65,0,0,0-.31.86c.13.35.51.62.8.49s.9.23,1.23.43a1.48,1.48,0,0,1,.8.91,2.57,2.57,0,0,1-.63,2.36,1.82,1.82,0,0,1-2.17.41,3.36,3.36,0,0,1-1.49-2.59,1.6,1.6,0,0,1,1.47-1.85c.78,0,.59-1.39-.18-1.4Z"/></g><path class="d" d="M198.09,147.32c-3.75-.06-6.63,3.14-6.71,7.41s2.49,9.55,6.28,11.6a7.88,7.88,0,0,0,10-2.24c2.12-2.67,3.3-7.64,1-11.38A8.26,8.26,0,0,0,197,150.17c-.61.44.15,1.66.77,1.22a7,7,0,0,1,9.15,1c2.57,2.91,1.91,7.35.26,9.92a7.08,7.08,0,0,1-7.71,3.32c-3.49-.9-6.21-5.13-6.77-9-.64-4.33,1.75-8.05,5.56-8,.77,0,.59-1.38-.18-1.39Z"/><path class="d" d="M254.77,233.35c4,6.52,11.46,9.45,17.17,7,5.93-2.54,9.94-10.14,8.46-17.9-1.43-7.45-7.79-13.53-14.08-15.66-5.82-2-13.7-1-16,5.34-2.64,7.42,2.88,17.11,9.33,21.14.73.45,1.16-.74.44-1.19a19.54,19.54,0,0,1-6.69-7.18c-1.59-2.88-2.82-6.28-2.53-9.42.64-7.13,7.69-9.17,13.48-7.87a20.47,20.47,0,0,1,14,12.06c2.89,7.13-.12,14.95-5.1,18.35-5.37,3.66-13.33,1.52-17.56-5.38-.47-.77-1.41-.07-.93.7Z"/><path class="d" d="M189.42,204a31.409,31.409,0,0,1,7.77-.46c.78.05.59-1.35-.19-1.39a32.43,32.43,0,0,0-8.08.51c-.31.06-.43.52-.3.85a.69.69,0,0,0,.8.49Z"/><path class="d" d="M195.08,199.85a83.574,83.574,0,0,1,8.91,4.07c-.05-.4-.11-.8-.17-1.2l-5.62,3c-.27.15-.27.66-.08,1a.63.63,0,0,0,.86.25l5.62-3c.38-.2.24-1-.17-1.2a87.482,87.482,0,0,0-9.22-4.22c-.77-.3-.9,1.05-.13,1.35Z"/><path class="d" d="M270.91,204.1a31.9,31.9,0,0,1,7.77-.45c.78,0,.59-1.32-.19-1.37a33.409,33.409,0,0,0-8.08.5c-.31.06-.43.51-.3.84A.7.7,0,0,0,270.91,204.1Z"/><path class="d" d="M276.58,200.05a87.009,87.009,0,0,1,8.9,4c-.05-.39-.11-.78-.16-1.18l-5.63,3c-.28.15-.27.64-.09.93a.64.64,0,0,0,.86.25l5.62-3c.38-.2.25-1-.16-1.17a86.493,86.493,0,0,0-9.2-4.14c-.78-.29-.91,1-.14,1.31Z"/><path class="o" d="M431.65,388.16a1,1,0,0,0,.3,0c1.05,0,2.21-1.63,2.81-2.57a.2.2,0,0,0,0-.22.21.21,0,0,0-.2-.08c-.33.08-3.27.73-3.64,1.72a.65.65,0,0,0,.11.65A1.13,1.13,0,0,0,431.65,388.16Zm2.51-2.34c-.84,1.23-1.66,2-2.22,2a.69.69,0,0,1-.61-.34.26.26,0,0,1-.05-.28C431.47,386.66,433,386.11,434.16,385.82Z"/><path class="o" d="M432.05,385.61a6,6,0,0,0,2.6.09.2.2,0,0,0,.13-.14.18.18,0,0,0,0-.18c-.07-.07-1.7-1.71-2.9-1.64a1,1,0,0,0-.79.4.69.69,0,0,0-.09.86,2,2,0,0,0,1.05.61Zm2.13-.21c-1,.12-2.59-.15-2.9-.62a.4.4,0,0,1,.07-.4.65.65,0,0,1,.51-.25,4.31,4.31,0,0,1,2.32,1.27Z"/><path class="o" d="M384.68,408.32a13.91,13.91,0,0,0,2.58-.29.194.194,0,0,0,.05-.36c-.38-.2-3.71-1.88-4.7-1.32a.61.61,0,0,0-.31.52,1.1,1.1,0,0,0,.37.95,3.14,3.14,0,0,0,2.01.5Zm1.93-.57c-1.81.3-3.17.23-3.68-.22a.72.72,0,0,1-.24-.63.24.24,0,0,1,.11-.21C383.34,406.39,385.24,407.1,386.61,407.75Z"/><path class="o" d="M387.22,408a.2.2,0,0,0,.11,0,.18.18,0,0,0,.08-.18c0-.15-.4-3.71-2.39-3.5-.53.05-.69.32-.72.54-.15.93,1.84,2.71,2.84,3.16Zm-2.05-3.33c1.19,0,1.65,1.95,1.8,2.79-1-.61-2.38-2-2.29-2.57,0-.05,0-.18.38-.22Z"/><path class="p" d="M415.44,178.69c.69,1,1.24,1.8,1.8,2.71s1.08,1.78,1.61,2.68c1,1.8,2,3.65,2.91,5.51a100.2,100.2,0,0,1,4.77,11.48c.34,1,.63,2,1,3l.13.41c.05.2.11.39.16.6a10.122,10.122,0,0,1,.2,1.3,7.539,7.539,0,0,1-.34,2.9,8,8,0,0,1-3.24,4.13,13.391,13.391,0,0,1-3.6,1.61,26.77,26.77,0,0,1-6.62,1h-3.18a23.4,23.4,0,0,1-3.18-.27l.06-4.17c1.84-.27,3.79-.61,5.61-1a27.07,27.07,0,0,0,5.06-1.63,6.9,6.9,0,0,0,1.74-1.08c.4-.36.4-.59.32-.55s-.05,0-.08-.07l-.24-.6c-.36-.89-.7-1.79-1.08-2.67-1.47-3.56-3.12-7.05-4.89-10.47-.9-1.7-1.86-3.37-2.8-5q-.72-1.24-1.47-2.46c-.49-.79-1-1.65-1.47-2.32Z"/><path class="o" d="M409.82,171.12c5.64.94,9.88,11,9.88,11l-9.33,14.38s-9.12-9.68-8.24-18C402.7,173.09,404.28,170.19,409.82,171.12Z"/><path class="q" d="M409.82,171.12c5.64.94,9.88,11,9.88,11l-9.33,14.38s-9.12-9.68-8.24-18C402.7,173.09,404.28,170.19,409.82,171.12Z"/><path class="l" d="M407.15,181.94c1.35,2.7,1.36,9.28,1.26,12.2a34.56,34.56,0,0,1-5.24-9C404.59,182.45,406.26,180.17,407.15,181.94Z"/><path class="p" d="M409.91,212.09l-3.81-6.15-3.3,5.68s2.8,4.42,6.26,4.2Z"/><path class="p" d="M399.84,203.28l-4.01,2.31,6.97,6.03,3.3-5.68Z"/><path class="r" d="M372.18,148.17c.14.65-.09,1.26-.51,1.36s-.88-.33-1-1,.09-1.25.51-1.36S372,147.53,372.18,148.17Z"/><path class="r" d="M371.36,147.18l-1.66-.06S370.77,148.13,371.36,147.18Z"/><path class="s" d="M371.77,148.94a18.071,18.071,0,0,1-1.41,4.68,2.83,2.83,0,0,0,2.4-.14Z"/><path class="r" d="M370.45,145.52a.38.38,0,0,0,.34-.24,3.23,3.23,0,0,1,2.06-2,.391.391,0,1,0-.18-.76,4,4,0,0,0-2.61,2.47.41.41,0,0,0,.23.51.29.29,0,0,0,.16.02Z"/><path class="p" d="M393.34,153.4c-.75,4.92-1.32,13.88,2.25,16.87,0,0-1.13,5-10.23,5.67-10,.71-5-4.59-5-4.59,5.4-1.68,5.09-5.68,4-9.38Z"/><path class="p" d="M367.78,187.37c-.58,1.19-1.1,2.19-1.7,3.24s-1.18,2-1.8,3.07c-1.22,2-2.57,4-3.94,5.88a84.672,84.672,0,0,1-9.24,10.82l-1.29,1.24-.32.31-.56.48a7.508,7.508,0,0,1-1.39.89,7.07,7.07,0,0,1-3.39.76,8.21,8.21,0,0,1-2.94-.66,13.39,13.39,0,0,1-3.79-2.54A26.592,26.592,0,0,1,334.8,208a54,54,0,0,1-7.05-12.45l3.69-1.93a78.277,78.277,0,0,0,8.19,10.09,20.894,20.894,0,0,0,2.21,1.91,6.57,6.57,0,0,0,2,1.07.6.6,0,0,0,.39,0h-.12a.3.3,0,0,1,.08-.09l.27-.3,1.09-1.2a102.856,102.856,0,0,0,8-10.26c1.23-1.8,2.38-3.65,3.53-5.5.56-.93,1.12-1.87,1.65-2.81s1.08-1.93,1.52-2.76Z"/><path class="p" d="M331.87,194.46l-.61-6.64L325,191.29s1,5.1,4.35,6.06Z"/><path class="p" d="M326.96,184.72l-5.05.13,3.06,6.44,6.29-3.47Z"/><path class="p" d="M396.47,407.45l-8.22.61-2.45-18.88,8.22-.61Z"/><path class="p" d="M443.65,381.48l-7.06,4.43-12.05-14.63,7.06-4.43Z"/><path class="r" d="M434.43,384.36l6.66-6.6a.66.66,0,0,1,.87-.08l5.82,4.37a1.32,1.32,0,0,1,.07,2c-2.37,2.26-3.62,3.23-6.55,6.14-1.8,1.78-4.26,4.57-6.75,7s-5,.2-4.16-1c3.69-5.57,3.09-7.64,3.4-10.47A2.15,2.15,0,0,1,434.43,384.36Z"/><path class="r" d="M387.73,406.89H397a.68.68,0,0,1,.68.56l1.24,7.31a1.29,1.29,0,0,1-1.29,1.46c-3.22-.05-4.78-.24-8.84-.24-2.5,0-7.67.26-11.12.26s-3.72-3.42-2.29-3.73c6.41-1.38,8.9-3.29,11-5.12a2.08,2.08,0,0,1,1.35-.5Z"/><path class="l" d="M385.81,389.18l1.35,10.49,8.18-.94-1.31-10.16Z"/><path class="l" d="M431.6,366.86l-7.06,4.43,4.99,6.05,7.22-4.25Z"/><path class="o" d="M406.11,221.12l-33.51,2.39c-10-47.42-6.08-48.45-6.08-48.45a68,68,0,0,1,7.85-2.55l.46-.11c2.18-.51,2.64-.57,5.54-1.05,5-.56,9.57-.94,15.22-1.08h4.08a17.6,17.6,0,0,1,1.94.07l2.13.15c3.6.25,6.16.61,6.16.61C404.58,199.32,405,207.65,406.11,221.12Z"/><path class="q" d="M406.11,221.12l-33.51,2.39c-10-47.42-6.08-48.45-6.08-48.45a68,68,0,0,1,7.85-2.55l.46-.11c2.18-.51,2.64-.57,5.54-1.05,5-.56,9.57-.94,15.22-1.08h4.08a17.6,17.6,0,0,1,1.94.07l2.13.15c3.6.25,6.16.61,6.16.61C404.58,199.32,405,207.65,406.11,221.12Z"/><path class="l" d="M369.91,186.24l3-.13c-.44,3.91-2.76,10.41-4.72,14.49-.72-4.3-1.25-7.88-1.62-10.86Z"/><path class="o" d="M367.69,174.61c-5,1-9.7,10.12-11.53,14.09l8,12.18s11.35-12.68,10.38-17.15C373.57,179.07,370.13,174.14,367.69,174.61Z"/><g class="n"><path d="M367.69,174.61c-5,1-9.7,10.12-11.53,14.09l8,12.18s11.35-12.68,10.38-17.15C373.57,179.07,370.13,174.14,367.69,174.61Z"/></g><path class="p" d="M393.47,141.06c1.24,8.05,1.93,11.42-1.2,16.48-4.72,7.6-14.89,7.65-18.51.21-3.25-6.7-4.72-18.72,2.38-23.79a10.87,10.87,0,0,1,17.33,7.1Z"/><path class="r" d="M376.05,148.7c-2.17,5-6.5,12.28-2.52,16.73,0,0,0-1.25.55-1.53.48,1.1,18.76,4.69,22.56-1.28a3.69,3.69,0,0,1,0,1.39,6.13,6.13,0,0,0,2.54-7.07c-1.71-6.15.29-19.65-6.65-23.82C386.36,129.42,369.89,126.81,376.05,148.7Z"/><path class="r" d="M380.58,131.38c-5.35-1.8-10.05,1.94-10.88,9.1,2.21,2.86,6.43,3.08,6.43,3.08Z"/><path class="p" d="M377.09,146.81a7.37,7.37,0,0,1-1.72,4.09c-1.35,1.63-2.8,1.09-3.07-.5-.24-1.43.17-4,1.85-5.1S377.18,145.12,377.09,146.81Z"/><path class="o" d="M381.45,222.88s2,12.53,4.58,29c1.7,11,3.63,23.78,5.35,35.79,1,6.87,1.89,13.5,2.65,19.4,4.3,33.45,32.46,69.32,32.46,69.32l10.3-5.93s-16.6-31.37-20.91-62.61c-8.74-63.44,1.61-72.71-9.77-86.76Z"/><path class="l" d="M383.7,234.14c.64,4.84,1.45,11,2.33,17.78,1.7,11,3.63,23.78,5.35,35.79,3.13-14.68,7.23-41.88-2.71-51.7C386.72,234.08,385.05,233.55,383.7,234.14Z"/><path class="o" d="M425.48,377.42l12.86-7.41-2.73-4.96-14.4,8.4Z"/><path class="t" d="M425.48,377.42l12.86-7.41-2.73-4.96-14.4,8.4Z"/><path class="o" d="M373.1,223.57s-9.85,64.38-8.23,89.27c1.69,25.9,20.4,84.24,20.4,84.24l11.85-1.53s-11.51-56.65-11.63-82.19c-.14-27.84,13.69-91.65,13.69-91.65Z"/><path class="o" d="M382.74,397.76l16.91-2.19-.46-6.26-18.14,3.05Z"/><path class="t" d="M382.74,397.76l16.91-2.19-.46-6.26-18.14,3.05Z"/><path class="r" d="M406.53,219.14l1.64,2.86c.13.23-.14.48-.53.51L372.5,225c-.3,0-.56-.11-.59-.3l-.43-3c0-.2.23-.39.56-.42L406,218.93a.6.6,0,0,1,.53.21Z"/><path class="o" d="M402.13,223.22l.91-.06c.18,0,.32-.12.3-.23l-.59-3.83c0-.11-.18-.19-.36-.18l-.91.06c-.18,0-.32.12-.3.23l.59,3.83C401.79,223.15,402,223.24,402.13,223.22Z"/><path class="o" d="M379.18,224.91l.91-.07c.18,0,.31-.11.29-.22l-.59-3.83c0-.12-.18-.2-.36-.18l-.91.06c-.18,0-.32.11-.3.23l.6,3.83C378.83,224.84,379,224.92,379.18,224.91Z"/></g></svg>