<svg xmlns="http://www.w3.org/2000/svg" width="500" height="372.56" viewBox="0 0 500 372.56"><defs><style>.a{fill:#ebebeb;}.b{fill:#e6e6e6;}.c{fill:#f0f0f0;}.d{fill:#f5f5f5;}.e,.i,.j,.k,.l,.m,.n,.o{fill:#fff;}.f{fill:#e0e0e0;}.g{fill:#407bff;}.h{fill:#263238;}.i{opacity:0.75;}.j,.r{opacity:0.2;}.k{opacity:0.8;}.l{opacity:0.4;}.m{opacity:0.85;}.n{opacity:0.6;}.o{opacity:0.9;}.p{fill:#b55b52;}.q{fill:#a02724;}</style></defs><g transform="translate(0 -55)"><rect class="a" width="500" height="0.25" transform="translate(0 382.4)"/><rect class="a" width="33.12" height="0.25" transform="translate(52.46 391.92)"/><rect class="a" width="53.86" height="0.25" transform="translate(171.14 392.05)"/><rect class="a" width="19.19" height="0.25" transform="translate(105.77 397.08)"/><rect class="a" width="19.23" height="0.25" transform="translate(426.77 396.96)"/><rect class="a" width="30.29" height="0.25" transform="translate(387.57 396.96)"/><rect class="a" width="42.56" height="0.25" transform="translate(328.33 395.31)"/><path class="a" d="M237,337.8H43.91a5.71,5.71,0,0,1-5.7-5.71V60.66A5.71,5.71,0,0,1,43.91,55H237a5.71,5.71,0,0,1,5.71,5.71V332.09A5.71,5.71,0,0,1,237,337.8ZM43.91,55.2a5.46,5.46,0,0,0-5.45,5.46V332.09a5.46,5.46,0,0,0,5.45,5.46H237a5.47,5.47,0,0,0,5.46-5.46V60.66A5.47,5.47,0,0,0,237,55.2Z"/><path class="a" d="M453.31,337.8H260.21a5.72,5.72,0,0,1-5.71-5.71V60.66A5.72,5.72,0,0,1,260.21,55h193.1A5.71,5.71,0,0,1,459,60.66V332.09A5.71,5.71,0,0,1,453.31,337.8ZM260.21,55.2a5.47,5.47,0,0,0-5.46,5.46V332.09a5.47,5.47,0,0,0,5.46,5.46h193.1a5.47,5.47,0,0,0,5.46-5.46V60.66a5.47,5.47,0,0,0-5.46-5.46Z"/><rect class="b" width="17.21" height="53.57" transform="translate(131.02 184.22)"/><path class="c" d="M194.88,237.79H137.77l-8.62-62.7h57.1Z"/><path class="d" d="M201.06,237.79H142.08l-8.63-62.7h58.99Z"/><path class="e" d="M146.34,232.85l-7.27-52.82h49.11l7.26,52.82Z"/><rect class="b" width="12.57" height="39.14" transform="translate(106.51 198.65)"/><path class="c" d="M153.16,237.79H111.44l-6.3-45.81h41.72Z"/><path class="d" d="M157.68,237.79h-43.1l-6.3-45.81h43.1Z"/><path class="e" d="M117.7,234.18l-5.31-38.59h35.87l5.31,38.59Z"/><rect class="b" width="54.91" height="144.6" transform="translate(172.54 237.79)"/><path class="c" d="M221.92,382.4h5.52V373H216.13Z"/><rect class="b" width="54.91" height="144.6" transform="translate(76.32 237.79)"/><rect class="c" width="101.04" height="141.27" transform="translate(126.4 237.79)"/><path class="c" d="M131.93,382.4H126.4V373h11.32Z"/><rect class="e" width="92.47" height="63.7" rx="2.91" transform="translate(130.69 242.29)"/><path class="c" d="M186.94,251.3h-20a31.71,31.71,0,0,1-23-9.89h66A31.67,31.67,0,0,1,186.94,251.3Z"/><rect class="e" width="92.47" height="63.7" rx="2.91" transform="translate(130.69 310.68)"/><path class="c" d="M186.94,319.69h-20a31.71,31.71,0,0,1-23-9.89h66A31.67,31.67,0,0,1,186.94,319.69Z"/><path class="a" d="M124.82,158.28A42.14,42.14,0,1,1,167,116.14a42.14,42.14,0,0,1-42.18,42.14Zm0-83.27a41.135,41.135,0,1,0,0-.01Z"/><path class="a" d="M122.69,158.28a42.137,42.137,0,1,1,0-84.275v1a41.138,41.138,0,1,0,0,82.275Z"/><path class="f" d="M124.82,117.62a1.47,1.47,0,0,1-1.44-1.81l7.41-32a1.48,1.48,0,1,1,2.88.66L127,113.38l14.79-7.61a1.485,1.485,0,1,1,1.36,2.64l-17.62,9.06A1.44,1.44,0,0,1,124.82,117.62Z"/><rect class="c" width="146.49" height="143.4" transform="translate(292.76 87.83)"/><rect class="d" width="149.27" height="143.4" transform="translate(295.2 87.83)"/><rect class="e" width="128.79" height="134.66" transform="translate(437.16 95.13) rotate(90)"/><path class="d" d="M369.84,200.07a40.55,40.55,0,1,1,40.54-40.547,40.55,40.55,0,0,1-40.54,40.547Zm0-80.33a39.79,39.79,0,1,0,39.78,39.783,39.79,39.79,0,0,0-39.78-39.783Z"/><rect class="c" width="128.79" height="0.93" transform="translate(437.16 95.13) rotate(90)"/><ellipse class="d" cx="193.89" cy="11.32" rx="193.89" ry="11.32" transform="translate(56.11 404.92)"/><path class="g" d="M382.93,289.85c-1.63-.37-3.43-.73-5.36-1.07l.18-1c1.94.35,3.76.71,5.4,1.09Z"/><path class="g" d="M373.8,288.16c-4.12-.63-8.71-1.18-13.64-1.64l.1-1c4.95.46,9.55,1,13.69,1.64Z"/><ellipse class="g" cx="71.69" cy="10.94" rx="71.69" ry="10.94" transform="translate(251.04 287.42)"/><path class="h" d="M322.73,309.3c-39.59,0-71.69-4.9-71.69-10.94v64.58c0,6,32.1,10.94,71.69,10.94s71.69-4.9,71.69-10.94V298.36C394.42,304.4,362.33,309.3,322.73,309.3Z"/><path class="i" d="M322.73,309.3c-39.59,0-71.69-4.9-71.69-10.94v64.58c0,6,32.1,10.94,71.69,10.94s71.69-4.9,71.69-10.94V298.36C394.42,304.4,362.33,309.3,322.73,309.3Z"/><path class="e" d="M322.73,343.77c-35.48,0-72.19-4.28-72.19-11.44h1c0,5,28.61,10.44,71.19,10.44s71.19-5.4,71.19-10.44h1C394.92,339.49,358.22,343.77,322.73,343.77Z"/><ellipse class="g" cx="57.35" cy="8.75" rx="57.35" ry="8.75" transform="translate(265.38 212.12)"/><ellipse class="j" cx="57.35" cy="8.75" rx="57.35" ry="8.75" transform="translate(265.38 212.12)"/><path class="h" d="M322.73,229.62c-31.67,0-57.35-3.92-57.35-8.75v51.66c0,4.83,25.68,8.75,57.35,8.75s57.36-3.92,57.36-8.75V220.87C380.09,225.7,354.41,229.62,322.73,229.62Z"/><path class="k" d="M322.73,229.62c-31.67,0-57.35-3.92-57.35-8.75v51.66c0,4.83,25.68,8.75,57.35,8.75s57.36-3.92,57.36-8.75V220.87C380.09,225.7,354.41,229.62,322.73,229.62Z"/><path class="e" d="M322.73,256c-28,0-57.85-3.24-57.85-9.25h1c0,3.9,23.35,8.25,56.85,8.25s56.86-4.35,56.86-8.25h1C380.59,252.71,350.78,256,322.73,256Z"/><ellipse class="g" cx="45.88" cy="7" rx="45.88" ry="7" transform="translate(276.85 150.64)"/><ellipse class="l" cx="45.88" cy="7" rx="45.88" ry="7" transform="translate(276.85 150.64)"/><path class="h" d="M322.73,164.64c-25.34,0-45.88-3.13-45.88-7V199c0,3.87,20.54,7,45.88,7s45.89-3.13,45.89-7V157.64C368.62,161.51,348.07,164.64,322.73,164.64Z"/><path class="m" d="M322.73,164.64c-25.34,0-45.88-3.13-45.88-7V199c0,3.87,20.54,7,45.88,7s45.89-3.13,45.89-7V157.64C368.62,161.51,348.07,164.64,322.73,164.64Z"/><path class="e" d="M322.73,185.81c-22.48,0-46.38-2.63-46.38-7.5h1c0,3.07,18.64,6.5,45.38,6.5s45.39-3.43,45.39-6.5h1C369.12,183.18,345.22,185.81,322.73,185.81Z"/><ellipse class="g" cx="36.71" cy="5.6" rx="36.71" ry="5.6" transform="translate(286.02 100.23)"/><ellipse class="n" cx="36.71" cy="5.6" rx="36.71" ry="5.6" transform="translate(286.02 100.23)"/><path class="h" d="M322.73,111.43c-20.27,0-36.7-2.5-36.7-5.6V138.9c0,3.09,16.43,5.6,36.7,5.6s36.71-2.51,36.71-5.6V105.83C359.44,108.93,343,111.43,322.73,111.43Z"/><path class="o" d="M322.73,111.43c-20.27,0-36.7-2.5-36.7-5.6V138.9c0,3.09,16.43,5.6,36.7,5.6s36.71-2.51,36.71-5.6V105.83C359.44,108.93,343,111.43,322.73,111.43Z"/><path class="e" d="M322.73,128.46c-18,0-37.2-2.13-37.2-6.09h1c0,2.13,13.77,5.09,36.2,5.09s36.21-3,36.21-5.09h1C359.94,126.33,340.77,128.46,322.73,128.46Z"/><path class="h" d="M253.47,291.28a2.42,2.42,0,1,1-.709-1.721,2.43,2.43,0,0,1,.709,1.721Z"/><path class="h" d="M251,291.78a.49.49,0,0,1-.35-.15l-16-16h-42a.5.5,0,1,1,0-1h42.17a.5.5,0,0,1,.35.14l16.12,16.12a.5.5,0,0,1,0,.7.51.51,0,0,1-.29.19Z"/><path class="g" d="M206.43,268.68H194.54a1.78,1.78,0,0,0-1.78,1.78h0a1.78,1.78,0,0,0,1.78,1.78h11.89a1.78,1.78,0,0,0,1.77-1.78h0a1.78,1.78,0,0,0-1.77-1.78Z"/><path class="g" d="M212.43,263H194.54a1.78,1.78,0,0,0-1.78,1.78h0a1.78,1.78,0,0,0,1.78,1.78h17.89a1.78,1.78,0,0,0,1.77-1.78h0a1.78,1.78,0,0,0-1.77-1.78Z"/><circle class="h" cx="2.43" cy="2.43" r="2.43" transform="translate(274.42 148.13)"/><path class="h" d="M276.85,151.06a.47.47,0,0,1-.35-.15l-16-16h-42a.5.5,0,0,1,0-1h42.17a.51.51,0,0,1,.35.15L277.2,150.2a.5.5,0,0,1,0,.71.47.47,0,0,1-.35.15Z"/><rect class="g" width="15.44" height="3.56" rx="1.78" transform="translate(218.57 128.05)"/><path class="g" d="M238.24,122.38H220.35a1.78,1.78,0,0,0-1.78,1.78h0a1.78,1.78,0,0,0,1.78,1.78h17.89a1.78,1.78,0,0,0,1.77-1.78h0a1.78,1.78,0,0,0-1.77-1.78Z"/><circle class="h" cx="2.43" cy="2.43" r="2.43" transform="translate(377.66 211.35)"/><path class="h" d="M380.09,214.28a.54.54,0,0,1-.36-.14.51.51,0,0,1,0-.71l16.12-16.11a.47.47,0,0,1,.35-.15h42.17a.5.5,0,0,1,0,1h-42l-16,16A.54.54,0,0,1,380.09,214.28Z"/><path class="g" d="M424.7,191.28h11.89a1.78,1.78,0,0,1,1.78,1.78h0a1.78,1.78,0,0,1-1.78,1.77H424.7a1.78,1.78,0,0,1-1.78-1.77h0a1.78,1.78,0,0,1,1.78-1.78Z"/><path class="g" d="M418.7,185.61h17.89a1.78,1.78,0,0,1,1.78,1.78h0a1.79,1.79,0,0,1-1.78,1.78H418.7a1.79,1.79,0,0,1-1.78-1.78h0a1.78,1.78,0,0,1,1.78-1.78Z"/><circle class="h" cx="2.43" cy="2.43" r="2.43" transform="translate(357.01 96.32)"/><path class="h" d="M359.44,99.25a.47.47,0,0,1-.35-.15.5.5,0,0,1,0-.71L375.2,82.28a.51.51,0,0,1,.35-.15h42.17a.5.5,0,0,1,0,1h-42l-16,16A.47.47,0,0,1,359.44,99.25Z"/><path class="g" d="M404.06,76.24h11.88A1.78,1.78,0,0,1,417.72,78h0a1.78,1.78,0,0,1-1.78,1.78H404.06A1.78,1.78,0,0,1,402.28,78h0a1.78,1.78,0,0,1,1.78-1.76Z"/><path class="g" d="M398.06,70.57h17.88a1.78,1.78,0,0,1,1.78,1.78h0a1.78,1.78,0,0,1-1.78,1.78H398.06a1.78,1.78,0,0,1-1.78-1.78h0a1.78,1.78,0,0,1,1.78-1.78Z"/><path class="p" d="M139.85,147.58c1.18,5.11,2.51,14.46-.94,17.86a27.33,27.33,0,0,0,12.66,10.39c6.68-4.28,3.2-10.39,3.2-10.39-5.74-1.36-5.74-5.58-4.89-9.54Z"/><path class="g" d="M138.74,172.85c-3.53-4.77-3.34-12.18-3.34-12.18s14-2,21.27,2.92c2.12,3.17,5.46,8.89,5.46,8.89s-1.12,2.92-5.45,3.93S138.74,172.85,138.74,172.85Z"/><path class="p" d="M134.74,179.39c-.17,2.19-.35,4.57-.41,6.85s-.14,4.6-.05,6.86a46.277,46.277,0,0,0,.6,6.5c.09.5.2,1,.31,1.46l.19.69.1.32.06.16v0c-.23-.4-.38-.41-.26-.31a3.87,3.87,0,0,0,.77.4,24,24,0,0,0,6.05,1.14c2.25.21,4.58.27,6.93.32s4.71,0,7.08-.07,4.77-.16,7.12-.25l.63,4.31a118.328,118.328,0,0,1-14.55,2.4,74,74,0,0,1-7.51.41c-1.29,0-2.59-.05-3.93-.17a22.451,22.451,0,0,1-4.27-.79,10.91,10.91,0,0,1-2.51-1.09,7.06,7.06,0,0,1-2.72-2.9l-.13-.27v-.13l-.12-.26-.21-.53-.38-1c-.23-.68-.43-1.35-.6-2a45.8,45.8,0,0,1-1.2-7.82c-.18-2.56-.23-5.08-.19-7.59a69.424,69.424,0,0,1,.52-7.56Z"/><path class="p" d="M168,198.12l-6.54,6.37-.42,3.51c2.15,1.21,4.95.25,6.53-.49h0l6-2.07a2.7,2.7,0,0,0,1.81-2.66l-.08-2.25a2.93,2.93,0,0,0-3.17-2.79Z"/><path class="h" d="M132,166.35c-3.44,1-6.87,2.54-10,17.84,4.6,3.7,13.56,5.36,13.56,5.36l2.15-4.88c1.78-9.06-5.75-18.32-5.75-18.32"/><path class="h" d="M170.7,177.43c0,7.28-.78,20-3.61,42.12H132.16c.08-12.67.39-21.13-5.08-43.49a8.24,8.24,0,0,1,7.15-10.26c1.48-.15,3.06-.28,4.68-.36a111.816,111.816,0,0,1,15.86,0c2,.19,4.12.45,6.08.74a11.51,11.51,0,0,1,9.85,11.25Z"/><path class="p" d="M169.88,173.54v.09l.06.29.15.65a10.76,10.76,0,0,0,.41,1.38,21.309,21.309,0,0,0,1.24,2.78,23.68,23.68,0,0,0,3.8,5.15c.78.78,1.57,1.57,2.44,2.29l.64.54c.16.13.31.23.38.28s.08,0-.36-.07a2.89,2.89,0,0,0-1.36.14,3.21,3.21,0,0,0-1.64,1.24,2.43,2.43,0,0,0-.38.88q0,.21,0,.21a1.41,1.41,0,0,0,0-.32,10.488,10.488,0,0,0-.22-1.41c-.23-1.06-.56-2.21-.93-3.35-1.48-4.63-3.39-9.35-5.28-14s-3.93-9.37-5.92-14l3.86-2c2.69,4.41,5.2,8.88,7.6,13.46A141.8,141.8,0,0,1,181,181.86a32.114,32.114,0,0,1,1.35,3.95,18.428,18.428,0,0,1,.51,2.35,9.22,9.22,0,0,1,.1,1.6,7.1,7.1,0,0,1-.14,1.15,5.39,5.39,0,0,1-.74,1.77,4.69,4.69,0,0,1-2.39,1.81,4.94,4.94,0,0,1-2.3.18,7.17,7.17,0,0,1-2.15-.73,12.352,12.352,0,0,1-1.23-.75l-.89-.62a33,33,0,0,1-3.4-2.65,28.36,28.36,0,0,1-5.64-6.86,21.819,21.819,0,0,1-2-4.17,19.693,19.693,0,0,1-.67-2.29,11,11,0,0,1-.24-1.22,5.478,5.478,0,0,0-.09-.66v-.85Z"/><path class="h" d="M157.58,174.05c0-3.82,3.27-7.87,3.27-7.87,5.85,1.21,11.31,3.54,15,15.56-2.29,6-10.4,10.61-10.4,10.61L160,182.4S157.62,177.86,157.58,174.05Z"/><path class="p" d="M165.74,152l-2.62-3.1-6.5-2-1.19,6.69,5.85,3.17s3.84,3.56,7,2.54A10.53,10.53,0,0,0,165.74,152Z"/><path class="h" d="M157.65,137c.14.68.62,1.17,1.07,1.09s.68-.7.54-1.38-.63-1.17-1.07-1.09S157.5,136.26,157.65,137Z"/><path class="h" d="M158,135.64l1.53-.77S159,136.31,158,135.64Z"/><path class="h" d="M158,132.31a.47.47,0,0,0,.22-.2.42.42,0,0,0-.21-.55,4,4,0,0,0-3.72,0,.41.41,0,0,0-.12.56.42.42,0,0,0,.56.14,3.22,3.22,0,0,1,2.95,0A.4.4,0,0,0,158,132.31Z"/><path class="q" d="M158,138.83a19.47,19.47,0,0,0,3.35,3.93,2.92,2.92,0,0,1-2.33.89Z"/><path class="h" d="M157.47,140.36a2.53,2.53,0,0,1-1.78-.61,3,3,0,0,1-.73-2.45.27.27,0,0,1,.21-.22l7.08-1.25a.27.27,0,0,1,.3.2s.58,3.12-3.72,4.15A5.86,5.86,0,0,1,157.47,140.36Zm-2-2.8a2.37,2.37,0,0,0,.58,1.81,2.86,2.86,0,0,0,2.67.3c3.13-.75,3.38-2.6,3.35-3.28Z"/><path class="p" d="M134.14,138.22c2.3,8.3,3.09,11.85,8.21,15.41,7.71,5.35,17.32,1.07,17.53-7.65.19-7.86-3.59-20.11-12.46-22a11.24,11.24,0,0,0-13.28,14.24Z"/><path class="h" d="M132.81,128.47c-1.79-6.38,10.58-16.07,16.3-14.67s5.78,8.16,4.74,9.66c1.85.44,4.71,6.64-2,15.21.94,5.59,14,12,4.32,19.73s-37.84,5.18-33.62-2.81C128.36,144.65,123.15,129,132.81,128.47Z"/><path class="h" d="M151.47,138.61a.26.26,0,0,1-.26-.22.27.27,0,0,1,.21-.3l10.68-1.83a.28.28,0,0,1,.35-.41l.6.3a.26.26,0,0,1-.07.49l-11.43,2Z"/><path class="p" d="M167.09,219.55s-.68,64.76-.33,91c.37,27.28,8.32,91,8.32,91H168.2s-18.82-52.94-16.9-91c-5.94-29.21-11.43-91-11.43-91Z"/><path class="p" d="M158,219.55s-14,67.82-19.85,93.18c-6.11,26.63-7.69,89.14-7.67,91.12l-5.8-2.33S114.35,332,123,308.34c-1-29.62,9.92-88.79,9.92-88.79Z"/><path class="h" d="M128.51,398.83c-5.11-.9-5,1.73-5.34,4.56a8.14,8.14,0,0,0,.84,5c1.8,3.17.26,7.85,6,7.85s6.25-1.33,4.71-4.16a32.2,32.2,0,0,1-3-9.09C131.33,401.35,130.78,399.23,128.51,398.83Z"/><path class="h" d="M123.5,404.87c0,3.44-.06,11.37-.06,11.37h.91s.78-8.45,1.27-10.73Z"/><path class="p" d="M148.86,140.4a6.56,6.56,0,0,0,3.82,3c2.13.6,3.14-1.27,2.49-3.25-.57-1.79-2.38-4.25-4.5-4S147.84,138.62,148.86,140.4Z"/><path class="g" d="M167.09,219.55l2,86s-3,2.31-14,1-13.74-5.81-21.7-7.16a48.38,48.38,0,0,0-13.4-.61c-2.53-50.25-1.08-68.66,12.23-79.17Z"/><path class="r" d="M133.84,237.34s10.6,9.91,21.19,13.4C148.12,250.74,135.66,244.67,133.84,237.34Z"/><path class="p" d="M174.37,395.69c2,8.76,10.31,18.05,10.31,18.05l-12.11-3.11-5.1-7.58,1-2Z"/><path class="h" d="M166.82,400a6.3,6.3,0,0,0-.47,2.88c.21,3.63,1,13.24,1,13.24h.83a84.168,84.168,0,0,1,.08-8.86c.31-2.39,1.49,1.83,3.15,4.22s4.82,4.55,10.22,4.72c6.32.2,8.87-.07,7-1.65s-6.13-2.61-6.13-2.61a17.08,17.08,0,0,1-7.94-7.15,15,15,0,0,0-6.61-5.88A1.62,1.62,0,0,0,166.82,400Z"/></g></svg>