<svg xmlns="http://www.w3.org/2000/svg" width="425.274" height="316.88" viewBox="0 0 425.274 316.88"><defs><style>.a{fill:#ebebeb;}.b{fill:#f0f0f0;}.c,.p{fill:#fafafa;}.d{fill:#e0e0e0;}.e{fill:#e6e6e6;}.f,.k{fill:#fff;}.g{fill:#f5f5f5;}.h,.j,.m{fill:#263238;}.i{fill:#407bff;}.j{opacity:0.4;}.k{opacity:0.1;}.l,.r{opacity:0.3;}.l{mix-blend-mode:multiply;isolation:isolate;}.m{opacity:0.8;}.n{fill:#ffc3bd;}.o{fill:#ed847e;}.p,.q{opacity:0.2;}</style></defs><g transform="translate(0 -55)"><g transform="translate(0 55)"><rect class="a" width="425.274" height="0.213" transform="translate(0 278.469)"/><rect class="a" width="66.266" height="0.213" transform="translate(44.62 286.566)"/><rect class="a" width="32.236" height="0.213" transform="translate(350.426 293.039)"/><rect class="a" width="16.322" height="0.213" transform="translate(111.736 294.468)"/><rect class="a" width="36.735" height="0.213" transform="translate(171.955 284.261)"/><rect class="a" width="5.384" height="0.213" transform="translate(216.26 284.261)"/><rect class="a" width="36.761" height="0.213" transform="translate(278.699 289.45)"/><path class="a" d="M207.29,295.535H43.058a4.857,4.857,0,0,1-4.848-4.857V59.814A4.857,4.857,0,0,1,43.058,55H207.29a4.857,4.857,0,0,1,4.857,4.857V290.678A4.857,4.857,0,0,1,207.29,295.535ZM43.058,55.17a4.644,4.644,0,0,0-4.635,4.644V290.678a4.644,4.644,0,0,0,4.635,4.644H207.29a4.652,4.652,0,0,0,4.644-4.644V59.814a4.653,4.653,0,0,0-4.644-4.644Z" transform="translate(-5.711 -55)"/><path class="a" d="M423.6,295.535H259.357a4.865,4.865,0,0,1-4.857-4.857V59.814A4.865,4.865,0,0,1,259.357,55H423.6a4.857,4.857,0,0,1,4.84,4.814V290.678A4.857,4.857,0,0,1,423.6,295.535ZM259.357,55.17a4.653,4.653,0,0,0-4.644,4.644V290.678a4.653,4.653,0,0,0,4.644,4.644H423.6a4.653,4.653,0,0,0,4.644-4.644V59.814A4.653,4.653,0,0,0,423.6,55.17Z" transform="translate(-38.036 -55)"/><path class="b" d="M123.029,345.656h-41.8a3.751,3.751,0,0,1-3.708-3.215L67.063,270.935a3.751,3.751,0,0,1,3.717-4.3h41.787a3.742,3.742,0,0,1,3.708,3.207l10.462,71.514a3.751,3.751,0,0,1-3.708,4.3Z" transform="translate(-10.017 -86.63)"/><path class="c" d="M83.62,345.656H63.913a3.742,3.742,0,0,1-3.708-3.215L49.743,270.935a3.751,3.751,0,0,1,3.708-4.3H73.159a3.759,3.759,0,0,1,3.717,3.207l10.453,71.514a3.751,3.751,0,0,1-3.708,4.3Z" transform="translate(-7.428 -86.63)"/><path class="d" d="M344.443,245.33H141.316c-5.163,0-9.7,3.87-10.139,8.642l-5.1,55.209c-.442,4.772,3.4,8.642,8.505,8.642H337.69c5.163,0,9.7-3.87,10.139-8.642l5.1-55.209C353.425,249.2,349.606,245.33,344.443,245.33Z" transform="translate(-18.837 -83.445)"/><path class="e" d="M328.236,245.33H125.126c-5.163,0-9.7,3.87-10.139,8.642l-5.1,55.209c-.442,4.772,3.4,8.642,8.505,8.642H321.5c5.163,0,9.7-3.87,10.139-8.642l5.1-55.209C337.218,249.2,333.4,245.33,328.236,245.33Z" transform="translate(-16.417 -83.445)"/><rect class="a" width="31.896" height="88.738" rx="7.19" transform="translate(171.811 227.13) rotate(90)"/><rect class="d" width="31.896" height="100.484" rx="6.58" transform="translate(294.17 227.13) rotate(90)"/><rect class="a" width="31.896" height="100.484" rx="6.58" transform="translate(272.286 227.122) rotate(90)"/><path class="b" d="M376.121,345.656H345.033a3.266,3.266,0,0,1-3.173-4.3l19.563-71.514a4.415,4.415,0,0,1,4.125-3.207h31.087a3.266,3.266,0,0,1,3.164,4.3l-19.563,71.505a4.4,4.4,0,0,1-4.117,3.215Z" transform="translate(-51.067 -86.63)"/><path class="c" d="M347.412,345.656H327.7a3.266,3.266,0,0,1-3.164-4.3L344.1,269.846a4.406,4.406,0,0,1,4.125-3.207h19.716a3.266,3.266,0,0,1,3.173,4.3l-19.563,71.505A4.414,4.414,0,0,1,347.412,345.656Z" transform="translate(-48.479 -86.63)"/><path class="d" d="M330.294,378.983H327.3l-7.17-19.443h7.417Z" transform="translate(-47.844 -100.514)"/><path class="d" d="M374.914,378.983H371.92l-7.17-19.443h7.408Z" transform="translate(-54.513 -100.514)"/><path class="d" d="M123.07,378.983h2.994l7.162-19.443h-7.408Z" transform="translate(-18.393 -100.514)"/><path class="d" d="M78.45,378.983h2.994l7.162-19.443h-7.4Z" transform="translate(-11.725 -100.514)"/><rect class="d" width="226.807" height="80.896" transform="translate(99.233 36.293)"/><rect class="b" width="226.807" height="80.896" transform="translate(97.15 36.293)"/><rect class="c" width="67.287" height="213.198" transform="translate(317.161 43.097) rotate(90)"/><circle class="b" cx="20.175" cy="20.175" r="20.175" transform="translate(190.387 56.561)"/><path class="f" d="M162.91,172.957l14.136-67.287h31.181L194.1,172.957Z" transform="translate(-24.347 -62.573)"/><path class="f" d="M215.05,172.957l14.136-67.287h15.591l-14.128,67.287Z" transform="translate(-32.14 -62.573)"/><path class="f" d="M326.99,172.957l14.136-67.287h15.591l-14.128,67.287Z" transform="translate(-48.869 -62.573)"/><path class="b" d="M440.853,251.76c-5.29,22.965,7.655,46.627,2.356,69.558l-5.239-.221-5.239-.213C441.516,298.089,432.109,274.546,440.853,251.76Z" transform="translate(-64.673 -84.406)"/><path class="b" d="M425.26,263.45c4.338,21.927-9.577,43.854-5.239,65.781h10.487C422.675,307.3,433.094,285.377,425.26,263.45Z" transform="translate(-62.646 -86.153)"/><path class="e" d="M435.544,242c-6.94,23.382,5.954,48.617-.987,72l-5.7-.536-5.7-.527C433.9,289.92,424.8,265.041,435.544,242Z" transform="translate(-63.242 -82.948)"/><path class="e" d="M448.277,281.61c2.237,12.639-10.207,22.582-8,35.23l4.253.774,4.253.774C443.676,305.23,453.33,294.768,448.277,281.61Z" transform="translate(-65.761 -88.867)"/><ellipse class="d" cx="28.621" cy="32.049" rx="28.621" ry="32.049" transform="translate(341.384 220.751)"/></g><g transform="translate(47.724 352.624)"><ellipse class="g" cx="164.913" cy="9.628" rx="164.913" ry="9.628"/></g><g transform="translate(138.251 116.587)"><path class="h" d="M350.9,253.525H167.1a3.4,3.4,0,0,1-3.4-3.6l6.209-112.689a3.862,3.862,0,0,1,3.8-3.6h183.8a3.4,3.4,0,0,1,3.4,3.6l-6.192,112.689A3.845,3.845,0,0,1,350.9,253.525Z" transform="translate(-162.715 -128.34)"/><path class="h" d="M287.971,151.872H270.2A10.1,10.1,0,0,1,260,141.112l.179-3.283a11.176,11.176,0,0,1,11.006-10.419H288.94a10.113,10.113,0,0,1,10.207,10.759l-.179,3.283a11.193,11.193,0,0,1-11,10.419Z" transform="translate(-177.105 -127.409)"/><path class="h" d="M308.156,369.959h-5.69L286.79,130.36h5.7Z" transform="translate(-181.112 -127.85)"/><path class="h" d="M261.67,369.959h5.7l15.667-239.6h-5.69Z" transform="translate(-177.358 -127.85)"/><path class="i" d="M349.754,253.525h-183.8a3.4,3.4,0,0,1-3.4-3.6l6.183-112.689a3.861,3.861,0,0,1,3.8-3.6h183.8a3.4,3.4,0,0,1,3.4,3.6l-6.192,112.689A3.845,3.845,0,0,1,349.754,253.525Z" transform="translate(-162.543 -128.34)"/><path class="j" d="M169.521,250.678A2.7,2.7,0,0,1,166.8,247.8l5.894-107.229a3.07,3.07,0,0,1,3.028-2.875H354.089a2.7,2.7,0,0,1,2.722,2.875L350.917,247.8a3.07,3.07,0,0,1-3.036,2.875Z" transform="translate(-163.179 -128.947)"/><path class="k" d="M350.3,194.643H296.586a2.288,2.288,0,0,1-2.314-2.441l2.679-48.813a.332.332,0,0,0-.323-.349.374.374,0,0,0-.366.349L293.583,192.2a2.62,2.62,0,0,1-2.552,2.441H235.219a2.288,2.288,0,0,1-2.314-2.441l2.679-48.813a.332.332,0,0,0-.323-.349.374.374,0,0,0-.366.349L232.216,192.2a2.62,2.62,0,0,1-2.552,2.441H175.936a.366.366,0,0,0-.366.349.323.323,0,0,0,.323.34H229.58a2.3,2.3,0,0,1,2.314,2.45l-2.679,48.8a.315.315,0,0,0,.323.349.374.374,0,0,0,.366-.349l2.679-48.8a2.611,2.611,0,0,1,2.552-2.45h55.787a2.3,2.3,0,0,1,2.39,2.45l-2.679,48.8a.315.315,0,0,0,.323.349.374.374,0,0,0,.366-.349l2.679-48.8a2.611,2.611,0,0,1,2.552-2.45h53.687a.374.374,0,0,0,.366-.34.323.323,0,0,0-.306-.349Z" transform="translate(-164.49 -129.745)"/><path class="j" d="M274.049,153.44H252.488l-1.208,21.936,21.536.578Z" transform="translate(-175.805 -131.3)"/><path class="f" d="M271.506,174.683l-21.646-1.055a190.113,190.113,0,0,0,2.254-22.378l21.765,1.055A190.21,190.21,0,0,1,271.506,174.683Z" transform="translate(-175.593 -130.972)"/><path class="j" d="M304.825,170.67l-21.6,1.65.476,21.859,21.6-1.072Z" transform="translate(-180.58 -133.875)"/><path class="i" d="M303.987,192.113l-21.757.6a187.788,187.788,0,0,0,.544-22.386l21.876-.621a188.1,188.1,0,0,1-.663,22.4Z" transform="translate(-180.431 -133.731)"/><path class="j" d="M226.856,217.294l-39.806-1.514-3.581,35.408,39.721,2.45Z" transform="translate(-165.671 -140.616)"/><path class="f" d="M220.84,251.5,181,248.263a272.031,272.031,0,0,0,5.529-36.063l40.078,3.232A270.007,270.007,0,0,1,220.84,251.5Z" transform="translate(-165.302 -140.081)"/><g class="l" transform="translate(16.476 22.608)"><path class="h" d="M185.936,158.482h0a2.118,2.118,0,0,1-2.126-2.245h0A2.416,2.416,0,0,1,186.182,154h0a2.109,2.109,0,0,1,2.118,2.245h0A2.407,2.407,0,0,1,185.936,158.482Z" transform="translate(-182.197 -153.991)"/><path class="m" d="M222.434,158.481H194.817a2.109,2.109,0,0,1-2.118-2.245h0a2.4,2.4,0,0,1,2.364-2.245h27.66a2.118,2.118,0,0,1,2.126,2.245h0a2.416,2.416,0,0,1-2.416,2.245Z" transform="translate(-183.526 -153.99)"/><path class="h" d="M185.306,169.991h0a2.109,2.109,0,0,1-2.126-2.245h0a2.407,2.407,0,0,1,2.4-2.245h0a2.109,2.109,0,0,1,2.118,2.245h0a2.407,2.407,0,0,1-2.39,2.245Z" transform="translate(-182.103 -155.71)"/><path class="m" d="M226.694,169.991H194.186a2.118,2.118,0,0,1-2.126-2.245h0a2.416,2.416,0,0,1,2.373-2.245H226.94a2.118,2.118,0,0,1,2.126,2.245h0A2.416,2.416,0,0,1,226.694,169.991Z" transform="translate(-183.43 -155.71)"/><path class="h" d="M184.627,181.492h0a2.1,2.1,0,0,1-2.118-2.237h0a2.4,2.4,0,0,1,2.365-2.245h0A2.109,2.109,0,0,1,187,179.255h0a2.407,2.407,0,0,1-2.373,2.237Z" transform="translate(-182.003 -157.43)"/><path class="m" d="M209.376,181.492H193.547a2.1,2.1,0,0,1-2.118-2.237h0a2.4,2.4,0,0,1,2.365-2.245h15.829a2.1,2.1,0,0,1,2.118,2.245h0A2.4,2.4,0,0,1,209.376,181.492Z" transform="translate(-183.336 -157.43)"/><path class="m" d="M226.606,193H210.777a2.109,2.109,0,0,1-2.118-2.245h0a2.407,2.407,0,0,1,2.364-2.245h15.829a2.109,2.109,0,0,1,2.118,2.245h0A2.407,2.407,0,0,1,226.606,193Z" transform="translate(-185.911 -159.149)"/><path class="h" d="M184.037,193h0a2.109,2.109,0,0,1-2.118-2.245h0a2.407,2.407,0,0,1,2.365-2.245h0a2.109,2.109,0,0,1,2.118,2.245h0A2.407,2.407,0,0,1,184.037,193Z" transform="translate(-181.915 -159.149)"/><path class="m" d="M200.223,193h-7.306a2.109,2.109,0,0,1-2.118-2.245h0a2.407,2.407,0,0,1,2.365-2.245h7.306a2.109,2.109,0,0,1,2.126,2.245h0A2.407,2.407,0,0,1,200.223,193Z" transform="translate(-183.242 -159.149)"/></g><path class="i" d="M263,228.03H252.291l-1.471,26.8h10.708Z" transform="translate(-175.737 -142.447)"/><path class="i" d="M282.162,234.53H271.445L270.28,255.8h10.708Z" transform="translate(-178.645 -143.419)"/><path class="i" d="M302.4,217.75H291.688l-1.948,35.544h10.708Z" transform="translate(-181.553 -140.911)"/><path class="f" d="M253.584,242.075c-1.063,0-2.135,0-3.215-.085a18.211,18.211,0,0,1-6.481-1.31.7.7,0,0,1-.349-.919.689.689,0,0,1,.919-.34,17.011,17.011,0,0,0,5.954,1.191c12.852.663,24.1-2.688,35.434-10.53a39.652,39.652,0,0,0,9.211-8.931.689.689,0,1,1,1.131.783,39.976,39.976,0,0,1-9.535,9.245C276.022,238.588,265.432,242.075,253.584,242.075Z" transform="translate(-174.639 -141.37)"/><path class="f" d="M305.679,225.64a.689.689,0,0,1-.638-.953,12.171,12.171,0,0,0,.6-7.442,46.365,46.365,0,0,1-8.556,4.542.689.689,0,1,1-.519-1.276,45.153,45.153,0,0,0,9.075-4.942.7.7,0,0,1,1.046.349,13.431,13.431,0,0,1-.366,9.3A.689.689,0,0,1,305.679,225.64Z" transform="translate(-182.506 -140.567)"/><path class="i" d="M366.246,189.564h-39.84A2.39,2.39,0,0,1,324,187.012l1.854-33.682a2.679,2.679,0,0,1,2.637-2.5h39.848a2.39,2.39,0,0,1,2.4,2.552l-1.854,33.682A2.679,2.679,0,0,1,366.246,189.564ZM328.49,151.527a1.973,1.973,0,0,0-1.948,1.854l-1.854,33.682a1.7,1.7,0,0,0,1.7,1.812h39.84a1.973,1.973,0,0,0,1.948-1.854l1.854-33.682a1.691,1.691,0,0,0-1.71-1.812Z" transform="translate(-186.672 -130.91)"/><path class="i" d="M370.277,162.078H326.048a.349.349,0,0,1,0-.689h44.228a.349.349,0,1,1,0,.689Z" transform="translate(-186.936 -132.487)"/><path class="i" d="M336.483,191.142h0a.349.349,0,0,1-.323-.366l1.565-29.063a.34.34,0,0,1,.366-.323.349.349,0,0,1,.323.366l-1.591,29.072a.349.349,0,0,1-.34.315Z" transform="translate(-188.491 -132.488)"/><path class="i" d="M367.882,166.138H343.888a.349.349,0,0,1,0-.689h23.994a.349.349,0,1,1,0,.689Z" transform="translate(-189.602 -133.094)"/><path class="i" d="M364.208,171.118H343.6a.349.349,0,1,1,0-.689h20.609a.349.349,0,1,1,0,.689Z" transform="translate(-189.542 -133.838)"/><path class="i" d="M355.312,176.258H343.319a.349.349,0,1,1,0-.689h11.993a.349.349,0,1,1,0,.689Z" transform="translate(-189.501 -134.606)"/><path class="i" d="M357.407,186.3H342.769a.349.349,0,1,1,0-.689h14.638a.349.349,0,1,1,0,.689Z" transform="translate(-189.418 -136.107)"/><path class="i" d="M354.5,191.439h-12a.349.349,0,0,1,0-.689h12a.349.349,0,0,1,0,.689Z" transform="translate(-189.394 -136.876)"/><path class="i" d="M364.165,191.438h-3.836a.349.349,0,1,1,0-.689h3.836a.349.349,0,1,1,0,.689Z" transform="translate(-192.043 -136.875)"/><path class="i" d="M365.52,181.247H343.049a.349.349,0,0,1,0-.7H365.52a.349.349,0,1,1,0,.7Z" transform="translate(-189.468 -135.351)"/><path class="f" d="M342.164,248.183c-5.205,0-9.467-1.539-12.112-4.4-2.832-3.053-4.006-7.859-3.224-13.184a15.914,15.914,0,0,1,10.164-13.371,24.343,24.343,0,0,1,20.609.272c2.8,1.4,4.55,3.181,5.214,5.282a.691.691,0,1,1-1.318.417c-.544-1.7-2.067-3.232-4.516-4.465a22.965,22.965,0,0,0-19.427-.247,14.561,14.561,0,0,0-9.356,12.316c-.723,4.908.323,9.3,2.866,12.035,3.53,3.819,9.356,4.091,12.554,3.921,5.9-.332,10.972-2.39,14.289-5.8,3.878-4,4.967-9.968,2.552-13.9a4.355,4.355,0,0,0-2.985-2.211.689.689,0,0,1,.136-1.369,5.529,5.529,0,0,1,4.023,2.849c2.756,4.457,1.591,11.151-2.713,15.591-3.564,3.666-8.956,5.869-15.208,6.218C343.176,248.183,342.666,248.183,342.164,248.183Z" transform="translate(-187.061 -140.511)"/></g><g transform="translate(81.135 104.4)"><path class="n" d="M133.847,168.466l-2.458,4.253-2.4,4.363c-1.582,2.917-3.1,5.86-4.474,8.812-.689,1.488-1.344,2.96-1.939,4.44l-.111.272v.06a.68.68,0,0,0-.077.119,2.243,2.243,0,0,0-.119.247,1.778,1.778,0,0,0,.1.953,9.467,9.467,0,0,0,2.05,3.1,36.575,36.575,0,0,0,3.326,3.147l-2,4.253a20.841,20.841,0,0,1-2.747-.97,22.626,22.626,0,0,1-2.552-1.327,14.834,14.834,0,0,1-4.8-4.448,9.917,9.917,0,0,1-1.5-3.878,8.778,8.778,0,0,1,0-2.314,6.986,6.986,0,0,1,.2-1.131l.136-.553.1-.34c.553-1.7,1.114-3.462,1.778-5.1,1.293-3.334,2.756-6.566,4.338-9.7.8-1.565,1.616-3.122,2.484-4.653s1.7-3.028,2.722-4.576Z" transform="translate(-98.184 -120.614)"/><path class="n" d="M127.44,203.6l4.465-1.165.255,7.213s-3.5.519-5.631-1.616Z" transform="translate(-100.045 -126.434)"/><path class="n" d="M139.187,201l-1.012,6.337-5.069,2.092-.255-7.213Z" transform="translate(-100.99 -126.22)"/><path class="h" d="M162,129.18c.1.493.442.851.766.774s.51-.519.408-1.012-.442-.851-.766-.774S161.929,128.687,162,129.18Z" transform="translate(-105.343 -115.333)"/><path class="o" d="M162.5,130.36a18.04,18.04,0,0,0,3.215,3.742,2.875,2.875,0,0,1-2.262.919Z" transform="translate(-105.421 -115.663)"/><path class="h" d="M159.2,126.306a.292.292,0,0,1-.2-.5,2.943,2.943,0,0,1,2.552-.978.289.289,0,0,1,.238.34.3.3,0,0,1-.34.247h0a2.347,2.347,0,0,0-1.982.791.289.289,0,0,1-.272.1Z" transform="translate(-104.885 -114.833)"/><path class="n" d="M145.243,137.52c.9,4.576,1.795,12.954-1.4,16,0,0,1.25,4.635,9.739,4.635,9.356,0,4.465-4.635,4.465-4.635-5.1-1.216-4.967-4.993-4.074-8.548Z" transform="translate(-102.632 -116.733)"/><path class="h" d="M141.53,156.614c-.68-1.267-1.437-2.722.119-3.181,1.7-.5,12.707-1.429,15.939-.485-1,1.761.68,3.93.68,3.93Z" transform="translate(-102.168 -118.978)"/><path class="i" d="M108.852,407.648a2.024,2.024,0,0,0,1.557-.085.6.6,0,0,0,.145-.689.689.689,0,0,0-.383-.434c-.851-.4-2.781.391-2.866.425a.136.136,0,0,0-.094.128.153.153,0,0,0,.085.136A7.8,7.8,0,0,0,108.852,407.648Zm1.012-1a.9.9,0,0,1,.179.051.409.409,0,0,1,.221.255c.085.272,0,.349-.051.383-.332.281-1.582,0-2.458-.332A4.821,4.821,0,0,1,109.864,406.653Z" transform="translate(-97.158 -156.907)"/><path class="i" d="M107.327,406.848h.068c.706-.2,2.22-1.276,2.237-1.982a.485.485,0,0,0-.374-.485.8.8,0,0,0-.655.051c-.851.434-1.369,2.16-1.386,2.237a.153.153,0,0,0,0,.145Zm1.769-2.211h.06c.187.068.187.153.187.2,0,.417-1.012,1.259-1.7,1.6a3.632,3.632,0,0,1,1.14-1.761.527.527,0,0,1,.315-.034Z" transform="translate(-97.156 -156.609)"/><path class="i" d="M163.025,408.846c.8,0,1.574-.111,1.837-.468a.57.57,0,0,0,0-.646.74.74,0,0,0-.468-.349c-1.038-.281-3.224.961-3.317,1.021a.136.136,0,0,0-.068.153.144.144,0,0,0,.111.119,11.413,11.413,0,0,0,1.905.17Zm.987-1.208a1.038,1.038,0,0,1,.289,0,.434.434,0,0,1,.289.2c.1.187.068.281,0,.332-.289.4-1.871.408-3.028.247A6.651,6.651,0,0,1,164.012,407.638Z" transform="translate(-105.197 -157.058)"/><path class="i" d="M161.129,408.414h.06c.757-.34,2.245-1.7,2.135-2.4,0-.17-.145-.374-.553-.417a1.131,1.131,0,0,0-.851.255,4.279,4.279,0,0,0-.97,2.407.179.179,0,0,0,.068.136A.144.144,0,0,0,161.129,408.414Zm1.522-2.552h.085c.272,0,.289.128.289.162.068.425-.944,1.488-1.7,1.948a3.4,3.4,0,0,1,.851-1.922.783.783,0,0,1,.519-.17Z" transform="translate(-105.189 -156.797)"/><path class="n" d="M153.08,406.2h6.252l.621-14.476H153.7Z" transform="translate(-104.013 -154.723)"/><path class="n" d="M99.16,402.971l6.107,1.318,6.132-13.473-6.107-1.327Z" transform="translate(-95.954 -154.39)"/><path class="h" d="M105.265,405.907l-6.8-1.488a.544.544,0,0,0-.6.306L95.475,409.9a.91.91,0,0,0,.655,1.276c2.407.476,3.6.587,6.617,1.242,1.854.4,6.047,1.42,8.608,1.982s3.4-1.914,2.45-2.365c-4.482-2.05-6.354-3.853-7.57-5.537A1.531,1.531,0,0,0,105.265,405.907Z" transform="translate(-95.391 -156.62)"/><path class="h" d="M158.871,407.89h-6.8a.536.536,0,0,0-.527.425l-1.233,5.554a.9.9,0,0,0,.893,1.106c2.467,0,6.022-.179,9.118-.179,3.615,0,6.736.2,10.981.2,2.552,0,3.283-2.594,2.2-2.832-4.882-1.063-8.88-1.182-13.1-3.785A2.925,2.925,0,0,0,158.871,407.89Z" transform="translate(-103.595 -157.14)"/><path class="i" d="M128.8,157.97c-5.852,1.344-10.683,16.3-10.683,16.3l11.806,8.956a25.72,25.72,0,0,0,6.234-11.55C138.133,163.839,134.791,156.592,128.8,157.97Z" transform="translate(-98.788 -119.764)"/><path class="p" d="M128.8,157.97c-5.852,1.344-10.683,16.3-10.683,16.3l11.806,8.956a25.72,25.72,0,0,0,6.234-11.55C138.133,163.839,134.791,156.592,128.8,157.97Z" transform="translate(-98.788 -119.764)"/><path class="q" d="M135.8,170.92c-3.181,3.147-4.253,8.88-4.465,13.864l.519.4a25.686,25.686,0,0,0,6.243-11.55c.119-.468.221-.936.306-1.395Z" transform="translate(-100.762 -121.724)"/><path class="i" d="M165.692,158.029s6.651,7.51.366,54.01h-33.4c-.23-5.1,2.994-30.16-1.956-54.333a87.5,87.5,0,0,1,11.193-1.412,123.554,123.554,0,0,1,14.2,0A62.514,62.514,0,0,1,165.692,158.029Z" transform="translate(-100.668 -119.508)"/><path class="p" d="M165.692,158.029s6.651,7.51.366,54.01h-33.4c-.23-5.1,2.994-30.16-1.956-54.333a87.5,87.5,0,0,1,11.193-1.412,123.554,123.554,0,0,1,14.2,0A62.514,62.514,0,0,1,165.692,158.029Z" transform="translate(-100.668 -119.508)"/><path class="q" d="M173.909,175.061l-.128-.111-7.6,1.82c-.434,5.1,4.848,11.278,7.57,14.085a145.831,145.831,0,0,0,.153-15.795Z" transform="translate(-105.968 -122.327)"/><path class="q" d="M160,391.73l-.323,7.459H153.43l.323-7.459Z" transform="translate(-104.065 -154.725)"/><path class="q" d="M105.8,389.49l6.115,1.327-3.164,6.949-6.115-1.327Z" transform="translate(-96.475 -154.39)"/><path class="n" d="M142.364,130.172c1.6,6,2.237,9.577,5.954,12.069,5.554,3.751,12.478-.553,12.7-6.9.2-5.716-2.467-14.553-8.9-15.761a8.454,8.454,0,0,0-9.756,10.589Z" transform="translate(-102.364 -114.028)"/><path class="h" d="M143.921,139.071c2.552,1.454,11.831-3.4,9.926-10.8,0,0,3.538-4.253,3.139-8.948s-3.623-6.481-7.051-5.469C146.915,114.7,147,116.4,147,116.4s-14.281,1.7-11.227,7.493C129.955,130.216,140.74,137.25,143.921,139.071Z" transform="translate(-101.173 -113.154)"/><path class="h" d="M135.8,125.935s-1.7-2.943-4.185-1.293A6.452,6.452,0,0,1,135.8,125.935Z" transform="translate(-100.806 -114.733)"/><path class="h" d="M160.171,122.368s3.113-7.026-1.7-9.288A12.01,12.01,0,0,1,160.171,122.368Z" transform="translate(-104.818 -113.08)"/><path class="n" d="M154.381,131.839a6.983,6.983,0,0,0,2.552,3.725c1.625,1.208,2.841,0,2.73-1.82-.111-1.659-1.08-4.253-2.875-4.772S153.913,130.036,154.381,131.839Z" transform="translate(-104.191 -115.44)"/><path class="h" d="M149.678,221.864s-7.094,47.741-10.989,65.6c-4.253,19.563-27.124,84.408-27.124,84.408l-11.185-2.424s15.99-52.819,19.563-80.207c2.747-21.034,8.165-67.414,8.165-67.414Z" transform="translate(-96.137 -129.333)"/><path class="i" d="M114.1,393.458c.051,0-2.084,4.049-2.084,4.049l-12.58-2.73L100.495,391Z" transform="translate(-95.996 -154.616)"/><path class="r" d="M151.847,241.858c-8.2,1.608-7.332,32.185-6.345,47.911,2.365-11.117,5.826-32.508,8.191-47.69A2.8,2.8,0,0,0,151.847,241.858Z" transform="translate(-102.788 -132.316)"/><path class="h" d="M168.413,221.87s.851,46.721.187,65.773c-.706,19.818-7.655,84.715-7.655,84.715H150.381s-.383-63.74-.851-83.2c-.51-21.264-3.07-67.287-3.07-67.287Z" transform="translate(-103.024 -129.339)"/><path class="j" d="M237.359,183.15H215.8l-1.208,21.927,21.536.578Z" transform="translate(-113.206 -123.552)"/><path class="i" d="M224.205,195.4l-21.6-2.671A186.285,186.285,0,0,0,206.5,170.67l21.723,2.671a186.452,186.452,0,0,1-4.015,22.055Z" transform="translate(-111.415 -121.687)"/><path class="i" d="M163.481,393.84c.051,0-.6,4.4-.6,4.4H150.009l-.349-3.921Z" transform="translate(-103.502 -155.04)"/><path class="n" d="M174.03,165.07c.961,1.5,2.058,3.181,3.156,4.729s2.228,3.13,3.4,4.635a63.486,63.486,0,0,0,7.451,8.31,26.141,26.141,0,0,0,2.007,1.7l.51.383a1.969,1.969,0,0,0-.3-.1h-.272a2.772,2.772,0,0,0,1.4-.323,15.872,15.872,0,0,0,2.152-1.114,74.694,74.694,0,0,0,9.016-6.94l3.649,2.943a43.1,43.1,0,0,1-8.182,9.977,19.342,19.342,0,0,1-2.917,2.152,11.457,11.457,0,0,1-4.3,1.6,7.587,7.587,0,0,1-3.249-.281,7.376,7.376,0,0,1-1.659-.757l-.731-.468c-.978-.629-1.905-1.3-2.781-1.99a61.554,61.554,0,0,1-9.2-9.2c-1.335-1.65-2.628-3.317-3.827-5.052s-2.348-3.4-3.47-5.375Z" transform="translate(-105.927 -120.85)"/><path class="i" d="M160.968,167.777c-2,8.378,13.158,16.586,13.158,16.586l9.849-11.533a81.54,81.54,0,0,0-10.062-12.146C167.058,154.075,162.516,161.415,160.968,167.777Z" transform="translate(-105.165 -119.806)"/><path class="p" d="M160.968,167.777c-2,8.378,13.158,16.586,13.158,16.586l9.849-11.533a81.54,81.54,0,0,0-10.062-12.146C167.058,154.075,162.516,161.415,160.968,167.777Z" transform="translate(-105.165 -119.806)"/><path class="n" d="M207.78,179.068l2.331-7.468,6.115,3.053s-.893,5.444-5.35,6.388Z" transform="translate(-112.188 -121.826)"/><path class="n" d="M212.968,169.17l5.512,1.522-1.846,3.6-6.124-3.053Z" transform="translate(-112.596 -121.463)"/></g></g></svg>