<svg xmlns="http://www.w3.org/2000/svg" width="598.341" height="391.864" viewBox="0 0 598.341 391.864"><defs><style>.a,.e{fill:#ebebeb;}.b,.d{fill:#e0e0e0;}.c{fill:#f5f5f5;}.d,.e{fill-rule:evenodd;}.f{fill:#263238;}.g{fill:#407bff;}.h{opacity:0.3;}.i{fill:#fff;}.j{opacity:0.6;}.k{fill:#455a64;}.l{opacity:0.4;}.m{fill:#ffbe9d;}.n{fill:#eb996e;}.o{fill:#fafafa;}.p{opacity:0.5;}.q{fill:#b78876;}.r{fill:#aa6550;}</style></defs><g transform="translate(-37.83 -42.83)"><g transform="translate(83.088 115.419)"><path class="a" d="M114.643,200.708H111.63l-6.581-9.171V185.52s-4.66-.282-4.105,7.594-.053,5.876-.053,5.876-9.894,0-10.713.881c-.6.626-.881,10.449-.969,15.779a5.77,5.77,0,0,0,4.088,5.815,4.4,4.4,0,0,0,1.066.141c2.467,0,15.074-2.009,15.074-2.009h5.207Z" transform="translate(-89.201 -132.401)"/><path class="a" d="M126.931,200.88,125.073,221.5H119.91V201.3Z" transform="translate(-92.856 -134.229)"/><path class="b" d="M659.8,144.074a31.8,31.8,0,0,0-.7-4.5,18.1,18.1,0,0,0-2.079-4.889,18.342,18.342,0,0,0-22.025-7.779,17.216,17.216,0,0,0-4.625,2.493,17,17,0,0,0-3.859,3.885,18.285,18.285,0,0,0,8.484,27.971,18.4,18.4,0,0,0,22.025-7.779,18.1,18.1,0,0,0,2.079-4.889,31.793,31.793,0,0,0,.7-4.511,1.193,1.193,0,0,1,0,.308c0,.238,0,.529,0,.881a8.339,8.339,0,0,1-.115,1.445,12.385,12.385,0,0,1-.344,1.938,17.559,17.559,0,0,1-2.017,5.013,18.414,18.414,0,0,1-4.731,5.374,18.686,18.686,0,0,1-7.929,3.568,18.906,18.906,0,0,1-9.911-.784,18.919,18.919,0,0,1-8.792-6.563A18.828,18.828,0,1,1,657.316,134.5a17.558,17.558,0,0,1,2.017,5.013,12.386,12.386,0,0,1,.344,1.938,8.317,8.317,0,0,1,.114,1.436c0,.361,0,.652,0,.881A1.085,1.085,0,0,1,659.8,144.074Z" transform="translate(-152.643 -125.225)"/><path class="b" d="M689.291,179.209c-.1.15-6.678-4.088-14.686-9.462s-14.422-9.858-14.325-10.008,6.678,4.088,14.686,9.471S689.388,179.06,689.291,179.209Z" transform="translate(-157.166 -129.333)"/><rect class="a" width="75.184" height="96.935" transform="translate(50.506 212.005)"/><rect class="c" width="75.184" height="96.935" transform="translate(25.768 212.005)"/><path class="d" d="M134.912,375.942v-4.2H127.82v4.2a3.524,3.524,0,0,0,3.092,3.524v3.656h-1.577c-.546,0-1,.326-1,.714h6.07c0-.388-.458-.714-1-.714H131.82v-3.656A3.524,3.524,0,0,0,134.912,375.942Z" transform="translate(-93.798 -154.563)"/><path class="d" d="M149.948,375.66a5.171,5.171,0,0,0-5-3.92h0a5.171,5.171,0,0,0-5,3.92h4.528v6.6a1.008,1.008,0,0,1-2,0H141.5a1.965,1.965,0,1,0,3.929,0v-6.6Z" transform="translate(-95.24 -154.563)"/><path class="b" d="M218.464,418.489c0,.132-22.562.229-50.393.229s-50.4-.1-50.4-.229,22.562-.229,50.4-.229S218.464,418.366,218.464,418.489Z" transform="translate(-92.59 -160.1)"/><path class="b" d="M161.089,463.184c-.123,0-.229-21.813-.229-48.728s.106-48.736.229-48.736.229,21.813.229,48.736S161.212,463.184,161.089,463.184Z" transform="translate(-97.73 -153.847)"/><rect class="a" width="75.184" height="96.935" transform="translate(423.578 164.168)"/><rect class="c" width="75.184" height="96.935" transform="translate(398.849 164.168)"/><path class="d" d="M558.391,321.641V317.43h-7.1v4.211a3.524,3.524,0,0,0,3.1,3.524v3.665H552.8c-.555,0-1,.317-1,.7h6.061c0-.388-.449-.7-1-.7h-1.577v-3.674a3.524,3.524,0,0,0,3.119-3.515Z" transform="translate(-144.195 -148.1)"/><path class="d" d="M573.419,321.359a5.171,5.171,0,0,0-5-3.929h0a5.171,5.171,0,0,0-5,3.929h4.519v6.6a1.008,1.008,0,0,1-2,0h-.96a1.965,1.965,0,1,0,3.929,0v-6.6Z" transform="translate(-145.639 -148.1)"/><path class="b" d="M641.944,364.189c0,.123-22.571.229-50.393.229s-50.4-.106-50.4-.229,22.562-.229,50.4-.229S641.944,364.066,641.944,364.189Z" transform="translate(-142.988 -153.637)"/><path class="b" d="M584.569,408.883c-.132,0-.229-21.822-.229-48.728s.1-48.745.229-48.745.229,21.822.229,48.745S584.692,408.883,584.569,408.883Z" transform="translate(-148.128 -147.383)"/><rect class="a" width="63.158" height="63.158" transform="translate(348.994 197.61)"/><rect class="c" width="63.158" height="63.158" transform="translate(323.982 197.61)"/><path class="d" d="M474.739,360.862h1.8l-1.542-2.837-1.551-2.846-1.551,2.846-1.551,2.837h1.806v7.145h-4.431v-7.145h1.806l-1.551-2.837-1.551-2.846-1.551,2.846-1.542,2.837h1.8v7.145h-1.048v.987h11.708v-.987h-1.048Z" transform="translate(-133.727 -152.593)"/><path class="b" d="M493.558,412.655c-.132,0-.238-14.008-.238-31.293s.106-31.293.238-31.293.229,14.008.229,31.293S493.681,412.655,493.558,412.655Z" transform="translate(-137.296 -151.984)"/><path class="b" d="M545.639,385.247c0,.123-20,.229-44.675.229s-44.684-.106-44.684-.229S476.3,385,500.964,385,545.639,385.115,545.639,385.247Z" transform="translate(-132.888 -156.141)"/><path class="d" d="M635.117,470.274H260.855a24.615,24.615,0,0,1-24.615-24.606h0A24.615,24.615,0,0,1,260.855,421H635.117a24.615,24.615,0,0,1,24.668,24.668h0A24.668,24.668,0,0,1,635.117,470.274Z" transform="translate(-106.701 -160.426)"/><path class="e" d="M638.871,461.052H262.495a13.955,13.955,0,0,1-13.955-13.937h0a13.955,13.955,0,0,1,13.955-13.955H638.871a13.955,13.955,0,0,1,13.955,13.955h0a13.955,13.955,0,0,1-13.955,13.937Z" transform="translate(-108.165 -161.873)"/><path class="b" d="M276.3,447.436a22.028,22.028,0,0,0-.449-2.775,11.391,11.391,0,0,0-4.176-6.167,11.25,11.25,0,0,0-4.749-2.088,11.453,11.453,0,0,0-5.911.5,11.321,11.321,0,0,0-5.215,3.929,11.18,11.18,0,0,0,0,13.276,10.7,10.7,0,0,0,2.37,2.388,10.378,10.378,0,0,0,2.846,1.533,11.259,11.259,0,0,0,5.911.5,11.039,11.039,0,0,0,4.749-2.088,11.391,11.391,0,0,0,4.176-6.167,21.717,21.717,0,0,0,.449-2.775,4.243,4.243,0,0,1,0,.731,4.909,4.909,0,0,1-.07.881,7.835,7.835,0,0,1-.211,1.2,11.382,11.382,0,0,1-4.149,6.414,11.524,11.524,0,0,1-4.881,2.211,11.717,11.717,0,0,1-6.167-.485,11.171,11.171,0,0,1-2.96-1.577,10.958,10.958,0,0,1-2.467-2.476,11.594,11.594,0,0,1,0-13.814,10.783,10.783,0,0,1,2.476-2.467,11.022,11.022,0,0,1,2.951-1.586,11.682,11.682,0,0,1,6.123-.476,11.541,11.541,0,0,1,9.039,8.616,8.032,8.032,0,0,1,.211,1.2,5.018,5.018,0,0,1,.07.881,4.174,4.174,0,0,1,.035.678Z" transform="translate(-108.708 -162.194)"/><circle class="b" cx="4.141" cy="4.141" r="4.141" transform="translate(151.987 281.084)"/><path class="b" d="M700.308,447.428a22.006,22.006,0,0,0-.449-2.775,11.33,11.33,0,0,0-14.845-7.8,10.484,10.484,0,0,0-2.837,1.542,10.37,10.37,0,0,0-2.379,2.388,11.215,11.215,0,0,0,0,13.276,11.273,11.273,0,0,0,11.127,4.423,11.128,11.128,0,0,0,4.757-2.088,11.453,11.453,0,0,0,4.176-6.167,21.7,21.7,0,0,0,.449-2.775,8.916,8.916,0,0,1-.062,1.621,7.848,7.848,0,0,1-.211,1.2,11.582,11.582,0,0,1-15.206,8.123,11.039,11.039,0,0,1-2.96-1.577,10.818,10.818,0,0,1-2.476-2.476,11.629,11.629,0,0,1,0-13.814A11.656,11.656,0,0,1,691,436a11.541,11.541,0,0,1,9.039,8.616,8.035,8.035,0,0,1,.211,1.2,6.04,6.04,0,0,1,.07.881,5.743,5.743,0,0,1-.009.731Z" transform="translate(-159.17 -162.186)"/><circle class="b" cx="4.141" cy="4.141" r="4.141" transform="translate(525.535 281.084)"/><path class="b" d="M641.025,435.809c0,.132-83.87.238-187.289.238s-187.316-.106-187.316-.238,83.853-.229,187.316-.229S641.025,435.686,641.025,435.809Z" transform="translate(-110.292 -162.161)"/><path class="b" d="M641.236,461.969c0,.123-83.518.229-186.514.229s-186.532-.106-186.532-.229,83.5-.229,186.532-.229S641.236,461.828,641.236,461.969Z" transform="translate(-110.503 -165.274)"/></g><g transform="translate(37.83 425.496)"><path class="f" d="M631.916,477.419c0,.123-133.029.229-297.025.229s-297.061-.106-297.061-.229,132.976-.229,297.061-.229S631.916,477.287,631.916,477.419Z" transform="translate(-37.83 -477.19)"/></g><g transform="translate(146.932 42.83)"><rect class="g" width="179.907" height="249.1" rx="6.36" transform="translate(0 21.822)"/><g class="h" transform="translate(0 21.822)"><rect width="179.907" height="249.1" rx="6.36"/></g><rect class="b" width="154.658" height="227.057" transform="translate(12.625 35.143)"/><rect class="a" width="154.658" height="222.723" transform="translate(10.493 33.328)"/><path class="f" d="M328.219,303.343c0-1.859-.088-91.306-.211-222.714l.211.2H173.579l.229-.229c0,83.632,0,160.9-.044,222.714l-.185-.185,154.666.185-154.666.185h-.185v-.185c0-61.819,0-139.082-.044-222.714v-.2h155.1v.211C328.3,212.037,328.219,301.484,328.219,303.343Z" transform="translate(-163.06 -47.301)"/><path class="b" d="M286.86,328.027s39.741-15.127,54.5-40.217a41.292,41.292,0,0,1-31.76,6.607S299.079,322.495,286.86,328.027Z" transform="translate(-176.569 -71.985)"/><path class="f" d="M286.859,327.9l.661-.37a17.781,17.781,0,0,0,1.9-1.207,31.864,31.864,0,0,0,5.947-5.955c4.493-5.7,9.576-14.792,14.034-26.148l.07-.167h.167a40.623,40.623,0,0,0,14.387.291c1.26-.159,2.493-.493,3.762-.758a26.045,26.045,0,0,0,3.735-1.145,42.016,42.016,0,0,0,7.268-3.374,25.663,25.663,0,0,0,2.423-1.595l.951-.731-.617,1.022a62.552,62.552,0,0,1-8.537,11.056,94.129,94.129,0,0,1-9.691,8.634A138.524,138.524,0,0,1,305,319.381c-5.445,2.987-10,5.1-13.162,6.484-1.586.7-2.837,1.2-3.683,1.524l-.96.37a1.9,1.9,0,0,1-.344.106,2.723,2.723,0,0,1,.326-.15l.951-.405c.828-.361,2.062-.881,3.638-1.6,3.136-1.436,7.665-3.594,13.083-6.607A140.951,140.951,0,0,0,323.1,307.161a92.554,92.554,0,0,0,9.612-8.616,62.664,62.664,0,0,0,8.475-10.977l.335.291a28.535,28.535,0,0,1-2.467,1.639,42.836,42.836,0,0,1-7.347,3.4c-1.251.467-2.528.811-3.788,1.163a24.869,24.869,0,0,1-3.806.758,40.975,40.975,0,0,1-14.527-.326l.229-.132c-4.5,11.391-9.691,20.474-14.228,26.157a30.543,30.543,0,0,1-6.07,5.911A14.278,14.278,0,0,1,286.859,327.9Z" transform="translate(-176.568 -71.858)"/><rect class="g" width="18.906" height="18.906" rx="3.42" transform="translate(28.588 94.019)"/><rect class="g" width="18.906" height="18.906" rx="3.42" transform="translate(28.588 59.019)"/><path class="i" d="M203.086,162.361h0a.441.441,0,0,1-.317-.159l-2.643-3.083a.449.449,0,0,1,.053-.626.432.432,0,0,1,.617,0l2.335,2.731,6.167-6.281a.449.449,0,0,1,.626,0,.441.441,0,0,1,0,.626l-6.466,6.625A.485.485,0,0,1,203.086,162.361Z" transform="translate(-166.234 -56.158)"/><path class="i" d="M203.086,162.361h0a.441.441,0,0,1-.317-.159l-2.643-3.083a.449.449,0,0,1,.053-.626.432.432,0,0,1,.617,0l2.335,2.731,6.167-6.281a.449.449,0,0,1,.626,0,.441.441,0,0,1,0,.626l-6.466,6.625A.485.485,0,0,1,203.086,162.361Z" transform="translate(-166.234 -91.158)"/><path class="f" d="M316.521,152.129c0,.132-20.122.229-44.93.229s-44.93-.1-44.93-.229,20.113-.229,44.93-.229S316.521,151.988,316.521,152.129Z" transform="translate(-169.405 -55.811)"/><path class="f" d="M316.521,152.129c0,.132-20.122.229-44.93.229s-44.93-.1-44.93-.229,20.113-.229,44.93-.229S316.521,151.988,316.521,152.129Z" transform="translate(-169.405 -90.811)"/><path class="f" d="M264.5,167.829a10.051,10.051,0,0,1-1.489.088l-4.061.07c-3.418.044-8.158.07-13.382.07s-9.964,0-13.391-.07l-4.061-.07a9.991,9.991,0,0,1-1.48-.088,8.655,8.655,0,0,1,1.48-.088l4.061-.079c3.427,0,8.158-.062,13.391-.062s9.964,0,13.382.062l4.061.079a8.713,8.713,0,0,1,1.489.088Z" transform="translate(-169.402 -57.679)"/><path class="f" d="M264.5,167.829a10.051,10.051,0,0,1-1.489.088l-4.061.07c-3.418.044-8.158.07-13.382.07s-9.964,0-13.391-.07l-4.061-.07a9.991,9.991,0,0,1-1.48-.088,8.655,8.655,0,0,1,1.48-.088l4.061-.079c3.427,0,8.158-.062,13.391-.062s9.964,0,13.382.062l4.061.079a8.713,8.713,0,0,1,1.489.088Z" transform="translate(-169.402 -92.679)"/><path class="f" d="M316.521,159.089c0,.123-20.122.229-44.93.229s-44.93-.106-44.93-.229,20.113-.229,44.93-.229S316.521,158.983,316.521,159.089Z" transform="translate(-169.405 -56.639)"/><path class="f" d="M316.521,159.089c0,.123-20.122.229-44.93.229s-44.93-.106-44.93-.229,20.113-.229,44.93-.229S316.521,158.983,316.521,159.089Z" transform="translate(-169.405 -91.639)"/><rect class="g" width="18.906" height="18.906" rx="3.42" transform="translate(28.588 127.206)"/><path class="i" d="M203.086,199.984h0a.405.405,0,0,1-.317-.15l-2.643-3.092a.441.441,0,1,1,.67-.573l2.335,2.722,6.167-6.273a.44.44,0,1,1,.626.617l-6.466,6.616a.449.449,0,0,1-.37.132Z" transform="translate(-166.234 -60.638)"/><path class="f" d="M316.521,189.8c0,.123-20.122.229-44.93.229s-44.93-.106-44.93-.229,20.113-.229,44.93-.229S316.521,189.676,316.521,189.8Z" transform="translate(-169.405 -60.294)"/><path class="f" d="M264.5,205.5a10.053,10.053,0,0,1-1.489.088l-4.061.07c-3.418,0-8.158.07-13.382.07s-9.964,0-13.391-.07l-4.061-.07a9.995,9.995,0,0,1-1.48-.088,9.089,9.089,0,0,1,1.48-.1l4.061-.07c3.427-.044,8.158-.062,13.391-.062s9.964,0,13.382.062l4.061.07A9.153,9.153,0,0,1,264.5,205.5Z" transform="translate(-169.402 -62.162)"/><path class="f" d="M316.521,196.759c0,.123-20.122.229-44.93.229s-44.93-.106-44.93-.229,20.113-.229,44.93-.229S316.521,196.627,316.521,196.759Z" transform="translate(-169.405 -61.122)"/><rect class="g" width="18.906" height="18.906" rx="3.42" transform="translate(28.588 160.393)"/><path class="i" d="M203.086,237.694h0a.432.432,0,0,1-.317-.15l-2.643-3.092a.441.441,0,0,1,.67-.573l2.335,2.722,6.167-6.273a.44.44,0,1,1,.626.617l-6.466,6.616A.449.449,0,0,1,203.086,237.694Z" transform="translate(-166.234 -65.126)"/><path class="f" d="M316.521,227.469c0,.123-20.122.229-44.93.229s-44.93-.106-44.93-.229,20.113-.229,44.93-.229S316.521,227.337,316.521,227.469Z" transform="translate(-169.405 -64.777)"/><path class="f" d="M264.5,243.159a8.716,8.716,0,0,1-1.489.088l-4.061.079c-3.418,0-8.158.062-13.382.062s-9.964,0-13.391-.062l-4.061-.079a8.655,8.655,0,0,1-1.48-.088,9.99,9.99,0,0,1,1.48-.088l4.061-.07c3.427,0,8.158-.07,13.391-.07s9.964,0,13.382.07l4.061.07a10.053,10.053,0,0,1,1.489.088Z" transform="translate(-169.402 -66.644)"/><path class="f" d="M316.521,234.419c0,.132-20.122.229-44.93.229s-44.93-.1-44.93-.229,20.113-.229,44.93-.229S316.521,234.3,316.521,234.419Z" transform="translate(-169.405 -65.604)"/><rect class="g" width="18.906" height="18.906" rx="3.42" transform="translate(28.588 193.571)"/><path class="i" d="M203.086,275.366h0a.44.44,0,0,1-.317-.159l-2.643-3.083a.449.449,0,0,1,.053-.625.432.432,0,0,1,.617.053l2.335,2.722,6.167-6.281a.441.441,0,0,1,.626,0,.432.432,0,0,1,0,.617l-6.466,6.625a.485.485,0,0,1-.37.132Z" transform="translate(-166.234 -69.611)"/><path class="f" d="M316.521,265.138c0,.123-20.122.229-44.93.229s-44.93-.106-44.93-.229,20.113-.238,44.93-.238S316.521,264.988,316.521,265.138Z" transform="translate(-169.405 -69.259)"/><path class="f" d="M264.5,280.829a8.71,8.71,0,0,1-1.489.088l-4.061.07c-3.418,0-8.158.07-13.382.07s-9.964,0-13.391-.07l-4.061-.07a8.65,8.65,0,0,1-1.48-.088,8.653,8.653,0,0,1,1.48-.088l4.061-.07c3.427-.044,8.158-.07,13.391-.07s9.964,0,13.382.07l4.061.07A8.719,8.719,0,0,1,264.5,280.829Z" transform="translate(-169.402 -71.127)"/><path class="f" d="M316.521,272.089c0,.123-20.122.229-44.93.229s-44.93-.106-44.93-.229,20.113-.229,44.93-.229S316.521,271.983,316.521,272.089Z" transform="translate(-169.405 -70.087)"/><path class="f" d="M199,64.92V76.575A12.246,12.246,0,0,0,211.246,88.83H296.79a12.255,12.255,0,0,0,12.255-12.255V64.99Z" transform="translate(-166.113 -45.459)"/><path class="f" d="M259.813,65.736a11.453,11.453,0,1,1,11.453-11.453A11.453,11.453,0,0,1,259.813,65.736Zm0-18.571a7.048,7.048,0,1,0,7.048,7.048A7.048,7.048,0,0,0,259.813,47.164Z" transform="translate(-171.987 -42.83)"/></g><g transform="translate(456.361 118.269)"><path class="g" d="M619.168,444l4.581,19.487,9.065,15.549a2.238,2.238,0,0,1-.943,3.136h0a2.2,2.2,0,0,1-2.053,0c-4.07-2.194-18.994-10.343-19.294-11.911-.352-1.824-6.255-22.333-6.255-22.333Z" transform="translate(-523.774 -166.013)"/><g class="j" transform="translate(86.355 302.814)"><path class="i" d="M632.663,485.553,610.92,472.18l.247.881a3.384,3.384,0,0,0,1.348,1.894c1.762,1.2,6.748,4.4,18.034,10.572a2.247,2.247,0,0,0,2.114,0Z" transform="translate(-610.92 -472.18)"/></g><g class="j" transform="translate(87.116 294.766)"><path class="i" d="M613.463,463.1a1.366,1.366,0,0,1,.837,1.612,1.3,1.3,0,0,1-1.586.828,1.418,1.418,0,0,1-.881-1.7,1.348,1.348,0,0,1,1.762-.687" transform="translate(-611.784 -463.045)"/></g><path class="f" d="M627.233,477.963a6.89,6.89,0,0,1,1.392-2.15,7.047,7.047,0,0,1,2.3-1.136c0-.053-.308-.141-.819-.079a3.568,3.568,0,0,0-1.762.881,3.524,3.524,0,0,0-1.057,1.683C627.127,477.645,627.18,477.963,627.233,477.963Z" transform="translate(-526.501 -169.652)"/><path class="f" d="M629.827,480.826c.123.07.617-.8,1.612-1.418a19.2,19.2,0,0,1,1.991-.881,2.493,2.493,0,0,0-2.247.432C630.047,479.707,629.7,480.8,629.827,480.826Z" transform="translate(-526.813 -170.11)"/><path class="f" d="M622.929,474.656a24.325,24.325,0,0,1,2.352-2.361,23.9,23.9,0,0,1,2.925-1.595,6.167,6.167,0,0,0-5.286,3.956Z" transform="translate(-525.994 -169.19)"/><path class="f" d="M620.48,467.745c.088.115,1.119-.7,2.643-1.172s2.8-.44,2.81-.581a5.594,5.594,0,0,0-5.427,1.762Z" transform="translate(-525.703 -168.614)"/><path class="f" d="M618.519,460.743a7.1,7.1,0,0,1,5.682-1.366c0-.053-.282-.255-.881-.405A4.872,4.872,0,0,0,619.057,460C618.651,460.4,618.475,460.743,618.519,460.743Z" transform="translate(-525.469 -167.779)"/><path class="f" d="M620.657,457.661a2,2,0,0,0-.194-.8,5.822,5.822,0,0,0-1.207-1.912,2.555,2.555,0,0,0-1.383-.881.881.881,0,0,0-.881.467,1.462,1.462,0,0,0-.062,1.04,3.172,3.172,0,0,0,3.453,2.088,3.674,3.674,0,0,0,2.96-2.819,1.233,1.233,0,0,0-.22-1.031.881.881,0,0,0-1.013-.211,3.109,3.109,0,0,0-1.189,1.11,6.441,6.441,0,0,0-.987,2.035,1.982,1.982,0,0,0-.123.819,10.164,10.164,0,0,1,1.374-2.643,2.865,2.865,0,0,1,1.066-.934.449.449,0,0,1,.546.106.881.881,0,0,1,.115.687,3.3,3.3,0,0,1-2.6,2.414,2.749,2.749,0,0,1-2.96-1.762,1.03,1.03,0,0,1,0-.731.476.476,0,0,1,.5-.264,2.282,2.282,0,0,1,1.181.722A8.554,8.554,0,0,1,620.657,457.661Z" transform="translate(-525.273 -167.146)"/><g class="h" transform="translate(81.166 281.776)"><path d="M605.03,450.758l.828,2.916,14.783-3.251-.493-2.123Z" transform="translate(-605.03 -448.3)"/></g><path class="g" d="M552.5,449.746l1.022,15.567s-15.479,6.273-15.523,9.171l30.262-.881-.608-24.333Z" transform="translate(-515.887 -166.64)"/><g class="j" transform="translate(45.513 297.036)"><path class="i" d="M566,465.664a1.242,1.242,0,0,1,.881,1.383,1.189,1.189,0,0,1-1.366.881,1.313,1.313,0,0,1-.943-1.471,1.242,1.242,0,0,1,1.524-.784" transform="translate(-564.561 -465.622)"/></g><g class="j" transform="translate(22.033 304.505)"><path class="i" d="M568.207,476.531l-.062-2.432-29.073,1.762s-1.33.625-1.145,1.568Z" transform="translate(-537.91 -474.1)"/></g><path class="f" d="M555.06,467.3c0,.15.749.194,1.5.652s1.145,1.057,1.277,1-.115-.881-1.022-1.445S555.007,467.166,555.06,467.3Z" transform="translate(-517.917 -168.766)"/><path class="f" d="M551.5,468.912c0,.141.626.379,1.145.987s.678,1.269.828,1.26.22-.881-.44-1.6S551.5,468.771,551.5,468.912Z" transform="translate(-517.494 -168.97)"/><path class="f" d="M549.42,472.951c.132,0,.317-.714-.088-1.515s-1.1-1.092-1.163-.969.379.546.7,1.207S549.27,472.942,549.42,472.951Z" transform="translate(-517.097 -169.159)"/><path class="f" d="M555.239,463.183c.07.141.74-.088,1.577-.053s1.5.273,1.568.141-.564-.634-1.551-.661S555.169,463.077,555.239,463.183Z" transform="translate(-517.938 -168.227)"/><g class="h" transform="translate(36.676 283.238)"><path d="M554.53,450.383l.176,2.766,14.959-.432V449.96Z" transform="translate(-554.53 -449.96)"/></g><path class="f" d="M555.07,459.346a2.767,2.767,0,0,0,1.515-.053,6.5,6.5,0,0,0,1.577-.529,7.112,7.112,0,0,0,.881-.493,1.764,1.764,0,0,0,.449-.37.643.643,0,0,0,.044-.784.819.819,0,0,0-.661-.317,1.761,1.761,0,0,0-.564.1,5.541,5.541,0,0,0-.934.344,5.6,5.6,0,0,0-1.374.96,3.5,3.5,0,0,0-.881,1.26c0,.026.4-.423,1.1-.987a6.307,6.307,0,0,1,1.322-.8,6.612,6.612,0,0,1,.881-.291c.317-.1.59-.106.678,0s0,.07,0,.167a1.821,1.821,0,0,1-.326.273,7.67,7.67,0,0,1-.793.484,8.439,8.439,0,0,1-1.445.6,11.914,11.914,0,0,0-1.471.441Z" transform="translate(-517.919 -167.536)"/><path class="f" d="M555.017,459.289a2.467,2.467,0,0,0,.352-1.48,4.68,4.68,0,0,0-.255-1.647,4.608,4.608,0,0,0-.414-.881,1.251,1.251,0,0,0-.987-.74.722.722,0,0,0-.625.44,2.148,2.148,0,0,0-.132.564,3.583,3.583,0,0,0,0,1.022,3.524,3.524,0,0,0,.7,1.542c.617.766,1.233.925,1.251.881a6.125,6.125,0,0,1-.96-1.084,3.6,3.6,0,0,1-.52-1.41,3.212,3.212,0,0,1,0-.881c.044-.326.15-.59.273-.564a1.078,1.078,0,0,1,.546.485,4.639,4.639,0,0,1,.405.81,5.507,5.507,0,0,1,.335,1.506C555.078,458.707,554.937,459.271,555.017,459.289Z" transform="translate(-517.663 -167.267)"/><path class="f" d="M596.34,162.46a2.749,2.749,0,0,0-.361,3.427,9.3,9.3,0,0,0,2.643,2.643,6.228,6.228,0,0,1,2.4,2.819c.722,2.2-.881,4.7,0,6.854.74,1.868,3.039,2.643,4.061,4.4s.467,4.061-.291,5.991-1.691,3.947-1.295,5.982c.22,1.119.881,2.194.714,3.33-.185,1.647-1.841,2.643-3.409,3.233a15.8,15.8,0,0,1-8.017.617,7.17,7.17,0,0,1-4.96-2.863,9.236,9.236,0,0,1-.881-4.907,143.965,143.965,0,0,1,3.612-29.073" transform="translate(-521.712 -132.506)"/><path class="b" d="M535.738,232.439l9.347-22.263s6.51-20.263,16.88-19.937l2.5,18.236L550.1,239.407l-15.409-6.625" transform="translate(-515.493 -135.812)"/><path class="f" d="M553.276,251.79s-16.889,33.31-16.607,43.732c.159,5.8,9.013,131.54,9.013,131.54H571.16L566.447,295.9,593.176,427.97l22.562-3.665-17.99-141.231s-3.083-19.223-9.427-27.108Z" transform="translate(-515.728 -143.138)"/><path class="k" d="M569.874,286.22a52.545,52.545,0,0,1,.485,6.881,50.9,50.9,0,0,1,0,6.9,52.565,52.565,0,0,1-.485-6.88,50.964,50.964,0,0,1,0-6.9Z" transform="translate(-519.667 -147.235)"/><path class="k" d="M605.251,299.421a2.486,2.486,0,0,1-.793.185,12.588,12.588,0,0,1-2.229.079,13.559,13.559,0,0,1-11.655-7.929,12.327,12.327,0,0,1-.74-2.106,2.738,2.738,0,0,1-.123-.811c.088,0,.326,1.119,1.154,2.775a14.1,14.1,0,0,0,11.382,7.753C604.061,299.553,605.242,299.341,605.251,299.421Z" transform="translate(-522.041 -147.547)"/><path class="k" d="M546.942,287.1a7.532,7.532,0,0,1-.881,2.044,21.048,21.048,0,0,1-3.189,4.335,20.571,20.571,0,0,1-4.2,3.374,7.3,7.3,0,0,1-2,.969A27.724,27.724,0,0,0,546.942,287.1Z" transform="translate(-515.729 -147.34)"/><path class="k" d="M572.12,434.44a1.652,1.652,0,0,1-.044-.352c0-.255-.053-.59-.088-1.031-.07-.934-.167-2.264-.291-3.964-.229-3.462-.564-8.44-.969-14.58-.775-12.334-1.85-29.346-3.031-48.12s-2.194-35.821-2.872-48.146c-.185-6.167.449-11.215,1.542-14.51a10.254,10.254,0,0,1,1.832-3.524,3.878,3.878,0,0,1,.74-.722l.282-.22a1.769,1.769,0,0,1-.255.255,4.175,4.175,0,0,0-.7.74,10.731,10.731,0,0,0-1.762,3.524,45.847,45.847,0,0,0-1.392,14.448c.775,12.334,1.841,29.337,3.013,48.12s2.15,35.795,2.9,48.137c.344,6.167.625,11.118.819,14.589.088,1.7.159,3.039.2,3.973a6.782,6.782,0,0,0,.044,1.031A1.766,1.766,0,0,1,572.12,434.44Z" transform="translate(-519.076 -148.788)"/><path class="k" d="M622.4,432.329c-.123,0-4.29-29.363-9.3-65.625S604.116,301,604.24,301s4.29,29.355,9.3,65.625S622.529,432.311,622.4,432.329Z" transform="translate(-523.77 -148.994)"/><path class="b" d="M590.127,245.265l4.8-24.3,3.709-26.13a24.218,24.218,0,0,0-11.858-5.647l-22.263.925L556.13,209.8l.881,40.675Z" transform="translate(-518.045 -135.688)"/><path class="g" d="M590.226,189.66s-10.625,23.6-16.237,25.161c-2.511,10-4.74,62.885-4.74,62.885l35.019-1.41-10.352-34.359L598.1,224.75s-4.546-27.214.326-31.918C595.662,191.017,593.407,189.854,590.226,189.66Z" transform="translate(-519.606 -135.743)"/><path class="g" d="M565.034,189.182a90.327,90.327,0,0,0-.881,14,17.443,17.443,0,0,0,4.749,11.285h0l-4.652,63.176-24.8-3.612s5.119-15.8,9.2-22.685c0,0,1.938-3.268,5.5-9.453,0,0-2.484-20.166-2.572-23.011,0-1.075,6.422-27.593,6.422-27.593a9.286,9.286,0,0,1,7.039-2.106Z" transform="translate(-516.06 -135.679)"/><path class="g" d="M560.236,154.407c-3.18-.837-5.136-1.965-5.136-3.216,0-2.572,8.317-4.652,18.571-4.652s18.562,2.079,18.562,4.652c0,1.242-1.929,2.37-5.075,3.207" transform="translate(-517.922 -130.612)"/><g class="l" transform="translate(39.536 16.73)"><path d="M562.326,154.427c-2.819-.74-4.625-1.762-4.546-2.846.194-3.075,7.365-4.132,16.457-4.132s16.448,1.85,16.448,4.132c0,1.092-1.709,2.1-4.5,2.837" transform="translate(-557.777 -147.45)"/></g><path class="f" d="M591.111,152.47c-.388,1.33.573,2.643,1.674,3.524s2.423,1.41,3.277,2.493a5.462,5.462,0,0,1,.476,5.365,12.273,12.273,0,0,1-3.524,4.4c-1.075.934-2.476,1.85-3.823,1.383" transform="translate(-521.979 -131.317)"/><path class="b" d="M600.088,193.26c-.44,0-2.07,4.149-3.286,7.929a24.994,24.994,0,0,0,2.035,20.113l7.709,13.55-23.205,7.788,3.4,10.863,32.473-8.713a9.435,9.435,0,0,0,6.466-5.973h0a9.418,9.418,0,0,0-.731-7.929l-16.933-29.073S602.519,193.251,600.088,193.26Z" transform="translate(-521.283 -136.172)"/><path class="m" d="M587.7,152.661a12.545,12.545,0,0,0-13.215-12.334,12.8,12.8,0,0,0-11.911,12.924,139.254,139.254,0,0,0,.414,13.946c1,6.361,5.1,8.3,6.722,8.81a8.192,8.192,0,0,0,1.762.176h0v.044l-.344,7.524c.053,4.889,3.357,8.81,8.246,8.81s8.132-4.238,8.158-9.145Z" transform="translate(-518.811 -129.87)"/><path class="f" d="M565.28,158.591a1.022,1.022,0,0,0,.987,1.031.978.978,0,0,0,1.057-.881,1.013,1.013,0,0,0-.987-1.031.978.978,0,0,0-1.057.881Z" transform="translate(-519.134 -131.941)"/><path class="f" d="M564.528,156.535c.132.141.881-.44,2.009-.432s1.912.555,2.026.414-.07-.3-.423-.555a2.81,2.81,0,0,0-1.621-.5,2.643,2.643,0,0,0-1.595.52C564.581,156.235,564.466,156.482,564.528,156.535Z" transform="translate(-519.042 -131.673)"/><path class="f" d="M577.52,158.591a1.022,1.022,0,0,0,.987,1.031.978.978,0,0,0,1.057-.881,1.022,1.022,0,0,0-.987-1.031.978.978,0,0,0-1.057.881Z" transform="translate(-520.591 -131.941)"/><path class="f" d="M576.828,156.775c.132.132.881-.44,2.009-.44s1.912.555,2.035.423-.07-.3-.423-.564a2.8,2.8,0,0,0-1.63-.493,2.7,2.7,0,0,0-1.595.511C576.881,156.475,576.766,156.713,576.828,156.775Z" transform="translate(-520.506 -131.702)"/><path class="f" d="M571.916,164.953a7.118,7.118,0,0,0-1.762-.326c-.282,0-.546-.079-.6-.273a1.453,1.453,0,0,1,.194-.881l.828-2.141a37.144,37.144,0,0,0,1.868-5.612,38.155,38.155,0,0,0-2.317,5.444c-.273.758-.537,1.471-.793,2.158a1.639,1.639,0,0,0-.15,1.1.7.7,0,0,0,.467.414,2.009,2.009,0,0,0,.476.07,7.567,7.567,0,0,0,1.788.044Z" transform="translate(-519.594 -131.704)"/><path class="n" d="M572.685,180.614s4.255.344,9.576-2.854c0,0-1.674,5.63-9.691,4.881Z" transform="translate(-520.001 -134.327)"/><path class="n" d="M572.8,169.118a1.965,1.965,0,0,1,1.762-.74,1.806,1.806,0,0,1,1.251.67,1.145,1.145,0,0,1,.088,1.313,1.321,1.321,0,0,1-1.445.37,4.3,4.3,0,0,1-1.41-.881,1.206,1.206,0,0,1-.308-.326.344.344,0,0,1,0-.405" transform="translate(-520.014 -133.209)"/><path class="f" d="M575.526,167.07c-.176,0-.176,1.181-1.2,2.035s-2.3.714-2.308.881.282.229.819.247a2.986,2.986,0,0,0,1.929-.67,2.643,2.643,0,0,0,.934-1.709C575.72,167.352,575.588,167.061,575.526,167.07Z" transform="translate(-519.936 -133.055)"/><path class="f" d="M576.269,154.617c.106.3,1.207.159,2.5.308s2.343.511,2.511.238c.079-.123-.106-.405-.529-.7a4.176,4.176,0,0,0-1.859-.652,4.105,4.105,0,0,0-1.956.229C576.463,154.239,576.225,154.468,576.269,154.617Z" transform="translate(-520.441 -131.474)"/><path class="f" d="M565,153.979c.194.247.951,0,1.868,0s1.691.167,1.868-.088-.044-.379-.388-.617a2.7,2.7,0,0,0-3,.088C565,153.6,564.9,153.864,565,153.979Z" transform="translate(-519.096 -131.364)"/><path class="f" d="M577.918,166.479a.146.146,0,1,1-.053.035" transform="translate(-520.627 -132.984)"/><path class="f" d="M570.58,148.864a7.048,7.048,0,0,0,5.18,3.013c1.348.106,2.89-.132,3.912.758a5.867,5.867,0,0,1,1.286,2.643,6.37,6.37,0,0,0,2.731,3.48c1.022.573,2.3.819,3.039,1.762s.7,2.335.731,3.577.308,2.687,1.427,3.224q.062-6.775.123-13.576a5.4,5.4,0,0,0-.238-1.991c-.546-1.418-2.15-2.1-3.621-2.493a54.813,54.813,0,0,0-12.818-1.4" transform="translate(-519.765 -130.769)"/><path class="g" d="M558,148s2.643-10.915,2.881-11.453,3.339-5.286,10.774-6.678h6.167s8.722,2.81,10.316,4.934,2.273,12.44,2.273,12.44L573.18,143.5l-11.717,2.854Z" transform="translate(-518.267 -128.628)"/><path class="g" d="M575.206,128.46h-2.643a4.273,4.273,0,0,0-1.048,2.775c-.123,1.912-.555,14.977-.555,14.977l7.7-.344-.247-16.193,2.643.581-.079-.881-.7-.819Z" transform="translate(-519.81 -128.46)"/><path class="k" d="M561.72,150.548l.15-3.964,11.594-3.453,14.484,4.29v4.264a35.636,35.636,0,0,0-26.227-1.136Z" transform="translate(-518.71 -130.206)"/><path class="g" d="M562.078,145.733l-.511.5-4.167,2.643a66.074,66.074,0,0,1,16.307-2.167c8.3.088,17.787,2.89,17.787,2.89l-5.5-3.3h0a9.462,9.462,0,0,0-6.722-3l-10.422-.2a9.515,9.515,0,0,0-6.775,2.643Z" transform="translate(-518.196 -130.201)"/><path class="f" d="M571.16,141.255a34.555,34.555,0,0,1,.079-5.55,33.536,33.536,0,0,1,.537-5.515,34.411,34.411,0,0,1-.079,5.541A33.873,33.873,0,0,1,571.16,141.255Z" transform="translate(-519.825 -128.666)"/><path class="f" d="M582.018,130.464a10.185,10.185,0,0,1-1.938-.247.5.5,0,0,0-.476.485v1.145c0,.837,0,1.718.062,2.643v4.819a9.046,9.046,0,0,1-.132,1.991,8.932,8.932,0,0,1-.194-1.991c-.062-1.233-.115-2.934-.15-4.81v-3.815a.881.881,0,0,1,.881-.784A7.162,7.162,0,0,1,582.018,130.464Z" transform="translate(-520.789 -128.631)"/><path class="f" d="M557.1,148.713a1.982,1.982,0,0,1,.326-.2c.22-.123.555-.282,1-.476s.978-.4,1.568-.7a4.4,4.4,0,0,0,1.692-1.392c.493-.634.564-1.639,1.251-2.484a2.37,2.37,0,0,1,1.427-.819,10.432,10.432,0,0,1,1.656-.15c2.246-.115,4.722-.15,7.321-.079s5.057.229,7.3.423a4.784,4.784,0,0,1,3.057,1.092,8.011,8.011,0,0,1,.881,1.172l.388.555.194.264a.67.67,0,0,0,.2.15c1.489.766,2.775,1.3,3.612,1.762.423.211.749.388.96.511a1.417,1.417,0,0,1,.326.22s-.493-.2-1.366-.573-2.141-.881-3.691-1.621a.881.881,0,0,1-.308-.229l-.2-.264c-.132-.176-.273-.361-.405-.555a8.118,8.118,0,0,0-.881-1.1,4.405,4.405,0,0,0-2.837-.943c-2.229-.176-4.687-.317-7.277-.388s-5.048-.053-7.277,0c-1.11,0-2.238,0-2.819.793s-.714,1.709-1.277,2.432a4.749,4.749,0,0,1-1.841,1.436c-.625.282-1.172.476-1.621.634A13.484,13.484,0,0,1,557.1,148.713Z" transform="translate(-518.16 -130.115)"/><path class="f" d="M558.87,149.89a1.375,1.375,0,0,1,.255-.22,4.519,4.519,0,0,1,.881-.529,14.4,14.4,0,0,1,3.418-1.189,38.852,38.852,0,0,1,11.867-.7c2.308.167,4.528.282,6.528.564a48.7,48.7,0,0,1,5.286,1.11,19.973,19.973,0,0,1,1.965.634,3.4,3.4,0,0,1,1.365.8,1.348,1.348,0,0,1,.388.881.528.528,0,0,1-.079.344,1.409,1.409,0,0,0-.432-1.145,3.242,3.242,0,0,0-1.33-.678c-.564-.194-1.225-.388-1.956-.573-1.462-.344-3.251-.722-5.224-1s-4.185-.361-6.5-.529a41.8,41.8,0,0,0-11.761.564,16.741,16.741,0,0,0-3.409,1.031C559.266,149.652,558.9,149.943,558.87,149.89Z" transform="translate(-518.371 -130.675)"/><path class="o" d="M572.56,143.329a3.79,3.79,0,0,1,.546,0h1.5c1.26,0,3,.123,4.925.282.951.079,1.868.167,2.7.264a11.735,11.735,0,0,1,2.194.361,2.132,2.132,0,0,1,1.2.881.978.978,0,0,1,.167.52,2.353,2.353,0,0,0-.229-.485,2.2,2.2,0,0,0-1.172-.819,13.218,13.218,0,0,0-2.176-.317l-2.7-.247c-1.921-.159-3.656-.264-4.916-.335l-1.489-.079A2.291,2.291,0,0,1,572.56,143.329Z" transform="translate(-520 -130.228)"/><path class="o" d="M579.079,140.244a2.229,2.229,0,0,1-.071-.388c0-.247-.079-.617-.132-1.066-.088-.881-.185-2.141-.229-3.524s0-2.643,0-3.524a5.1,5.1,0,0,1,.062-1.066,1.659,1.659,0,0,1,.053-.4,2.01,2.01,0,0,1,0,.4v4.59c0,1.374.115,2.643.176,3.524l.07,1.066A1.154,1.154,0,0,1,579.079,140.244Z" transform="translate(-520.722 -128.677)"/><path class="o" d="M589,147.14a1.445,1.445,0,0,1,.361.115l.943.37L593.4,148.9a11.328,11.328,0,0,1,1.674.793,2.15,2.15,0,0,1,.969,1.172,1.453,1.453,0,0,1,0,1.022.67.67,0,0,1-.229.3,1.346,1.346,0,0,0,.159-.326,1.445,1.445,0,0,0,0-.96,2.017,2.017,0,0,0-.934-1.066,13.211,13.211,0,0,0-1.656-.766l-3.075-1.33-.881-.423a2.2,2.2,0,0,1-.423-.176Z" transform="translate(-521.957 -130.683)"/><path class="o" d="M574.05,128.833a8.568,8.568,0,0,1,1.084-.044h2.643a18.5,18.5,0,0,1,2.643.132,1.357,1.357,0,0,1,.714.388.51.51,0,0,1,.141.264,1.251,1.251,0,0,0-.881-.52c-.634-.115-1.577-.044-2.643-.088s-1.938-.044-2.643-.07a5.734,5.734,0,0,1-1.057-.062Z" transform="translate(-520.178 -128.499)"/><path class="f" d="M561.656,151.31a17.541,17.541,0,0,0,.749,10.484,37.155,37.155,0,0,1,.6-6.493,8.653,8.653,0,0,1,1-3,4.826,4.826,0,0,1,2.969-1.33c1.084-.238,2.282-.405,2.643-1.445a31.188,31.188,0,0,0-8,1.762" transform="translate(-518.646 -130.968)"/><path class="f" d="M570.907,183.308a4.916,4.916,0,0,0-3.172,1.41,14.947,14.947,0,0,1-2.141,2.793c-.934.722-2.07.881-2.863,1.656-1.568,1.507-.8,4.149-1.48,6.167a15.224,15.224,0,0,1-1.965,3.251,4.026,4.026,0,0,0-.678,3.594,3.127,3.127,0,0,0,2.449,1.762,6.721,6.721,0,0,0,3.083-.423l-.123-2.449a3.524,3.524,0,0,0,.573,1.321,1.207,1.207,0,0,0,1.295.432c.7-.282.722-1.26.652-2.017-.273-2.8-.141-5.823,1.454-8.14.749-1.1,2.026-2.264,2.643-3.427l.247-5.947" transform="translate(-518.32 -134.985)"/><path class="m" d="M521.108,232.784s1.577-3.436,3.876-3.295,8.748.881,8.748.881l.714,3.154-14.1-.722" transform="translate(-513.787 -140.483)"/><path class="g" d="M528.81,231.479l3.938-12.2a1.524,1.524,0,0,1,1.454-1.057h0a1.533,1.533,0,0,1,1.48,1.947l-3.409,12Z" transform="translate(-514.793 -139.142)"/><path class="f" d="M512.9,233.26h38.27l25.381,34.491-35.795-.52Z" transform="translate(-512.9 -140.932)"/><path class="m" d="M565.128,247.523a30.368,30.368,0,0,1,5.127-.159c2,.2,9.532,1.912,9.532,1.912l3.224,10-3.735-.335-2.511,1.216c-4.008.529-8.616,1.066-9.5.881,0,0-1.507-.881-1.057-1.709,0,0-3.418-.4-3.066-3.119a2.837,2.837,0,0,1-2.22-2.458l-6.264-.344a1.251,1.251,0,0,1-1.172-1.136h0c-.062-.7.881-.951,1.595-.978l9.77-.423a1.436,1.436,0,0,0,1.075-2.308Z" transform="translate(-517.73 -142.606)"/><g class="p" transform="translate(49.855 122.863)"><path class="i" d="M569.886,274.14l29.1-6.22,3.251,10.766L569.49,282.3Z" transform="translate(-569.49 -267.92)"/></g><g class="p" transform="translate(25.038 121.938)"><path class="i" d="M565.345,273.83l-19.558-6.96-4.467,10.59,23.531,4.352Z" transform="translate(-541.32 -266.87)"/></g><path class="k" d="M596.384,166.35a1.612,1.612,0,0,1,.079,1.321,3.718,3.718,0,0,1-2.07,2.432,3.815,3.815,0,0,1-3.172-.361,2,2,0,0,1-.881-1,4.621,4.621,0,0,0,1.04.714,3.894,3.894,0,0,0,2.846.22,3.718,3.718,0,0,0,1.921-2.106A7.337,7.337,0,0,0,596.384,166.35Z" transform="translate(-522.116 -132.969)"/><path class="k" d="M596.219,165.688a2.881,2.881,0,0,1-.96,1.225,3.735,3.735,0,0,1-1.515.8,2.934,2.934,0,0,1-2.123-.229,3.638,3.638,0,0,1-1.471-1.524,4.985,4.985,0,0,1-.511-1.63,3.523,3.523,0,0,1,0-1.542,9.993,9.993,0,0,1,.317,1.48,4.114,4.114,0,0,0,1.868,2.81,2.643,2.643,0,0,0,1.815.22,3.7,3.7,0,0,0,1.418-.643C595.8,166.12,596.158,165.618,596.219,165.688Z" transform="translate(-522.023 -132.546)"/><path class="f" d="M600.91,225.676a1.975,1.975,0,0,1-.247-.264,6.562,6.562,0,0,1-.617-.881,24.478,24.478,0,0,1-1.929-3.286,28.077,28.077,0,0,1-.238-24.395,24.428,24.428,0,0,1,1.868-3.33,10.127,10.127,0,0,1,.6-.837c.141-.194.229-.282.238-.273a11.568,11.568,0,0,1-.687,1.207,30.837,30.837,0,0,0-1.718,3.365,29.61,29.61,0,0,0,2.017,27.452,12.249,12.249,0,0,1,.714,1.242Z" transform="translate(-522.696 -136.071)"/><path class="f" d="M573.75,218.338a7.348,7.348,0,0,1,1.04-.881,35.551,35.551,0,0,0,2.749-2.423A43.616,43.616,0,0,0,584.8,205.4a94.718,94.718,0,0,0,5.18-10.96c.573-1.374,1.048-2.52,1.41-3.4a7.428,7.428,0,0,1,.564-1.225,7.2,7.2,0,0,1-.4,1.286c-.291.828-.714,2.009-1.277,3.462a81.636,81.636,0,0,1-5.075,11.065,40.443,40.443,0,0,1-7.435,9.629A26.052,26.052,0,0,1,574.9,217.6c-.352.264-.643.432-.837.555a1.137,1.137,0,0,1-.308.185Z" transform="translate(-520.142 -135.763)"/><path class="f" d="M565.445,190.56c.088,0-.405,1.507-.758,3.991a29.178,29.178,0,0,0-.273,4.4,31.94,31.94,0,0,0,.581,5.339,32.484,32.484,0,0,0,1.542,5.145,29.073,29.073,0,0,0,1.956,3.929c1.286,2.15,2.317,3.33,2.247,3.383a4.642,4.642,0,0,1-.758-.8,10.564,10.564,0,0,1-.793-1c-.3-.414-.652-.881-.978-1.41a26.445,26.445,0,0,1-2.062-3.938,27.6,27.6,0,0,1-2.15-10.66,25.834,25.834,0,0,1,.37-4.4c.079-.626.238-1.181.344-1.674a11.969,11.969,0,0,1,.344-1.242A4.555,4.555,0,0,1,565.445,190.56Z" transform="translate(-518.982 -135.851)"/><path class="f" d="M561.065,188.8c.123,0-1.321,6.977-3.224,15.532s-3.524,15.461-3.683,15.435,1.322-6.986,3.233-15.541S560.942,188.774,561.065,188.8Z" transform="translate(-517.809 -135.641)"/></g><g transform="translate(336.612 104.896)"><path class="q" d="M510.022,178.837l2.934-10.219s1.066-4.149,1.321-5.119c.326-1.286-.564-1.7-1.11-.828-.2.335-2.493,4.546-2.493,4.546l1.929-7.171c.6-2.255-.811-2.035-1.225-1.233s-3.031,7.638-3.031,7.638c2.458-8.9,1.762-9.691,1.057-9.841s-2.846,7.991-2.846,7.991a7.532,7.532,0,0,0-2.132-2.37c-2.141-1.507-5.744-.053-5.929.96s1.1,1.3,1.1,1.3a3.242,3.242,0,0,1,5.154,3,2.017,2.017,0,0,1-3.956.344c-.881-4.026-2.255-2.74-2.255-2.74l1.313,8.889-1.515,4.4" transform="translate(-391.418 -118.436)"/><path class="g" d="M453.048,140.6c3.339-.881,5.4-2.079,5.4-3.383,0-2.713-8.757-4.907-19.549-4.907s-19.549,2.194-19.549,4.907c0,1.3,2.026,2.484,5.348,3.365" transform="translate(-382.017 -115.545)"/><g class="l" transform="translate(39.298 17.611)"><path d="M451.446,140.617c2.969-.784,4.863-1.841,4.784-3-.2-3.224-7.753-4.343-17.329-4.343s-17.32,1.947-17.32,4.343c0,1.163,1.762,2.211,4.74,2.987" transform="translate(-421.58 -133.27)"/></g><path class="g" d="M456.077,133.85s-2.8-11.453-3.039-12.052-3.524-5.594-11.347-7.048h-6.475s-9.189,2.96-10.863,5.2S422,133.066,422,133.066l18.14-3.947,12.334,3Z" transform="translate(-382.332 -113.455)"/><path class="g" d="M441.171,113.28h2.775a4.484,4.484,0,0,1,1.11,2.916c.123,2.009.581,15.814.581,15.814l-8.114-.37.264-17.047-2.758.617.088-.969.731-.881Z" transform="translate(-383.883 -113.28)"/><path class="g" d="M391.692,439.71l-5.348,21.2-9.057,15.549a2.238,2.238,0,0,0,.943,3.154h0a2.246,2.246,0,0,0,2.053,0c4.061-2.194,18.994-10.343,19.294-11.92.352-1.815,7.118-22.025,7.118-22.025Z" transform="translate(-376.974 -152.129)"/><g class="j" transform="translate(1.257 314.108)"><path class="i" d="M378.4,483.193l21.743-13.373-.247.881a3.41,3.41,0,0,1-1.357,1.894c-1.762,1.207-6.74,4.4-18.025,10.572a2.22,2.22,0,0,1-2.114,0Z" transform="translate(-378.4 -469.82)"/></g><g class="j" transform="translate(19.679 306.037)"><path class="i" d="M400.182,460.721a1.357,1.357,0,0,0-.828,1.6,1.3,1.3,0,0,0,1.586.837,1.427,1.427,0,0,0,.881-1.709,1.357,1.357,0,0,0-1.762-.687" transform="translate(-399.312 -460.659)"/></g><path class="f" d="M386.251,475.543a6.7,6.7,0,0,0-1.392-2.15,6.978,6.978,0,0,0-2.3-1.137c0-.053.308-.141.819-.079a3.445,3.445,0,0,1,1.762.881,3.524,3.524,0,0,1,1.066,1.683C386.366,475.252,386.313,475.543,386.251,475.543Z" transform="translate(-377.639 -155.99)"/><path class="f" d="M383.683,478.446c-.132.062-.617-.811-1.621-1.418a18.638,18.638,0,0,0-1.982-.881,2.476,2.476,0,0,1,2.238.432C383.454,477.327,383.807,478.419,383.683,478.446Z" transform="translate(-377.343 -156.453)"/><path class="f" d="M390.348,472.276A22.57,22.57,0,0,0,388,469.915a21.94,21.94,0,0,0-2.925-1.595,4.96,4.96,0,0,1,3.216,1.207,5.021,5.021,0,0,1,2.053,2.749Z" transform="translate(-377.939 -155.534)"/><path class="f" d="M392.783,465.385c-.1.115-1.128-.7-2.643-1.172s-2.8-.44-2.81-.581a4.29,4.29,0,0,1,2.96.123,4.352,4.352,0,0,1,2.493,1.63Z" transform="translate(-378.206 -154.951)"/><path class="f" d="M394.7,458.375a11.1,11.1,0,0,0-2.7-1.286,10.7,10.7,0,0,0-2.987-.07c0-.062.282-.256.881-.405a4.934,4.934,0,0,1,4.273,1.022C394.57,458.023,394.746,458.34,394.7,458.375Z" transform="translate(-378.407 -154.125)"/><path class="f" d="M392.462,455.281a1.85,1.85,0,0,1,.185-.8,5.789,5.789,0,0,1,1.216-1.912,2.511,2.511,0,0,1,1.374-.881.881.881,0,0,1,.881.458,1.445,1.445,0,0,1,.07,1.048,3.154,3.154,0,0,1-3.453,2.079,3.665,3.665,0,0,1-2.969-2.81,1.3,1.3,0,0,1,.229-1.04.881.881,0,0,1,1.013-.2,3.11,3.11,0,0,1,1.189,1.11,6.413,6.413,0,0,1,.987,2.026,2.008,2.008,0,0,1,.123.819,10.088,10.088,0,0,0-1.383-2.643,2.934,2.934,0,0,0-1.057-.943.476.476,0,0,0-.555.115.881.881,0,0,0-.106.687,3.269,3.269,0,0,0,2.6,2.405,2.74,2.74,0,0,0,2.96-1.762,1.137,1.137,0,0,0,0-.731.494.494,0,0,0-.511-.255,2.22,2.22,0,0,0-1.181.722,8.484,8.484,0,0,0-1.612,2.511Z" transform="translate(-378.493 -153.489)"/><path class="g" d="M456.03,446.53l-1.189,16.915s16.8,6.872,16.889,10.017l-32.87-1.092.74-26.43Z" transform="translate(-384.339 -152.87)"/><path class="b" d="M445.406,463.8a1.33,1.33,0,0,0-.978,1.5,1.286,1.286,0,0,0,1.48.987,1.41,1.41,0,0,0,1.022-1.595,1.339,1.339,0,0,0-1.647-.881" transform="translate(-385 -154.991)"/><g class="j" transform="translate(54.539 316.857)"><path class="i" d="M438.88,475.583l.176-2.643,31.451,2.044s1.445.687,1.242,1.709Z" transform="translate(-438.88 -472.94)"/></g><path class="f" d="M457.218,465.619c0,.159-.811.211-1.621.7s-1.251,1.154-1.392,1.084.123-.987,1.11-1.559S457.262,465.478,457.218,465.619Z" transform="translate(-386.161 -155.193)"/><path class="f" d="M461.192,467.378c0,.159-.67.405-1.233,1.066s-.749,1.374-.881,1.366-.229-.881.493-1.762S461.2,467.228,461.192,467.378Z" transform="translate(-386.734 -155.411)"/><path class="f" d="M463.536,471.781c-.15,0-.344-.784.1-1.647s1.207-1.189,1.269-1.057-.414.59-.766,1.313S463.7,471.772,463.536,471.781Z" transform="translate(-387.255 -155.62)"/><path class="f" d="M456.989,461.145c-.07.15-.8-.1-1.709-.07s-1.621.3-1.7.159.617-.7,1.692-.714S457.077,461.022,456.989,461.145Z" transform="translate(-386.09 -154.605)"/><path class="f" d="M456.982,456.979a3.163,3.163,0,0,1-1.647-.07,6.827,6.827,0,0,1-1.7-.581,7.245,7.245,0,0,1-.934-.537,1.761,1.761,0,0,1-.485-.405.7.7,0,0,1-.044-.881.881.881,0,0,1,.714-.344,2.351,2.351,0,0,1,.617.106,6.543,6.543,0,0,1,1.013.388A5.753,5.753,0,0,1,456,455.7c.74.731.987,1.339.925,1.366s-.423-.458-1.181-1.075a6.659,6.659,0,0,0-1.445-.881,6.827,6.827,0,0,0-.934-.326c-.344-.1-.643-.115-.74,0s0,.088,0,.194a2.2,2.2,0,0,0,.352.291,7.517,7.517,0,0,0,.881.529,9.931,9.931,0,0,0,1.568.661,10.29,10.29,0,0,1,1.559.52Z" transform="translate(-385.907 -153.848)"/><path class="f" d="M457.348,456.915a2.713,2.713,0,0,1-.379-1.6,5.375,5.375,0,0,1,.282-1.762,5.5,5.5,0,0,1,.458-.987,1.339,1.339,0,0,1,1.075-.793.758.758,0,0,1,.67.476,1.954,1.954,0,0,1,.15.617,3.522,3.522,0,0,1,0,1.1,3.815,3.815,0,0,1-.758,1.683c-.67.828-1.348,1-1.357.943a6.546,6.546,0,0,0,1.04-1.172,3.894,3.894,0,0,0,.573-1.533,3.827,3.827,0,0,0,0-.951c-.044-.352-.167-.634-.3-.608a1.155,1.155,0,0,0-.59.52,5.867,5.867,0,0,0-.441.881,6.008,6.008,0,0,0-.37,1.63C457.286,456.289,457.436,456.889,457.348,456.915Z" transform="translate(-386.493 -153.564)"/><path class="q" d="M427.446,179.711l19.761-.881c.115-2.1-.96-15.065-.96-15.065s7.471-1.163,7.568-8.634-1.04-22.386-1.04-22.386l-.132-.652c-8.642-3.709-18.659-4.044-26.113,1.7l-1.11.881Z" transform="translate(-382.739 -115.196)"/><path class="r" d="M447.761,167.876A17.355,17.355,0,0,1,438,165.11s2.308,5.374,9.761,4.7Z" transform="translate(-384.237 -119.448)"/><path class="q" d="M425.788,144.068c-.123-.053-5.127-1.515-4.969,3.594s5.286,3.885,5.286,3.744S425.788,144.068,425.788,144.068Z" transform="translate(-382.191 -116.916)"/><path class="r" d="M424.687,149.743a1.323,1.323,0,0,1-.229.132.881.881,0,0,1-.67,0,2.185,2.185,0,0,1-1.075-1.938,2.907,2.907,0,0,1,.2-1.286,1.031,1.031,0,0,1,.652-.7.458.458,0,0,1,.529.229c.07.141.044.247.07.255s.106-.088.062-.3a.581.581,0,0,0-.211-.317.661.661,0,0,0-.493-.115,1.251,1.251,0,0,0-.881.828,3,3,0,0,0-.264,1.427,2.335,2.335,0,0,0,1.366,2.167.969.969,0,0,0,.811-.159A.285.285,0,0,0,424.687,149.743Z" transform="translate(-382.377 -117.137)"/><path class="f" d="M453.213,143.64a1.057,1.057,0,0,1-1.022,1.075,1.013,1.013,0,0,1-1.1-.96,1.066,1.066,0,0,1,1.022-1.075,1.013,1.013,0,0,1,1.1.96Z" transform="translate(-385.794 -116.778)"/><path class="f" d="M454.107,142.409c-.132.141-.943-.458-2.088-.458s-1.991.581-2.114.44.07-.317.44-.581a2.9,2.9,0,0,1,1.691-.52,2.793,2.793,0,0,1,1.665.537C454.054,142.092,454.169,142.347,454.107,142.409Z" transform="translate(-385.649 -116.613)"/><path class="f" d="M440.412,144.1a1.066,1.066,0,0,1-1.031,1.075,1.022,1.022,0,0,1-1.1-.96,1.075,1.075,0,0,1,1.031-1.084A1.04,1.04,0,0,1,440.412,144.1Z" transform="translate(-384.27 -116.832)"/><path class="f" d="M441.3,142.649c-.132.141-.943-.458-2.088-.449s-1.991.573-2.114.432.07-.308.441-.581a2.96,2.96,0,0,1,1.691-.52,2.766,2.766,0,0,1,1.665.537C441.244,142.34,441.412,142.587,441.3,142.649Z" transform="translate(-384.124 -116.642)"/><path class="f" d="M446.527,151.176a7.1,7.1,0,0,1,1.868-.344c.291,0,.564-.088.617-.282a1.5,1.5,0,0,0-.194-.881c-.273-.714-.564-1.454-.881-2.229a40.08,40.08,0,0,1-1.947-5.841,37.587,37.587,0,0,1,2.414,5.665c.291.784.573,1.533.828,2.247a1.683,1.683,0,0,1,.159,1.154.722.722,0,0,1-.485.423,1.762,1.762,0,0,1-.493.07,8.026,8.026,0,0,1-1.885.018Z" transform="translate(-385.187 -116.65)"/><path class="f" d="M442.742,153.37c.185,0,.185,1.233,1.251,2.114a5.661,5.661,0,0,0,2.405.881c.009.132-.3.238-.881.255a3.119,3.119,0,0,1-2.009-.7,2.643,2.643,0,0,1-.969-1.762C442.513,153.67,442.654,153.361,442.742,153.37Z" transform="translate(-384.776 -118.051)"/><path class="f" d="M441.494,137.583c-.115.308-1.26.159-2.643.326s-2.432.529-2.643.247c-.079-.132.115-.423.555-.731a4.344,4.344,0,0,1,1.938-.678,4.405,4.405,0,0,1,2.035.238C441.309,137.186,441.538,137.433,441.494,137.583Z" transform="translate(-384.021 -116.069)"/><path class="f" d="M453.671,138.633c-.2.264-1,0-1.947,0s-1.762.176-1.938-.1c-.079-.132,0-.388.4-.634a2.788,2.788,0,0,1,3.128.1C453.654,138.236,453.76,138.5,453.671,138.633Z" transform="translate(-385.636 -116.158)"/><path class="f" d="M456.482,266.84l-3.268,168.753a2.07,2.07,0,0,1-2.088,2.035l-19.655-.176a2.07,2.07,0,0,1-2.053-2.114l3.048-145.249L406.9,434.289a3.718,3.718,0,0,1-3.788,3.066l-16.483-.573A3.709,3.709,0,0,1,383.1,432.5L409,266.17Z" transform="translate(-377.698 -131.476)"/><path class="b" d="M499.094,181.084l-12.219-2.943-8.043,21.875-22.28-19.937h0c-2.37-1.762-6.458-1.956-9.568-2.335h-.238c-1.207-.15-1.762-.317-2.52-.405-5.374,4.035-14.563,4.29-19.84.123,0,0-4,.881-6.387,1.366-7.524,1.445-12.942,6.925-14.439,11.981l9.418,21.716,1.806,20.633-5.215,18.5a3.2,3.2,0,0,0,2.643,4.053l46.692.714.758-.379a8.643,8.643,0,0,0,1.251-5.911c-2.009-8.81-.608-35.24-1.031-43.292,9.153,8.889,19.25,16.263,26.623,11.7C492.654,214.694,499.094,181.084,499.094,181.084Z" transform="translate(-380.138 -120.904)"/><path class="g" d="M427.62,176.87Z" transform="translate(-383.001 -120.848)"/><path class="f" d="M425.51,138.321c.194,2.07.132,4.167.335,6.237a7.048,7.048,0,0,0,.74,2.238,2.053,2.053,0,0,0,3.894,0,6.105,6.105,0,0,0,.458-2.643,8.475,8.475,0,0,1,.282-2.713,14.772,14.772,0,0,1,1.542-2.643,3.286,3.286,0,0,0,.485-2.907,15.169,15.169,0,0,0-7.735,2.44" transform="translate(-382.75 -115.971)"/><path class="k" d="M453.03,136.534l-.159-4.176-12.21-3.638-15.241,4.493v4.493a37.495,37.495,0,0,1,27.61-1.172Z" transform="translate(-382.739 -115.118)"/><path class="g" d="M451.527,131.457l.537.52,4.4,2.766a69.326,69.326,0,0,0-17.179-2.264c-8.739.088-18.73,3.039-18.73,3.039l5.788-3.524h0a9.911,9.911,0,0,1,7.048-3.154l10.968-.22a9.955,9.955,0,0,1,7.162,2.837Z" transform="translate(-382.161 -115.105)"/><path class="f" d="M446.713,126.745a37.235,37.235,0,0,1-.555-5.815,38.4,38.4,0,0,1-.1-5.841,36.015,36.015,0,0,1,.555,5.815A38.407,38.407,0,0,1,446.713,126.745Z" transform="translate(-385.188 -113.495)"/><path class="f" d="M435,115.389a7.814,7.814,0,0,1,2.061-.6.881.881,0,0,1,.881.819v4.017c0,1.982-.088,3.771-.15,5.066a10.116,10.116,0,0,1-.2,2.1,9.692,9.692,0,0,1-.123-2.1v-5.066c0-.978.044-1.912.062-2.784a10.818,10.818,0,0,1,.044-1.207.555.555,0,0,0-.52-.52,12.061,12.061,0,0,1-2.053.273Z" transform="translate(-383.88 -113.46)"/><path class="f" d="M456.907,134.608s-.511-.211-1.454-.546c-.467-.176-1.048-.37-1.7-.678a4.828,4.828,0,0,1-1.938-1.506c-.59-.758-.7-1.815-1.348-2.564s-1.806-.793-2.969-.837c-2.352-.1-4.951-.123-7.665-.044s-5.286.22-7.665.405a4.66,4.66,0,0,0-3,1,8.311,8.311,0,0,0-.881,1.163l-.423.59-.22.273a1.066,1.066,0,0,1-.317.238c-1.63.793-2.969,1.3-3.885,1.709a12.329,12.329,0,0,1-1.427.608c-.009-.026.106-.1.335-.229s.573-.317,1.013-.537c.881-.458,2.238-1.031,3.806-1.832a.952.952,0,0,0,.22-.159l.2-.273c.132-.194.273-.388.405-.59a8.811,8.811,0,0,1,.943-1.233,5.013,5.013,0,0,1,3.224-1.145c2.352-.2,4.951-.37,7.682-.449s5.339,0,7.7.088a11.68,11.68,0,0,1,1.762.159,2.432,2.432,0,0,1,1.489.881c.722.881.8,1.938,1.322,2.643a4.643,4.643,0,0,0,1.762,1.471c.625.317,1.189.537,1.656.74s.811.37,1.04.493S456.916,134.591,456.907,134.608Z" transform="translate(-382.335 -115.024)"/><path class="f" d="M455.24,135.834a2.352,2.352,0,0,1-.326-.159,7.437,7.437,0,0,0-.881-.467,17.8,17.8,0,0,0-3.594-1.092,44.05,44.05,0,0,0-12.387-.6c-2.449.176-4.766.282-6.854.555a52.459,52.459,0,0,0-5.5,1.057c-.766.194-1.462.4-2.062.6a3.427,3.427,0,0,0-1.392.722,1.471,1.471,0,0,0-.458,1.207.581.581,0,0,1-.079-.361,1.445,1.445,0,0,1,.405-.969,3.577,3.577,0,0,1,1.436-.881c.6-.229,1.3-.458,2.07-.67a50.581,50.581,0,0,1,5.524-1.163c2.106-.3,4.4-.423,6.872-.6a40.824,40.824,0,0,1,12.492.74,15.179,15.179,0,0,1,3.594,1.251,4.616,4.616,0,0,1,.881.546,1.489,1.489,0,0,1,.255.282Z" transform="translate(-382.297 -115.607)"/><path class="o" d="M442.76,113.675a7.631,7.631,0,0,1-1.137.088l-2.757.07a24.415,24.415,0,0,0-2.731.088,1.322,1.322,0,0,0-.925.555.465.465,0,0,1,.141-.273,1.339,1.339,0,0,1,.749-.405,19.1,19.1,0,0,1,2.766-.141h2.749a6.466,6.466,0,0,1,1.145.018Z" transform="translate(-383.905 -113.323)"/><path class="o" d="M443.468,128.93a2.643,2.643,0,0,1-.581.053l-1.568.088c-1.322.07-3.154.176-5.171.344l-2.846.264a13.409,13.409,0,0,0-2.282.335,2.308,2.308,0,0,0-1.242.881,2.139,2.139,0,0,0-.238.52,1.181,1.181,0,0,1,.176-.555,2.326,2.326,0,0,1,1.26-.951,12.246,12.246,0,0,1,2.308-.379c.881-.1,1.841-.194,2.846-.282,2.026-.167,3.859-.255,5.18-.291h1.577A4.4,4.4,0,0,1,443.468,128.93Z" transform="translate(-383.23 -115.142)"/><path class="o" d="M438.409,125.681a2.123,2.123,0,0,1,0-.414c0-.37.053-.74.079-1.128.062-.943.141-2.255.185-3.7s0-2.766,0-3.718v-1.128a1.189,1.189,0,0,1,0-.414,2.826,2.826,0,0,1,.053.414c0,.264.044.652.062,1.128.044.951.062,2.264,0,3.718s-.141,2.766-.238,3.718a5.876,5.876,0,0,1-.132,1.119A1.321,1.321,0,0,1,438.409,125.681Z" transform="translate(-384.284 -113.506)"/><path class="o" d="M426.992,132.94a2.511,2.511,0,0,1-.344.185l-.969.449-3.233,1.392a13.487,13.487,0,0,0-1.762.811,2.229,2.229,0,0,0-1,1.128,1.6,1.6,0,0,0,0,1.013,2.737,2.737,0,0,0,.176.344.793.793,0,0,1-.238-.317,1.621,1.621,0,0,1,0-1.084,2.3,2.3,0,0,1,1.022-1.225,11.681,11.681,0,0,1,1.762-.837l3.251-1.348,1-.388a2.3,2.3,0,0,1,.335-.123Z" transform="translate(-382.039 -115.62)"/><path class="b" d="M425.51,177.982l1.084-7.462,10.167,3.727,2.872,5.057,1.78-5.55,5.577-1.921,2.387,4.969-4.1,5.788-7.673,1.551Z" transform="translate(-382.75 -120.092)"/><path class="f" d="M439.808,180.975a2.324,2.324,0,0,1-.379-.308,13.205,13.205,0,0,1-.934-1,15.028,15.028,0,0,1-2.458-4.238h.379l-2.352,5.92c-.405,1.013-.8,1.991-1.181,2.925l-.123.308-.238-.229c-2.053-1.982-3.823-3.727-5.075-4.978l-1.454-1.48a2.74,2.74,0,0,1-.484-.573,2.593,2.593,0,0,1,.59.467l1.542,1.383c1.3,1.2,3.119,2.89,5.189,4.854l-.361.079c.37-.934.766-1.912,1.172-2.925l2.405-5.9.194-.485.176.493a16.545,16.545,0,0,0,2.264,4.22C439.377,180.455,439.844,180.939,439.808,180.975Z" transform="translate(-382.75 -120.6)"/><path class="f" d="M451.356,177.242a8.051,8.051,0,0,1-1.189,1.639,16.291,16.291,0,0,1-3.894,3.427l-.229.132-.088-.247c-.335-.881-.722-1.885-1.128-2.9-.608-1.524-1.181-2.969-1.63-4.255h.4c-.335,1.683-.749,3.066-1,4.035a9.517,9.517,0,0,1-.44,1.533,6.5,6.5,0,0,1,.2-1.586c.185-1,.546-2.387.837-4.053l.132-.749.264.714c.467,1.269,1.057,2.7,1.665,4.22.414,1.022.793,2.009,1.11,2.925l-.317-.115a18.933,18.933,0,0,0,3.92-3.224,15.483,15.483,0,0,1,1.392-1.5Z" transform="translate(-384.73 -120.533)"/><path class="f" d="M445.438,257.771a4.642,4.642,0,0,1,.044-.775q.1-.819.238-2.22c.132-.96.2-2.15.3-3.524q.079-1.031.159-2.194c0-.784.062-1.612.1-2.476.159-3.462.15-7.585.07-12.166s-.37-9.62-.731-14.9c-.766-10.572-1.806-20.087-2.59-26.976-.388-3.418-.7-6.167-.934-8.167q-.15-1.4-.238-2.22a5.66,5.66,0,0,1-.053-.775,3.906,3.906,0,0,1,.15.766c.079.546.185,1.277.317,2.211.273,1.921.652,4.7,1.084,8.14.881,6.889,1.956,16.422,2.722,26.985.361,5.286.6,10.334.7,14.924s0,8.722-.167,12.193c-.044.881-.088,1.692-.132,2.476s-.132,1.506-.194,2.2c-.123,1.374-.22,2.555-.379,3.524l-.317,2.211a7.18,7.18,0,0,1-.141.758Z" transform="translate(-384.689 -121.385)"/><path class="g" d="M436.438,178.61l2.308,1.207-.432,3.885-3.594-.758Z" transform="translate(-383.846 -121.055)"/><g class="l" transform="translate(50.874 57.555)"><path d="M436.438,178.61l2.308,1.207-.432,3.885-3.594-.758Z" transform="translate(-434.72 -178.61)"/></g><path class="g" d="M442.68,179.493l1.744-1.533,1.6,4.061-2.291,1.1Z" transform="translate(-384.794 -120.978)"/><path class="g" d="M439.635,185.428,438.56,231.4l7.77,7.682,3.753-10.2L442.63,185.19Z" transform="translate(-384.303 -121.838)"/><path class="g" d="M439.583,178.312c.529-.062,1.26-.2,1.832-.326a1.286,1.286,0,0,1,1.392.643l.978,1.806a1.313,1.313,0,0,1,.132.881l-.4,2.026a1.277,1.277,0,0,1-1,1.013l-2.22.449a1.277,1.277,0,0,1-1.392-.678l-1.11-2.185a1.251,1.251,0,0,1,0-1.092l.766-1.762a1.286,1.286,0,0,1,1.013-.775Z" transform="translate(-384.198 -120.978)"/><path class="f" d="M442.912,178.92a4.826,4.826,0,0,1-.59.731c-.379.44-.881,1.04-1.515,1.683l-1.559,1.656a5.235,5.235,0,0,1-.687.643,4.217,4.217,0,0,1,.581-.731c.388-.44.881-1.04,1.524-1.691s1.154-1.233,1.559-1.647a5.231,5.231,0,0,1,.687-.643Z" transform="translate(-384.303 -121.092)"/><path class="f" d="M440.649,181.059a10.778,10.778,0,0,1-2.009-1.929,10.773,10.773,0,0,1,2.009,1.929Z" transform="translate(-384.313 -121.117)"/><path class="f" d="M443.833,183.963a24.99,24.99,0,0,1,.546-2.643,2.59,2.59,0,0,0-.555-1.762,1.489,1.489,0,0,1-.264-.758,3.707,3.707,0,0,0,.379.687,8.386,8.386,0,0,1,.449.749,1.682,1.682,0,0,1,.176,1.075c-.15.758-.344,1.392-.476,1.868a3.083,3.083,0,0,1-.255.784Z" transform="translate(-384.898 -121.078)"/><g class="h" transform="translate(32.62 103.742)"><path d="M414.2,248.562a8.81,8.81,0,0,0,7.673,2.2c1.929-.388,3.762-1.436,5.726-1.313,2.158.141,3.938,1.647,5.9,2.537,3.665,1.665,7.929,1.136,11.84.1,1.762-.476,3.656-1.128,4.81-2.572a8.546,8.546,0,0,0,1.48-4,41.144,41.144,0,0,0,.581-7.929,7.359,7.359,0,0,0-1.277-4.731,5.471,5.471,0,0,0-3.524-1.762,13.929,13.929,0,0,0-4.053.229A66.955,66.955,0,0,0,414,243.884" transform="translate(-414 -231.036)"/></g><path class="b" d="M429.92,235.1s-24.668,11.039-27.2,11.594c-8.334,1.824-17.866-6.044-15.215-15.021.978-3.339,14.263-40.252,14.263-40.252l12.642,17.47-5.383,17.866,14-.934Z" transform="translate(-378.174 -122.58)"/><path class="f" d="M424.862,228.328a5.006,5.006,0,0,1-.978.132l-2.7.229c-2.291.185-5.506.405-9.171.634H411.7l.088-.3c.273-.881.546-1.824.828-2.766,1.251-4.176,2.405-7.929,3.26-10.669.414-1.3.766-2.379,1.031-3.216a6.936,6.936,0,0,1,.441-1.163,7.046,7.046,0,0,1-.273,1.207c-.238.881-.537,1.947-.881,3.26-.775,2.749-1.885,6.528-3.128,10.7-.291.951-.564,1.877-.881,2.766l-.22-.273c3.665-.22,6.881-.388,9.18-.485l2.713-.106A4.52,4.52,0,0,1,424.862,228.328Z" transform="translate(-381.107 -124.935)"/><path class="f" d="M429.287,242.619c.044.115-5.374,2.458-12.1,5.224s-12.193,4.934-12.272,4.8,5.374-2.458,12.1-5.233S429.243,242.514,429.287,242.619Z" transform="translate(-380.298 -128.672)"/><path class="k" d="M428.926,228.238,427,218.8a1.216,1.216,0,0,1,1.2-1.462l24.536.115a1.225,1.225,0,0,1,1.207,1.357L451.4,240.528a1.683,1.683,0,0,1-1.692,1.5l-16-.123a1.7,1.7,0,0,1-1.63-1.277Z" transform="translate(-382.924 -125.664)"/><path class="q" d="M426.74,224.05h0a2.564,2.564,0,0,1,2.405,1.639,5.734,5.734,0,0,0,1.647,2.643c1.207.661,3.286,1.181,4.4.652s5.48-4.484,6.246-4.044,1.418,1.427.652,2.3-4.819,3.524-4.053,4.4,9.312-2.978,10.625-2.643,2.079,1.145,1.313,1.674-6.572,2.713-6.9,3.48c0,0,8.766-2.3,9.092-1.762s.881,1.427,0,1.762-8.431,2.3-9.092,2.643a16.016,16.016,0,0,1-3.374.978c-.238,0-1.956.581-3.524,1.119a7.726,7.726,0,0,1-5.445-.141l-.881-.361a3.471,3.471,0,0,1-2.158-3.427l.15-3.031-.951-2.467Z" transform="translate(-382.896 -126.463)"/><path class="o" d="M443.212,221.321a.881.881,0,1,1-.881-.881A.881.881,0,0,1,443.212,221.321Z" transform="translate(-384.647 -126.033)"/><rect class="f" width="10.043" height="3.251" transform="translate(65.084 80.161)"/><path class="k" d="M422.209,272.628l-10.669-.264.5-3.233,10.537.414Z" transform="translate(-381.088 -131.828)"/><path class="k" d="M453.65,272.594l-26.8-.194.352-2.96,26.421.07Z" transform="translate(-382.91 -131.865)"/><path class="o" d="M438.94,269.1v3.568a.978.978,0,0,0,.881,1.048H447.2a.978.978,0,0,0,.881-1.048V269.1a.978.978,0,0,0-.881-1.048h-7.383a.978.978,0,0,0-.881,1.048Zm7.982,3.313h-6.836v-3.022h6.836Z" transform="translate(-384.348 -131.699)"/><path class="k" d="M459.88,269.537v3.022l5.656.106.079-3.224Z" transform="translate(-386.841 -131.865)"/><path class="k" d="M396.18,429.654a2.761,2.761,0,0,1,.044-.405l.176-1.154c.167-1.048.414-2.537.722-4.458.652-3.894,1.586-9.479,2.731-16.378,2.308-13.849,5.489-32.94,9-54.022s6.572-40.226,8.757-54.075c1.075-6.907,1.947-12.51,2.555-16.4.308-1.921.537-3.418.7-4.458.088-.493.15-.881.194-1.154a3.875,3.875,0,0,1,.079-.4,3.242,3.242,0,0,1,0,.4,10.85,10.85,0,0,1-.15,1.172c-.141,1.04-.344,2.546-.617,4.467-.537,3.885-1.374,9.5-2.414,16.422-2.1,13.867-5.136,32.993-8.625,54.1s-6.731,40.2-9.127,54c-1.216,6.889-2.194,12.475-2.881,16.351-.344,1.912-.617,3.409-.811,4.4-.088.493-.167.881-.22,1.154A2.19,2.19,0,0,1,396.18,429.654Z" transform="translate(-379.26 -132.735)"/><path class="k" d="M453.365,430.278c-.132,0,.1-34.359.493-76.7s.828-76.7.951-76.7-.1,34.359-.493,76.708S453.488,430.278,453.365,430.278Z" transform="translate(-386.061 -132.75)"/><path class="k" d="M460.136,451.649c0,.123-5.356.229-11.973.229s-11.964-.106-11.964-.229,5.356-.229,11.964-.229S460.136,451.517,460.136,451.649Z" transform="translate(-384.022 -153.522)"/><path class="k" d="M408.14,450.62a4.265,4.265,0,0,1-.96.088l-2.643.088-8.642.211c-3.374.07-6.431.1-8.643.079-1.11,0-2,0-2.643-.053a4.311,4.311,0,0,1-.969-.088,3.9,3.9,0,0,1,.96-.1l2.643-.088,8.634-.211c3.374-.07,6.431-.1,8.642-.07,1.11,0,2,0,2.643.053A3.7,3.7,0,0,1,408.14,450.62Z" transform="translate(-377.767 -153.409)"/><path class="f" d="M488.686,211.47a21.894,21.894,0,0,1-.229-4.4,21.894,21.894,0,0,1,.229-4.4,21.141,21.141,0,0,1,.229,4.4,21.145,21.145,0,0,1-.229,4.4Z" transform="translate(-390.238 -123.917)"/><path class="f" d="M491.816,212.03a20.325,20.325,0,0,1-1.982-4.572,20.1,20.1,0,0,1-1.233-4.828,41.028,41.028,0,0,1,1.665,4.678,42.109,42.109,0,0,1,1.551,4.722Z" transform="translate(-390.259 -123.914)"/></g><g transform="translate(49.855 254.428)"><path class="g" d="M76.464,362.289c-.881-1.321-1.973-1.815-3.251-2.731a6.731,6.731,0,0,1-2.925-3.524c-.388-1.524.564-3.445,2.132-3.524s2.581,1.568,3.268,2.969c1.2,2.476,2.951,5.409,4.158,7.885" transform="translate(-53.708 -291.283)"/><g class="l" transform="translate(16.494 61.224)"><path d="M76.464,362.289c-.881-1.321-1.973-1.815-3.251-2.731a6.731,6.731,0,0,1-2.925-3.524c-.388-1.524.564-3.445,2.132-3.524s2.581,1.568,3.268,2.969c1.2,2.476,2.951,5.409,4.158,7.885" transform="translate(-70.202 -352.507)"/></g><path class="g" d="M69.47,362.15c-4.29-1.04-9.162-1.674-13.47-.714-2.088.467-4.352,1.762-4.519,3.92a4.264,4.264,0,0,0,2,3.612c2.934,2.044,6.986,1.348,10.228-.159s6.854-4.149,9.744-5.726" transform="translate(-51.48 -292.289)"/><g class="l" transform="translate(0 68.674)"><path d="M69.47,362.15c-4.29-1.04-9.162-1.674-13.47-.714-2.088.467-4.352,1.762-4.519,3.92a4.264,4.264,0,0,0,2,3.612c2.934,2.044,6.986,1.348,10.228-.159s6.854-4.149,9.744-5.726" transform="translate(-51.48 -360.963)"/></g><path class="g" d="M88.786,369.264a30.342,30.342,0,0,0-12.334,1.894,9.074,9.074,0,0,0-4.564,3.154,6.211,6.211,0,0,0,1.366,7.753,8.572,8.572,0,0,0,8.087,1.392,14.1,14.1,0,0,0,6.731-5.092,39.444,39.444,0,0,0,4.59-6.81" transform="translate(-53.811 -293.272)"/><g class="l" transform="translate(17.254 75.947)"><path d="M88.786,369.264a30.342,30.342,0,0,0-12.334,1.894,9.074,9.074,0,0,0-4.564,3.154,6.211,6.211,0,0,0,1.366,7.753,8.572,8.572,0,0,0,8.087,1.392,14.1,14.1,0,0,0,6.731-5.092,39.444,39.444,0,0,0,4.59-6.81" transform="translate(-71.065 -369.218)"/></g><path class="g" d="M103.637,376.316a18.5,18.5,0,0,1-3.313-7.3,5.832,5.832,0,0,1-.115-2.37,2.52,2.52,0,0,1,1.383-1.841,2.564,2.564,0,0,1,2.643.626,6.757,6.757,0,0,1,1.489,2.387c2.044,4.766,2.872,10.131,3.964,15.206" transform="translate(-57.271 -292.73)"/><g class="l" transform="translate(42.868 71.937)"><path d="M103.637,376.316a18.5,18.5,0,0,1-3.313-7.3,5.832,5.832,0,0,1-.115-2.37,2.52,2.52,0,0,1,1.383-1.841,2.564,2.564,0,0,1,2.643.626,6.757,6.757,0,0,1,1.489,2.387c2.044,4.766,2.872,10.131,3.964,15.206" transform="translate(-100.139 -364.667)"/></g><path class="g" d="M104.982,382.308a19.2,19.2,0,0,0-15.523,4.4,9.128,9.128,0,0,0-2.793,3.744,4.616,4.616,0,0,0,.608,4.467c1.3,1.533,3.665,1.709,5.577,1.084a17.585,17.585,0,0,0,5.92-3.964l8.493-7.585" transform="translate(-55.629 -294.801)"/><g class="l" transform="translate(30.717 87.27)"><path d="M104.982,382.308a19.2,19.2,0,0,0-15.523,4.4,9.128,9.128,0,0,0-2.793,3.744,4.616,4.616,0,0,0,.608,4.467c1.3,1.533,3.665,1.709,5.577,1.084a17.585,17.585,0,0,0,5.92-3.964l8.493-7.585" transform="translate(-86.346 -382.072)"/></g><path class="g" d="M107.772,354.692a24.668,24.668,0,0,1,10.079-17.1,12.387,12.387,0,0,1,5.762-2.449,6.237,6.237,0,0,1,5.63,2.22c1.524,2.088,1.163,5.057,0,7.383a17.505,17.505,0,0,1-9.268,8.149,39.777,39.777,0,0,1-12.334,2.467" transform="translate(-58.164 -289.21)"/><path class="g" d="M103.18,338.2c.7-4.3,2.969-8.2,5.6-11.664a13.215,13.215,0,0,1,2.881-2.978,5.286,5.286,0,0,1,3.938-.951,4.757,4.757,0,0,1,3.524,4.123,7.127,7.127,0,0,1-1.815,5.286,14.563,14.563,0,0,1-4.6,3.409,33.072,33.072,0,0,1-9.3,3.154" transform="translate(-57.633 -287.717)"/><path class="g" d="M100.836,323.013c.053-5.559,2.308-11.867,6.528-15.479.749-.634,1.762-1.242,2.643-.758a2.352,2.352,0,0,1,.881,1.3,11.136,11.136,0,0,1-10.079,14.977" transform="translate(-57.351 -285.819)"/><path class="g" d="M98.988,317.111c-.159-4.81-2.643-8.88-5.63-12.651a3.528,3.528,0,0,0-2.7-1.7c-1.524.07-2.361,1.832-2.52,3.348a10.369,10.369,0,0,0,2.643,7.929c1.956,2.114,5.286,3.119,8.2,3.066" transform="translate(-55.837 -285.362)"/><path class="g" d="M101.407,301.661c-2.484-3.973-2.881-10.572-.529-14.642a8.669,8.669,0,0,1,3.128-3.277,5.233,5.233,0,0,1,4.4-.432c2.423.96,3.48,4.017,2.907,6.563s-2.387,4.616-4.317,6.37a40.274,40.274,0,0,0-5.6,5.418" transform="translate(-57.173 -283.012)"/><path class="g" d="M99.362,333.93a34.04,34.04,0,0,0-4.96-5.973,13.383,13.383,0,0,0-6.845-3.462,8.4,8.4,0,0,0-7.171,2.194,6.167,6.167,0,0,0-1.145,7.154,8.535,8.535,0,0,0,4.8,3.453,22.6,22.6,0,0,0,15.594-.176" transform="translate(-54.704 -287.935)"/><path class="g" d="M104.32,353.8a16.739,16.739,0,0,0-7.577-5.9,12.334,12.334,0,0,0-9.479.335c-1.418.7-2.793,1.938-2.784,3.524s1.471,2.854,2.9,3.647a19.611,19.611,0,0,0,17.162.784" transform="translate(-55.407 -290.64)"/><path class="g" d="M115.461,379.76a15.743,15.743,0,0,1,1.921-11.506,18.131,18.131,0,0,1,9.444-7.638,9.691,9.691,0,0,1,4.66-.634,5.039,5.039,0,0,1,3.788,2.546c1.189,2.423-.414,5.418-2.643,6.9a32.21,32.21,0,0,1-7.295,3.727c-3.964,1.313-7.568,5.85-9.118,9.057" transform="translate(-59.052 -292.165)"/><path class="g" d="M120.639,400.205a25.073,25.073,0,0,1,4.044-14.4,13.7,13.7,0,0,1,5.85-5.63c2.511-1.092,5.753-.881,7.647,1.136,2.423,2.555,1.762,6.925-.511,9.629s-5.594,4.185-8.81,5.656a16.667,16.667,0,0,0-7.629,6.105" transform="translate(-59.709 -294.497)"/><path class="g" d="M123.78,417.342c1.242-4.467,2.643-8.995,5.4-12.7s7.224-6.475,11.832-6.035a6.269,6.269,0,0,1,5.286,3.313c1.084,2.5-.317,5.392-2.114,7.436a20.025,20.025,0,0,1-9.523,6.026c-2.053.581-4.2.881-6.167,1.586a7.283,7.283,0,0,0-4.59,4.158" transform="translate(-60.084 -296.763)"/><path class="g" d="M120.492,425.106c-1.436-4.713-5.726-7.929-10.043-10.316-3.233-1.762-6.845-3.268-10.5-2.81s-7.206,3.524-6.969,7.206,4.105,6.308,7.814,6.836,7.488-.317,11.233-.238,7.3,1.145,8.863,4.555" transform="translate(-56.417 -298.351)"/><path class="g" d="M119.316,407.184a14.977,14.977,0,0,0-10.572-9.691,5.841,5.841,0,0,0-4.238.282,4.475,4.475,0,0,0-1.6,5.427,7.33,7.33,0,0,0,4.519,3.912,21.443,21.443,0,0,0,6.088.881,22.023,22.023,0,0,1,6.088.819" transform="translate(-57.558 -296.604)"/><path class="g" d="M85.535,365.635a8.334,8.334,0,0,1-2.3-3.762,1.894,1.894,0,0,1,.053-1.392,1.436,1.436,0,0,1,1.665-.493,3.956,3.956,0,0,1,1.48,1.11,44.8,44.8,0,0,1,4.986,7.312" transform="translate(-55.246 -292.162)"/><path class="f" d="M106.635,286.88a2.326,2.326,0,0,1-.132.326c-.106.229-.255.537-.432.925l-.714,1.5c-.247.608-.537,1.3-.881,2.088a56.885,56.885,0,0,0-1.921,5.894,60.7,60.7,0,0,0-1.515,8.052,78.866,78.866,0,0,0,.52,21.294,179.3,179.3,0,0,0,6.37,25.373c2.784,8.863,5.7,17.241,7.779,25.046a187.233,187.233,0,0,1,4.4,20.968c.881,6.035,1.321,10.96,1.551,14.36.106,1.7.176,3.022.2,3.92v1.022a2.176,2.176,0,0,1,0,.352,2.28,2.28,0,0,1,0-.352l-.079-1.013c-.07-.925-.159-2.238-.282-3.912-.282-3.4-.749-8.308-1.691-14.325a194.521,194.521,0,0,0-4.458-20.915c-2.1-7.77-5.03-16.14-7.814-25.02a176.339,176.339,0,0,1-6.343-25.443,78.179,78.179,0,0,1-.432-21.39,61.782,61.782,0,0,1,1.586-8.087,56.129,56.129,0,0,1,2.009-5.885c.335-.784.634-1.48.881-2.079s.546-1.075.749-1.489.361-.678.476-.881a1.612,1.612,0,0,1,.167-.326Z" transform="translate(-57.282 -283.472)"/><path class="f" d="M66.2,361.447a2.721,2.721,0,0,1,.643,0c.423.044,1.04.079,1.832.2a52.8,52.8,0,0,1,6.651,1.33,59.211,59.211,0,0,1,20.1,9.629,56.49,56.49,0,0,1,9.074,8.343,51.576,51.576,0,0,1,5.815,8.22,53.788,53.788,0,0,1,3,6.088c.326.731.529,1.322.678,1.718a2.872,2.872,0,0,1,.2.608,3.568,3.568,0,0,1-.282-.573c-.185-.379-.414-.96-.758-1.683a64.4,64.4,0,0,0-3.119-5.991,53.038,53.038,0,0,0-5.85-8.105,57.333,57.333,0,0,0-9.03-8.255,60.972,60.972,0,0,0-19.91-9.691,63.138,63.138,0,0,0-6.581-1.427c-.784-.15-1.4-.22-1.815-.291a5.773,5.773,0,0,1-.652-.123Z" transform="translate(-53.232 -292.344)"/><path class="f" d="M121.536,343.61a24.939,24.939,0,0,1-2.3,1.595,44.765,44.765,0,0,0-5.286,4.22,45.384,45.384,0,0,0-4.528,4.969,24.67,24.67,0,0,1-1.762,2.2,2.51,2.51,0,0,1,.344-.67c.247-.423.626-1.013,1.128-1.762a35.24,35.24,0,0,1,9.849-9.268c.74-.458,1.357-.8,1.762-1.022a2.644,2.644,0,0,1,.793-.264Z" transform="translate(-58.166 -290.224)"/><path class="f" d="M128.362,365.73c0,.079-1.154.476-2.863,1.489a18.5,18.5,0,0,0-8.713,12.255c-.405,1.947-.4,3.2-.476,3.2a3.074,3.074,0,0,1-.062-.881,15.594,15.594,0,0,1,.211-2.379,17.514,17.514,0,0,1,8.88-12.475,15.857,15.857,0,0,1,2.141-.969,3,3,0,0,1,.881-.238Z" transform="translate(-59.187 -292.856)"/><path class="f" d="M131.218,386.54c0,.07-.881.652-2.291,1.824a22.368,22.368,0,0,0-7.189,11.8c-.405,1.762-.485,2.872-.573,2.863a2.766,2.766,0,0,1,0-.793,13.857,13.857,0,0,1,.264-2.141,20.563,20.563,0,0,1,2.59-6.643,20.2,20.2,0,0,1,4.713-5.33,15.04,15.04,0,0,1,1.762-1.225,2.644,2.644,0,0,1,.722-.352Z" transform="translate(-59.77 -295.333)"/><path class="f" d="M137.332,406.63c0,.079-1.013.511-2.572,1.418a25.778,25.778,0,0,0-9.691,9.982c-.881,1.595-1.26,2.643-1.339,2.643a2.705,2.705,0,0,1,.211-.766,17.708,17.708,0,0,1,.881-2,22.976,22.976,0,0,1,9.823-10.123,15.5,15.5,0,0,1,1.973-.881,2.646,2.646,0,0,1,.714-.273Z" transform="translate(-60.079 -297.724)"/><path class="f" d="M107.85,401.506a5.928,5.928,0,0,1,2.211,0,13.549,13.549,0,0,1,9.021,5.339,6.449,6.449,0,0,1,1.092,1.929c-.07,0-.485-.7-1.339-1.762a15.232,15.232,0,0,0-8.81-5.215C108.7,401.594,107.85,401.585,107.85,401.506Z" transform="translate(-58.189 -297.102)"/><path class="f" d="M105.45,419.893a1.864,1.864,0,0,1,.661-.458,4.2,4.2,0,0,1,2.167-.3,9.47,9.47,0,0,1,3.075,1c1.084.52,2.273,1.1,3.48,1.762a24.042,24.042,0,0,1,5.726,4.238,13.37,13.37,0,0,1,1.374,1.683,2.644,2.644,0,0,1,.388.687c-.07.053-.687-.881-1.991-2.141a27.671,27.671,0,0,0-5.718-4.07c-1.2-.67-2.379-1.26-3.445-1.762a9.963,9.963,0,0,0-2.934-1.066A4.687,4.687,0,0,0,105.45,419.893Z" transform="translate(-57.903 -299.208)"/><path class="f" d="M106.922,384a30.1,30.1,0,0,0-7.154,2.326,29.952,29.952,0,0,0-6.079,4.4,6.994,6.994,0,0,1,1.454-1.7,18.9,18.9,0,0,1,9.55-4.872A7.224,7.224,0,0,1,106.922,384Z" transform="translate(-56.503 -295.027)"/><path class="f" d="M108.019,381.954a6.105,6.105,0,0,1-.969-1.515,26.429,26.429,0,0,1-1.7-3.973,26.114,26.114,0,0,1-1.04-4.194,5.735,5.735,0,0,1-.132-1.762c.141,0,.537,2.643,1.6,5.841S108.142,381.884,108.019,381.954Z" transform="translate(-57.749 -293.425)"/><path class="f" d="M105.265,356.029a47.241,47.241,0,0,0-6.237-2.4,45.672,45.672,0,0,0-6.607-1,6.053,6.053,0,0,1,1.973-.132,20.667,20.667,0,0,1,4.749.7,21.061,21.061,0,0,1,4.458,1.762A6.872,6.872,0,0,1,105.265,356.029Z" transform="translate(-56.352 -291.278)"/><path class="f" d="M115.348,327.52a15.737,15.737,0,0,1-1.929,1.48c-1.2.881-2.828,2.167-4.519,3.7s-3.11,3.031-4.114,4.141a14.976,14.976,0,0,1-1.665,1.762,10.573,10.573,0,0,1,1.418-1.982,39.424,39.424,0,0,1,8.7-7.929,11.077,11.077,0,0,1,2.114-1.172Z" transform="translate(-57.626 -288.309)"/><path class="f" d="M100.958,337.592a21.4,21.4,0,0,1-2.114-1.172,34.86,34.86,0,0,0-10.678-3.815,15.98,15.98,0,0,1-2.326-.449,9.041,9.041,0,0,1,2.379.132A27.47,27.47,0,0,1,99,336.138,8.889,8.889,0,0,1,100.958,337.592Z" transform="translate(-55.569 -288.858)"/><path class="f" d="M107.943,313.4c.106.1-1.841,2.07-3.85,4.8s-3.33,5.171-3.453,5.1a6.361,6.361,0,0,1,.74-1.665,29.426,29.426,0,0,1,2.352-3.7,30.554,30.554,0,0,1,2.846-3.348,6.22,6.22,0,0,1,1.366-1.189Z" transform="translate(-57.331 -286.629)"/><path class="f" d="M99.06,317.2a15.249,15.249,0,0,1-1.066-1.586,23.68,23.68,0,0,0-3-3.462c-1.3-1.242-2.581-2.273-3.524-3.031a8.459,8.459,0,0,1-1.436-1.286,7.77,7.77,0,0,1,1.665,1.022,34.527,34.527,0,0,1,3.612,2.951,17.559,17.559,0,0,1,2.96,3.621,5.286,5.286,0,0,1,.793,1.771Z" transform="translate(-56.068 -285.967)"/><path class="f" d="M92.144,370.53a38.921,38.921,0,0,0-5.841,2.247A40.858,40.858,0,0,0,81.14,376.3a5.894,5.894,0,0,1,1.26-1.374,18.3,18.3,0,0,1,7.929-4.149,5.718,5.718,0,0,1,1.815-.247Z" transform="translate(-55.01 -293.427)"/><path class="f" d="M70.515,362.741c0,.141-2.784.308-6.088,1.2s-5.806,2.123-5.867,2a6.035,6.035,0,0,1,1.586-.925,25.387,25.387,0,0,1,4.167-1.515,24.758,24.758,0,0,1,4.4-.766,6.447,6.447,0,0,1,1.8.009Z" transform="translate(-52.323 -292.493)"/><path class="f" d="M78.1,363.352a14.1,14.1,0,0,1-1.965-3.083A15.1,15.1,0,0,1,74.58,357a14.775,14.775,0,0,1,1.965,3.083,15.3,15.3,0,0,1,1.559,3.268Z" transform="translate(-54.229 -291.817)"/><g class="l" transform="translate(27.881 67.733)"><path d="M85.535,365.635a8.334,8.334,0,0,1-2.3-3.762,1.894,1.894,0,0,1,.053-1.392,1.436,1.436,0,0,1,1.665-.493,3.956,3.956,0,0,1,1.48,1.11,44.8,44.8,0,0,1,4.986,7.312" transform="translate(-83.128 -359.895)"/></g><path class="k" d="M102.48,435.71h39.31v16.9a19.655,19.655,0,0,1-19.655,19.655h0a19.655,19.655,0,0,1-19.655-19.655Z" transform="translate(-57.55 -301.185)"/><path class="f" d="M141.755,448.829a11.036,11.036,0,0,1-1.524-.458c-.978-.308-2.379-.793-4.149-1.225a19.444,19.444,0,0,0-6.317-.634,13.524,13.524,0,0,0-3.647.828c-1.225.449-2.458,1.031-3.762,1.559a14.878,14.878,0,0,1-3.982,1.119,12.334,12.334,0,0,1-3.85-.255c-2.4-.537-4.4-1.392-6.167-1.929a18.5,18.5,0,0,0-4.211-.881h-1.172a1.347,1.347,0,0,1-.414,0,1.427,1.427,0,0,1,.414-.062,6.271,6.271,0,0,1,1.181-.053,16.88,16.88,0,0,1,4.3.784c1.762.5,3.806,1.322,6.167,1.824a11.813,11.813,0,0,0,3.718.22,14.378,14.378,0,0,0,3.85-1.092c1.3-.52,2.537-1.1,3.788-1.559a14.235,14.235,0,0,1,3.762-.828,19.055,19.055,0,0,1,6.431.74c1.762.485,3.172,1.013,4.132,1.374l1.092.44A2.171,2.171,0,0,1,141.755,448.829Z" transform="translate(-57.559 -302.428)"/><path class="f" d="M141.755,446.147a11.049,11.049,0,0,1-1.524-.458c-.978-.317-2.379-.793-4.149-1.233a19.691,19.691,0,0,0-6.317-.634,13.885,13.885,0,0,0-3.647.837c-1.225.449-2.458,1.031-3.762,1.559a15.214,15.214,0,0,1-3.982,1.119,12.334,12.334,0,0,1-3.85-.264c-2.4-.537-4.4-1.383-6.167-1.929a18.924,18.924,0,0,0-4.211-.881,8.191,8.191,0,0,0-1.172,0h-.414a1.225,1.225,0,0,1,.414-.07,6.425,6.425,0,0,1,1.181-.044,16.411,16.411,0,0,1,4.3.775c1.762.511,3.806,1.33,6.167,1.824a11.814,11.814,0,0,0,3.718.229,15.057,15.057,0,0,0,3.85-1.092c1.3-.529,2.537-1.11,3.788-1.559a13.92,13.92,0,0,1,3.762-.837,19.514,19.514,0,0,1,6.431.74,41,41,0,0,1,4.132,1.383l1.092.44C141.632,446.068,141.764,446.129,141.755,446.147Z" transform="translate(-57.559 -302.107)"/></g></g></svg>